<svg width="197" height="108" viewBox="0 0 197 108" fill="none" xmlns="http://www.w3.org/2000/svg">
<rect x="0.5" y="0.5" width="196" height="107" rx="9.5" stroke="#CBE1FF" stroke-opacity="0.3"/>
<path d="M18 58L18 89" stroke="#CBE1FF" stroke-width="2"/>
<path d="M28 29L28 89" stroke="#CBE1FF" stroke-width="2"/>
<path d="M38 58L38 89" stroke="#CBE1FF" stroke-width="2"/>
<path d="M48 47L48 89" stroke="#CBE1FF" stroke-width="2"/>
<path d="M58 29L58 89" stroke="#CBE1FF" stroke-width="2"/>
<path d="M68 58L68 89" stroke="#CBE1FF" stroke-width="2"/>
<path d="M78 64L78 89" stroke="#CBE1FF" stroke-width="2"/>
<path d="M88 38L88 89" stroke="#CBE1FF" stroke-width="2"/>
<path d="M98 70L98 89" stroke="#CBE1FF" stroke-width="3"/>
<path d="M108 38L108 89" stroke="#CBE1FF" stroke-width="3"/>
<path d="M118 19L118 89" stroke="#CBE1FF" stroke-width="3"/>
<path d="M128 58L128 89" stroke="#CBE1FF" stroke-width="3"/>
<path d="M138 38L138 89" stroke="#CBE1FF" stroke-width="3"/>
<path d="M148 47L148 89" stroke="#CBE1FF" stroke-width="3"/>
<path d="M158 23L158 89" stroke="#CBE1FF" stroke-width="3"/>
<path d="M168 38L168 89" stroke="#CBE1FF" stroke-width="3"/>
<path d="M178 34L178 89" stroke="#CBE1FF" stroke-width="3"/>
</svg>
