<svg width="202" height="56" viewBox="0 0 202 56" fill="none" xmlns="http://www.w3.org/2000/svg">
<rect width="202" height="56" rx="28" fill="#9AB2D0"/>
<g filter="url(#filter0_d_681_21)">
<rect x="15" y="9" width="38" height="38" rx="19" fill="#005AB1" shape-rendering="crispEdges"/>
<path d="M30.75 38.5625H37.25M35.625 23.125L33.1875 25.5625L34.8125 27.1875L32.375 29.625M42.125 25.5625V27.1875C42.125 28.4875 41.0411 29.8964 40.5 30.4375L38.0625 32.875L37.25 35.3125H30.75L29.9375 32.875L27.5 30.4375C26.9589 29.8964 25.875 28.4875 25.875 27.1875V25.5625C25.875 23.4076 26.731 21.341 28.2548 19.8173C29.7785 18.2935 31.8451 17.4375 34 17.4375C36.1549 17.4375 38.2215 18.2935 39.7452 19.8173C41.269 21.341 42.125 23.4076 42.125 25.5625Z" stroke="#CBE1FF"/>
</g>
<path d="M62.0387 25V15.5455H65.4087C66.1443 15.5455 66.7537 15.6793 67.2369 15.9471C67.7201 16.2148 68.0817 16.5811 68.3217 17.0458C68.5618 17.5075 68.6818 18.0276 68.6818 18.6062C68.6818 19.1879 68.5603 19.7111 68.3171 20.1758C68.0771 20.6374 67.7139 21.0037 67.2276 21.2745C66.7444 21.5423 66.1366 21.6761 65.4041 21.6761H63.0866V20.4666H65.2749C65.7396 20.4666 66.1166 20.3866 66.4059 20.2266C66.6952 20.0634 66.9076 19.8419 67.043 19.5618C67.1784 19.2817 67.2461 18.9632 67.2461 18.6062C67.2461 18.2492 67.1784 17.9322 67.043 17.6552C66.9076 17.3782 66.6937 17.1612 66.4013 17.0043C66.112 16.8473 65.7304 16.7688 65.2564 16.7688H63.4652V25H62.0387ZM73.1413 25.1431C72.4766 25.1431 71.8964 24.9908 71.4009 24.6861C70.9054 24.3814 70.5207 23.9551 70.2468 23.4073C69.9729 22.8595 69.8359 22.2193 69.8359 21.4869C69.8359 20.7513 69.9729 20.1081 70.2468 19.5572C70.5207 19.0063 70.9054 18.5785 71.4009 18.2738C71.8964 17.9691 72.4766 17.8168 73.1413 17.8168C73.8061 17.8168 74.3862 17.9691 74.8817 18.2738C75.3772 18.5785 75.762 19.0063 76.0359 19.5572C76.3098 20.1081 76.4467 20.7513 76.4467 21.4869C76.4467 22.2193 76.3098 22.8595 76.0359 23.4073C75.762 23.9551 75.3772 24.3814 74.8817 24.6861C74.3862 24.9908 73.8061 25.1431 73.1413 25.1431ZM73.146 23.9844C73.5768 23.9844 73.9338 23.8705 74.217 23.6428C74.5001 23.415 74.7094 23.1119 74.8448 22.7333C74.9833 22.3548 75.0526 21.9377 75.0526 21.4822C75.0526 21.0298 74.9833 20.6143 74.8448 20.2358C74.7094 19.8542 74.5001 19.5479 74.217 19.3171C73.9338 19.0863 73.5768 18.9709 73.146 18.9709C72.712 18.9709 72.3519 19.0863 72.0657 19.3171C71.7826 19.5479 71.5717 19.8542 71.4332 20.2358C71.2978 20.6143 71.2301 21.0298 71.2301 21.4822C71.2301 21.9377 71.2978 22.3548 71.4332 22.7333C71.5717 23.1119 71.7826 23.415 72.0657 23.6428C72.3519 23.8705 72.712 23.9844 73.146 23.9844ZM79.3089 25L77.2223 17.9091H78.6488L80.0384 23.1165H80.1076L81.5018 17.9091H82.9283L84.3132 23.0934H84.3825L85.7628 17.9091H87.1893L85.1072 25H83.6992L82.2589 19.8803H82.1527L80.7124 25H79.3089ZM91.3395 25.1431C90.6409 25.1431 90.0392 24.9938 89.5344 24.6953C89.0328 24.3937 88.645 23.9705 88.3711 23.4258C88.1003 22.878 87.9648 22.2363 87.9648 21.5007C87.9648 20.7744 88.1003 20.1342 88.3711 19.5803C88.645 19.0263 89.0266 18.5939 89.516 18.283C90.0084 17.9722 90.5839 17.8168 91.2425 17.8168C91.6426 17.8168 92.0304 17.8829 92.4059 18.0153C92.7814 18.1476 93.1184 18.3554 93.4169 18.6385C93.7154 18.9216 93.9509 19.2894 94.1232 19.7418C94.2956 20.1912 94.3817 20.7375 94.3817 21.3807V21.87H88.745V20.8359H93.0291C93.0291 20.4728 92.9553 20.1512 92.8075 19.8711C92.6598 19.5879 92.4521 19.3648 92.1843 19.2017C91.9196 19.0386 91.6088 18.957 91.2518 18.957C90.864 18.957 90.5254 19.0524 90.2362 19.2433C89.9499 19.431 89.7283 19.6772 89.5714 19.9819C89.4175 20.2835 89.3406 20.6113 89.3406 20.9652V21.7731C89.3406 22.247 89.4237 22.6502 89.5898 22.9826C89.7591 23.315 89.9946 23.5689 90.2962 23.7443C90.5978 23.9167 90.9502 24.0028 91.3533 24.0028C91.6149 24.0028 91.8535 23.9659 92.0689 23.892C92.2843 23.8151 92.4705 23.7012 92.6275 23.5504C92.7844 23.3996 92.9045 23.2134 92.9876 22.9918L94.294 23.2273C94.1894 23.612 94.0017 23.949 93.7308 24.2383C93.4631 24.5245 93.1261 24.7476 92.7198 24.9077C92.3166 25.0646 91.8565 25.1431 91.3395 25.1431ZM95.9133 25V17.9091H97.2474V19.0355H97.3213C97.4506 18.6539 97.6783 18.3538 98.0045 18.1353C98.3338 17.9137 98.7062 17.8029 99.1217 17.8029C99.2079 17.8029 99.3095 17.806 99.4264 17.8121C99.5464 17.8183 99.6403 17.826 99.708 17.8352V19.1555C99.6526 19.1402 99.5541 19.1232 99.4126 19.1048C99.271 19.0832 99.1294 19.0724 98.9878 19.0724C98.6616 19.0724 98.3708 19.1417 98.1153 19.2802C97.863 19.4156 97.6629 19.6049 97.5152 19.848C97.3675 20.0881 97.2936 20.362 97.2936 20.6697V25H95.9133ZM100.903 25V17.9091H102.283V25H100.903ZM101.6 16.815C101.36 16.815 101.153 16.735 100.981 16.5749C100.812 16.4118 100.727 16.2179 100.727 15.9933C100.727 15.7655 100.812 15.5716 100.981 15.4116C101.153 15.2485 101.36 15.1669 101.6 15.1669C101.84 15.1669 102.044 15.2485 102.214 15.4116C102.386 15.5716 102.472 15.7655 102.472 15.9933C102.472 16.2179 102.386 16.4118 102.214 16.5749C102.044 16.735 101.84 16.815 101.6 16.815ZM105.52 20.7898V25H104.14V17.9091H105.465V19.0632H105.552C105.716 18.6877 105.971 18.3861 106.319 18.1584C106.67 17.9306 107.111 17.8168 107.644 17.8168C108.127 17.8168 108.55 17.9183 108.913 18.1214C109.276 18.3215 109.558 18.62 109.758 19.017C109.958 19.4141 110.058 19.9049 110.058 20.4897V25H108.678V20.6559C108.678 20.1419 108.544 19.7403 108.276 19.451C108.008 19.1586 107.641 19.0124 107.173 19.0124C106.853 19.0124 106.568 19.0817 106.319 19.2202C106.073 19.3587 105.877 19.5618 105.733 19.8295C105.591 20.0942 105.52 20.4143 105.52 20.7898ZM114.882 27.8068C114.319 27.8068 113.834 27.733 113.428 27.5852C113.025 27.4375 112.696 27.2421 112.44 26.9989C112.185 26.7558 111.994 26.4896 111.868 26.2003L113.054 25.7109C113.137 25.8464 113.248 25.9895 113.387 26.1403C113.528 26.2942 113.719 26.425 113.959 26.5327C114.202 26.6404 114.515 26.6942 114.896 26.6942C115.419 26.6942 115.852 26.5665 116.193 26.3111C116.535 26.0587 116.706 25.6555 116.706 25.1016V23.7074H116.618C116.535 23.8582 116.415 24.0259 116.258 24.2106C116.104 24.3952 115.892 24.5553 115.621 24.6907C115.35 24.8261 114.998 24.8938 114.564 24.8938C114.004 24.8938 113.499 24.763 113.05 24.5014C112.603 24.2367 112.249 23.8474 111.988 23.3335C111.729 22.8164 111.6 22.1809 111.6 21.4268C111.6 20.6728 111.728 20.0265 111.983 19.4879C112.242 18.9493 112.596 18.5369 113.045 18.2507C113.494 17.9614 114.004 17.8168 114.573 17.8168C115.013 17.8168 115.369 17.8906 115.639 18.0384C115.91 18.183 116.121 18.3523 116.272 18.5462C116.426 18.7401 116.544 18.9109 116.627 19.0586H116.729V17.9091H118.082V25.157C118.082 25.7663 117.94 26.2665 117.657 26.6573C117.374 27.0482 116.991 27.3375 116.507 27.5252C116.027 27.7129 115.486 27.8068 114.882 27.8068ZM114.869 23.7489C115.266 23.7489 115.601 23.6566 115.875 23.4719C116.152 23.2842 116.361 23.0165 116.503 22.6687C116.647 22.3178 116.72 21.8977 116.72 21.4084C116.72 20.9313 116.649 20.5112 116.507 20.1481C116.366 19.7849 116.158 19.5018 115.884 19.2987C115.61 19.0924 115.272 18.9893 114.869 18.9893C114.453 18.9893 114.107 19.0971 113.83 19.3125C113.553 19.5249 113.344 19.8142 113.202 20.1804C113.063 20.5466 112.994 20.956 112.994 21.4084C112.994 21.8731 113.065 22.2809 113.207 22.6317C113.348 22.9826 113.557 23.2565 113.834 23.4535C114.114 23.6504 114.459 23.7489 114.869 23.7489ZM123.484 25V15.5455H126.854C127.59 15.5455 128.199 15.6793 128.682 15.9471C129.165 16.2148 129.527 16.5811 129.767 17.0458C130.007 17.5075 130.127 18.0276 130.127 18.6062C130.127 19.1879 130.006 19.7111 129.762 20.1758C129.522 20.6374 129.159 21.0037 128.673 21.2745C128.19 21.5423 127.582 21.6761 126.849 21.6761H124.532V20.4666H126.72C127.185 20.4666 127.562 20.3866 127.851 20.2266C128.141 20.0634 128.353 19.8419 128.488 19.5618C128.624 19.2817 128.691 18.9632 128.691 18.6062C128.691 18.2492 128.624 17.9322 128.488 17.6552C128.353 17.3782 128.139 17.1612 127.847 17.0043C127.557 16.8473 127.176 16.7688 126.702 16.7688H124.911V25H123.484ZM131.689 25V17.9091H133.023V19.0355H133.097C133.226 18.6539 133.454 18.3538 133.78 18.1353C134.109 17.9137 134.482 17.8029 134.897 17.8029C134.983 17.8029 135.085 17.806 135.202 17.8121C135.322 17.8183 135.416 17.826 135.483 17.8352V19.1555C135.428 19.1402 135.33 19.1232 135.188 19.1048C135.046 19.0832 134.905 19.0724 134.763 19.0724C134.437 19.0724 134.146 19.1417 133.891 19.2802C133.638 19.4156 133.438 19.6049 133.291 19.848C133.143 20.0881 133.069 20.362 133.069 20.6697V25H131.689ZM139.411 25.1431C138.746 25.1431 138.166 24.9908 137.67 24.6861C137.175 24.3814 136.79 23.9551 136.516 23.4073C136.242 22.8595 136.105 22.2193 136.105 21.4869C136.105 20.7513 136.242 20.1081 136.516 19.5572C136.79 19.0063 137.175 18.5785 137.67 18.2738C138.166 17.9691 138.746 17.8168 139.411 17.8168C140.076 17.8168 140.656 17.9691 141.151 18.2738C141.647 18.5785 142.031 19.0063 142.305 19.5572C142.579 20.1081 142.716 20.7513 142.716 21.4869C142.716 22.2193 142.579 22.8595 142.305 23.4073C142.031 23.9551 141.647 24.3814 141.151 24.6861C140.656 24.9908 140.076 25.1431 139.411 25.1431ZM139.415 23.9844C139.846 23.9844 140.203 23.8705 140.487 23.6428C140.77 23.415 140.979 23.1119 141.114 22.7333C141.253 22.3548 141.322 21.9377 141.322 21.4822C141.322 21.0298 141.253 20.6143 141.114 20.2358C140.979 19.8542 140.77 19.5479 140.487 19.3171C140.203 19.0863 139.846 18.9709 139.415 18.9709C138.982 18.9709 138.621 19.0863 138.335 19.3171C138.052 19.5479 137.841 19.8542 137.703 20.2358C137.567 20.6143 137.5 21.0298 137.5 21.4822C137.5 21.9377 137.567 22.3548 137.703 22.7333C137.841 23.1119 138.052 23.415 138.335 23.6428C138.621 23.8705 138.982 23.9844 139.415 23.9844ZM147.23 27.8068C146.667 27.8068 146.182 27.733 145.776 27.5852C145.373 27.4375 145.043 27.2421 144.788 26.9989C144.532 26.7558 144.342 26.4896 144.215 26.2003L145.402 25.7109C145.485 25.8464 145.596 25.9895 145.734 26.1403C145.876 26.2942 146.067 26.425 146.307 26.5327C146.55 26.6404 146.862 26.6942 147.244 26.6942C147.767 26.6942 148.199 26.5665 148.541 26.3111C148.883 26.0587 149.054 25.6555 149.054 25.1016V23.7074H148.966C148.883 23.8582 148.763 24.0259 148.606 24.2106C148.452 24.3952 148.239 24.5553 147.969 24.6907C147.698 24.8261 147.345 24.8938 146.911 24.8938C146.351 24.8938 145.847 24.763 145.397 24.5014C144.951 24.2367 144.597 23.8474 144.335 23.3335C144.077 22.8164 143.948 22.1809 143.948 21.4268C143.948 20.6728 144.075 20.0265 144.331 19.4879C144.589 18.9493 144.943 18.5369 145.393 18.2507C145.842 17.9614 146.351 17.8168 146.921 17.8168C147.361 17.8168 147.716 17.8906 147.987 18.0384C148.258 18.183 148.469 18.3523 148.62 18.5462C148.773 18.7401 148.892 18.9109 148.975 19.0586H149.077V17.9091H150.429V25.157C150.429 25.7663 150.288 26.2665 150.005 26.6573C149.721 27.0482 149.338 27.3375 148.855 27.5252C148.375 27.7129 147.833 27.8068 147.23 27.8068ZM147.216 23.7489C147.613 23.7489 147.949 23.6566 148.223 23.4719C148.5 23.2842 148.709 23.0165 148.85 22.6687C148.995 22.3178 149.067 21.8977 149.067 21.4084C149.067 20.9313 148.997 20.5112 148.855 20.1481C148.713 19.7849 148.506 19.5018 148.232 19.2987C147.958 19.0924 147.619 18.9893 147.216 18.9893C146.801 18.9893 146.454 19.0971 146.177 19.3125C145.9 19.5249 145.691 19.8142 145.55 20.1804C145.411 20.5466 145.342 20.956 145.342 21.4084C145.342 21.8731 145.413 22.2809 145.554 22.6317C145.696 22.9826 145.905 23.2565 146.182 23.4535C146.462 23.6504 146.807 23.7489 147.216 23.7489ZM152.28 25V17.9091H153.615V19.0355H153.688C153.818 18.6539 154.045 18.3538 154.372 18.1353C154.701 17.9137 155.073 17.8029 155.489 17.8029C155.575 17.8029 155.677 17.806 155.794 17.8121C155.914 17.8183 156.007 17.826 156.075 17.8352V19.1555C156.02 19.1402 155.921 19.1232 155.78 19.1048C155.638 19.0832 155.497 19.0724 155.355 19.0724C155.029 19.0724 154.738 19.1417 154.483 19.2802C154.23 19.4156 154.03 19.6049 153.882 19.848C153.735 20.0881 153.661 20.362 153.661 20.6697V25H152.28ZM160.072 25.1431C159.373 25.1431 158.772 24.9938 158.267 24.6953C157.765 24.3937 157.377 23.9705 157.104 23.4258C156.833 22.878 156.697 22.2363 156.697 21.5007C156.697 20.7744 156.833 20.1342 157.104 19.5803C157.377 19.0263 157.759 18.5939 158.248 18.283C158.741 17.9722 159.316 17.8168 159.975 17.8168C160.375 17.8168 160.763 17.8829 161.138 18.0153C161.514 18.1476 161.851 18.3554 162.149 18.6385C162.448 18.9216 162.683 19.2894 162.856 19.7418C163.028 20.1912 163.114 20.7375 163.114 21.3807V21.87H157.477V20.8359H161.762C161.762 20.4728 161.688 20.1512 161.54 19.8711C161.392 19.5879 161.184 19.3648 160.917 19.2017C160.652 19.0386 160.341 18.957 159.984 18.957C159.596 18.957 159.258 19.0524 158.969 19.2433C158.682 19.431 158.461 19.6772 158.304 19.9819C158.15 20.2835 158.073 20.6113 158.073 20.9652V21.7731C158.073 22.247 158.156 22.6502 158.322 22.9826C158.492 23.315 158.727 23.5689 159.029 23.7443C159.33 23.9167 159.683 24.0028 160.086 24.0028C160.347 24.0028 160.586 23.9659 160.801 23.892C161.017 23.8151 161.203 23.7012 161.36 23.5504C161.517 23.3996 161.637 23.2134 161.72 22.9918L163.026 23.2273C162.922 23.612 162.734 23.949 162.463 24.2383C162.195 24.5245 161.858 24.7476 161.452 24.9077C161.049 25.0646 160.589 25.1431 160.072 25.1431ZM169.959 19.6403L168.708 19.8619C168.656 19.7018 168.573 19.5495 168.459 19.4048C168.348 19.2602 168.197 19.1417 168.006 19.0494C167.816 18.957 167.577 18.9109 167.291 18.9109C166.9 18.9109 166.574 18.9986 166.312 19.174C166.051 19.3464 165.92 19.5695 165.92 19.8434C165.92 20.0804 166.008 20.2712 166.183 20.4158C166.358 20.5605 166.642 20.679 167.032 20.7713L168.159 21.0298C168.811 21.1806 169.298 21.413 169.618 21.7269C169.938 22.0408 170.098 22.4486 170.098 22.9503C170.098 23.375 169.975 23.7536 169.728 24.0859C169.485 24.4152 169.145 24.6738 168.708 24.8615C168.274 25.0492 167.771 25.1431 167.199 25.1431C166.405 25.1431 165.757 24.9738 165.255 24.6353C164.753 24.2937 164.446 23.8089 164.332 23.1811L165.666 22.978C165.749 23.3258 165.92 23.5889 166.178 23.7674C166.437 23.9428 166.774 24.0305 167.189 24.0305C167.642 24.0305 168.003 23.9367 168.274 23.7489C168.545 23.5581 168.68 23.3258 168.68 23.0518C168.68 22.8303 168.597 22.6441 168.431 22.4933C168.268 22.3424 168.017 22.2286 167.679 22.1516L166.478 21.8885C165.817 21.7377 165.327 21.4976 165.01 21.1683C164.696 20.839 164.54 20.422 164.54 19.9173C164.54 19.4987 164.656 19.1325 164.89 18.8185C165.124 18.5046 165.447 18.2599 165.86 18.0845C166.272 17.906 166.745 17.8168 167.277 17.8168C168.043 17.8168 168.647 17.983 169.087 18.3153C169.527 18.6446 169.818 19.0863 169.959 19.6403ZM176.929 19.6403L175.678 19.8619C175.626 19.7018 175.542 19.5495 175.429 19.4048C175.318 19.2602 175.167 19.1417 174.976 19.0494C174.785 18.957 174.547 18.9109 174.261 18.9109C173.87 18.9109 173.544 18.9986 173.282 19.174C173.02 19.3464 172.89 19.5695 172.89 19.8434C172.89 20.0804 172.977 20.2712 173.153 20.4158C173.328 20.5605 173.611 20.679 174.002 20.7713L175.129 21.0298C175.781 21.1806 176.267 21.413 176.587 21.7269C176.907 22.0408 177.067 22.4486 177.067 22.9503C177.067 23.375 176.944 23.7536 176.698 24.0859C176.455 24.4152 176.115 24.6738 175.678 24.8615C175.244 25.0492 174.741 25.1431 174.168 25.1431C173.374 25.1431 172.726 24.9738 172.225 24.6353C171.723 24.2937 171.415 23.8089 171.301 23.1811L172.636 22.978C172.719 23.3258 172.89 23.5889 173.148 23.7674C173.407 23.9428 173.744 24.0305 174.159 24.0305C174.612 24.0305 174.973 23.9367 175.244 23.7489C175.515 23.5581 175.65 23.3258 175.65 23.0518C175.65 22.8303 175.567 22.6441 175.401 22.4933C175.238 22.3424 174.987 22.2286 174.648 22.1516L173.448 21.8885C172.786 21.7377 172.297 21.4976 171.98 21.1683C171.666 20.839 171.509 20.422 171.509 19.9173C171.509 19.4987 171.626 19.1325 171.86 18.8185C172.094 18.5046 172.417 18.2599 172.83 18.0845C173.242 17.906 173.714 17.8168 174.247 17.8168C175.013 17.8168 175.616 17.983 176.056 18.3153C176.497 18.6446 176.787 19.0863 176.929 19.6403ZM61.5724 32.7734V31.5455H68.8896V32.7734H65.9396V41H64.5178V32.7734H61.5724ZM71.776 36.7898V41H70.3957V31.5455H71.7575V35.0632H71.8453C72.0115 34.6816 72.2654 34.3784 72.607 34.1538C72.9486 33.9291 73.3949 33.8168 73.9458 33.8168C74.432 33.8168 74.8567 33.9168 75.2199 34.1168C75.5861 34.3169 75.8693 34.6154 76.0693 35.0124C76.2725 35.4064 76.374 35.8988 76.374 36.4897V41H74.9937V36.6559C74.9937 36.1358 74.8598 35.7326 74.5921 35.4464C74.3243 35.1571 73.9519 35.0124 73.4749 35.0124C73.1486 35.0124 72.8563 35.0817 72.5977 35.2202C72.3423 35.3587 72.1407 35.5618 71.993 35.8295C71.8483 36.0942 71.776 36.4143 71.776 36.7898ZM78.216 41V33.9091H79.5502V35.0355H79.624C79.7533 34.6539 79.981 34.3538 80.3073 34.1353C80.6366 33.9137 81.009 33.8029 81.4244 33.8029C81.5106 33.8029 81.6122 33.806 81.7291 33.8121C81.8492 33.8183 81.943 33.826 82.0107 33.8352V35.1555C81.9553 35.1402 81.8569 35.1232 81.7153 35.1048C81.5737 35.0832 81.4321 35.0724 81.2906 35.0724C80.9643 35.0724 80.6735 35.1417 80.4181 35.2802C80.1657 35.4156 79.9656 35.6049 79.8179 35.848C79.6702 36.0881 79.5963 36.362 79.5963 36.6697V41H78.216ZM85.9382 41.1431C85.2734 41.1431 84.6933 40.9908 84.1978 40.6861C83.7023 40.3814 83.3176 39.9551 83.0437 39.4073C82.7698 38.8595 82.6328 38.2193 82.6328 37.4869C82.6328 36.7513 82.7698 36.1081 83.0437 35.5572C83.3176 35.0063 83.7023 34.5785 84.1978 34.2738C84.6933 33.9691 85.2734 33.8168 85.9382 33.8168C86.603 33.8168 87.1831 33.9691 87.6786 34.2738C88.1741 34.5785 88.5588 35.0063 88.8327 35.5572C89.1067 36.1081 89.2436 36.7513 89.2436 37.4869C89.2436 38.2193 89.1067 38.8595 88.8327 39.4073C88.5588 39.9551 88.1741 40.3814 87.6786 40.6861C87.1831 40.9908 86.603 41.1431 85.9382 41.1431ZM85.9428 39.9844C86.3737 39.9844 86.7307 39.8705 87.0138 39.6428C87.297 39.415 87.5063 39.1119 87.6417 38.7333C87.7802 38.3548 87.8494 37.9377 87.8494 37.4822C87.8494 37.0298 87.7802 36.6143 87.6417 36.2358C87.5063 35.8542 87.297 35.5479 87.0138 35.3171C86.7307 35.0863 86.3737 34.9709 85.9428 34.9709C85.5089 34.9709 85.1488 35.0863 84.8626 35.3171C84.5794 35.5479 84.3686 35.8542 84.2301 36.2358C84.0947 36.6143 84.027 37.0298 84.027 37.4822C84.027 37.9377 84.0947 38.3548 84.2301 38.7333C84.3686 39.1119 84.5794 39.415 84.8626 39.6428C85.1488 39.8705 85.5089 39.9844 85.9428 39.9844ZM95.2762 38.0593V33.9091H96.6611V41H95.3039V39.772H95.23C95.0669 40.1506 94.8053 40.466 94.4452 40.7184C94.0882 40.9677 93.6435 41.0923 93.1111 41.0923C92.6556 41.0923 92.2524 40.9923 91.9015 40.7923C91.5538 40.5891 91.2799 40.2891 91.0798 39.892C90.8828 39.495 90.7844 39.0041 90.7844 38.4194V33.9091H92.1647V38.2532C92.1647 38.7364 92.2986 39.1211 92.5663 39.4073C92.8341 39.6935 93.1818 39.8366 93.6096 39.8366C93.8682 39.8366 94.1251 39.772 94.3806 39.6428C94.6391 39.5135 94.853 39.3181 95.0223 39.0565C95.1946 38.7949 95.2793 38.4625 95.2762 38.0593ZM101.489 43.8068C100.926 43.8068 100.441 43.733 100.035 43.5852C99.6315 43.4375 99.3021 43.2421 99.0467 42.9989C98.7913 42.7558 98.6004 42.4896 98.4743 42.2003L99.6607 41.7109C99.7438 41.8464 99.8546 41.9895 99.9931 42.1403C100.135 42.2942 100.325 42.425 100.566 42.5327C100.809 42.6404 101.121 42.6942 101.503 42.6942C102.026 42.6942 102.458 42.5665 102.8 42.3111C103.142 42.0587 103.312 41.6555 103.312 41.1016V39.7074H103.225C103.142 39.8582 103.021 40.0259 102.865 40.2106C102.711 40.3952 102.498 40.5553 102.227 40.6907C101.957 40.8261 101.604 40.8938 101.17 40.8938C100.61 40.8938 100.105 40.763 99.6561 40.5014C99.2098 40.2367 98.8559 39.8474 98.5943 39.3335C98.3358 38.8164 98.2065 38.1809 98.2065 37.4268C98.2065 36.6728 98.3342 36.0265 98.5897 35.4879C98.8482 34.9493 99.2021 34.5369 99.6515 34.2507C100.101 33.9614 100.61 33.8168 101.18 33.8168C101.62 33.8168 101.975 33.8906 102.246 34.0384C102.517 34.183 102.728 34.3523 102.878 34.5462C103.032 34.7401 103.151 34.9109 103.234 35.0586H103.335V33.9091H104.688V41.157C104.688 41.7663 104.546 42.2665 104.263 42.6573C103.98 43.0482 103.597 43.3375 103.114 43.5252C102.634 43.7129 102.092 43.8068 101.489 43.8068ZM101.475 39.7489C101.872 39.7489 102.207 39.6566 102.481 39.4719C102.758 39.2842 102.968 39.0165 103.109 38.6687C103.254 38.3178 103.326 37.8977 103.326 37.4084C103.326 36.9313 103.255 36.5112 103.114 36.1481C102.972 35.7849 102.765 35.5018 102.491 35.2987C102.217 35.0924 101.878 34.9893 101.475 34.9893C101.059 34.9893 100.713 35.0971 100.436 35.3125C100.159 35.5249 99.95 35.8142 99.8084 36.1804C99.6699 36.5466 99.6007 36.956 99.6007 37.4084C99.6007 37.8731 99.6715 38.2809 99.813 38.6317C99.9546 38.9826 100.164 39.2565 100.441 39.4535C100.721 39.6504 101.066 39.7489 101.475 39.7489ZM107.92 36.7898V41H106.539V31.5455H107.901V35.0632H107.989C108.155 34.6816 108.409 34.3784 108.751 34.1538C109.092 33.9291 109.538 33.8168 110.089 33.8168C110.576 33.8168 111 33.9168 111.363 34.1168C111.73 34.3169 112.013 34.6154 112.213 35.0124C112.416 35.4064 112.518 35.8988 112.518 36.4897V41H111.137V36.6559C111.137 36.1358 111.003 35.7326 110.736 35.4464C110.468 35.1571 110.095 35.0124 109.618 35.0124C109.292 35.0124 109 35.0817 108.741 35.2202C108.486 35.3587 108.284 35.5618 108.137 35.8295C107.992 36.0942 107.92 36.4143 107.92 36.7898ZM119.337 31.5455V41H117.911V31.5455H119.337ZM120.948 32.7734V31.5455H128.266V32.7734H125.316V41H123.894V32.7734H120.948Z" fill="#005AB1"/>
<defs>
<filter id="filter0_d_681_21" x="11.4" y="9" width="45.2" height="45.6" filterUnits="userSpaceOnUse" color-interpolation-filters="sRGB">
<feFlood flood-opacity="0" result="BackgroundImageFix"/>
<feColorMatrix in="SourceAlpha" type="matrix" values="0 0 0 0 0 0 0 0 0 0 0 0 0 0 0 0 0 0 127 0" result="hardAlpha"/>
<feMorphology radius="3" operator="erode" in="SourceAlpha" result="effect1_dropShadow_681_21"/>
<feOffset dy="4"/>
<feGaussianBlur stdDeviation="3.3"/>
<feComposite in2="hardAlpha" operator="out"/>
<feColorMatrix type="matrix" values="0 0 0 0 0 0 0 0 0 0 0 0 0 0 0 0 0 0 0.25 0"/>
<feBlend mode="normal" in2="BackgroundImageFix" result="effect1_dropShadow_681_21"/>
<feBlend mode="normal" in="SourceGraphic" in2="effect1_dropShadow_681_21" result="shape"/>
</filter>
</defs>
</svg>
