<svg width="202" height="76" viewBox="0 0 202 76" fill="none" xmlns="http://www.w3.org/2000/svg">
<rect x="34" width="134" height="38" rx="19" fill="#73859C"/>
<rect x="24" y="6" width="154" height="44" rx="22" fill="#7A8EA7"/>
<rect x="5" y="13" width="192" height="54" rx="27" fill="#91A8C4"/>
<rect y="20" width="202" height="56" rx="28" fill="#9AB2D0"/>
<g filter="url(#filter0_d_681_22)">
<rect x="15" y="29" width="38" height="38" rx="19" fill="#005AB1" shape-rendering="crispEdges"/>
<path d="M30.75 58.5625H37.25M35.625 43.125L33.1875 45.5625L34.8125 47.1875L32.375 49.625M42.125 45.5625V47.1875C42.125 48.4875 41.0411 49.8964 40.5 50.4375L38.0625 52.875L37.25 55.3125H30.75L29.9375 52.875L27.5 50.4375C26.9589 49.8964 25.875 48.4875 25.875 47.1875V45.5625C25.875 43.4076 26.731 41.341 28.2548 39.8173C29.7785 38.2935 31.8451 37.4375 34 37.4375C36.1549 37.4375 38.2215 38.2935 39.7452 39.8173C41.269 41.341 42.125 43.4076 42.125 45.5625Z" stroke="#CBE1FF"/>
</g>
<path d="M62.0387 45V35.5455H65.4087C66.1443 35.5455 66.7537 35.6793 67.2369 35.9471C67.7201 36.2148 68.0817 36.5811 68.3217 37.0458C68.5618 37.5075 68.6818 38.0276 68.6818 38.6062C68.6818 39.1879 68.5603 39.7111 68.3171 40.1758C68.0771 40.6374 67.7139 41.0037 67.2276 41.2745C66.7444 41.5423 66.1366 41.6761 65.4041 41.6761H63.0866V40.4666H65.2749C65.7396 40.4666 66.1166 40.3866 66.4059 40.2266C66.6952 40.0634 66.9076 39.8419 67.043 39.5618C67.1784 39.2817 67.2461 38.9632 67.2461 38.6062C67.2461 38.2492 67.1784 37.9322 67.043 37.6552C66.9076 37.3782 66.6937 37.1612 66.4013 37.0043C66.112 36.8473 65.7304 36.7688 65.2564 36.7688H63.4652V45H62.0387ZM73.1413 45.1431C72.4766 45.1431 71.8964 44.9908 71.4009 44.6861C70.9054 44.3814 70.5207 43.9551 70.2468 43.4073C69.9729 42.8595 69.8359 42.2193 69.8359 41.4869C69.8359 40.7513 69.9729 40.1081 70.2468 39.5572C70.5207 39.0063 70.9054 38.5785 71.4009 38.2738C71.8964 37.9691 72.4766 37.8168 73.1413 37.8168C73.8061 37.8168 74.3862 37.9691 74.8817 38.2738C75.3772 38.5785 75.762 39.0063 76.0359 39.5572C76.3098 40.1081 76.4467 40.7513 76.4467 41.4869C76.4467 42.2193 76.3098 42.8595 76.0359 43.4073C75.762 43.9551 75.3772 44.3814 74.8817 44.6861C74.3862 44.9908 73.8061 45.1431 73.1413 45.1431ZM73.146 43.9844C73.5768 43.9844 73.9338 43.8705 74.217 43.6428C74.5001 43.415 74.7094 43.1119 74.8448 42.7333C74.9833 42.3548 75.0526 41.9377 75.0526 41.4822C75.0526 41.0298 74.9833 40.6143 74.8448 40.2358C74.7094 39.8542 74.5001 39.5479 74.217 39.3171C73.9338 39.0863 73.5768 38.9709 73.146 38.9709C72.712 38.9709 72.3519 39.0863 72.0657 39.3171C71.7826 39.5479 71.5717 39.8542 71.4332 40.2358C71.2978 40.6143 71.2301 41.0298 71.2301 41.4822C71.2301 41.9377 71.2978 42.3548 71.4332 42.7333C71.5717 43.1119 71.7826 43.415 72.0657 43.6428C72.3519 43.8705 72.712 43.9844 73.146 43.9844ZM79.3089 45L77.2223 37.9091H78.6488L80.0384 43.1165H80.1076L81.5018 37.9091H82.9283L84.3132 43.0934H84.3825L85.7628 37.9091H87.1893L85.1072 45H83.6992L82.2589 39.8803H82.1527L80.7124 45H79.3089ZM91.3395 45.1431C90.6409 45.1431 90.0392 44.9938 89.5344 44.6953C89.0328 44.3937 88.645 43.9705 88.3711 43.4258C88.1003 42.878 87.9648 42.2363 87.9648 41.5007C87.9648 40.7744 88.1003 40.1342 88.3711 39.5803C88.645 39.0263 89.0266 38.5939 89.516 38.283C90.0084 37.9722 90.5839 37.8168 91.2425 37.8168C91.6426 37.8168 92.0304 37.8829 92.4059 38.0153C92.7814 38.1476 93.1184 38.3554 93.4169 38.6385C93.7154 38.9216 93.9509 39.2894 94.1232 39.7418C94.2956 40.1912 94.3817 40.7375 94.3817 41.3807V41.87H88.745V40.8359H93.0291C93.0291 40.4728 92.9553 40.1512 92.8075 39.8711C92.6598 39.5879 92.4521 39.3648 92.1843 39.2017C91.9196 39.0386 91.6088 38.957 91.2518 38.957C90.864 38.957 90.5254 39.0524 90.2362 39.2433C89.9499 39.431 89.7283 39.6772 89.5714 39.9819C89.4175 40.2835 89.3406 40.6113 89.3406 40.9652V41.7731C89.3406 42.247 89.4237 42.6502 89.5898 42.9826C89.7591 43.315 89.9946 43.5689 90.2962 43.7443C90.5978 43.9167 90.9502 44.0028 91.3533 44.0028C91.6149 44.0028 91.8535 43.9659 92.0689 43.892C92.2843 43.8151 92.4705 43.7012 92.6275 43.5504C92.7844 43.3996 92.9045 43.2134 92.9876 42.9918L94.294 43.2273C94.1894 43.612 94.0017 43.949 93.7308 44.2383C93.4631 44.5245 93.1261 44.7476 92.7198 44.9077C92.3166 45.0646 91.8565 45.1431 91.3395 45.1431ZM95.9133 45V37.9091H97.2474V39.0355H97.3213C97.4506 38.6539 97.6783 38.3538 98.0045 38.1353C98.3338 37.9137 98.7062 37.8029 99.1217 37.8029C99.2079 37.8029 99.3095 37.806 99.4264 37.8121C99.5464 37.8183 99.6403 37.826 99.708 37.8352V39.1555C99.6526 39.1402 99.5541 39.1232 99.4126 39.1048C99.271 39.0832 99.1294 39.0724 98.9878 39.0724C98.6616 39.0724 98.3708 39.1417 98.1153 39.2802C97.863 39.4156 97.6629 39.6049 97.5152 39.848C97.3675 40.0881 97.2936 40.362 97.2936 40.6697V45H95.9133ZM100.903 45V37.9091H102.283V45H100.903ZM101.6 36.815C101.36 36.815 101.153 36.735 100.981 36.5749C100.812 36.4118 100.727 36.2179 100.727 35.9933C100.727 35.7655 100.812 35.5716 100.981 35.4116C101.153 35.2485 101.36 35.1669 101.6 35.1669C101.84 35.1669 102.044 35.2485 102.214 35.4116C102.386 35.5716 102.472 35.7655 102.472 35.9933C102.472 36.2179 102.386 36.4118 102.214 36.5749C102.044 36.735 101.84 36.815 101.6 36.815ZM105.52 40.7898V45H104.14V37.9091H105.465V39.0632H105.552C105.716 38.6877 105.971 38.3861 106.319 38.1584C106.67 37.9306 107.111 37.8168 107.644 37.8168C108.127 37.8168 108.55 37.9183 108.913 38.1214C109.276 38.3215 109.558 38.62 109.758 39.017C109.958 39.4141 110.058 39.9049 110.058 40.4897V45H108.678V40.6559C108.678 40.1419 108.544 39.7403 108.276 39.451C108.008 39.1586 107.641 39.0124 107.173 39.0124C106.853 39.0124 106.568 39.0817 106.319 39.2202C106.073 39.3587 105.877 39.5618 105.733 39.8295C105.591 40.0942 105.52 40.4143 105.52 40.7898ZM114.882 47.8068C114.319 47.8068 113.834 47.733 113.428 47.5852C113.025 47.4375 112.696 47.2421 112.44 46.9989C112.185 46.7558 111.994 46.4896 111.868 46.2003L113.054 45.7109C113.137 45.8464 113.248 45.9895 113.387 46.1403C113.528 46.2942 113.719 46.425 113.959 46.5327C114.202 46.6404 114.515 46.6942 114.896 46.6942C115.419 46.6942 115.852 46.5665 116.193 46.3111C116.535 46.0587 116.706 45.6555 116.706 45.1016V43.7074H116.618C116.535 43.8582 116.415 44.0259 116.258 44.2106C116.104 44.3952 115.892 44.5553 115.621 44.6907C115.35 44.8261 114.998 44.8938 114.564 44.8938C114.004 44.8938 113.499 44.763 113.05 44.5014C112.603 44.2367 112.249 43.8474 111.988 43.3335C111.729 42.8164 111.6 42.1809 111.6 41.4268C111.6 40.6728 111.728 40.0265 111.983 39.4879C112.242 38.9493 112.596 38.5369 113.045 38.2507C113.494 37.9614 114.004 37.8168 114.573 37.8168C115.013 37.8168 115.369 37.8906 115.639 38.0384C115.91 38.183 116.121 38.3523 116.272 38.5462C116.426 38.7401 116.544 38.9109 116.627 39.0586H116.729V37.9091H118.082V45.157C118.082 45.7663 117.94 46.2665 117.657 46.6573C117.374 47.0482 116.991 47.3375 116.507 47.5252C116.027 47.7129 115.486 47.8068 114.882 47.8068ZM114.869 43.7489C115.266 43.7489 115.601 43.6566 115.875 43.4719C116.152 43.2842 116.361 43.0165 116.503 42.6687C116.647 42.3178 116.72 41.8977 116.72 41.4084C116.72 40.9313 116.649 40.5112 116.507 40.1481C116.366 39.7849 116.158 39.5018 115.884 39.2987C115.61 39.0924 115.272 38.9893 114.869 38.9893C114.453 38.9893 114.107 39.0971 113.83 39.3125C113.553 39.5249 113.344 39.8142 113.202 40.1804C113.063 40.5466 112.994 40.956 112.994 41.4084C112.994 41.8731 113.065 42.2809 113.207 42.6317C113.348 42.9826 113.557 43.2565 113.834 43.4535C114.114 43.6504 114.459 43.7489 114.869 43.7489ZM123.484 45V35.5455H126.854C127.59 35.5455 128.199 35.6793 128.682 35.9471C129.165 36.2148 129.527 36.5811 129.767 37.0458C130.007 37.5075 130.127 38.0276 130.127 38.6062C130.127 39.1879 130.006 39.7111 129.762 40.1758C129.522 40.6374 129.159 41.0037 128.673 41.2745C128.19 41.5423 127.582 41.6761 126.849 41.6761H124.532V40.4666H126.72C127.185 40.4666 127.562 40.3866 127.851 40.2266C128.141 40.0634 128.353 39.8419 128.488 39.5618C128.624 39.2817 128.691 38.9632 128.691 38.6062C128.691 38.2492 128.624 37.9322 128.488 37.6552C128.353 37.3782 128.139 37.1612 127.847 37.0043C127.557 36.8473 127.176 36.7688 126.702 36.7688H124.911V45H123.484ZM131.689 45V37.9091H133.023V39.0355H133.097C133.226 38.6539 133.454 38.3538 133.78 38.1353C134.109 37.9137 134.482 37.8029 134.897 37.8029C134.983 37.8029 135.085 37.806 135.202 37.8121C135.322 37.8183 135.416 37.826 135.483 37.8352V39.1555C135.428 39.1402 135.33 39.1232 135.188 39.1048C135.046 39.0832 134.905 39.0724 134.763 39.0724C134.437 39.0724 134.146 39.1417 133.891 39.2802C133.638 39.4156 133.438 39.6049 133.291 39.848C133.143 40.0881 133.069 40.362 133.069 40.6697V45H131.689ZM139.411 45.1431C138.746 45.1431 138.166 44.9908 137.67 44.6861C137.175 44.3814 136.79 43.9551 136.516 43.4073C136.242 42.8595 136.105 42.2193 136.105 41.4869C136.105 40.7513 136.242 40.1081 136.516 39.5572C136.79 39.0063 137.175 38.5785 137.67 38.2738C138.166 37.9691 138.746 37.8168 139.411 37.8168C140.076 37.8168 140.656 37.9691 141.151 38.2738C141.647 38.5785 142.031 39.0063 142.305 39.5572C142.579 40.1081 142.716 40.7513 142.716 41.4869C142.716 42.2193 142.579 42.8595 142.305 43.4073C142.031 43.9551 141.647 44.3814 141.151 44.6861C140.656 44.9908 140.076 45.1431 139.411 45.1431ZM139.415 43.9844C139.846 43.9844 140.203 43.8705 140.487 43.6428C140.77 43.415 140.979 43.1119 141.114 42.7333C141.253 42.3548 141.322 41.9377 141.322 41.4822C141.322 41.0298 141.253 40.6143 141.114 40.2358C140.979 39.8542 140.77 39.5479 140.487 39.3171C140.203 39.0863 139.846 38.9709 139.415 38.9709C138.982 38.9709 138.621 39.0863 138.335 39.3171C138.052 39.5479 137.841 39.8542 137.703 40.2358C137.567 40.6143 137.5 41.0298 137.5 41.4822C137.5 41.9377 137.567 42.3548 137.703 42.7333C137.841 43.1119 138.052 43.415 138.335 43.6428C138.621 43.8705 138.982 43.9844 139.415 43.9844ZM147.23 47.8068C146.667 47.8068 146.182 47.733 145.776 47.5852C145.373 47.4375 145.043 47.2421 144.788 46.9989C144.532 46.7558 144.342 46.4896 144.215 46.2003L145.402 45.7109C145.485 45.8464 145.596 45.9895 145.734 46.1403C145.876 46.2942 146.067 46.425 146.307 46.5327C146.55 46.6404 146.862 46.6942 147.244 46.6942C147.767 46.6942 148.199 46.5665 148.541 46.3111C148.883 46.0587 149.054 45.6555 149.054 45.1016V43.7074H148.966C148.883 43.8582 148.763 44.0259 148.606 44.2106C148.452 44.3952 148.239 44.5553 147.969 44.6907C147.698 44.8261 147.345 44.8938 146.911 44.8938C146.351 44.8938 145.847 44.763 145.397 44.5014C144.951 44.2367 144.597 43.8474 144.335 43.3335C144.077 42.8164 143.948 42.1809 143.948 41.4268C143.948 40.6728 144.075 40.0265 144.331 39.4879C144.589 38.9493 144.943 38.5369 145.393 38.2507C145.842 37.9614 146.351 37.8168 146.921 37.8168C147.361 37.8168 147.716 37.8906 147.987 38.0384C148.258 38.183 148.469 38.3523 148.62 38.5462C148.773 38.7401 148.892 38.9109 148.975 39.0586H149.077V37.9091H150.429V45.157C150.429 45.7663 150.288 46.2665 150.005 46.6573C149.721 47.0482 149.338 47.3375 148.855 47.5252C148.375 47.7129 147.833 47.8068 147.23 47.8068ZM147.216 43.7489C147.613 43.7489 147.949 43.6566 148.223 43.4719C148.5 43.2842 148.709 43.0165 148.85 42.6687C148.995 42.3178 149.067 41.8977 149.067 41.4084C149.067 40.9313 148.997 40.5112 148.855 40.1481C148.713 39.7849 148.506 39.5018 148.232 39.2987C147.958 39.0924 147.619 38.9893 147.216 38.9893C146.801 38.9893 146.454 39.0971 146.177 39.3125C145.9 39.5249 145.691 39.8142 145.55 40.1804C145.411 40.5466 145.342 40.956 145.342 41.4084C145.342 41.8731 145.413 42.2809 145.554 42.6317C145.696 42.9826 145.905 43.2565 146.182 43.4535C146.462 43.6504 146.807 43.7489 147.216 43.7489ZM152.28 45V37.9091H153.615V39.0355H153.688C153.818 38.6539 154.045 38.3538 154.372 38.1353C154.701 37.9137 155.073 37.8029 155.489 37.8029C155.575 37.8029 155.677 37.806 155.794 37.8121C155.914 37.8183 156.007 37.826 156.075 37.8352V39.1555C156.02 39.1402 155.921 39.1232 155.78 39.1048C155.638 39.0832 155.497 39.0724 155.355 39.0724C155.029 39.0724 154.738 39.1417 154.483 39.2802C154.23 39.4156 154.03 39.6049 153.882 39.848C153.735 40.0881 153.661 40.362 153.661 40.6697V45H152.28ZM160.072 45.1431C159.373 45.1431 158.772 44.9938 158.267 44.6953C157.765 44.3937 157.377 43.9705 157.104 43.4258C156.833 42.878 156.697 42.2363 156.697 41.5007C156.697 40.7744 156.833 40.1342 157.104 39.5803C157.377 39.0263 157.759 38.5939 158.248 38.283C158.741 37.9722 159.316 37.8168 159.975 37.8168C160.375 37.8168 160.763 37.8829 161.138 38.0153C161.514 38.1476 161.851 38.3554 162.149 38.6385C162.448 38.9216 162.683 39.2894 162.856 39.7418C163.028 40.1912 163.114 40.7375 163.114 41.3807V41.87H157.477V40.8359H161.762C161.762 40.4728 161.688 40.1512 161.54 39.8711C161.392 39.5879 161.184 39.3648 160.917 39.2017C160.652 39.0386 160.341 38.957 159.984 38.957C159.596 38.957 159.258 39.0524 158.969 39.2433C158.682 39.431 158.461 39.6772 158.304 39.9819C158.15 40.2835 158.073 40.6113 158.073 40.9652V41.7731C158.073 42.247 158.156 42.6502 158.322 42.9826C158.492 43.315 158.727 43.5689 159.029 43.7443C159.33 43.9167 159.683 44.0028 160.086 44.0028C160.347 44.0028 160.586 43.9659 160.801 43.892C161.017 43.8151 161.203 43.7012 161.36 43.5504C161.517 43.3996 161.637 43.2134 161.72 42.9918L163.026 43.2273C162.922 43.612 162.734 43.949 162.463 44.2383C162.195 44.5245 161.858 44.7476 161.452 44.9077C161.049 45.0646 160.589 45.1431 160.072 45.1431ZM169.959 39.6403L168.708 39.8619C168.656 39.7018 168.573 39.5495 168.459 39.4048C168.348 39.2602 168.197 39.1417 168.006 39.0494C167.816 38.957 167.577 38.9109 167.291 38.9109C166.9 38.9109 166.574 38.9986 166.312 39.174C166.051 39.3464 165.92 39.5695 165.92 39.8434C165.92 40.0804 166.008 40.2712 166.183 40.4158C166.358 40.5605 166.642 40.679 167.032 40.7713L168.159 41.0298C168.811 41.1806 169.298 41.413 169.618 41.7269C169.938 42.0408 170.098 42.4486 170.098 42.9503C170.098 43.375 169.975 43.7536 169.728 44.0859C169.485 44.4152 169.145 44.6738 168.708 44.8615C168.274 45.0492 167.771 45.1431 167.199 45.1431C166.405 45.1431 165.757 44.9738 165.255 44.6353C164.753 44.2937 164.446 43.8089 164.332 43.1811L165.666 42.978C165.749 43.3258 165.92 43.5889 166.178 43.7674C166.437 43.9428 166.774 44.0305 167.189 44.0305C167.642 44.0305 168.003 43.9367 168.274 43.7489C168.545 43.5581 168.68 43.3258 168.68 43.0518C168.68 42.8303 168.597 42.6441 168.431 42.4933C168.268 42.3424 168.017 42.2286 167.679 42.1516L166.478 41.8885C165.817 41.7377 165.327 41.4976 165.01 41.1683C164.696 40.839 164.54 40.422 164.54 39.9173C164.54 39.4987 164.656 39.1325 164.89 38.8185C165.124 38.5046 165.447 38.2599 165.86 38.0845C166.272 37.906 166.745 37.8168 167.277 37.8168C168.043 37.8168 168.647 37.983 169.087 38.3153C169.527 38.6446 169.818 39.0863 169.959 39.6403ZM176.929 39.6403L175.678 39.8619C175.626 39.7018 175.542 39.5495 175.429 39.4048C175.318 39.2602 175.167 39.1417 174.976 39.0494C174.785 38.957 174.547 38.9109 174.261 38.9109C173.87 38.9109 173.544 38.9986 173.282 39.174C173.02 39.3464 172.89 39.5695 172.89 39.8434C172.89 40.0804 172.977 40.2712 173.153 40.4158C173.328 40.5605 173.611 40.679 174.002 40.7713L175.129 41.0298C175.781 41.1806 176.267 41.413 176.587 41.7269C176.907 42.0408 177.067 42.4486 177.067 42.9503C177.067 43.375 176.944 43.7536 176.698 44.0859C176.455 44.4152 176.115 44.6738 175.678 44.8615C175.244 45.0492 174.741 45.1431 174.168 45.1431C173.374 45.1431 172.726 44.9738 172.225 44.6353C171.723 44.2937 171.415 43.8089 171.301 43.1811L172.636 42.978C172.719 43.3258 172.89 43.5889 173.148 43.7674C173.407 43.9428 173.744 44.0305 174.159 44.0305C174.612 44.0305 174.973 43.9367 175.244 43.7489C175.515 43.5581 175.65 43.3258 175.65 43.0518C175.65 42.8303 175.567 42.6441 175.401 42.4933C175.238 42.3424 174.987 42.2286 174.648 42.1516L173.448 41.8885C172.786 41.7377 172.297 41.4976 171.98 41.1683C171.666 40.839 171.509 40.422 171.509 39.9173C171.509 39.4987 171.626 39.1325 171.86 38.8185C172.094 38.5046 172.417 38.2599 172.83 38.0845C173.242 37.906 173.714 37.8168 174.247 37.8168C175.013 37.8168 175.616 37.983 176.056 38.3153C176.497 38.6446 176.787 39.0863 176.929 39.6403ZM61.5724 52.7734V51.5455H68.8896V52.7734H65.9396V61H64.5178V52.7734H61.5724ZM71.776 56.7898V61H70.3957V51.5455H71.7575V55.0632H71.8453C72.0115 54.6816 72.2654 54.3784 72.607 54.1538C72.9486 53.9291 73.3949 53.8168 73.9458 53.8168C74.432 53.8168 74.8567 53.9168 75.2199 54.1168C75.5861 54.3169 75.8693 54.6154 76.0693 55.0124C76.2725 55.4064 76.374 55.8988 76.374 56.4897V61H74.9937V56.6559C74.9937 56.1358 74.8598 55.7326 74.5921 55.4464C74.3243 55.1571 73.9519 55.0124 73.4749 55.0124C73.1486 55.0124 72.8563 55.0817 72.5977 55.2202C72.3423 55.3587 72.1407 55.5618 71.993 55.8295C71.8483 56.0942 71.776 56.4143 71.776 56.7898ZM78.216 61V53.9091H79.5502V55.0355H79.624C79.7533 54.6539 79.981 54.3538 80.3073 54.1353C80.6366 53.9137 81.009 53.8029 81.4244 53.8029C81.5106 53.8029 81.6122 53.806 81.7291 53.8121C81.8492 53.8183 81.943 53.826 82.0107 53.8352V55.1555C81.9553 55.1402 81.8569 55.1232 81.7153 55.1048C81.5737 55.0832 81.4321 55.0724 81.2906 55.0724C80.9643 55.0724 80.6735 55.1417 80.4181 55.2802C80.1657 55.4156 79.9656 55.6049 79.8179 55.848C79.6702 56.0881 79.5963 56.362 79.5963 56.6697V61H78.216ZM85.9382 61.1431C85.2734 61.1431 84.6933 60.9908 84.1978 60.6861C83.7023 60.3814 83.3176 59.9551 83.0437 59.4073C82.7698 58.8595 82.6328 58.2193 82.6328 57.4869C82.6328 56.7513 82.7698 56.1081 83.0437 55.5572C83.3176 55.0063 83.7023 54.5785 84.1978 54.2738C84.6933 53.9691 85.2734 53.8168 85.9382 53.8168C86.603 53.8168 87.1831 53.9691 87.6786 54.2738C88.1741 54.5785 88.5588 55.0063 88.8327 55.5572C89.1067 56.1081 89.2436 56.7513 89.2436 57.4869C89.2436 58.2193 89.1067 58.8595 88.8327 59.4073C88.5588 59.9551 88.1741 60.3814 87.6786 60.6861C87.1831 60.9908 86.603 61.1431 85.9382 61.1431ZM85.9428 59.9844C86.3737 59.9844 86.7307 59.8705 87.0138 59.6428C87.297 59.415 87.5063 59.1119 87.6417 58.7333C87.7802 58.3548 87.8494 57.9377 87.8494 57.4822C87.8494 57.0298 87.7802 56.6143 87.6417 56.2358C87.5063 55.8542 87.297 55.5479 87.0138 55.3171C86.7307 55.0863 86.3737 54.9709 85.9428 54.9709C85.5089 54.9709 85.1488 55.0863 84.8626 55.3171C84.5794 55.5479 84.3686 55.8542 84.2301 56.2358C84.0947 56.6143 84.027 57.0298 84.027 57.4822C84.027 57.9377 84.0947 58.3548 84.2301 58.7333C84.3686 59.1119 84.5794 59.415 84.8626 59.6428C85.1488 59.8705 85.5089 59.9844 85.9428 59.9844ZM95.2762 58.0593V53.9091H96.6611V61H95.3039V59.772H95.23C95.0669 60.1506 94.8053 60.466 94.4452 60.7184C94.0882 60.9677 93.6435 61.0923 93.1111 61.0923C92.6556 61.0923 92.2524 60.9923 91.9015 60.7923C91.5538 60.5891 91.2799 60.2891 91.0798 59.892C90.8828 59.495 90.7844 59.0041 90.7844 58.4194V53.9091H92.1647V58.2532C92.1647 58.7364 92.2986 59.1211 92.5663 59.4073C92.8341 59.6935 93.1818 59.8366 93.6096 59.8366C93.8682 59.8366 94.1251 59.772 94.3806 59.6428C94.6391 59.5135 94.853 59.3181 95.0223 59.0565C95.1946 58.7949 95.2793 58.4625 95.2762 58.0593ZM101.489 63.8068C100.926 63.8068 100.441 63.733 100.035 63.5852C99.6315 63.4375 99.3021 63.2421 99.0467 62.9989C98.7913 62.7558 98.6004 62.4896 98.4743 62.2003L99.6607 61.7109C99.7438 61.8464 99.8546 61.9895 99.9931 62.1403C100.135 62.2942 100.325 62.425 100.566 62.5327C100.809 62.6404 101.121 62.6942 101.503 62.6942C102.026 62.6942 102.458 62.5665 102.8 62.3111C103.142 62.0587 103.312 61.6555 103.312 61.1016V59.7074H103.225C103.142 59.8582 103.021 60.0259 102.865 60.2106C102.711 60.3952 102.498 60.5553 102.227 60.6907C101.957 60.8261 101.604 60.8938 101.17 60.8938C100.61 60.8938 100.105 60.763 99.6561 60.5014C99.2098 60.2367 98.8559 59.8474 98.5943 59.3335C98.3358 58.8164 98.2065 58.1809 98.2065 57.4268C98.2065 56.6728 98.3342 56.0265 98.5897 55.4879C98.8482 54.9493 99.2021 54.5369 99.6515 54.2507C100.101 53.9614 100.61 53.8168 101.18 53.8168C101.62 53.8168 101.975 53.8906 102.246 54.0384C102.517 54.183 102.728 54.3523 102.878 54.5462C103.032 54.7401 103.151 54.9109 103.234 55.0586H103.335V53.9091H104.688V61.157C104.688 61.7663 104.546 62.2665 104.263 62.6573C103.98 63.0482 103.597 63.3375 103.114 63.5252C102.634 63.7129 102.092 63.8068 101.489 63.8068ZM101.475 59.7489C101.872 59.7489 102.207 59.6566 102.481 59.4719C102.758 59.2842 102.968 59.0165 103.109 58.6687C103.254 58.3178 103.326 57.8977 103.326 57.4084C103.326 56.9313 103.255 56.5112 103.114 56.1481C102.972 55.7849 102.765 55.5018 102.491 55.2987C102.217 55.0924 101.878 54.9893 101.475 54.9893C101.059 54.9893 100.713 55.0971 100.436 55.3125C100.159 55.5249 99.95 55.8142 99.8084 56.1804C99.6699 56.5466 99.6007 56.956 99.6007 57.4084C99.6007 57.8731 99.6715 58.2809 99.813 58.6317C99.9546 58.9826 100.164 59.2565 100.441 59.4535C100.721 59.6504 101.066 59.7489 101.475 59.7489ZM107.92 56.7898V61H106.539V51.5455H107.901V55.0632H107.989C108.155 54.6816 108.409 54.3784 108.751 54.1538C109.092 53.9291 109.538 53.8168 110.089 53.8168C110.576 53.8168 111 53.9168 111.363 54.1168C111.73 54.3169 112.013 54.6154 112.213 55.0124C112.416 55.4064 112.518 55.8988 112.518 56.4897V61H111.137V56.6559C111.137 56.1358 111.003 55.7326 110.736 55.4464C110.468 55.1571 110.095 55.0124 109.618 55.0124C109.292 55.0124 109 55.0817 108.741 55.2202C108.486 55.3587 108.284 55.5618 108.137 55.8295C107.992 56.0942 107.92 56.4143 107.92 56.7898ZM119.337 51.5455V61H117.911V51.5455H119.337ZM120.948 52.7734V51.5455H128.266V52.7734H125.316V61H123.894V52.7734H120.948Z" fill="#005AB1"/>
<defs>
<filter id="filter0_d_681_22" x="11.4" y="29" width="45.2" height="45.6" filterUnits="userSpaceOnUse" color-interpolation-filters="sRGB">
<feFlood flood-opacity="0" result="BackgroundImageFix"/>
<feColorMatrix in="SourceAlpha" type="matrix" values="0 0 0 0 0 0 0 0 0 0 0 0 0 0 0 0 0 0 127 0" result="hardAlpha"/>
<feMorphology radius="3" operator="erode" in="SourceAlpha" result="effect1_dropShadow_681_22"/>
<feOffset dy="4"/>
<feGaussianBlur stdDeviation="3.3"/>
<feComposite in2="hardAlpha" operator="out"/>
<feColorMatrix type="matrix" values="0 0 0 0 0 0 0 0 0 0 0 0 0 0 0 0 0 0 0.25 0"/>
<feBlend mode="normal" in2="BackgroundImageFix" result="effect1_dropShadow_681_22"/>
<feBlend mode="normal" in="SourceGraphic" in2="effect1_dropShadow_681_22" result="shape"/>
</filter>
</defs>
</svg>
