<svg width="6" height="7" viewBox="0 0 6 7" fill="none" xmlns="http://www.w3.org/2000/svg">
<path fill-rule="evenodd" clip-rule="evenodd" d="M1.13294 0.833325C1.13294 0.762601 1.16104 0.694773 1.21105 0.644763C1.26106 0.594754 1.32889 0.566659 1.39961 0.566659H4.59961C4.67033 0.566659 4.73816 0.594754 4.78817 0.644763C4.83818 0.694773 4.86628 0.762601 4.86628 0.833325V6.16666C4.86628 6.23738 4.83818 6.30521 4.78817 6.35522C4.73816 6.40523 4.67033 6.43333 4.59961 6.43333H1.39961C1.32889 6.43333 1.26106 6.40523 1.21105 6.35522C1.16104 6.30521 1.13294 6.23738 1.13294 6.16666V0.833325ZM1.39961 0.0333252C1.18744 0.0333252 0.983953 0.117611 0.833924 0.26764C0.683895 0.417669 0.599609 0.621152 0.599609 0.833325V6.16666C0.599609 6.37883 0.683895 6.58232 0.833924 6.73234C0.983953 6.88237 1.18744 6.96666 1.39961 6.96666H4.59961C4.81178 6.96666 5.01527 6.88237 5.1653 6.73234C5.31532 6.58232 5.39961 6.37883 5.39961 6.16666V0.833325C5.39961 0.621152 5.31532 0.417669 5.1653 0.26764C5.01527 0.117611 4.81178 0.0333252 4.59961 0.0333252H1.39961ZM2.19961 5.71333C2.1501 5.71333 2.10262 5.73299 2.06762 5.768C2.03261 5.80301 2.01294 5.85049 2.01294 5.89999C2.01294 5.9495 2.03261 5.99698 2.06762 6.03199C2.10262 6.06699 2.1501 6.08666 2.19961 6.08666H3.79961C3.84912 6.08666 3.8966 6.06699 3.9316 6.03199C3.96661 5.99698 3.98628 5.9495 3.98628 5.89999C3.98628 5.85049 3.96661 5.80301 3.9316 5.768C3.8966 5.73299 3.84912 5.71333 3.79961 5.71333H2.19961Z" fill="#00264B"/>
</svg>
