<svg width="8" height="9" viewBox="0 0 8 9" fill="none" xmlns="http://www.w3.org/2000/svg">
<path d="M6.99967 5.83335H0.999674V1.83335H6.99967M6.99967 1.16669H0.999674C0.629674 1.16669 0.333008 1.46335 0.333008 1.83335V5.83335C0.333008 6.01016 0.403246 6.17973 0.52827 6.30476C0.653294 6.42978 0.822863 6.50002 0.999674 6.50002H3.33301V7.16669H2.66634V7.83335H5.33301V7.16669H4.66634V6.50002H6.99967C7.17649 6.50002 7.34606 6.42978 7.47108 6.30476C7.5961 6.17973 7.66634 6.01016 7.66634 5.83335V1.83335C7.66634 1.65654 7.5961 1.48697 7.47108 1.36195C7.34606 1.23692 7.17649 1.16669 6.99967 1.16669Z" fill="#00264B"/>
</svg>
