<svg width="253" height="159" viewBox="0 0 253 159" fill="none" xmlns="http://www.w3.org/2000/svg">
<rect x="0.5" y="0.5" width="252" height="158" rx="5.5" fill="#A6BAD3" fill-opacity="0.3"/>
<rect x="0.5" y="0.5" width="252" height="158" rx="5.5" stroke="url(#paint0_linear_404_236)"/>
<rect x="104.5" y="57.5" width="45" height="45" rx="4.5" fill="#A6BAD3" fill-opacity="0.6"/>
<rect x="104.5" y="57.5" width="45" height="45" rx="4.5" stroke="url(#paint1_linear_404_236)"/>
<path d="M131.424 72.9483C131.424 76.1358 131.424 79.3182 131.424 82.5133C130.739 82.5133 130.064 82.5133 129.376 82.5133C129.376 80.6109 129.376 78.7113 129.376 76.7824C129.035 77.3349 128.705 77.8654 128.379 78.398C127.762 79.4048 127.147 80.4122 126.534 81.4215C126.474 81.5197 126.415 81.5714 126.29 81.5632C126.09 81.5496 125.888 81.5474 125.689 81.5635C125.541 81.5755 125.468 81.5153 125.396 81.3963C124.49 79.895 123.58 78.3961 122.67 76.897C122.654 76.8699 122.634 76.8447 122.612 76.8117C122.612 78.7135 122.612 80.603 122.612 82.5101C121.933 82.5101 121.241 82.5101 120.537 82.5101C120.537 79.3198 120.537 76.1367 120.537 72.9265C120.71 72.9265 120.88 72.9259 121.05 72.9265C121.458 72.9278 121.866 72.936 122.273 72.9278C122.408 72.9253 122.482 72.9662 122.552 73.083C123.63 74.8919 124.713 76.6977 125.796 78.5041C125.866 78.6222 125.938 78.7396 126.024 78.8822C126.301 78.4153 126.569 77.9671 126.834 77.5172C127.704 76.0423 128.572 74.5661 129.448 73.0947C129.491 73.0216 129.598 72.9439 129.678 72.9417C130.23 72.9272 130.784 72.9322 131.336 72.9319C131.363 72.9319 131.389 72.9417 131.424 72.9483Z" fill="url(#paint2_linear_404_236)"/>
<path d="M132.266 82.5249C132.455 82.0748 132.635 81.6435 132.817 81.2134C133.958 78.5214 135.101 75.8301 136.238 73.1359C136.301 72.987 136.372 72.931 136.539 72.9335C137.202 72.9445 137.866 72.9401 138.529 72.9357C138.644 72.935 138.713 72.9577 138.763 73.0777C139.414 74.6369 140.071 76.1934 140.725 77.7511C140.741 77.7882 140.748 77.8288 140.763 77.8802C140.091 78.0036 139.429 78.1254 138.745 78.251C138.338 77.2364 137.934 76.2302 137.514 75.185C136.95 76.5998 136.401 77.9759 135.837 79.3891C138.189 78.5353 140.592 78.0753 143.019 77.6708C142.433 78.0801 141.846 78.4893 141.249 78.9061C141.76 80.104 142.267 81.2943 142.782 82.5035C142.718 82.5089 142.666 82.5168 142.615 82.5168C141.951 82.5174 141.288 82.5139 140.625 82.5186C140.498 82.5196 140.435 82.4831 140.386 82.3571C139.998 81.362 139.601 80.3703 139.198 79.3538C138.779 79.5427 138.362 79.7218 137.953 79.917C137.137 80.3061 136.322 80.7006 135.603 81.2594C135.201 81.5717 134.847 81.9255 134.645 82.4078C134.624 82.4579 134.553 82.5196 134.504 82.5202C133.766 82.5271 133.029 82.5249 132.266 82.5249Z" fill="url(#paint3_linear_404_236)"/>
<path d="M114.104 80.699C115.874 80.699 117.585 80.699 119.306 80.699C119.306 81.3013 119.306 81.8855 119.306 82.502C116.564 82.502 113.826 82.502 111.067 82.502C111.067 82.1037 111.064 81.6913 111.071 81.2792C111.072 81.2257 111.119 81.1675 111.156 81.1212C112.47 79.4936 113.785 77.8669 115.1 76.2406C115.443 75.8165 115.788 75.3934 116.131 74.9694C116.16 74.9341 116.184 74.8954 116.229 74.8324C114.465 74.8324 112.73 74.8324 110.98 74.8324C110.98 74.1959 110.98 73.5773 110.98 72.952C113.697 72.952 116.414 72.952 119.168 72.952C119.168 73.4321 119.172 73.8924 119.163 74.3523C119.163 74.4112 119.106 74.4748 119.064 74.5268C117.644 76.29 116.222 78.052 114.801 79.815C114.578 80.0927 114.36 80.3744 114.104 80.699Z" fill="url(#paint4_linear_404_236)"/>
<path d="M133.841 87.0665C133.011 87.0828 132.364 86.4626 132.343 85.63C132.322 84.8017 132.968 84.1264 133.792 84.1144C134.613 84.1022 135.288 84.7419 135.305 85.55C135.324 86.399 134.695 87.0495 133.841 87.0665ZM132.85 85.5818C132.848 86.1762 133.278 86.6257 133.846 86.6226C134.373 86.6197 134.803 86.1614 134.803 85.6035C134.803 85.0368 134.367 84.5738 133.832 84.5722C133.278 84.5706 132.853 85.0076 132.85 85.5818Z" fill="url(#paint5_linear_404_236)"/>
<path d="M116.016 87.0636C115.195 87.0705 114.541 86.4384 114.536 85.6322C114.53 84.7759 115.16 84.1255 116.003 84.117C116.799 84.1091 117.449 84.7488 117.485 85.5132C117.526 86.3758 116.817 87.0992 116.016 87.0636ZM116.981 85.6089C116.982 85.023 116.552 84.5706 115.998 84.5747C115.466 84.5785 115.038 85.028 115.032 85.589C115.027 86.1576 115.453 86.6109 116.001 86.6182C116.549 86.6251 116.981 86.1809 116.981 85.6089Z" fill="url(#paint6_linear_404_236)"/>
<path d="M139.359 86.9925C139.07 87.068 138.89 86.9752 138.722 86.7384C138.307 86.1538 137.858 85.5934 137.392 84.984C137.392 85.68 137.392 86.3351 137.392 87.0013C137.225 87.0013 137.085 87.0013 136.933 87.0013C136.933 86.0701 136.933 85.1467 136.933 84.2234C137.282 84.1384 137.358 84.1661 137.571 84.4497C138.005 85.029 138.441 85.6073 138.911 86.2322C138.911 85.5264 138.911 84.8713 138.911 84.2048C139.073 84.2048 139.209 84.2048 139.359 84.2048C139.359 85.1316 139.359 86.0597 139.359 86.9925Z" fill="url(#paint7_linear_404_236)"/>
<path d="M110.976 86.6156C111.067 86.497 111.158 86.3776 111.258 86.2467C111.513 86.446 111.771 86.62 112.099 86.6125C112.221 86.6097 112.36 86.6043 112.458 86.5442C112.55 86.4869 112.644 86.3603 112.651 86.2583C112.657 86.1689 112.564 86.0354 112.477 85.9857C112.332 85.9016 112.158 85.8658 111.994 85.8144C111.889 85.7814 111.78 85.7622 111.675 85.7282C111.236 85.5856 111.063 85.3293 111.094 84.8747C111.116 84.5435 111.429 84.2234 111.796 84.1563C112.241 84.0748 112.677 84.1846 113.052 84.4793C112.969 84.6024 112.885 84.7268 112.82 84.8215C112.563 84.7393 112.329 84.6471 112.085 84.5948C111.983 84.5728 111.848 84.6112 111.752 84.6647C111.515 84.797 111.524 85.1108 111.768 85.2279C111.921 85.3016 112.093 85.3372 112.258 85.3872C112.343 85.4134 112.431 85.4297 112.516 85.4578C112.956 85.6041 113.167 85.8585 113.151 86.219C113.134 86.6383 112.872 86.9386 112.435 87.04C111.947 87.1527 111.354 86.9821 110.976 86.6156Z" fill="url(#paint8_linear_404_236)"/>
<path d="M142.931 84.4821C142.838 84.6188 142.753 84.7422 142.692 84.8306C142.437 84.745 142.21 84.6547 141.975 84.5958C141.884 84.5731 141.757 84.5933 141.68 84.6446C141.593 84.7019 141.496 84.8146 141.493 84.9068C141.489 85.0091 141.561 85.1467 141.644 85.2116C141.747 85.2915 141.895 85.3155 142.026 85.357C142.176 85.4049 142.333 85.4354 142.481 85.4914C142.884 85.6438 143.038 85.8793 143.023 86.2945C143.012 86.61 142.776 86.9116 142.425 87.0051C141.844 87.1596 141.322 87.0321 140.859 86.6166C140.954 86.4907 141.044 86.3717 141.143 86.2404C141.389 86.451 141.651 86.6125 141.98 86.6141C142.063 86.6144 142.148 86.615 142.227 86.5942C142.381 86.5539 142.504 86.4724 142.528 86.2945C142.552 86.1113 142.452 85.9989 142.299 85.9463C142.052 85.8617 141.795 85.8063 141.546 85.7253C141.014 85.5525 140.809 85.04 141.081 84.5712C141.213 84.3433 141.42 84.2098 141.674 84.1591C142.116 84.0707 142.563 84.1878 142.931 84.4821Z" fill="url(#paint9_linear_404_236)"/>
<path d="M122.427 84.2004C122.589 84.2004 122.733 84.2004 122.894 84.2004C122.899 84.2498 122.908 84.3018 122.908 84.354C122.91 84.8514 122.905 85.3488 122.911 85.8459C122.918 86.3418 123.227 86.6282 123.716 86.6046C124.097 86.5864 124.355 86.2964 124.362 85.8595C124.37 85.4105 124.364 84.9616 124.364 84.5124C124.364 84.4163 124.364 84.32 124.364 84.2083C124.514 84.2083 124.655 84.2083 124.824 84.2083C124.824 84.3732 124.824 84.5429 124.824 84.7126C124.824 85.0926 124.826 85.4726 124.822 85.8522C124.816 86.5678 124.396 87.0325 123.735 87.0602C122.971 87.0923 122.479 86.6991 122.433 85.9608C122.398 85.3835 122.427 84.8026 122.427 84.2004Z" fill="url(#paint10_linear_404_236)"/>
<path d="M127.771 87.0076C127.603 87.0076 127.472 87.0076 127.318 87.0076C127.318 86.23 127.318 85.4533 127.318 84.6543C127.004 84.6543 126.711 84.6543 126.401 84.6543C126.401 84.4928 126.401 84.3537 126.401 84.2035C127.158 84.2035 127.907 84.2035 128.671 84.2035C128.671 84.3439 128.671 84.479 128.671 84.6367C128.38 84.6367 128.087 84.6367 127.771 84.6367C127.771 85.4354 127.771 86.2117 127.771 87.0076Z" fill="url(#paint11_linear_404_236)"/>
<path d="M119.106 86.9966C119.106 86.06 119.106 85.1382 119.106 84.2048C119.263 84.2048 119.411 84.2048 119.581 84.2048C119.581 84.9855 119.581 85.7609 119.581 86.5555C120.088 86.5555 120.575 86.5555 121.073 86.5555C121.073 86.7098 121.073 86.8448 121.073 86.9966C120.426 86.9966 119.775 86.9966 119.106 86.9966Z" fill="url(#paint12_linear_404_236)"/>
<path d="M130.26 87.0007C130.257 86.949 130.253 86.909 130.253 86.8688C130.253 85.9866 130.253 85.1048 130.253 84.2076C130.41 84.2076 130.557 84.2076 130.716 84.2076C130.716 85.1335 130.716 86.0609 130.716 87.0003C130.569 87.0007 130.426 87.0007 130.26 87.0007Z" fill="url(#paint13_linear_404_236)"/>
<path d="M1 16L252 16" stroke="#00264B" stroke-opacity="0.12"/>
<path d="M1 144L252 144" stroke="#00264B" stroke-opacity="0.12"/>
<rect x="20" y="59" width="41" height="42" rx="2" fill="#B1C5DF" fill-opacity="0.12"/>
<rect x="19.5" y="58.5" width="42" height="43" rx="2.5" stroke="url(#paint14_linear_404_236)" stroke-opacity="0.15"/>
<path d="M53 72.5V87.5C53 88.3512 52.3512 89 51.5 89H50V75.3867L41 81.8517L32 75.3867V89H30.5C29.6488 89 29 88.3512 29 87.5V72.5C29 72.074 29.1605 71.699 29.4298 71.4335C29.5699 71.2931 29.7369 71.1823 29.9208 71.1078C30.1046 71.0333 30.3016 70.9967 30.5 71H31.0003L41 78.2502L50.9998 71H51.5C51.926 71 52.301 71.1605 52.5702 71.4335C52.8395 71.699 53 72.074 53 72.5Z" fill="#00264B" fill-opacity="0.12"/>
<rect width="41" height="42" rx="2" transform="matrix(-1 0 0 1 234 59)" fill="#B1C5DF" fill-opacity="0.12"/>
<rect x="0.5" y="-0.5" width="42" height="43" rx="2.5" transform="matrix(-1 0 0 1 235 59)" stroke="url(#paint15_linear_404_236)" stroke-opacity="0.15"/>
<g clip-path="url(#clip0_404_236)">
<path d="M226.297 86.2683C226.371 86.4611 226.31 86.6225 226.146 86.755C224.603 87.9966 222.984 89.1229 221.222 90.0343L219.75 90.7942C220.054 91.0366 220.396 91.1047 220.76 91.0912C221.158 91.0763 221.492 90.8934 221.8 90.6585C222.168 90.3777 222.516 90.067 222.903 89.8152C223.839 89.2057 224.849 89.2608 225.734 89.9481C226.111 90.2402 226.457 90.5737 226.847 90.844C227.036 90.9746 227.277 91.0459 227.509 91.0971L227.56 91.1082C227.841 91.1674 228.012 91.309 227.994 91.5518C227.975 91.7927 227.784 91.9334 227.496 91.9148C226.885 91.8753 226.407 91.5604 225.958 91.1795C225.678 90.9418 225.407 90.6883 225.105 90.4821C224.544 90.0998 223.95 90.0887 223.378 90.4557C223.042 90.6721 222.736 90.9367 222.421 91.1856C221.913 91.5869 221.365 91.8823 220.697 91.8924C219.963 91.9035 219.373 91.5744 218.833 91.1223C218.639 90.9606 218.448 90.7965 218.251 90.6394C217.512 90.0502 216.755 90.0505 216.014 90.6399C215.928 90.7087 215.842 90.7782 215.757 90.8485L215.587 90.9887C215.445 91.106 215.301 91.2205 215.155 91.3321C214.248 92.0179 213.209 92.0506 212.268 91.4084C211.926 91.1748 211.615 90.8969 211.288 90.6399C210.547 90.0561 209.932 90.0578 209.177 90.6374L209.116 90.685L208.93 90.828C208.684 91.0186 208.435 91.2076 208.175 91.377C207.192 92.0158 206.192 91.9891 205.216 91.3718C204.812 91.1163 204.443 90.8052 204.06 90.516L204.002 90.4727C203.85 90.3586 203.699 90.2417 203.542 90.1335C203.323 89.9826 203.088 89.9404 202.851 90.0842C202.432 90.3383 202.019 90.6005 201.604 90.8611C201.212 91.1074 200.834 91.3782 200.427 91.5948C200.206 91.7121 199.941 91.7668 199.689 91.7989C199.455 91.8288 199.294 91.6549 199.285 91.4356C199.276 91.2196 199.417 91.0839 199.637 91.0215L199.649 91.018C199.882 90.9557 200.123 90.8765 200.325 90.7494C200.895 90.3907 201.448 90.0038 202.007 89.6271C202.023 89.6164 202.032 89.5961 202.051 89.5718L201.704 88.9152C201.588 88.6962 201.473 88.4767 201.357 88.2569C201.156 87.8714 201.287 87.6127 201.72 87.5818C202.889 87.4982 204.059 87.4266 205.229 87.3513L211.96 86.9193C213.551 86.8169 215.142 86.7135 216.733 86.6109C218.977 86.4662 221.22 86.3215 223.464 86.1769C224.061 86.1385 224.657 86.1011 225.254 86.062L225.85 86.0225C226.056 86.0087 226.221 86.0707 226.297 86.2683ZM224.59 86.95L224.57 86.901L202.296 88.3351L202.351 88.4378C202.496 88.7083 202.624 88.9526 202.763 89.1899C202.776 89.2118 202.821 89.2162 202.868 89.2179L202.917 89.2191L202.931 89.2196L202.945 89.2204C203.138 89.2346 203.35 89.2006 203.522 89.2684C203.796 89.3767 204.058 89.532 204.3 89.7031C204.733 90.0096 205.134 90.3626 205.572 90.6604C206.351 91.1893 207.084 91.1736 207.851 90.6373C208.174 90.411 208.481 90.1609 208.801 89.9301C209.803 89.2084 210.752 89.2233 211.73 89.9769C212.016 90.1971 212.288 90.4346 212.573 90.6555C213.288 91.2093 214.014 91.2113 214.726 90.6612C214.963 90.478 215.188 90.2802 215.421 90.0912C216.476 89.2343 217.545 89.1517 218.583 89.916L218.614 89.9393C218.946 90.1896 219.193 90.177 219.524 90.0121L219.685 89.9315C221.16 89.1917 222.608 88.4055 223.944 87.4286C224.161 87.2705 224.375 87.1096 224.59 86.95ZM203.907 68.0757C206.318 69.1634 208.483 70.6265 210.451 72.385C212.899 74.5732 214.828 77.1571 216.254 80.1124C217.004 81.6679 217.587 83.2835 217.855 84.999L217.868 85.0831L217.887 85.2174C217.888 85.5494 217.622 85.7444 217.345 85.6324C215.968 85.0763 214.547 84.6906 213.079 84.4703C211.138 84.1792 209.221 84.2516 207.335 84.8197C206.083 85.1965 204.893 85.7103 203.787 86.4116C203.583 86.5411 203.366 86.5185 203.233 86.36C203.094 86.1955 203.095 85.9969 203.255 85.8232C204.41 84.5686 205.083 83.0618 205.528 81.4417C205.964 79.8587 206.123 78.2412 206.025 76.6047C205.952 75.3748 205.657 74.1846 205.271 73.0164C204.772 71.5049 204.124 70.0601 203.342 68.6743C203.215 68.4477 203.217 68.2713 203.346 68.1264C203.48 67.9764 203.652 67.9604 203.907 68.0757ZM211.339 70.901C211.563 70.9662 211.864 71.0305 212.147 71.1407C213.278 71.5808 214.252 72.2792 215.18 73.0422C216.689 74.2821 218.07 75.6536 219.305 77.1661C220.165 78.2189 220.87 79.3769 221.513 80.5722C222.242 81.9278 222.87 83.3291 223.403 84.7727L223.44 84.8735C223.454 84.9118 223.468 84.9501 223.481 84.9888C223.537 85.1557 223.53 85.3171 223.4 85.4447C223.266 85.5749 223.106 85.5835 222.937 85.5173L222.925 85.5126C222.683 85.413 222.437 85.3212 222.196 85.2206L222.092 85.177C221.412 84.8849 220.713 84.8266 219.993 84.9901C219.927 85.0053 219.859 85.0167 219.792 85.027C219.525 85.0682 219.358 84.9638 219.285 84.7051C218.584 82.217 217.595 79.8478 216.343 77.5874L216.281 77.4748C215.474 76.0328 214.55 74.6768 213.349 73.5248C212.64 72.8444 211.894 72.2102 211.07 71.6716C210.879 71.5468 210.808 71.3735 210.871 71.1844C210.933 70.9985 211.077 70.9253 211.339 70.901ZM204.628 69.3222C204.63 69.3851 204.647 69.4343 204.67 69.4803C205.194 70.5371 205.65 71.6226 206.02 72.7426C206.371 73.8051 206.64 74.888 206.769 76.0017C206.913 77.2481 206.854 78.4914 206.683 79.7311C206.458 81.3638 206.005 82.9253 205.224 84.3838L205.133 84.5537L204.995 84.812C205.024 84.8199 205.039 84.8292 205.048 84.8255C205.131 84.7931 205.212 84.7592 205.293 84.7238C206.951 83.9961 208.678 83.5567 210.492 83.5115C212.564 83.46 214.57 83.8334 216.529 84.4839L216.663 84.5283C216.76 84.5601 216.863 84.5929 216.997 84.6363C216.204 81.1621 214.558 78.1759 212.341 75.4897C210.203 72.9002 207.602 70.8768 204.628 69.3222ZM214.471 73.5344L214.497 73.5641L214.549 73.6222C214.569 73.6448 214.588 73.6662 214.605 73.6884C214.727 73.8458 214.85 74.0021 214.975 74.1571L215.179 74.4108C215.486 74.7926 215.788 75.177 216.054 75.585C217.737 78.166 218.975 80.9569 219.877 83.898L219.904 83.9872C219.951 84.1411 220.015 84.1844 220.165 84.1618L220.176 84.1601C220.851 84.0477 221.51 84.1062 222.15 84.3524L222.183 84.3653C222.244 84.3896 222.309 84.403 222.427 84.4377C221.561 82.276 220.537 80.2638 219.242 78.3881C218.121 76.7662 215.121 73.8864 214.471 73.5343" fill="#00264B" fill-opacity="0.12"/>
</g>
<rect x="63" y="16" width="41" height="42" rx="2" fill="#B1C5DF" fill-opacity="0.12"/>
<rect x="62.5" y="15.5" width="42" height="43" rx="2.5" stroke="url(#paint16_linear_404_236)" stroke-opacity="0.15"/>
<path d="M92.725 31.1659C92.3916 31.1678 92.0622 31.2387 91.7574 31.3739C91.4526 31.5092 91.1791 31.706 90.954 31.9519C90.738 30.9289 90.095 30.6279 89.361 30.2869C88.896 30.0709 88.702 29.5909 88.639 29.2439C88.615 29.1109 88.506 29.0039 88.371 29.0039C88.237 29.0039 88.109 29.0589 88.045 29.1769C87.905 29.4269 87.691 29.9769 87.672 30.9869C87.643 32.4899 88.882 33.6489 89.506 34.0399C89.442 34.4099 89.216 34.9819 89.111 35.2219C88.4007 34.9605 87.7607 34.5381 87.241 33.9879C86.283 32.9449 85.503 32.2069 84.485 31.4849C83.467 30.7629 84.148 29.9019 84.575 29.6969C85.002 29.4919 84.678 29.2819 83.613 29.3179C82.76 29.3469 81.546 29.8479 81.046 30.0949C80.536 29.9329 79.474 29.9009 79.008 29.9049C74.425 29.9049 73 33.9799 73 35.9999C73 42.0859 77.873 44.9999 81.373 44.9999C85.331 44.9999 86.718 43.3859 86.718 43.3859C86.882 43.4869 87.478 43.7019 88.556 43.7479C89.905 43.8049 90.407 43.4239 90.446 43.1309C90.485 42.8379 90.267 42.7309 90.076 42.6409C89.886 42.5519 89.586 42.3809 89.021 42.1959C88.568 42.0489 88.364 41.8879 88.319 41.8259C91.049 39.3539 91.549 35.8909 91.472 34.4189C93.584 34.3369 94.415 32.9309 94.689 32.2189C94.969 31.4929 95.143 30.5029 94.853 30.2789C94.621 30.0989 94.427 30.3149 94.359 30.4459C93.987 30.8419 93.715 31.1649 92.724 31.1649" stroke="#00264B" stroke-opacity="0.12" stroke-width="1.5" stroke-linecap="round" stroke-linejoin="round"/>
<path d="M83.9998 35.5678C83.9998 35.5678 84.8758 35.2978 85.6448 35.8228C86.6858 36.5328 86.9998 37.4988 86.9998 37.4988M85.4998 41.4988C85.4998 41.4988 84.4588 40.9918 82.8958 38.9598C81.0178 36.5198 79.2488 33.8858 75.5288 34.7468C75.5288 34.7468 75.4998 39.9968 80.4998 41.4988" stroke="#00264B" stroke-opacity="0.12" stroke-width="1.5" stroke-linecap="round" stroke-linejoin="round"/>
<rect width="41" height="42" rx="2" transform="matrix(-1 0 0 1 191 16)" fill="#B1C5DF" fill-opacity="0.12"/>
<rect x="0.5" y="-0.5" width="42" height="43" rx="2.5" transform="matrix(-1 0 0 1 192 16)" stroke="url(#paint17_linear_404_236)" stroke-opacity="0.15"/>
<path d="M173.81 38.9701V31.7701L168.215 28.5401C165.115 26.7501 159.565 31.1651 161.895 35.2051" stroke="#00264B" stroke-opacity="0.12" stroke-width="0.5" stroke-linejoin="round"/>
<path d="M173.81 35.4701L167.575 31.8701L161.98 35.1001C158.88 36.8901 159.93 43.9051 164.595 43.9051" stroke="#00264B" stroke-opacity="0.12" stroke-width="0.5" stroke-linejoin="round"/>
<path d="M170.78 33.72L164.545 37.32V43.785C164.545 47.365 171.145 49.965 173.475 45.925" stroke="#00264B" stroke-opacity="0.12" stroke-width="0.5" stroke-linejoin="round"/>
<path d="M167.75 35.6001V42.6701L173.345 45.9001C176.445 47.6901 181.995 43.2751 179.665 39.2351" stroke="#00264B" stroke-opacity="0.12" stroke-width="0.5" stroke-linejoin="round"/>
<path d="M167.75 38.9699L173.985 42.5699L179.58 39.3399C182.685 37.5449 181.635 30.5349 176.97 30.5349" stroke="#00264B" stroke-opacity="0.12" stroke-width="0.5" stroke-linejoin="round"/>
<path d="M170.78 40.7199L177.015 37.1199V30.6549C177.015 27.0749 170.415 24.4749 168.085 28.5149" stroke="#00264B" stroke-opacity="0.12" stroke-width="0.5" stroke-linejoin="round"/>
<rect x="63" y="102" width="41" height="42" rx="2" fill="#B1C5DF" fill-opacity="0.12"/>
<rect x="62.5" y="101.5" width="42" height="43" rx="2.5" stroke="url(#paint18_linear_404_236)" stroke-opacity="0.15"/>
<g clip-path="url(#clip1_404_236)">
<path d="M89.0282 133.443C90.1825 133.331 91.3347 133.197 92.4842 133.042C92.8573 132.993 93.2036 132.822 93.4687 132.555C93.7337 132.288 93.9024 131.94 93.9482 131.566C94.0854 130.464 94.2208 129.317 94.3305 128.143M78.9739 112.557C77.8196 112.669 76.6674 112.803 75.5179 112.958C75.1447 113.006 74.7982 113.177 74.5329 113.444C74.2676 113.711 74.0985 114.059 74.0522 114.432C73.9074 115.572 73.78 116.714 73.6699 117.857M89.0282 112.557C90.2111 112.67 91.3682 112.81 92.4842 112.958C92.8571 113.007 93.2032 113.178 93.4682 113.445C93.7332 113.712 93.902 114.059 93.9482 114.432C94.0854 115.536 94.2208 116.683 94.3305 117.857M78.9739 133.443C77.8197 133.33 76.6675 133.196 75.5179 133.042C75.1445 132.994 74.7978 132.822 74.5324 132.555C74.2671 132.288 74.0981 131.94 74.0522 131.566C73.9074 130.427 73.78 129.286 73.6699 128.143M84.0002 119.849V117.646M84.0002 119.849C85.3494 119.849 86.7499 119.849 87.9928 120.01C88.5139 120.075 88.9996 120.309 89.3759 120.675C89.7521 121.042 89.9985 121.521 90.0774 122.04C90.1785 122.731 90.1785 123.432 90.1785 124.625C90.1785 125.82 90.1785 126.521 90.0756 127.21C89.9969 127.729 89.7511 128.208 89.3755 128.574C88.9999 128.941 88.515 129.174 87.9945 129.24C86.7516 129.403 85.3511 129.403 84.0019 129.403C82.6545 129.403 81.2539 129.403 80.0111 129.24C79.4899 129.175 79.0043 128.942 78.628 128.575C78.2517 128.209 78.0054 127.73 77.9265 127.21C77.8254 126.521 77.8254 125.82 77.8254 124.625C77.8254 123.43 77.8254 122.731 77.9265 122.04C78.0054 121.521 78.2517 121.042 78.628 120.675C79.0043 120.309 79.4899 120.075 80.0111 120.01C81.2539 119.849 82.6528 119.849 84.0002 119.849ZM86.2236 124.958V124.293M81.7716 124.958V124.293M84.0002 117.624C85.0562 117.624 85.6511 117.029 85.6511 115.973C85.6511 114.917 85.0562 114.326 84.0002 114.326C82.9442 114.326 82.3511 114.921 82.3511 115.975C82.3511 117.029 82.9459 117.624 84.0002 117.624Z" stroke="#00264B" stroke-opacity="0.12" stroke-width="1.71429" stroke-linecap="round" stroke-linejoin="round"/>
</g>
<rect width="41" height="42" rx="2" transform="matrix(-1 0 0 1 191 102)" fill="#B1C5DF" fill-opacity="0.12"/>
<rect x="0.5" y="-0.5" width="42" height="43" rx="2.5" transform="matrix(-1 0 0 1 192 102)" stroke="url(#paint19_linear_404_236)" stroke-opacity="0.15"/>
<g clip-path="url(#clip2_404_236)">
<path d="M163.461 115.207C164.203 115.812 164.485 115.769 165.886 115.675L179.101 114.883C179.383 114.883 179.149 114.601 179.054 114.554L176.859 112.968C176.441 112.639 175.879 112.269 174.804 112.358L162.011 113.296C161.542 113.338 161.449 113.573 161.636 113.761L163.461 115.207ZM164.254 118.289V132.191C164.254 132.937 164.625 133.219 165.465 133.171L179.989 132.331C180.829 132.284 180.926 131.773 180.926 131.164V117.355C180.926 116.746 180.691 116.422 180.176 116.469L165.001 117.355C164.438 117.403 164.254 117.679 164.254 118.285L164.254 118.289ZM178.59 119.031C178.684 119.453 178.59 119.871 178.168 119.922L177.469 120.063V130.324C176.859 130.653 176.301 130.84 175.836 130.84C175.086 130.84 174.898 130.606 174.34 129.907L169.762 122.719V129.673L171.211 130.001C171.211 130.001 171.211 130.841 170.043 130.841L166.82 131.029C166.726 130.841 166.82 130.372 167.149 130.282L167.989 130.048V120.856L166.821 120.763C166.727 120.34 166.962 119.735 167.614 119.689L171.07 119.454L175.836 126.735V120.293L174.621 120.152C174.527 119.641 174.898 119.266 175.367 119.222L178.59 119.031ZM160.937 112.035L174.246 111.055C175.879 110.914 176.301 111.007 177.328 111.754L181.578 114.742C182.277 115.253 182.512 115.394 182.512 115.953V132.332C182.512 133.36 182.137 133.965 180.832 134.059L165.37 134.992C164.394 135.04 163.925 134.899 163.409 134.246L160.28 130.183C159.721 129.437 159.487 128.878 159.487 128.227V113.668C159.487 112.828 159.862 112.129 160.936 112.036L160.937 112.035Z" fill="#00264B" fill-opacity="0.12"/>
</g>
<defs>
<linearGradient id="paint0_linear_404_236" x1="126.5" y1="1" x2="126.5" y2="158" gradientUnits="userSpaceOnUse">
<stop stop-color="#004DB5"/>
<stop offset="0.000100017" stop-color="#005AB1" stop-opacity="0.4"/>
</linearGradient>
<linearGradient id="paint1_linear_404_236" x1="104" y1="80" x2="150" y2="88.5" gradientUnits="userSpaceOnUse">
<stop stop-color="#CBE1FF"/>
<stop offset="0.240499" stop-color="#004DB5"/>
<stop offset="0.709541" stop-color="#004DB5"/>
<stop offset="1" stop-color="#CBE1FF"/>
</linearGradient>
<linearGradient id="paint2_linear_404_236" x1="109" y1="81.5" x2="144.5" y2="81.5" gradientUnits="userSpaceOnUse">
<stop stop-color="#006CFF"/>
<stop offset="1" stop-color="#00264B"/>
</linearGradient>
<linearGradient id="paint3_linear_404_236" x1="109" y1="81.5" x2="144.5" y2="81.5" gradientUnits="userSpaceOnUse">
<stop stop-color="#006CFF"/>
<stop offset="1" stop-color="#00264B"/>
</linearGradient>
<linearGradient id="paint4_linear_404_236" x1="109" y1="81.5" x2="144.5" y2="81.5" gradientUnits="userSpaceOnUse">
<stop stop-color="#006CFF"/>
<stop offset="1" stop-color="#00264B"/>
</linearGradient>
<linearGradient id="paint5_linear_404_236" x1="109" y1="81.5" x2="144.5" y2="81.5" gradientUnits="userSpaceOnUse">
<stop stop-color="#006CFF"/>
<stop offset="1" stop-color="#00264B"/>
</linearGradient>
<linearGradient id="paint6_linear_404_236" x1="109" y1="81.5" x2="144.5" y2="81.5" gradientUnits="userSpaceOnUse">
<stop stop-color="#006CFF"/>
<stop offset="1" stop-color="#00264B"/>
</linearGradient>
<linearGradient id="paint7_linear_404_236" x1="109" y1="81.5" x2="144.5" y2="81.5" gradientUnits="userSpaceOnUse">
<stop stop-color="#006CFF"/>
<stop offset="1" stop-color="#00264B"/>
</linearGradient>
<linearGradient id="paint8_linear_404_236" x1="109" y1="81.5" x2="144.5" y2="81.5" gradientUnits="userSpaceOnUse">
<stop stop-color="#006CFF"/>
<stop offset="1" stop-color="#00264B"/>
</linearGradient>
<linearGradient id="paint9_linear_404_236" x1="109" y1="81.5" x2="144.5" y2="81.5" gradientUnits="userSpaceOnUse">
<stop stop-color="#006CFF"/>
<stop offset="1" stop-color="#00264B"/>
</linearGradient>
<linearGradient id="paint10_linear_404_236" x1="109" y1="81.5" x2="144.5" y2="81.5" gradientUnits="userSpaceOnUse">
<stop stop-color="#006CFF"/>
<stop offset="1" stop-color="#00264B"/>
</linearGradient>
<linearGradient id="paint11_linear_404_236" x1="109" y1="81.5" x2="144.5" y2="81.5" gradientUnits="userSpaceOnUse">
<stop stop-color="#006CFF"/>
<stop offset="1" stop-color="#00264B"/>
</linearGradient>
<linearGradient id="paint12_linear_404_236" x1="109" y1="81.5" x2="144.5" y2="81.5" gradientUnits="userSpaceOnUse">
<stop stop-color="#006CFF"/>
<stop offset="1" stop-color="#00264B"/>
</linearGradient>
<linearGradient id="paint13_linear_404_236" x1="109" y1="81.5" x2="144.5" y2="81.5" gradientUnits="userSpaceOnUse">
<stop stop-color="#006CFF"/>
<stop offset="1" stop-color="#00264B"/>
</linearGradient>
<linearGradient id="paint14_linear_404_236" x1="40.5" y1="59" x2="28.845" y2="97.4688" gradientUnits="userSpaceOnUse">
<stop stop-color="#004DB5"/>
<stop offset="0.576923" stop-color="#00224F" stop-opacity="0.4"/>
</linearGradient>
<linearGradient id="paint15_linear_404_236" x1="20.5" y1="0" x2="8.84498" y2="38.4688" gradientUnits="userSpaceOnUse">
<stop stop-color="#004DB5"/>
<stop offset="0.576923" stop-color="#00224F" stop-opacity="0.4"/>
</linearGradient>
<linearGradient id="paint16_linear_404_236" x1="83.5" y1="16" x2="71.845" y2="54.4688" gradientUnits="userSpaceOnUse">
<stop stop-color="#004DB5"/>
<stop offset="0.576923" stop-color="#00224F" stop-opacity="0.4"/>
</linearGradient>
<linearGradient id="paint17_linear_404_236" x1="20.5" y1="0" x2="8.84498" y2="38.4688" gradientUnits="userSpaceOnUse">
<stop stop-color="#004DB5"/>
<stop offset="0.576923" stop-color="#00224F" stop-opacity="0.4"/>
</linearGradient>
<linearGradient id="paint18_linear_404_236" x1="83.5" y1="102" x2="71.845" y2="140.469" gradientUnits="userSpaceOnUse">
<stop stop-color="#004DB5"/>
<stop offset="0.576923" stop-color="#00224F" stop-opacity="0.4"/>
</linearGradient>
<linearGradient id="paint19_linear_404_236" x1="20.5" y1="0" x2="8.84498" y2="38.4688" gradientUnits="userSpaceOnUse">
<stop stop-color="#004DB5"/>
<stop offset="0.576923" stop-color="#00224F" stop-opacity="0.4"/>
</linearGradient>
<clipPath id="clip0_404_236">
<rect width="28.72" height="24" fill="white" transform="translate(199.28 68)"/>
</clipPath>
<clipPath id="clip1_404_236">
<rect width="24" height="24" fill="white" transform="translate(72 111)"/>
</clipPath>
<clipPath id="clip2_404_236">
<rect width="24" height="24" fill="white" transform="translate(159 111)"/>
</clipPath>
</defs>
</svg>
