<svg width="24" height="24" viewBox="0 0 24 24" fill="none" xmlns="http://www.w3.org/2000/svg">
<path d="M15.0919 11.9719L16.6248 10.4401L12.0282 5.84351L7.43164 10.4401L8.96347 11.9719L10.9449 9.99159L10.9449 18.1567H13.1116L13.1116 9.99159L15.0919 11.9719Z" fill="#00264B"/>
<path fill-rule="evenodd" clip-rule="evenodd" d="M0.0834961 19.5834C0.0834961 20.7326 0.540042 21.8348 1.3527 22.6475C2.16536 23.4602 3.26756 23.9167 4.41683 23.9167L19.5835 23.9167C20.7328 23.9167 21.835 23.4602 22.6476 22.6475C23.4603 21.8348 23.9168 20.7326 23.9168 19.5834L23.9168 4.41671C23.9168 3.26744 23.4603 2.16524 22.6476 1.35258C21.835 0.53992 20.7328 0.083374 19.5835 0.083374L4.41683 0.083374C3.26756 0.083374 2.16536 0.53992 1.3527 1.35258C0.540042 2.16524 0.0834961 3.26744 0.0834961 4.41671L0.0834961 19.5834ZM4.41683 21.75L19.5835 21.75C20.1581 21.75 20.7092 21.5218 21.1156 21.1154C21.5219 20.7091 21.7502 20.158 21.7502 19.5834L21.7502 4.41671C21.7502 3.84207 21.5219 3.29097 21.1156 2.88464C20.7092 2.47831 20.1581 2.25004 19.5835 2.25004L4.41683 2.25004C3.84219 2.25004 3.29109 2.47831 2.88476 2.88464C2.47844 3.29097 2.25016 3.84207 2.25016 4.41671L2.25016 19.5834C2.25016 20.158 2.47844 20.7091 2.88476 21.1154C3.29109 21.5218 3.84219 21.75 4.41683 21.75Z" fill="#00264B"/>
</svg>
