<svg width="132" height="132" viewBox="0 0 132 132" fill="none" xmlns="http://www.w3.org/2000/svg">
<rect x="1" y="1" width="130" height="130" rx="65" fill="#AFC4E0" fill-opacity="0.5"/>
<rect x="1" y="1" width="130" height="130" rx="65" stroke="url(#paint0_linear_394_29)" stroke-width="2"/>
<path d="M34.2044 43.8182V70H29.4615V48.4332H29.3081L23.1845 52.3452V47.9986L29.6916 43.8182H34.2044ZM50.5297 70.4986C48.4245 70.4986 46.6177 69.9659 45.1092 68.9006C43.6092 67.8267 42.4544 66.2798 41.6447 64.2599C40.8436 62.2315 40.443 59.7898 40.443 56.9347C40.4515 54.0795 40.8564 51.6506 41.6575 49.6477C42.4672 47.6364 43.622 46.1023 45.122 45.0455C46.6305 43.9886 48.4331 43.4602 50.5297 43.4602C52.6262 43.4602 54.4288 43.9886 55.9373 45.0455C57.4458 46.1023 58.6007 47.6364 59.4018 49.6477C60.2115 51.6591 60.6163 54.0881 60.6163 56.9347C60.6163 59.7983 60.2115 62.2443 59.4018 64.2727C58.6007 66.2926 57.4458 67.8352 55.9373 68.9006C54.4373 69.9659 52.6348 70.4986 50.5297 70.4986ZM50.5297 66.4972C52.166 66.4972 53.4572 65.6918 54.4032 64.081C55.3578 62.4616 55.8351 60.0795 55.8351 56.9347C55.8351 54.8551 55.6177 53.108 55.1831 51.6932C54.7484 50.2784 54.1348 49.2131 53.3422 48.4972C52.5495 47.7727 51.612 47.4105 50.5297 47.4105C48.9018 47.4105 47.6149 48.2202 46.6689 49.8395C45.7228 51.4503 45.2456 53.8153 45.237 56.9347C45.2285 59.0227 45.4373 60.7784 45.8635 62.2017C46.2981 63.625 46.9118 64.6989 47.7044 65.4233C48.497 66.1392 49.4387 66.4972 50.5297 66.4972ZM74.5414 70.4986C72.4363 70.4986 70.6294 69.9659 69.1209 68.9006C67.6209 67.8267 66.4661 66.2798 65.6564 64.2599C64.8553 62.2315 64.4547 59.7898 64.4547 56.9347C64.4632 54.0795 64.8681 51.6506 65.6692 49.6477C66.4789 47.6364 67.6337 46.1023 69.1337 45.0455C70.6422 43.9886 72.4448 43.4602 74.5414 43.4602C76.638 43.4602 78.4405 43.9886 79.949 45.0455C81.4576 46.1023 82.6124 47.6364 83.4135 49.6477C84.2232 51.6591 84.628 54.0881 84.628 56.9347C84.628 59.7983 84.2232 62.2443 83.4135 64.2727C82.6124 66.2926 81.4576 67.8352 79.949 68.9006C78.449 69.9659 76.6465 70.4986 74.5414 70.4986ZM74.5414 66.4972C76.1777 66.4972 77.4689 65.6918 78.415 64.081C79.3695 62.4616 79.8468 60.0795 79.8468 56.9347C79.8468 54.8551 79.6294 53.108 79.1948 51.6932C78.7601 50.2784 78.1465 49.2131 77.3539 48.4972C76.5613 47.7727 75.6238 47.4105 74.5414 47.4105C72.9135 47.4105 71.6266 48.2202 70.6806 49.8395C69.7346 51.4503 69.2573 53.8153 69.2488 56.9347C69.2402 59.0227 69.449 60.7784 69.8752 62.2017C70.3098 63.625 70.9235 64.6989 71.7161 65.4233C72.5087 66.1392 73.4505 66.4972 74.5414 66.4972ZM96.6483 65.8068V48.1136H100.662V65.8068H96.6483ZM89.8088 58.9673V54.9531H107.502V58.9673H89.8088Z" fill="url(#paint1_linear_394_29)"/>
<path d="M26.0129 93H24.7203L28.4589 82.8182H29.7316L33.4703 93H32.1776L29.135 84.429H29.0555L26.0129 93ZM26.4901 89.0227H31.7004V90.1165H26.4901V89.0227ZM39.7096 89.8778V85.3636H40.8829V93H39.7096V91.7074H39.6301C39.4511 92.0952 39.1727 92.425 38.7948 92.6967C38.417 92.9652 37.9397 93.0994 37.363 93.0994C36.8857 93.0994 36.4615 92.995 36.0903 92.7862C35.7191 92.5741 35.4274 92.2559 35.2153 91.8317C35.0032 91.4041 34.8971 90.8655 34.8971 90.2159V85.3636H36.0704V90.1364C36.0704 90.6932 36.2262 91.1373 36.5377 91.4688C36.8526 91.8002 37.2536 91.9659 37.7409 91.9659C38.0325 91.9659 38.3292 91.8913 38.6308 91.7422C38.9357 91.593 39.1909 91.3643 39.3964 91.0561C39.6052 90.7479 39.7096 90.3551 39.7096 89.8778ZM46.3529 85.3636V86.358H42.3955V85.3636H46.3529ZM43.5489 83.5341H44.7222V90.8125C44.7222 91.1439 44.7703 91.3925 44.8664 91.5582C44.9658 91.7206 45.0918 91.83 45.2442 91.8864C45.4 91.9394 45.5641 91.9659 45.7364 91.9659C45.8657 91.9659 45.9717 91.9593 46.0546 91.946C46.1375 91.9295 46.2037 91.9162 46.2535 91.9062L46.4921 92.9602C46.4126 92.9901 46.3015 93.0199 46.159 93.0497C46.0165 93.0829 45.8358 93.0994 45.6171 93.0994C45.2857 93.0994 44.9608 93.0282 44.6427 92.8857C44.3278 92.7431 44.066 92.526 43.8572 92.2344C43.6517 91.9427 43.5489 91.5748 43.5489 91.1307V83.5341ZM51.1381 93.1591C50.4487 93.1591 49.8438 92.995 49.3234 92.6669C48.8064 92.3388 48.402 91.8797 48.1104 91.2898C47.822 90.6998 47.6778 90.0104 47.6778 89.2216C47.6778 88.4261 47.822 87.7318 48.1104 87.1385C48.402 86.5452 48.8064 86.0845 49.3234 85.7564C49.8438 85.4283 50.4487 85.2642 51.1381 85.2642C51.8274 85.2642 52.4307 85.4283 52.9477 85.7564C53.4681 86.0845 53.8724 86.5452 54.1608 87.1385C54.4524 87.7318 54.5983 88.4261 54.5983 89.2216C54.5983 90.0104 54.4524 90.6998 54.1608 91.2898C53.8724 91.8797 53.4681 92.3388 52.9477 92.6669C52.4307 92.995 51.8274 93.1591 51.1381 93.1591ZM51.1381 92.1051C51.6617 92.1051 52.0926 91.9709 52.4307 91.7024C52.7687 91.4339 53.019 91.081 53.1814 90.6435C53.3438 90.206 53.425 89.732 53.425 89.2216C53.425 88.7112 53.3438 88.2356 53.1814 87.7947C53.019 87.3539 52.7687 86.9976 52.4307 86.7259C52.0926 86.4541 51.6617 86.3182 51.1381 86.3182C50.6144 86.3182 50.1835 86.4541 49.8454 86.7259C49.5074 86.9976 49.2571 87.3539 49.0947 87.7947C48.9323 88.2356 48.8511 88.7112 48.8511 89.2216C48.8511 89.732 48.9323 90.206 49.0947 90.6435C49.2571 91.081 49.5074 91.4339 49.8454 91.7024C50.1835 91.9709 50.6144 92.1051 51.1381 92.1051ZM56.3893 93V85.3636H57.5228V86.5568H57.6222C57.7813 86.1491 58.0382 85.8326 58.3928 85.6072C58.7475 85.3786 59.1734 85.2642 59.6705 85.2642C60.1743 85.2642 60.5936 85.3786 60.9284 85.6072C61.2664 85.8326 61.5299 86.1491 61.7188 86.5568H61.7984C61.9939 86.1624 62.2873 85.8492 62.6784 85.6172C63.0695 85.3819 63.5384 85.2642 64.0853 85.2642C64.7681 85.2642 65.3266 85.478 65.7607 85.9055C66.1949 86.3298 66.412 86.991 66.412 87.8892V93H65.2387V87.8892C65.2387 87.3258 65.0846 86.9231 64.7764 86.6811C64.4681 86.4392 64.1052 86.3182 63.6876 86.3182C63.1507 86.3182 62.7347 86.4806 62.4397 86.8054C62.1447 87.1269 61.9972 87.5346 61.9972 88.0284V93H60.8041V87.7699C60.8041 87.3357 60.6632 86.986 60.3815 86.7209C60.0998 86.4524 59.7368 86.3182 59.2927 86.3182C58.9878 86.3182 58.7027 86.3994 58.4376 86.5618C58.1758 86.7242 57.9636 86.9496 57.8012 87.2379C57.6421 87.523 57.5626 87.8527 57.5626 88.2273V93H56.3893ZM70.8044 93.179C70.3205 93.179 69.8814 93.0878 69.4869 92.9055C69.0925 92.7199 68.7793 92.4531 68.5473 92.1051C68.3153 91.7538 68.1993 91.3295 68.1993 90.8324C68.1993 90.3949 68.2855 90.0402 68.4578 89.7685C68.6302 89.4934 68.8605 89.2779 69.1489 89.1222C69.4372 88.9664 69.7554 88.8504 70.1034 88.7741C70.4548 88.6946 70.8077 88.6316 71.1624 88.5852C71.6264 88.5256 72.0026 88.4808 72.2909 88.451C72.5826 88.4179 72.7947 88.3632 72.9273 88.2869C73.0632 88.2107 73.1311 88.0781 73.1311 87.8892V87.8494C73.1311 87.3589 72.9969 86.9777 72.7284 86.706C72.4633 86.4342 72.0606 86.2983 71.5203 86.2983C70.9602 86.2983 70.521 86.4209 70.2029 86.6662C69.8847 86.9115 69.661 87.1733 69.5317 87.4517L68.4181 87.054C68.6169 86.59 68.8821 86.2287 69.2135 85.9702C69.5483 85.7083 69.9128 85.526 70.3073 85.4233C70.705 85.3172 71.0961 85.2642 71.4806 85.2642C71.7258 85.2642 72.0075 85.294 72.3257 85.3537C72.6472 85.41 72.9571 85.5277 73.2554 85.7067C73.557 85.8857 73.8073 86.1558 74.0061 86.517C74.205 86.8783 74.3044 87.3622 74.3044 87.9688V93H73.1311V91.9659H73.0715C72.9919 92.1316 72.8593 92.3089 72.6737 92.4979C72.4881 92.6868 72.2412 92.8475 71.933 92.9801C71.6247 93.1127 71.2486 93.179 70.8044 93.179ZM70.9834 92.125C71.4474 92.125 71.8385 92.0339 72.1567 91.8516C72.4782 91.6693 72.7201 91.4339 72.8825 91.1456C73.0483 90.8572 73.1311 90.554 73.1311 90.2358V89.1619C73.0814 89.2216 72.972 89.2763 72.803 89.326C72.6373 89.3724 72.445 89.4138 72.2263 89.4503C72.0109 89.4834 71.8004 89.5133 71.5949 89.5398C71.3927 89.563 71.2287 89.5829 71.1027 89.5994C70.7978 89.6392 70.5128 89.7038 70.2476 89.7933C69.9858 89.8795 69.7736 90.0104 69.6112 90.1861C69.4521 90.3584 69.3726 90.5937 69.3726 90.892C69.3726 91.2997 69.5234 91.608 69.825 91.8168C70.1299 92.0223 70.5161 92.125 70.9834 92.125ZM79.767 85.3636V86.358H75.8096V85.3636H79.767ZM76.963 83.5341H78.1363V90.8125C78.1363 91.1439 78.1843 91.3925 78.2805 91.5582C78.3799 91.7206 78.5058 91.83 78.6583 91.8864C78.8141 91.9394 78.9781 91.9659 79.1505 91.9659C79.2797 91.9659 79.3858 91.9593 79.4687 91.946C79.5515 91.9295 79.6178 91.9162 79.6675 91.9062L79.9062 92.9602C79.8266 92.9901 79.7156 93.0199 79.5731 93.0497C79.4305 93.0829 79.2499 93.0994 79.0312 93.0994C78.6997 93.0994 78.3749 93.0282 78.0567 92.8857C77.7419 92.7431 77.48 92.526 77.2712 92.2344C77.0657 91.9427 76.963 91.5748 76.963 91.1307V83.5341ZM81.5319 93V85.3636H82.7052V93H81.5319ZM82.1285 84.0909C81.8998 84.0909 81.7026 84.013 81.5368 83.8572C81.3744 83.7015 81.2932 83.5142 81.2932 83.2955C81.2932 83.0767 81.3744 82.8894 81.5368 82.7337C81.7026 82.5779 81.8998 82.5 82.1285 82.5C82.3572 82.5 82.5527 82.5779 82.7151 82.7337C82.8808 82.8894 82.9637 83.0767 82.9637 83.2955C82.9637 83.5142 82.8808 83.7015 82.7151 83.8572C82.5527 84.013 82.3572 84.0909 82.1285 84.0909ZM87.9564 93.1591C87.267 93.1591 86.6621 92.995 86.1418 92.6669C85.6247 92.3388 85.2204 91.8797 84.9287 91.2898C84.6404 90.6998 84.4962 90.0104 84.4962 89.2216C84.4962 88.4261 84.6404 87.7318 84.9287 87.1385C85.2204 86.5452 85.6247 86.0845 86.1418 85.7564C86.6621 85.4283 87.267 85.2642 87.9564 85.2642C88.6458 85.2642 89.249 85.4283 89.7661 85.7564C90.2864 86.0845 90.6908 86.5452 90.9791 87.1385C91.2708 87.7318 91.4166 88.4261 91.4166 89.2216C91.4166 90.0104 91.2708 90.6998 90.9791 91.2898C90.6908 91.8797 90.2864 92.3388 89.7661 92.6669C89.249 92.995 88.6458 93.1591 87.9564 93.1591ZM87.9564 92.1051C88.4801 92.1051 88.911 91.9709 89.249 91.7024C89.5871 91.4339 89.8373 91.081 89.9997 90.6435C90.1621 90.206 90.2433 89.732 90.2433 89.2216C90.2433 88.7112 90.1621 88.2356 89.9997 87.7947C89.8373 87.3539 89.5871 86.9976 89.249 86.7259C88.911 86.4541 88.4801 86.3182 87.9564 86.3182C87.4327 86.3182 87.0019 86.4541 86.6638 86.7259C86.3257 86.9976 86.0755 87.3539 85.9131 87.7947C85.7507 88.2356 85.6695 88.7112 85.6695 89.2216C85.6695 89.732 85.7507 90.206 85.9131 90.6435C86.0755 91.081 86.3257 91.4339 86.6638 91.7024C87.0019 91.9709 87.4327 92.1051 87.9564 92.1051ZM94.3809 88.4062V93H93.2077V85.3636H94.3412V86.5568H94.4406C94.6196 86.169 94.8914 85.8575 95.2559 85.6222C95.6205 85.3835 96.0912 85.2642 96.6679 85.2642C97.1849 85.2642 97.6373 85.3703 98.0251 85.5824C98.4129 85.7912 98.7145 86.1094 98.93 86.5369C99.1454 86.9612 99.2531 87.4981 99.2531 88.1477V93H98.0798V88.2273C98.0798 87.6274 97.924 87.16 97.6125 86.8253C97.3009 86.4872 96.8734 86.3182 96.3298 86.3182C95.9553 86.3182 95.6205 86.3994 95.3256 86.5618C95.0339 86.7242 94.8035 86.9612 94.6345 87.2727C94.4655 87.5843 94.3809 87.9621 94.3809 88.4062ZM106.806 87.0739L105.752 87.3722C105.686 87.1965 105.588 87.0258 105.459 86.8601C105.333 86.6911 105.161 86.5518 104.942 86.4425C104.723 86.3331 104.443 86.2784 104.102 86.2784C103.634 86.2784 103.245 86.3861 102.933 86.6016C102.625 86.8137 102.471 87.0838 102.471 87.4119C102.471 87.7036 102.577 87.9339 102.789 88.103C103.001 88.272 103.333 88.4129 103.783 88.5256L104.917 88.804C105.6 88.9697 106.109 89.2232 106.443 89.5646C106.778 89.9027 106.945 90.3385 106.945 90.8722C106.945 91.3097 106.819 91.7008 106.568 92.0455C106.319 92.3902 105.971 92.6619 105.524 92.8608C105.076 93.0597 104.556 93.1591 103.962 93.1591C103.184 93.1591 102.539 92.9901 102.028 92.652C101.518 92.3139 101.195 91.8201 101.059 91.1705L102.173 90.892C102.279 91.303 102.479 91.6113 102.774 91.8168C103.073 92.0223 103.462 92.125 103.943 92.125C104.489 92.125 104.924 92.009 105.245 91.777C105.57 91.5417 105.732 91.2599 105.732 90.9318C105.732 90.6667 105.64 90.4446 105.454 90.2656C105.268 90.0833 104.983 89.9474 104.599 89.858L103.326 89.5597C102.627 89.3939 102.113 89.1371 101.785 88.7891C101.46 88.4377 101.298 87.9986 101.298 87.4716C101.298 87.0407 101.419 86.6596 101.661 86.3281C101.906 85.9967 102.239 85.7365 102.66 85.5476C103.084 85.3587 103.565 85.2642 104.102 85.2642C104.857 85.2642 105.451 85.4299 105.881 85.7614C106.316 86.0928 106.624 86.5303 106.806 87.0739Z" fill="white"/>
<defs>
<linearGradient id="paint0_linear_394_29" x1="20.4286" y1="114.19" x2="125.19" y2="31.9524" gradientUnits="userSpaceOnUse">
<stop stop-color="#CBE1FF"/>
<stop offset="0.300296" stop-color="#006CFF"/>
<stop offset="0.6" stop-color="#CBE1FF"/>
<stop offset="1" stop-color="#006CFF"/>
</linearGradient>
<linearGradient id="paint1_linear_394_29" x1="16" y1="57" x2="116" y2="57" gradientUnits="userSpaceOnUse">
<stop stop-color="#004DB5"/>
<stop offset="1" stop-color="#00264B"/>
</linearGradient>
</defs>
</svg>
