<svg width="14" height="14" viewBox="0 0 14 14" fill="none" xmlns="http://www.w3.org/2000/svg">
<path d="M10.9269 9.08689C11.1923 9.07804 11.4491 8.99048 11.6646 8.83533V9.59483C11.6646 10.3233 11.2306 10.9725 10.5708 11.2416C10.713 10.9369 10.8081 10.6123 10.853 10.2791L10.9269 9.08689Z" fill="url(#paint0_radial_385_11)"/>
<path d="M10.9269 9.08689C11.1923 9.07804 11.4491 8.99048 11.6646 8.83533V9.59483C11.6646 10.3233 11.2306 10.9725 10.5708 11.2416C10.713 10.9369 10.8081 10.6123 10.853 10.2791L10.9269 9.08689Z" fill="url(#paint1_radial_385_11)"/>
<path d="M2.99636 9.08689C2.73083 9.07813 2.47391 8.99056 2.2583 8.83533V9.59483C2.2583 10.3233 2.6923 10.9725 3.35205 11.2416C3.21001 10.9368 3.11501 10.6123 3.0703 10.2791L2.99636 9.08689Z" fill="url(#paint2_radial_385_11)"/>
<path d="M2.99636 9.08689C2.73083 9.07813 2.47391 8.99056 2.2583 8.83533V9.59483C2.2583 10.3233 2.6923 10.9725 3.35205 11.2416C3.21001 10.9368 3.11501 10.6123 3.0703 10.2791L2.99636 9.08689Z" fill="url(#paint3_radial_385_11)"/>
<g filter="url(#filter0_ii_385_11)">
<path d="M3.02623 10.3228C3.12715 11.0917 3.5044 11.7976 4.08756 12.3088C4.67073 12.82 5.41998 13.1016 6.19548 13.1009H7.73461C8.51011 13.1016 9.25936 12.82 9.84252 12.3088C10.4257 11.7976 10.8029 11.0917 10.9039 10.3228C11.0001 8.78631 11.0968 7.25593 11.1685 5.72031C11.1598 5.09468 10.6663 4.57843 10.0433 4.55218H8.90142C8.51917 4.55134 8.14537 4.43973 7.82523 4.23086C7.5051 4.022 7.25236 3.72482 7.09761 3.37531C7.05747 3.27483 6.9882 3.18864 6.8987 3.12783C6.8092 3.06702 6.70356 3.03437 6.59536 3.03406H5.55717C4.05173 3.03406 2.83154 4.26781 2.83154 5.79031C2.83154 7.30843 2.92648 8.80118 3.02623 10.3228Z" fill="url(#paint4_radial_385_11)"/>
</g>
<path d="M3.02623 10.3228C3.12715 11.0917 3.5044 11.7976 4.08756 12.3088C4.67073 12.82 5.41998 13.1016 6.19548 13.1009H7.73461C8.51011 13.1016 9.25936 12.82 9.84252 12.3088C10.4257 11.7976 10.8029 11.0917 10.9039 10.3228C11.0001 8.78631 11.0968 7.25593 11.1685 5.72031C11.1598 5.09468 10.6663 4.57843 10.0433 4.55218H8.90142C8.51917 4.55134 8.14537 4.43973 7.82523 4.23086C7.5051 4.022 7.25236 3.72482 7.09761 3.37531C7.05747 3.27483 6.9882 3.18864 6.8987 3.12783C6.8092 3.06702 6.70356 3.03437 6.59536 3.03406H5.55717C4.05173 3.03406 2.83154 4.26781 2.83154 5.79031C2.83154 7.30843 2.92648 8.80118 3.02623 10.3228Z" fill="url(#paint5_linear_385_11)"/>
<path d="M3.02623 10.3228C3.12715 11.0917 3.5044 11.7976 4.08756 12.3088C4.67073 12.82 5.41998 13.1016 6.19548 13.1009H7.73461C8.51011 13.1016 9.25936 12.82 9.84252 12.3088C10.4257 11.7976 10.8029 11.0917 10.9039 10.3228C11.0001 8.78631 11.0968 7.25593 11.1685 5.72031C11.1598 5.09468 10.6663 4.57843 10.0433 4.55218H8.90142C8.51917 4.55134 8.14537 4.43973 7.82523 4.23086C7.5051 4.022 7.25236 3.72482 7.09761 3.37531C7.05747 3.27483 6.9882 3.18864 6.8987 3.12783C6.8092 3.06702 6.70356 3.03437 6.59536 3.03406H5.55717C4.05173 3.03406 2.83154 4.26781 2.83154 5.79031C2.83154 7.30843 2.92648 8.80118 3.02623 10.3228Z" fill="url(#paint6_radial_385_11)"/>
<path d="M3.02623 10.3228C3.12715 11.0917 3.5044 11.7976 4.08756 12.3088C4.67073 12.82 5.41998 13.1016 6.19548 13.1009H7.73461C8.51011 13.1016 9.25936 12.82 9.84252 12.3088C10.4257 11.7976 10.8029 11.0917 10.9039 10.3228C11.0001 8.78631 11.0968 7.25593 11.1685 5.72031C11.1598 5.09468 10.6663 4.57843 10.0433 4.55218H8.90142C8.51917 4.55134 8.14537 4.43973 7.82523 4.23086C7.5051 4.022 7.25236 3.72482 7.09761 3.37531C7.05747 3.27483 6.9882 3.18864 6.8987 3.12783C6.8092 3.06702 6.70356 3.03437 6.59536 3.03406H5.55717C4.05173 3.03406 2.83154 4.26781 2.83154 5.79031C2.83154 7.30843 2.92648 8.80118 3.02623 10.3228Z" fill="url(#paint7_radial_385_11)"/>
<path d="M3.02623 10.3228C3.12715 11.0917 3.5044 11.7976 4.08756 12.3088C4.67073 12.82 5.41998 13.1016 6.19548 13.1009H7.73461C8.51011 13.1016 9.25936 12.82 9.84252 12.3088C10.4257 11.7976 10.8029 11.0917 10.9039 10.3228C11.0001 8.78631 11.0968 7.25593 11.1685 5.72031C11.1598 5.09468 10.6663 4.57843 10.0433 4.55218H8.90142C8.51917 4.55134 8.14537 4.43973 7.82523 4.23086C7.5051 4.022 7.25236 3.72482 7.09761 3.37531C7.05747 3.27483 6.9882 3.18864 6.8987 3.12783C6.8092 3.06702 6.70356 3.03437 6.59536 3.03406H5.55717C4.05173 3.03406 2.83154 4.26781 2.83154 5.79031C2.83154 7.30843 2.92648 8.80118 3.02623 10.3228Z" fill="url(#paint8_radial_385_11)"/>
<path d="M3.02623 10.3228C3.12715 11.0917 3.5044 11.7976 4.08756 12.3088C4.67073 12.82 5.41998 13.1016 6.19548 13.1009H7.73461C8.51011 13.1016 9.25936 12.82 9.84252 12.3088C10.4257 11.7976 10.8029 11.0917 10.9039 10.3228C11.0001 8.78631 11.0968 7.25593 11.1685 5.72031C11.1598 5.09468 10.6663 4.57843 10.0433 4.55218H8.90142C8.51917 4.55134 8.14537 4.43973 7.82523 4.23086C7.5051 4.022 7.25236 3.72482 7.09761 3.37531C7.05747 3.27483 6.9882 3.18864 6.8987 3.12783C6.8092 3.06702 6.70356 3.03437 6.59536 3.03406H5.55717C4.05173 3.03406 2.83154 4.26781 2.83154 5.79031C2.83154 7.30843 2.92648 8.80118 3.02623 10.3228Z" fill="url(#paint9_radial_385_11)"/>
<path d="M3.02623 10.3228C3.12715 11.0917 3.5044 11.7976 4.08756 12.3088C4.67073 12.82 5.41998 13.1016 6.19548 13.1009H7.73461C8.51011 13.1016 9.25936 12.82 9.84252 12.3088C10.4257 11.7976 10.8029 11.0917 10.9039 10.3228C11.0001 8.78631 11.0968 7.25593 11.1685 5.72031C11.1598 5.09468 10.6663 4.57843 10.0433 4.55218H8.90142C8.51917 4.55134 8.14537 4.43973 7.82523 4.23086C7.5051 4.022 7.25236 3.72482 7.09761 3.37531C7.05747 3.27483 6.9882 3.18864 6.8987 3.12783C6.8092 3.06702 6.70356 3.03437 6.59536 3.03406H5.55717C4.05173 3.03406 2.83154 4.26781 2.83154 5.79031C2.83154 7.30843 2.92648 8.80118 3.02623 10.3228Z" fill="url(#paint10_radial_385_11)"/>
<path d="M3.02623 10.3228C3.12715 11.0917 3.5044 11.7976 4.08756 12.3088C4.67073 12.82 5.41998 13.1016 6.19548 13.1009H7.73461C8.51011 13.1016 9.25936 12.82 9.84252 12.3088C10.4257 11.7976 10.8029 11.0917 10.9039 10.3228C11.0001 8.78631 11.0968 7.25593 11.1685 5.72031C11.1598 5.09468 10.6663 4.57843 10.0433 4.55218H8.90142C8.51917 4.55134 8.14537 4.43973 7.82523 4.23086C7.5051 4.022 7.25236 3.72482 7.09761 3.37531C7.05747 3.27483 6.9882 3.18864 6.8987 3.12783C6.8092 3.06702 6.70356 3.03437 6.59536 3.03406H5.55717C4.05173 3.03406 2.83154 4.26781 2.83154 5.79031C2.83154 7.30843 2.92648 8.80118 3.02623 10.3228Z" fill="url(#paint11_radial_385_11)"/>
<path d="M3.02623 10.3228C3.12715 11.0917 3.5044 11.7976 4.08756 12.3088C4.67073 12.82 5.41998 13.1016 6.19548 13.1009H7.73461C8.51011 13.1016 9.25936 12.82 9.84252 12.3088C10.4257 11.7976 10.8029 11.0917 10.9039 10.3228C11.0001 8.78631 11.0968 7.25593 11.1685 5.72031C11.1598 5.09468 10.6663 4.57843 10.0433 4.55218H8.90142C8.51917 4.55134 8.14537 4.43973 7.82523 4.23086C7.5051 4.022 7.25236 3.72482 7.09761 3.37531C7.05747 3.27483 6.9882 3.18864 6.8987 3.12783C6.8092 3.06702 6.70356 3.03437 6.59536 3.03406H5.55717C4.05173 3.03406 2.83154 4.26781 2.83154 5.79031C2.83154 7.30843 2.92648 8.80118 3.02623 10.3228Z" fill="url(#paint12_radial_385_11)"/>
<g filter="url(#filter1_f_385_11)">
<path d="M6.61081 7.79367L6.04643 9.1438C5.96331 9.45224 6.16193 9.76067 6.44281 9.76067H7.04218C7.3235 9.76067 7.52212 9.44786 7.43943 9.1438L7.03431 7.64449C6.94725 7.31199 6.70181 7.46117 6.61037 7.79324" fill="#C48377"/>
</g>
<g filter="url(#filter2_f_385_11)">
<path d="M6.65007 7.48473L6.21651 8.98404C6.12814 9.29248 6.34032 9.60091 6.64089 9.60091H7.28226C7.58326 9.60091 7.79545 9.2881 7.70707 8.98404L7.27395 7.48473C7.18076 7.15223 6.7472 7.15223 6.65007 7.48473Z" fill="url(#paint13_linear_385_11)"/>
<path d="M6.65007 7.48473L6.21651 8.98404C6.12814 9.29248 6.34032 9.60091 6.64089 9.60091H7.28226C7.58326 9.60091 7.79545 9.2881 7.70707 8.98404L7.27395 7.48473C7.18076 7.15223 6.7472 7.15223 6.65007 7.48473Z" fill="url(#paint14_linear_385_11)"/>
<path d="M6.65007 7.48473L6.21651 8.98404C6.12814 9.29248 6.34032 9.60091 6.64089 9.60091H7.28226C7.58326 9.60091 7.79545 9.2881 7.70707 8.98404L7.27395 7.48473C7.18076 7.15223 6.7472 7.15223 6.65007 7.48473Z" fill="url(#paint15_linear_385_11)"/>
<path d="M6.65007 7.48473L6.21651 8.98404C6.12814 9.29248 6.34032 9.60091 6.64089 9.60091H7.28226C7.58326 9.60091 7.79545 9.2881 7.70707 8.98404L7.27395 7.48473C7.18076 7.15223 6.7472 7.15223 6.65007 7.48473Z" fill="url(#paint16_linear_385_11)"/>
</g>
<path d="M6.65007 7.48473L6.21651 8.98404C6.12814 9.29248 6.34032 9.60091 6.64089 9.60091H7.28226C7.58326 9.60091 7.79545 9.2881 7.70707 8.98404L7.27395 7.48473C7.18076 7.15223 6.7472 7.15223 6.65007 7.48473Z" fill="url(#paint17_linear_385_11)"/>
<path d="M6.65007 7.48473L6.21651 8.98404C6.12814 9.29248 6.34032 9.60091 6.64089 9.60091H7.28226C7.58326 9.60091 7.79545 9.2881 7.70707 8.98404L7.27395 7.48473C7.18076 7.15223 6.7472 7.15223 6.65007 7.48473Z" fill="url(#paint18_radial_385_11)"/>
<g filter="url(#filter3_f_385_11)">
<path d="M5.84711 10.1333C5.81653 10.1174 5.78157 10.1119 5.74758 10.1178C5.7136 10.1236 5.68247 10.1405 5.65898 10.1657C5.63489 10.1898 5.6201 10.2216 5.61722 10.2556C5.61433 10.2895 5.62355 10.3234 5.64323 10.3512C5.78748 10.5687 5.98349 10.7469 6.21365 10.8698C6.44381 10.9928 6.70092 11.0566 6.96186 11.0556C7.22287 11.0567 7.48007 10.9929 7.71031 10.8699C7.94056 10.747 8.13664 10.5687 8.28092 10.3512C8.30068 10.3231 8.30989 10.2889 8.30693 10.2547C8.30397 10.2204 8.28903 10.1883 8.26473 10.164C8.24109 10.1392 8.21003 10.1228 8.17624 10.1173C8.14245 10.1118 8.10778 10.1174 8.07748 10.1333C7.73246 10.31 7.34945 10.4006 6.96186 10.3976C6.55323 10.3976 6.16911 10.3013 5.84711 10.1333Z" stroke="url(#paint19_radial_385_11)" stroke-width="0.075"/>
</g>
<path d="M6.96142 10.43C6.56871 10.4327 6.18114 10.3408 5.83135 10.1623C5.71979 10.1054 5.59948 10.2314 5.66992 10.3329C5.8113 10.5458 6.0033 10.7203 6.2287 10.8407C6.45411 10.9611 6.70587 11.0237 6.96142 11.0229C7.21697 11.0237 7.46873 10.9611 7.69413 10.8407C7.91953 10.7203 8.11153 10.5458 8.25292 10.3329C8.32335 10.2275 8.20348 10.1054 8.09148 10.1623C7.74173 10.341 7.35415 10.4325 6.96142 10.43Z" fill="url(#paint20_radial_385_11)"/>
<g filter="url(#filter4_ii_385_11)">
<path d="M10.9219 2.64908C11.3414 2.79345 11.7181 3.08658 11.9557 3.50658C12.1372 3.82322 12.2253 4.18476 12.21 4.5494C12.1947 4.91405 12.0765 5.26691 11.8691 5.5672C11.7257 5.77742 11.6489 6.02589 11.6486 6.28033V7.24939C11.4843 7.13944 11.299 7.06494 11.1043 7.03064L11.1682 5.72033C11.1594 5.0947 10.6664 4.57845 10.0438 4.5522H8.90149C8.51925 4.55136 8.14544 4.43975 7.82531 4.23088C7.50518 4.02201 7.25244 3.72484 7.09768 3.37533C7.05754 3.27484 6.98827 3.18866 6.89877 3.12785C6.80927 3.06704 6.70363 3.03438 6.59543 3.03408H5.55724C4.0518 3.03408 2.83162 4.26783 2.83162 5.79033L2.85699 7.04464C2.64962 7.07526 2.43305 7.14395 2.26943 7.25945V6.28033C2.26943 6.02658 2.19155 5.7772 2.04893 5.5672C1.85143 5.27608 1.7363 4.93698 1.71574 4.58579C1.69518 4.2346 1.76994 3.88438 1.93212 3.5722C2.15619 3.14278 2.53491 2.81442 2.99174 2.65345C3.46 2.48846 3.85821 2.1691 4.12093 1.74783C4.29102 1.47399 4.52803 1.24797 4.80963 1.09106C5.09122 0.934154 5.40813 0.851522 5.73049 0.850952C5.9943 0.850952 6.24499 0.907827 6.47862 1.00408C6.79012 1.1397 7.14056 1.1397 7.45205 1.00408C7.68748 0.904102 7.94047 0.852047 8.19624 0.850952C8.88399 0.850952 9.48555 1.22283 9.81849 1.77408C10.0696 2.1897 10.4634 2.49158 10.9219 2.64908Z" fill="url(#paint21_linear_385_11)"/>
<path d="M10.9219 2.64908C11.3414 2.79345 11.7181 3.08658 11.9557 3.50658C12.1372 3.82322 12.2253 4.18476 12.21 4.5494C12.1947 4.91405 12.0765 5.26691 11.8691 5.5672C11.7257 5.77742 11.6489 6.02589 11.6486 6.28033V7.24939C11.4843 7.13944 11.299 7.06494 11.1043 7.03064L11.1682 5.72033C11.1594 5.0947 10.6664 4.57845 10.0438 4.5522H8.90149C8.51925 4.55136 8.14544 4.43975 7.82531 4.23088C7.50518 4.02201 7.25244 3.72484 7.09768 3.37533C7.05754 3.27484 6.98827 3.18866 6.89877 3.12785C6.80927 3.06704 6.70363 3.03438 6.59543 3.03408H5.55724C4.0518 3.03408 2.83162 4.26783 2.83162 5.79033L2.85699 7.04464C2.64962 7.07526 2.43305 7.14395 2.26943 7.25945V6.28033C2.26943 6.02658 2.19155 5.7772 2.04893 5.5672C1.85143 5.27608 1.7363 4.93698 1.71574 4.58579C1.69518 4.2346 1.76994 3.88438 1.93212 3.5722C2.15619 3.14278 2.53491 2.81442 2.99174 2.65345C3.46 2.48846 3.85821 2.1691 4.12093 1.74783C4.29102 1.47399 4.52803 1.24797 4.80963 1.09106C5.09122 0.934154 5.40813 0.851522 5.73049 0.850952C5.9943 0.850952 6.24499 0.907827 6.47862 1.00408C6.79012 1.1397 7.14056 1.1397 7.45205 1.00408C7.68748 0.904102 7.94047 0.852047 8.19624 0.850952C8.88399 0.850952 9.48555 1.22283 9.81849 1.77408C10.0696 2.1897 10.4634 2.49158 10.9219 2.64908Z" fill="url(#paint22_radial_385_11)"/>
<path d="M10.9219 2.64908C11.3414 2.79345 11.7181 3.08658 11.9557 3.50658C12.1372 3.82322 12.2253 4.18476 12.21 4.5494C12.1947 4.91405 12.0765 5.26691 11.8691 5.5672C11.7257 5.77742 11.6489 6.02589 11.6486 6.28033V7.24939C11.4843 7.13944 11.299 7.06494 11.1043 7.03064L11.1682 5.72033C11.1594 5.0947 10.6664 4.57845 10.0438 4.5522H8.90149C8.51925 4.55136 8.14544 4.43975 7.82531 4.23088C7.50518 4.02201 7.25244 3.72484 7.09768 3.37533C7.05754 3.27484 6.98827 3.18866 6.89877 3.12785C6.80927 3.06704 6.70363 3.03438 6.59543 3.03408H5.55724C4.0518 3.03408 2.83162 4.26783 2.83162 5.79033L2.85699 7.04464C2.64962 7.07526 2.43305 7.14395 2.26943 7.25945V6.28033C2.26943 6.02658 2.19155 5.7772 2.04893 5.5672C1.85143 5.27608 1.7363 4.93698 1.71574 4.58579C1.69518 4.2346 1.76994 3.88438 1.93212 3.5722C2.15619 3.14278 2.53491 2.81442 2.99174 2.65345C3.46 2.48846 3.85821 2.1691 4.12093 1.74783C4.29102 1.47399 4.52803 1.24797 4.80963 1.09106C5.09122 0.934154 5.40813 0.851522 5.73049 0.850952C5.9943 0.850952 6.24499 0.907827 6.47862 1.00408C6.79012 1.1397 7.14056 1.1397 7.45205 1.00408C7.68748 0.904102 7.94047 0.852047 8.19624 0.850952C8.88399 0.850952 9.48555 1.22283 9.81849 1.77408C10.0696 2.1897 10.4634 2.49158 10.9219 2.64908Z" fill="url(#paint23_radial_385_11)"/>
<path d="M10.9219 2.64908C11.3414 2.79345 11.7181 3.08658 11.9557 3.50658C12.1372 3.82322 12.2253 4.18476 12.21 4.5494C12.1947 4.91405 12.0765 5.26691 11.8691 5.5672C11.7257 5.77742 11.6489 6.02589 11.6486 6.28033V7.24939C11.4843 7.13944 11.299 7.06494 11.1043 7.03064L11.1682 5.72033C11.1594 5.0947 10.6664 4.57845 10.0438 4.5522H8.90149C8.51925 4.55136 8.14544 4.43975 7.82531 4.23088C7.50518 4.02201 7.25244 3.72484 7.09768 3.37533C7.05754 3.27484 6.98827 3.18866 6.89877 3.12785C6.80927 3.06704 6.70363 3.03438 6.59543 3.03408H5.55724C4.0518 3.03408 2.83162 4.26783 2.83162 5.79033L2.85699 7.04464C2.64962 7.07526 2.43305 7.14395 2.26943 7.25945V6.28033C2.26943 6.02658 2.19155 5.7772 2.04893 5.5672C1.85143 5.27608 1.7363 4.93698 1.71574 4.58579C1.69518 4.2346 1.76994 3.88438 1.93212 3.5722C2.15619 3.14278 2.53491 2.81442 2.99174 2.65345C3.46 2.48846 3.85821 2.1691 4.12093 1.74783C4.29102 1.47399 4.52803 1.24797 4.80963 1.09106C5.09122 0.934154 5.40813 0.851522 5.73049 0.850952C5.9943 0.850952 6.24499 0.907827 6.47862 1.00408C6.79012 1.1397 7.14056 1.1397 7.45205 1.00408C7.68748 0.904102 7.94047 0.852047 8.19624 0.850952C8.88399 0.850952 9.48555 1.22283 9.81849 1.77408C10.0696 2.1897 10.4634 2.49158 10.9219 2.64908Z" fill="url(#paint24_radial_385_11)"/>
<path d="M10.9219 2.64908C11.3414 2.79345 11.7181 3.08658 11.9557 3.50658C12.1372 3.82322 12.2253 4.18476 12.21 4.5494C12.1947 4.91405 12.0765 5.26691 11.8691 5.5672C11.7257 5.77742 11.6489 6.02589 11.6486 6.28033V7.24939C11.4843 7.13944 11.299 7.06494 11.1043 7.03064L11.1682 5.72033C11.1594 5.0947 10.6664 4.57845 10.0438 4.5522H8.90149C8.51925 4.55136 8.14544 4.43975 7.82531 4.23088C7.50518 4.02201 7.25244 3.72484 7.09768 3.37533C7.05754 3.27484 6.98827 3.18866 6.89877 3.12785C6.80927 3.06704 6.70363 3.03438 6.59543 3.03408H5.55724C4.0518 3.03408 2.83162 4.26783 2.83162 5.79033L2.85699 7.04464C2.64962 7.07526 2.43305 7.14395 2.26943 7.25945V6.28033C2.26943 6.02658 2.19155 5.7772 2.04893 5.5672C1.85143 5.27608 1.7363 4.93698 1.71574 4.58579C1.69518 4.2346 1.76994 3.88438 1.93212 3.5722C2.15619 3.14278 2.53491 2.81442 2.99174 2.65345C3.46 2.48846 3.85821 2.1691 4.12093 1.74783C4.29102 1.47399 4.52803 1.24797 4.80963 1.09106C5.09122 0.934154 5.40813 0.851522 5.73049 0.850952C5.9943 0.850952 6.24499 0.907827 6.47862 1.00408C6.79012 1.1397 7.14056 1.1397 7.45205 1.00408C7.68748 0.904102 7.94047 0.852047 8.19624 0.850952C8.88399 0.850952 9.48555 1.22283 9.81849 1.77408C10.0696 2.1897 10.4634 2.49158 10.9219 2.64908Z" fill="url(#paint25_radial_385_11)"/>
</g>
<g filter="url(#filter5_i_385_11)">
<path d="M10.0068 5.63725C9.86371 5.513 9.69789 5.38088 9.44589 5.30169C9.19783 5.22338 8.88721 5.20238 8.45714 5.25531C8.39892 5.26408 8.34641 5.29521 8.31078 5.34209C8.27514 5.38896 8.25919 5.44788 8.26631 5.50633C8.27343 5.56478 8.30306 5.61815 8.34891 5.6551C8.39476 5.69204 8.4532 5.70965 8.51183 5.70419C8.90427 5.65606 9.14489 5.681 9.31027 5.73306C9.47214 5.78425 9.58152 5.8665 9.70971 5.97806C9.73211 5.99757 9.75814 6.01247 9.78631 6.02192C9.81447 6.03136 9.84422 6.03517 9.87386 6.03312C9.9035 6.03106 9.93244 6.0232 9.95903 6.00996C9.98563 5.99672 10.0094 5.97838 10.0289 5.95597C10.0484 5.93356 10.0633 5.90753 10.0727 5.87937C10.0822 5.8512 10.086 5.82145 10.0839 5.79182C10.0819 5.76218 10.074 5.73324 10.0608 5.70664C10.0475 5.68005 10.0292 5.65632 10.0068 5.63681" fill="#A06937"/>
</g>
<g filter="url(#filter6_i_385_11)">
<path d="M4.17952 5.54837C4.60741 5.29784 5.10576 5.19485 5.5979 5.25525C5.62801 5.25806 5.65725 5.26687 5.6839 5.28118C5.71054 5.29548 5.73405 5.31499 5.75302 5.33853C5.772 5.36208 5.78606 5.38919 5.79437 5.41827C5.80269 5.44735 5.80509 5.47779 5.80143 5.50781C5.79777 5.53783 5.78813 5.56682 5.77308 5.59305C5.75803 5.61927 5.73787 5.64222 5.71379 5.66052C5.68972 5.67882 5.66222 5.69211 5.63292 5.6996C5.60362 5.70709 5.57311 5.70863 5.54321 5.70412C5.15084 5.65602 4.7535 5.73761 4.41183 5.93644C4.3865 5.95178 4.3617 5.96798 4.33746 5.985L4.33484 5.98675C4.28728 6.02134 4.22813 6.03606 4.16991 6.02777C4.11169 6.01949 4.05899 5.98886 4.02297 5.94237C3.98696 5.89589 3.97046 5.8372 3.97698 5.77876C3.9835 5.72032 4.01252 5.66672 4.0579 5.62931L4.17952 5.54837Z" fill="#A06937"/>
</g>
<g filter="url(#filter7_f_385_11)">
<path d="M7.15156 3.48692C7.13257 3.45025 7.11462 3.41304 7.09774 3.37536C7.0576 3.27487 6.98833 3.18869 6.89883 3.12788C6.80933 3.06707 6.70369 3.03441 6.59549 3.0341H5.5573C4.05187 3.0341 2.83168 4.26785 2.83168 5.79035V6.01479C2.55474 5.80392 2.20605 5.35854 2.20605 4.63842C2.20605 3.76386 2.84349 3.32198 3.24993 3.04023C3.36499 2.9606 3.46124 2.89367 3.51987 2.83373L3.60124 2.74798C3.88649 2.44567 4.39443 1.9071 5.28124 1.67173C5.84955 1.52079 6.42749 1.51904 6.8173 1.55361C7.02337 1.57242 7.16862 1.75135 7.16862 1.95785V3.47598L7.15156 3.48692Z" fill="url(#paint26_radial_385_11)"/>
<path d="M7.15156 3.48692C7.13257 3.45025 7.11462 3.41304 7.09774 3.37536C7.0576 3.27487 6.98833 3.18869 6.89883 3.12788C6.80933 3.06707 6.70369 3.03441 6.59549 3.0341H5.5573C4.05187 3.0341 2.83168 4.26785 2.83168 5.79035V6.01479C2.55474 5.80392 2.20605 5.35854 2.20605 4.63842C2.20605 3.76386 2.84349 3.32198 3.24993 3.04023C3.36499 2.9606 3.46124 2.89367 3.51987 2.83373L3.60124 2.74798C3.88649 2.44567 4.39443 1.9071 5.28124 1.67173C5.84955 1.52079 6.42749 1.51904 6.8173 1.55361C7.02337 1.57242 7.16862 1.75135 7.16862 1.95785V3.47598L7.15156 3.48692Z" fill="url(#paint27_radial_385_11)"/>
</g>
<g filter="url(#filter8_f_385_11)">
<path d="M11.2134 6.23793L11.1902 5.72299C11.1815 5.09999 10.6666 4.58637 10.044 4.56012H8.90169C8.54727 4.56027 8.19935 4.46496 7.89449 4.2842C7.58963 4.10344 7.33909 3.84391 7.16919 3.53287C7.16919 3.53287 7.00206 3.14568 6.96531 2.57912C6.93687 2.14162 7.33281 1.82749 7.76812 1.8848C8.672 2.00468 9.92675 2.28687 10.7891 2.84905C12.2118 3.77743 11.9629 5.44999 11.2134 6.23793Z" fill="url(#paint28_radial_385_11)"/>
<path d="M11.2134 6.23793L11.1902 5.72299C11.1815 5.09999 10.6666 4.58637 10.044 4.56012H8.90169C8.54727 4.56027 8.19935 4.46496 7.89449 4.2842C7.58963 4.10344 7.33909 3.84391 7.16919 3.53287C7.16919 3.53287 7.00206 3.14568 6.96531 2.57912C6.93687 2.14162 7.33281 1.82749 7.76812 1.8848C8.672 2.00468 9.92675 2.28687 10.7891 2.84905C12.2118 3.77743 11.9629 5.44999 11.2134 6.23793Z" fill="url(#paint29_radial_385_11)"/>
<path d="M11.2134 6.23793L11.1902 5.72299C11.1815 5.09999 10.6666 4.58637 10.044 4.56012H8.90169C8.54727 4.56027 8.19935 4.46496 7.89449 4.2842C7.58963 4.10344 7.33909 3.84391 7.16919 3.53287C7.16919 3.53287 7.00206 3.14568 6.96531 2.57912C6.93687 2.14162 7.33281 1.82749 7.76812 1.8848C8.672 2.00468 9.92675 2.28687 10.7891 2.84905C12.2118 3.77743 11.9629 5.44999 11.2134 6.23793Z" fill="url(#paint30_radial_385_11)"/>
<path d="M11.2134 6.23793L11.1902 5.72299C11.1815 5.09999 10.6666 4.58637 10.044 4.56012H8.90169C8.54727 4.56027 8.19935 4.46496 7.89449 4.2842C7.58963 4.10344 7.33909 3.84391 7.16919 3.53287C7.16919 3.53287 7.00206 3.14568 6.96531 2.57912C6.93687 2.14162 7.33281 1.82749 7.76812 1.8848C8.672 2.00468 9.92675 2.28687 10.7891 2.84905C12.2118 3.77743 11.9629 5.44999 11.2134 6.23793Z" fill="url(#paint31_radial_385_11)"/>
<path d="M11.2134 6.23793L11.1902 5.72299C11.1815 5.09999 10.6666 4.58637 10.044 4.56012H8.90169C8.54727 4.56027 8.19935 4.46496 7.89449 4.2842C7.58963 4.10344 7.33909 3.84391 7.16919 3.53287C7.16919 3.53287 7.00206 3.14568 6.96531 2.57912C6.93687 2.14162 7.33281 1.82749 7.76812 1.8848C8.672 2.00468 9.92675 2.28687 10.7891 2.84905C12.2118 3.77743 11.9629 5.44999 11.2134 6.23793Z" fill="url(#paint32_radial_385_11)"/>
<path d="M11.2134 6.23793L11.1902 5.72299C11.1815 5.09999 10.6666 4.58637 10.044 4.56012H8.90169C8.54727 4.56027 8.19935 4.46496 7.89449 4.2842C7.58963 4.10344 7.33909 3.84391 7.16919 3.53287C7.16919 3.53287 7.00206 3.14568 6.96531 2.57912C6.93687 2.14162 7.33281 1.82749 7.76812 1.8848C8.672 2.00468 9.92675 2.28687 10.7891 2.84905C12.2118 3.77743 11.9629 5.44999 11.2134 6.23793Z" fill="url(#paint33_radial_385_11)"/>
</g>
<path d="M8.91223 6.70947C9.4451 6.70947 9.89485 7.07697 10.0174 7.5731C10.0257 7.60618 10.0264 7.64075 10.0193 7.67413C10.0122 7.70751 9.99756 7.73882 9.97647 7.76566C9.95539 7.79249 9.92843 7.81413 9.89767 7.82891C9.86691 7.84369 9.83317 7.85122 9.79904 7.85091H7.97904C7.95153 7.8509 7.92435 7.84485 7.89943 7.83319C7.87451 7.82153 7.85245 7.80455 7.83481 7.78344C7.81716 7.76234 7.80436 7.73761 7.79731 7.71102C7.79025 7.68443 7.78911 7.65661 7.79398 7.62953C7.84496 7.37039 7.98432 7.13698 8.18828 6.96917C8.39223 6.80137 8.64811 6.70957 8.91223 6.70947Z" fill="white"/>
<path d="M8.74371 6.93127C8.85557 6.93143 8.96589 6.95736 9.0661 7.00706C9.16632 7.05675 9.25374 7.12887 9.32157 7.21782C9.3894 7.30677 9.43582 7.41015 9.45723 7.51994C9.47864 7.62973 9.47446 7.74298 9.44502 7.8509H8.03846C8.0214 7.78844 8.01258 7.72402 8.01221 7.65927C8.0129 7.4658 8.09031 7.28051 8.22744 7.14403C8.36457 7.00756 8.55024 6.93104 8.74371 6.93127Z" fill="url(#paint34_radial_385_11)"/>
<path d="M8.3267 7.65937C8.3267 7.42749 8.51176 7.24243 8.74363 7.24243C8.97507 7.24243 9.16013 7.42749 9.16013 7.65937C9.16044 7.72606 9.14452 7.79182 9.11376 7.85099H8.37613C8.34285 7.79267 8.32578 7.72651 8.3267 7.65937Z" fill="black"/>
<g filter="url(#filter9_f_385_11)">
<path d="M8.68995 7.08535C8.74201 7.15448 8.63307 7.23892 8.51057 7.33123C8.38676 7.4231 8.29532 7.48829 8.2437 7.41873C8.19163 7.3496 8.24982 7.21879 8.37276 7.12648C8.49613 7.0346 8.63832 7.01623 8.68995 7.08535Z" fill="#C7A7A3"/>
<path d="M8.68995 7.08535C8.74201 7.15448 8.63307 7.23892 8.51057 7.33123C8.38676 7.4231 8.29532 7.48829 8.2437 7.41873C8.19163 7.3496 8.24982 7.21879 8.37276 7.12648C8.49613 7.0346 8.63832 7.01623 8.68995 7.08535Z" fill="url(#paint35_radial_385_11)"/>
</g>
<g filter="url(#filter10_f_385_11)">
<path d="M9.39196 7.56348C9.37016 7.4209 9.30404 7.2888 9.20296 7.18591L8.99121 7.41866L9.08659 7.6046L9.39196 7.56348Z" fill="url(#paint36_linear_385_11)"/>
</g>
<path d="M5.01184 6.70947C4.47896 6.70947 4.02877 7.07697 3.90671 7.5731C3.89834 7.60618 3.89768 7.64075 3.90477 7.67413C3.91185 7.70751 3.9265 7.73882 3.94759 7.76566C3.96868 7.79249 3.99564 7.81413 4.0264 7.82891C4.05716 7.84369 4.0909 7.85122 4.12502 7.85091H5.94502C5.97253 7.8509 5.99971 7.84485 6.02463 7.83319C6.04955 7.82153 6.07161 7.80455 6.08926 7.78344C6.1069 7.76234 6.1197 7.73761 6.12676 7.71102C6.13381 7.68443 6.13495 7.65661 6.13008 7.62953C6.0788 7.37054 5.93934 7.13732 5.73546 6.96957C5.53158 6.80182 5.27586 6.70991 5.01184 6.70947Z" fill="white"/>
<path d="M5.18011 6.93127C5.06825 6.93143 4.95793 6.95736 4.85771 7.00706C4.7575 7.05675 4.67008 7.12887 4.60225 7.21782C4.53441 7.30676 4.48799 7.41015 4.46658 7.51994C4.44517 7.62973 4.44935 7.74298 4.4788 7.8509H5.88492C5.90213 7.78877 5.91103 7.7249 5.91161 7.65927C5.91034 7.46606 5.83282 7.28116 5.6959 7.14482C5.55899 7.00848 5.37333 6.93173 5.18011 6.93127Z" fill="url(#paint37_radial_385_11)"/>
<path d="M5.59755 7.65937C5.59772 7.60457 5.58706 7.55027 5.56616 7.49961C5.54527 7.44895 5.51457 7.40292 5.47582 7.36416C5.43707 7.32541 5.39103 7.29471 5.34037 7.27382C5.28971 7.25293 5.23541 7.24226 5.18061 7.24243C5.12581 7.24226 5.07152 7.25293 5.02085 7.27382C4.97019 7.29471 4.92416 7.32541 4.88541 7.36416C4.84665 7.40292 4.81595 7.44895 4.79506 7.49961C4.77417 7.55027 4.7635 7.60457 4.76367 7.65937C4.76367 7.72893 4.77986 7.795 4.80961 7.851H5.54767C5.57949 7.79207 5.5966 7.72633 5.59755 7.65937Z" fill="black"/>
<g filter="url(#filter11_f_385_11)">
<path d="M5.84494 7.57353C5.84494 7.33815 5.65375 7.18153 5.60213 7.13428L5.36719 7.36178L5.51156 7.65622L5.84494 7.57353Z" fill="url(#paint38_linear_385_11)"/>
</g>
<g filter="url(#filter12_f_385_11)">
<path d="M5.0359 7.38462C5.19091 7.3025 5.28283 7.17223 5.2412 7.09366C5.19958 7.01509 5.04017 7.01796 4.88516 7.10008C4.73015 7.18221 4.63824 7.31247 4.67986 7.39105C4.72149 7.46962 4.8809 7.46674 5.0359 7.38462Z" fill="#C7A7A3" fill-opacity="0.9"/>
<path d="M5.0359 7.38462C5.19091 7.3025 5.28283 7.17223 5.2412 7.09366C5.19958 7.01509 5.04017 7.01796 4.88516 7.10008C4.73015 7.18221 4.63824 7.31247 4.67986 7.39105C4.72149 7.46962 4.8809 7.46674 5.0359 7.38462Z" fill="url(#paint39_radial_385_11)"/>
</g>
<path d="M10.9766 9.16123C11.0308 8.29352 11.081 7.42581 11.1271 6.55811C11.4441 6.61363 11.7297 6.78373 11.9295 7.03606C12.1294 7.28838 12.2295 7.60534 12.211 7.92668C12.1924 8.24802 12.0564 8.55133 11.8288 8.77895C11.6012 9.00656 11.2979 9.14261 10.9766 9.16123Z" fill="url(#paint40_linear_385_11)"/>
<path d="M10.9766 9.16123C11.0308 8.29352 11.081 7.42581 11.1271 6.55811C11.4441 6.61363 11.7297 6.78373 11.9295 7.03606C12.1294 7.28838 12.2295 7.60534 12.211 7.92668C12.1924 8.24802 12.0564 8.55133 11.8288 8.77895C11.6012 9.00656 11.2979 9.14261 10.9766 9.16123Z" fill="url(#paint41_radial_385_11)"/>
<path d="M10.9766 9.16123C11.0308 8.29352 11.081 7.42581 11.1271 6.55811C11.4441 6.61363 11.7297 6.78373 11.9295 7.03606C12.1294 7.28838 12.2295 7.60534 12.211 7.92668C12.1924 8.24802 12.0564 8.55133 11.8288 8.77895C11.6012 9.00656 11.2979 9.14261 10.9766 9.16123Z" fill="url(#paint42_radial_385_11)"/>
<path d="M2.83952 6.55164C2.51673 6.59732 2.22249 6.7615 2.0141 7.0122C1.80571 7.2629 1.69808 7.58219 1.71216 7.90789C1.72625 8.23359 1.86104 8.54239 2.0903 8.77417C2.31955 9.00595 2.62686 9.14411 2.95239 9.16176C2.89989 8.29026 2.85614 7.42357 2.83952 6.55164Z" fill="url(#paint43_linear_385_11)"/>
<path d="M2.83952 6.55164C2.51673 6.59732 2.22249 6.7615 2.0141 7.0122C1.80571 7.2629 1.69808 7.58219 1.71216 7.90789C1.72625 8.23359 1.86104 8.54239 2.0903 8.77417C2.31955 9.00595 2.62686 9.14411 2.95239 9.16176C2.89989 8.29026 2.85614 7.42357 2.83952 6.55164Z" fill="url(#paint44_radial_385_11)"/>
<g filter="url(#filter13_f_385_11)">
<path d="M2.85294 7.09058C2.67468 7.13097 2.51627 7.23271 2.4054 7.37803C2.29453 7.52335 2.23825 7.703 2.24638 7.8856C2.25451 8.0682 2.32654 8.24214 2.44988 8.37703C2.57322 8.51192 2.74004 8.59918 2.92119 8.62358C2.89275 8.11214 2.86869 7.60201 2.85294 7.09058Z" fill="#B57562"/>
</g>
<g filter="url(#filter14_f_385_11)">
<path d="M11.0088 8.63052C11.0406 8.11281 11.0708 7.5951 11.0994 7.07739C11.2969 7.10044 11.4781 7.19812 11.6059 7.35044C11.7337 7.50275 11.7985 7.69818 11.7869 7.89669C11.7753 8.0952 11.6883 8.28177 11.5436 8.4182C11.399 8.55463 11.2076 8.63058 11.0088 8.63052Z" fill="#E6AA8B"/>
</g>
<g filter="url(#filter15_f_385_11)">
<path d="M4.20996 5.77631C4.41996 5.62581 4.94234 5.36156 5.56009 5.46569" stroke="#B17847" stroke-width="0.125" stroke-linecap="round"/>
</g>
<g filter="url(#filter16_f_385_11)">
<path d="M9.86673 5.73871C9.65673 5.58821 9.13435 5.32396 8.5166 5.42809" stroke="#B17847" stroke-width="0.125" stroke-linecap="round"/>
</g>
<defs>
<filter id="filter0_ii_385_11" x="2.83154" y="3.03406" width="8.71191" height="10.1669" filterUnits="userSpaceOnUse" color-interpolation-filters="sRGB">
<feFlood flood-opacity="0" result="BackgroundImageFix"/>
<feBlend mode="normal" in="SourceGraphic" in2="BackgroundImageFix" result="shape"/>
<feColorMatrix in="SourceAlpha" type="matrix" values="0 0 0 0 0 0 0 0 0 0 0 0 0 0 0 0 0 0 127 0" result="hardAlpha"/>
<feOffset dx="0.375"/>
<feGaussianBlur stdDeviation="0.3"/>
<feComposite in2="hardAlpha" operator="arithmetic" k2="-1" k3="1"/>
<feColorMatrix type="matrix" values="0 0 0 0 0.843137 0 0 0 0 0.611765 0 0 0 0 0.498039 0 0 0 1 0"/>
<feBlend mode="normal" in2="shape" result="effect1_innerShadow_385_11"/>
<feColorMatrix in="SourceAlpha" type="matrix" values="0 0 0 0 0 0 0 0 0 0 0 0 0 0 0 0 0 0 127 0" result="hardAlpha"/>
<feOffset dy="0.1"/>
<feGaussianBlur stdDeviation="0.1875"/>
<feComposite in2="hardAlpha" operator="arithmetic" k2="-1" k3="1"/>
<feColorMatrix type="matrix" values="0 0 0 0 0.776471 0 0 0 0 0.54902 0 0 0 0 0.423529 0 0 0 1 0"/>
<feBlend mode="normal" in2="effect1_innerShadow_385_11" result="effect2_innerShadow_385_11"/>
</filter>
<filter id="filter1_f_385_11" x="5.52734" y="6.95752" width="2.43115" height="3.3031" filterUnits="userSpaceOnUse" color-interpolation-filters="sRGB">
<feFlood flood-opacity="0" result="BackgroundImageFix"/>
<feBlend mode="normal" in="SourceGraphic" in2="BackgroundImageFix" result="shape"/>
<feGaussianBlur stdDeviation="0.25" result="effect1_foregroundBlur_385_11"/>
</filter>
<filter id="filter2_f_385_11" x="6.14629" y="7.18535" width="1.63076" height="2.4656" filterUnits="userSpaceOnUse" color-interpolation-filters="sRGB">
<feFlood flood-opacity="0" result="BackgroundImageFix"/>
<feBlend mode="normal" in="SourceGraphic" in2="BackgroundImageFix" result="shape"/>
<feGaussianBlur stdDeviation="0.025" result="effect1_foregroundBlur_385_11"/>
</filter>
<filter id="filter3_f_385_11" x="5.5291" y="10.0278" width="2.86563" height="1.11538" filterUnits="userSpaceOnUse" color-interpolation-filters="sRGB">
<feFlood flood-opacity="0" result="BackgroundImageFix"/>
<feBlend mode="normal" in="SourceGraphic" in2="BackgroundImageFix" result="shape"/>
<feGaussianBlur stdDeviation="0.025" result="effect1_foregroundBlur_385_11"/>
</filter>
<filter id="filter4_ii_385_11" x="1.7124" y="0.600952" width="10.4995" height="6.65845" filterUnits="userSpaceOnUse" color-interpolation-filters="sRGB">
<feFlood flood-opacity="0" result="BackgroundImageFix"/>
<feBlend mode="normal" in="SourceGraphic" in2="BackgroundImageFix" result="shape"/>
<feColorMatrix in="SourceAlpha" type="matrix" values="0 0 0 0 0 0 0 0 0 0 0 0 0 0 0 0 0 0 127 0" result="hardAlpha"/>
<feOffset dy="-0.25"/>
<feGaussianBlur stdDeviation="0.3125"/>
<feComposite in2="hardAlpha" operator="arithmetic" k2="-1" k3="1"/>
<feColorMatrix type="matrix" values="0 0 0 0 0.913725 0 0 0 0 0.733333 0 0 0 0 0.592157 0 0 0 1 0"/>
<feBlend mode="normal" in2="shape" result="effect1_innerShadow_385_11"/>
<feColorMatrix in="SourceAlpha" type="matrix" values="0 0 0 0 0 0 0 0 0 0 0 0 0 0 0 0 0 0 127 0" result="hardAlpha"/>
<feOffset dy="-0.1"/>
<feGaussianBlur stdDeviation="0.1"/>
<feComposite in2="hardAlpha" operator="arithmetic" k2="-1" k3="1"/>
<feColorMatrix type="matrix" values="0 0 0 0 0.87451 0 0 0 0 0.678431 0 0 0 0 0.556863 0 0 0 1 0"/>
<feBlend mode="normal" in2="effect1_innerShadow_385_11" result="effect2_innerShadow_385_11"/>
</filter>
<filter id="filter5_i_385_11" x="8.26465" y="5.12607" width="1.86982" height="0.907617" filterUnits="userSpaceOnUse" color-interpolation-filters="sRGB">
<feFlood flood-opacity="0" result="BackgroundImageFix"/>
<feBlend mode="normal" in="SourceGraphic" in2="BackgroundImageFix" result="shape"/>
<feColorMatrix in="SourceAlpha" type="matrix" values="0 0 0 0 0 0 0 0 0 0 0 0 0 0 0 0 0 0 127 0" result="hardAlpha"/>
<feOffset dx="0.05" dy="-0.1"/>
<feGaussianBlur stdDeviation="0.0625"/>
<feComposite in2="hardAlpha" operator="arithmetic" k2="-1" k3="1"/>
<feColorMatrix type="matrix" values="0 0 0 0 0.470588 0 0 0 0 0.270588 0 0 0 0 0.160784 0 0 0 1 0"/>
<feBlend mode="normal" in2="shape" result="effect1_innerShadow_385_11"/>
</filter>
<filter id="filter6_i_385_11" x="3.97559" y="5.1384" width="1.87764" height="0.891626" filterUnits="userSpaceOnUse" color-interpolation-filters="sRGB">
<feFlood flood-opacity="0" result="BackgroundImageFix"/>
<feBlend mode="normal" in="SourceGraphic" in2="BackgroundImageFix" result="shape"/>
<feColorMatrix in="SourceAlpha" type="matrix" values="0 0 0 0 0 0 0 0 0 0 0 0 0 0 0 0 0 0 127 0" result="hardAlpha"/>
<feOffset dx="0.05" dy="-0.1"/>
<feGaussianBlur stdDeviation="0.0625"/>
<feComposite in2="hardAlpha" operator="arithmetic" k2="-1" k3="1"/>
<feColorMatrix type="matrix" values="0 0 0 0 0.470588 0 0 0 0 0.270588 0 0 0 0 0.160784 0 0 0 1 0"/>
<feBlend mode="normal" in2="shape" result="effect1_innerShadow_385_11"/>
</filter>
<filter id="filter7_f_385_11" x="1.95605" y="1.28528" width="5.4624" height="4.97949" filterUnits="userSpaceOnUse" color-interpolation-filters="sRGB">
<feFlood flood-opacity="0" result="BackgroundImageFix"/>
<feBlend mode="normal" in="SourceGraphic" in2="BackgroundImageFix" result="shape"/>
<feGaussianBlur stdDeviation="0.125" result="effect1_foregroundBlur_385_11"/>
</filter>
<filter id="filter8_f_385_11" x="6.71387" y="1.62805" width="5.35352" height="4.85986" filterUnits="userSpaceOnUse" color-interpolation-filters="sRGB">
<feFlood flood-opacity="0" result="BackgroundImageFix"/>
<feBlend mode="normal" in="SourceGraphic" in2="BackgroundImageFix" result="shape"/>
<feGaussianBlur stdDeviation="0.125" result="effect1_foregroundBlur_385_11"/>
</filter>
<filter id="filter9_f_385_11" x="8.17461" y="6.99346" width="0.578516" height="0.504419" filterUnits="userSpaceOnUse" color-interpolation-filters="sRGB">
<feFlood flood-opacity="0" result="BackgroundImageFix"/>
<feBlend mode="normal" in="SourceGraphic" in2="BackgroundImageFix" result="shape"/>
<feGaussianBlur stdDeviation="0.025" result="effect1_foregroundBlur_385_11"/>
</filter>
<filter id="filter10_f_385_11" x="8.89121" y="7.08591" width="0.600879" height="0.618701" filterUnits="userSpaceOnUse" color-interpolation-filters="sRGB">
<feFlood flood-opacity="0" result="BackgroundImageFix"/>
<feBlend mode="normal" in="SourceGraphic" in2="BackgroundImageFix" result="shape"/>
<feGaussianBlur stdDeviation="0.05" result="effect1_foregroundBlur_385_11"/>
</filter>
<filter id="filter11_f_385_11" x="5.26719" y="7.03428" width="0.677539" height="0.721973" filterUnits="userSpaceOnUse" color-interpolation-filters="sRGB">
<feFlood flood-opacity="0" result="BackgroundImageFix"/>
<feBlend mode="normal" in="SourceGraphic" in2="BackgroundImageFix" result="shape"/>
<feGaussianBlur stdDeviation="0.05" result="effect1_foregroundBlur_385_11"/>
</filter>
<filter id="filter12_f_385_11" x="4.61992" y="6.98662" width="0.681055" height="0.511499" filterUnits="userSpaceOnUse" color-interpolation-filters="sRGB">
<feFlood flood-opacity="0" result="BackgroundImageFix"/>
<feBlend mode="normal" in="SourceGraphic" in2="BackgroundImageFix" result="shape"/>
<feGaussianBlur stdDeviation="0.025" result="effect1_foregroundBlur_385_11"/>
</filter>
<filter id="filter13_f_385_11" x="2.12061" y="6.96558" width="0.925781" height="1.78296" filterUnits="userSpaceOnUse" color-interpolation-filters="sRGB">
<feFlood flood-opacity="0" result="BackgroundImageFix"/>
<feBlend mode="normal" in="SourceGraphic" in2="BackgroundImageFix" result="shape"/>
<feGaussianBlur stdDeviation="0.0625" result="effect1_foregroundBlur_385_11"/>
</filter>
<filter id="filter14_f_385_11" x="10.8838" y="6.95239" width="1.0293" height="1.8031" filterUnits="userSpaceOnUse" color-interpolation-filters="sRGB">
<feFlood flood-opacity="0" result="BackgroundImageFix"/>
<feBlend mode="normal" in="SourceGraphic" in2="BackgroundImageFix" result="shape"/>
<feGaussianBlur stdDeviation="0.0625" result="effect1_foregroundBlur_385_11"/>
</filter>
<filter id="filter15_f_385_11" x="4.02246" y="5.25452" width="1.7251" height="0.709351" filterUnits="userSpaceOnUse" color-interpolation-filters="sRGB">
<feFlood flood-opacity="0" result="BackgroundImageFix"/>
<feBlend mode="normal" in="SourceGraphic" in2="BackgroundImageFix" result="shape"/>
<feGaussianBlur stdDeviation="0.0625" result="effect1_foregroundBlur_385_11"/>
</filter>
<filter id="filter16_f_385_11" x="8.3291" y="5.21692" width="1.7251" height="0.709351" filterUnits="userSpaceOnUse" color-interpolation-filters="sRGB">
<feFlood flood-opacity="0" result="BackgroundImageFix"/>
<feBlend mode="normal" in="SourceGraphic" in2="BackgroundImageFix" result="shape"/>
<feGaussianBlur stdDeviation="0.0625" result="effect1_foregroundBlur_385_11"/>
</filter>
<radialGradient id="paint0_radial_385_11" cx="0" cy="0" r="1" gradientUnits="userSpaceOnUse" gradientTransform="translate(11.4869 8.83569) rotate(103.679) scale(2.65942 3.15918)">
<stop offset="0.28" stop-color="#FFDCAF"/>
<stop offset="1" stop-color="#D89E98"/>
</radialGradient>
<radialGradient id="paint1_radial_385_11" cx="0" cy="0" r="1" gradientUnits="userSpaceOnUse" gradientTransform="translate(10.9304 9.16739) rotate(40.2358) scale(0.349236 0.449781)">
<stop stop-color="#E6B489"/>
<stop offset="1" stop-color="#E6B489" stop-opacity="0"/>
</radialGradient>
<radialGradient id="paint2_radial_385_11" cx="0" cy="0" r="1" gradientUnits="userSpaceOnUse" gradientTransform="translate(2.43636 8.93114) rotate(64.5923) scale(2.42174 1.10079)">
<stop stop-color="#F8BF95"/>
<stop offset="1" stop-color="#DC998E"/>
</radialGradient>
<radialGradient id="paint3_radial_385_11" cx="0" cy="0" r="1" gradientUnits="userSpaceOnUse" gradientTransform="translate(3.08999 8.76401) rotate(81.457) scale(0.984545 0.863652)">
<stop offset="0.263" stop-color="#D79B77"/>
<stop offset="1" stop-color="#D79B77" stop-opacity="0"/>
</radialGradient>
<radialGradient id="paint4_radial_385_11" cx="0" cy="0" r="1" gradientUnits="userSpaceOnUse" gradientTransform="translate(9.25186 8.06749) rotate(180) scale(4.26426 7.54342)">
<stop stop-color="#FFC59F"/>
<stop offset="1" stop-color="#C8917D"/>
</radialGradient>
<linearGradient id="paint5_linear_385_11" x1="11.1681" y1="9.44256" x2="7.61779" y2="9.44256" gradientUnits="userSpaceOnUse">
<stop stop-color="#F7C29D"/>
<stop offset="1" stop-color="#F7C29D" stop-opacity="0"/>
</linearGradient>
<radialGradient id="paint6_radial_385_11" cx="0" cy="0" r="1" gradientUnits="userSpaceOnUse" gradientTransform="translate(8.25129 3.24406) rotate(95.0389) scale(10.6147 8.79025)">
<stop offset="0.778" stop-color="#B36E91" stop-opacity="0"/>
<stop offset="1" stop-color="#B36E91"/>
</radialGradient>
<radialGradient id="paint7_radial_385_11" cx="0" cy="0" r="1" gradientUnits="userSpaceOnUse" gradientTransform="translate(8.95786 7.15399) rotate(-90) scale(1.09375 1.35352)">
<stop offset="0.325" stop-color="#E4A38D"/>
<stop offset="1" stop-color="#E4A38D" stop-opacity="0"/>
</radialGradient>
<radialGradient id="paint8_radial_385_11" cx="0" cy="0" r="1" gradientUnits="userSpaceOnUse" gradientTransform="translate(5.13629 7.042) rotate(-93.0124) scale(0.90127 0.980791)">
<stop offset="0.378" stop-color="#C2847C"/>
<stop offset="1" stop-color="#C2847C" stop-opacity="0"/>
</radialGradient>
<radialGradient id="paint9_radial_385_11" cx="0" cy="0" r="1" gradientUnits="userSpaceOnUse" gradientTransform="translate(2.98029 8.38118) scale(0.984375 5.00334)">
<stop stop-color="#DBA085"/>
<stop offset="1" stop-color="#DBA085" stop-opacity="0"/>
</radialGradient>
<radialGradient id="paint10_radial_385_11" cx="0" cy="0" r="1" gradientUnits="userSpaceOnUse" gradientTransform="translate(2.18754 5.61968) rotate(-54.4126) scale(3.66498 0.830124)">
<stop offset="0.451" stop-color="#B67459"/>
<stop offset="1" stop-color="#B67459" stop-opacity="0"/>
</radialGradient>
<radialGradient id="paint11_radial_385_11" cx="0" cy="0" r="1" gradientUnits="userSpaceOnUse" gradientTransform="translate(6.83598 11.389) rotate(-103.259) scale(8.5838 9.4553)">
<stop offset="0.924" stop-color="#C17F5F" stop-opacity="0"/>
<stop offset="1" stop-color="#C17F5F"/>
</radialGradient>
<radialGradient id="paint12_radial_385_11" cx="0" cy="0" r="1" gradientUnits="userSpaceOnUse" gradientTransform="translate(8.55847 3.67805) rotate(19.415) scale(1.76854 1.06093)">
<stop offset="0.258" stop-color="#C17F5F"/>
<stop offset="1" stop-color="#C17F5F" stop-opacity="0"/>
</radialGradient>
<linearGradient id="paint13_linear_385_11" x1="6.96157" y1="8.74341" x2="7.65895" y2="8.74341" gradientUnits="userSpaceOnUse">
<stop stop-color="#E1AA8C"/>
<stop offset="1" stop-color="#FECAA8"/>
</linearGradient>
<linearGradient id="paint14_linear_385_11" x1="6.08657" y1="8.61654" x2="6.96289" y2="8.6651" gradientUnits="userSpaceOnUse">
<stop stop-color="#D29879" stop-opacity="0.915"/>
<stop offset="0.203" stop-color="#D29879"/>
<stop offset="1" stop-color="#D29879" stop-opacity="0"/>
</linearGradient>
<linearGradient id="paint15_linear_385_11" x1="6.96157" y1="9.06891" x2="6.96157" y2="9.76366" gradientUnits="userSpaceOnUse">
<stop stop-color="#CB8685" stop-opacity="0"/>
<stop offset="0.845" stop-color="#CB8685"/>
</linearGradient>
<linearGradient id="paint16_linear_385_11" x1="6.96157" y1="7.23535" x2="6.96157" y2="7.57748" gradientUnits="userSpaceOnUse">
<stop stop-color="#E0A78C"/>
<stop offset="1" stop-color="#E0A78C" stop-opacity="0"/>
</linearGradient>
<linearGradient id="paint17_linear_385_11" x1="7.06832" y1="9.61841" x2="7.06832" y2="9.57073" gradientUnits="userSpaceOnUse">
<stop stop-color="#C27B78"/>
<stop offset="1" stop-color="#C27B78" stop-opacity="0"/>
</linearGradient>
<radialGradient id="paint18_radial_385_11" cx="0" cy="0" r="1" gradientUnits="userSpaceOnUse" gradientTransform="translate(7.79326 8.00535) rotate(135.131) scale(2.11718 1.34569)">
<stop offset="0.94" stop-color="#C27B78" stop-opacity="0"/>
<stop offset="1" stop-color="#C27B78"/>
</radialGradient>
<radialGradient id="paint19_radial_385_11" cx="0" cy="0" r="1" gradientUnits="userSpaceOnUse" gradientTransform="translate(6.04284 10.7506) rotate(-60.732) scale(0.579211 1.68552)">
<stop stop-color="#D0978E"/>
<stop offset="1" stop-color="#D0978E" stop-opacity="0"/>
</radialGradient>
<radialGradient id="paint20_radial_385_11" cx="0" cy="0" r="1" gradientUnits="userSpaceOnUse" gradientTransform="translate(6.96142 10.955) rotate(-90) scale(0.58789 2.36523)">
<stop stop-color="#89024E"/>
<stop offset="1" stop-color="#87004D"/>
</radialGradient>
<linearGradient id="paint21_linear_385_11" x1="11.3366" y1="3.44883" x2="3.0788" y2="3.44883" gradientUnits="userSpaceOnUse">
<stop stop-color="#FFF6B9"/>
<stop offset="1" stop-color="#E7C991"/>
</linearGradient>
<radialGradient id="paint22_radial_385_11" cx="0" cy="0" r="1" gradientUnits="userSpaceOnUse" gradientTransform="translate(2.69599 6.77689) rotate(-90) scale(2.96308 5.25)">
<stop stop-color="#E7B286"/>
<stop offset="1" stop-color="#E7B286" stop-opacity="0"/>
</radialGradient>
<radialGradient id="paint23_radial_385_11" cx="0" cy="0" r="1" gradientUnits="userSpaceOnUse" gradientTransform="translate(10.9267 6.77689) rotate(-90) scale(2.96308 5.25)">
<stop stop-color="#F6CB9C"/>
<stop offset="1" stop-color="#F6CB9C" stop-opacity="0"/>
</radialGradient>
<radialGradient id="paint24_radial_385_11" cx="0" cy="0" r="1" gradientUnits="userSpaceOnUse" gradientTransform="translate(10.3111 1.65741) rotate(-159.121) scale(2.83875 1.51182)">
<stop stop-color="#FFFFC1"/>
<stop offset="1" stop-color="#FFFFC1" stop-opacity="0"/>
</radialGradient>
<radialGradient id="paint25_radial_385_11" cx="0" cy="0" r="1" gradientUnits="userSpaceOnUse" gradientTransform="translate(6.22399 0.358765) rotate(58.4651) scale(1.41159 3.26857)">
<stop offset="0.287" stop-color="#DDCA94"/>
<stop offset="1" stop-color="#DDCA94" stop-opacity="0"/>
</radialGradient>
<radialGradient id="paint26_radial_385_11" cx="0" cy="0" r="1" gradientUnits="userSpaceOnUse" gradientTransform="translate(7.16862 1.53567) rotate(160.16) scale(3.30117 0.918795)">
<stop stop-color="#FFFCBE"/>
<stop offset="1" stop-color="#FFFCBE" stop-opacity="0"/>
</radialGradient>
<radialGradient id="paint27_radial_385_11" cx="0" cy="0" r="1" gradientUnits="userSpaceOnUse" gradientTransform="translate(2.53199 5.4176) rotate(-57.7244) scale(4.91579 5.44618)">
<stop offset="0.093" stop-color="#D5A088"/>
<stop offset="0.233" stop-color="#E4B99B"/>
<stop offset="1" stop-color="#E4B99B" stop-opacity="0"/>
</radialGradient>
<radialGradient id="paint28_radial_385_11" cx="0" cy="0" r="1" gradientUnits="userSpaceOnUse" gradientTransform="translate(9.91494 2.48199) rotate(13.3074) scale(2.83792 1.58716)">
<stop stop-color="#FFFFC7"/>
<stop offset="1" stop-color="#FFFFC7" stop-opacity="0"/>
</radialGradient>
<radialGradient id="paint29_radial_385_11" cx="0" cy="0" r="1" gradientUnits="userSpaceOnUse" gradientTransform="translate(11.1455 6.2373) rotate(-120.119) scale(3.49259 1.94779)">
<stop stop-color="#E3B593"/>
<stop offset="1" stop-color="#E4B78D" stop-opacity="0"/>
</radialGradient>
<radialGradient id="paint30_radial_385_11" cx="0" cy="0" r="1" gradientUnits="userSpaceOnUse" gradientTransform="translate(10.6399 5.99293) rotate(-120.695) scale(2.08905 1.4963)">
<stop offset="0.057" stop-color="#DFB086"/>
<stop offset="1" stop-color="#DFB086" stop-opacity="0"/>
</radialGradient>
<radialGradient id="paint31_radial_385_11" cx="0" cy="0" r="1" gradientUnits="userSpaceOnUse" gradientTransform="translate(10.8718 2.38656) rotate(166.509) scale(4.02505 4.35123)">
<stop offset="0.652" stop-color="#EBCD93" stop-opacity="0"/>
<stop offset="1" stop-color="#EBCD93"/>
</radialGradient>
<radialGradient id="paint32_radial_385_11" cx="0" cy="0" r="1" gradientUnits="userSpaceOnUse" gradientTransform="translate(9.77844 2.28468) rotate(107.002) scale(0.327306 1.49639)">
<stop offset="0.461" stop-color="#FFED93"/>
<stop offset="1" stop-color="#FFED93" stop-opacity="0"/>
</radialGradient>
<radialGradient id="paint33_radial_385_11" cx="0" cy="0" r="1" gradientUnits="userSpaceOnUse" gradientTransform="translate(9.77561 1.61402) rotate(117.979) scale(3.46784 8.94259)">
<stop offset="0.651" stop-color="#E1B395" stop-opacity="0"/>
<stop offset="1" stop-color="#E1B395"/>
</radialGradient>
<radialGradient id="paint34_radial_385_11" cx="0" cy="0" r="1" gradientUnits="userSpaceOnUse" gradientTransform="translate(8.74152 7.32021) rotate(90) scale(0.661775 1.05263)">
<stop offset="0.802" stop-color="#925C51"/>
<stop offset="1" stop-color="#85534D"/>
</radialGradient>
<radialGradient id="paint35_radial_385_11" cx="0" cy="0" r="1" gradientUnits="userSpaceOnUse" gradientTransform="translate(8.55534 7.38899) rotate(-127.812) scale(0.30856 0.424817)">
<stop offset="0.766" stop-color="#FFE6E2" stop-opacity="0"/>
<stop offset="0.966" stop-color="#FFE6E2"/>
</radialGradient>
<linearGradient id="paint36_linear_385_11" x1="9.37621" y1="7.36441" x2="9.12027" y2="7.52191" gradientUnits="userSpaceOnUse">
<stop stop-color="#B4948D"/>
<stop offset="1" stop-color="#B4948D" stop-opacity="0"/>
</linearGradient>
<radialGradient id="paint37_radial_385_11" cx="0" cy="0" r="1" gradientUnits="userSpaceOnUse" gradientTransform="translate(5.18186 7.32021) rotate(90) scale(0.66181 1.05269)">
<stop offset="0.802" stop-color="#925C51"/>
<stop offset="1" stop-color="#85534D"/>
</radialGradient>
<linearGradient id="paint38_linear_385_11" x1="5.7885" y1="7.36397" x2="5.53256" y2="7.5219" gradientUnits="userSpaceOnUse">
<stop stop-color="#B4948D"/>
<stop offset="1" stop-color="#B4948D" stop-opacity="0"/>
</linearGradient>
<radialGradient id="paint39_radial_385_11" cx="0" cy="0" r="1" gradientUnits="userSpaceOnUse" gradientTransform="translate(5.06978 7.47475) rotate(-118.811) scale(0.403064 0.4845)">
<stop offset="0.766" stop-color="#FFE6E2" stop-opacity="0"/>
<stop offset="0.966" stop-color="#FFE6E2"/>
</radialGradient>
<linearGradient id="paint40_linear_385_11" x1="12.2116" y1="7.38629" x2="11.2272" y2="9.16123" gradientUnits="userSpaceOnUse">
<stop stop-color="#F8C5A2"/>
<stop offset="1" stop-color="#E0A48C"/>
</linearGradient>
<radialGradient id="paint41_radial_385_11" cx="0" cy="0" r="1" gradientUnits="userSpaceOnUse" gradientTransform="translate(10.7284 7.33131) rotate(74.348) scale(1.90026 1.813)">
<stop offset="0.856" stop-color="#CE8D79" stop-opacity="0"/>
<stop offset="1" stop-color="#CE8D79"/>
</radialGradient>
<radialGradient id="paint42_radial_385_11" cx="0" cy="0" r="1" gradientUnits="userSpaceOnUse" gradientTransform="translate(11.0225 7.77567) rotate(-53.9199) scale(1.09112 0.914576)">
<stop offset="0.664" stop-color="#E3A17B"/>
<stop offset="1" stop-color="#E3A17B" stop-opacity="0"/>
</radialGradient>
<linearGradient id="paint43_linear_385_11" x1="2.19027" y1="7.96039" x2="3.37983" y2="7.8567" gradientUnits="userSpaceOnUse">
<stop stop-color="#C48874"/>
<stop offset="1" stop-color="#BD776C"/>
</linearGradient>
<radialGradient id="paint44_radial_385_11" cx="0" cy="0" r="1" gradientUnits="userSpaceOnUse" gradientTransform="translate(2.9523 7.85704) rotate(-171.68) scale(1.38081 1.35746)">
<stop offset="0.775" stop-color="#DCA187" stop-opacity="0"/>
<stop offset="1" stop-color="#DCA187"/>
</radialGradient>
</defs>
</svg>
