<svg width="282" height="175" viewBox="0 0 282 175" fill="none" xmlns="http://www.w3.org/2000/svg">
<rect x="0.5" y="0.5" width="271" height="29" rx="2.5" stroke="#3D4F60" stroke-opacity="0.2"/>
<path d="M19.6697 13.7266C19.6366 13.4164 19.4969 13.175 19.2507 13.0021C19.0069 12.8293 18.6896 12.7429 18.299 12.7429C18.0244 12.7429 17.7888 12.7843 17.5923 12.8672C17.3958 12.95 17.2455 13.0625 17.1413 13.2045C17.0372 13.3466 16.9839 13.5088 16.9815 13.6911C16.9815 13.8426 17.0159 13.974 17.0845 14.0852C17.1555 14.1965 17.2514 14.2912 17.3722 14.3693C17.4929 14.4451 17.6267 14.509 17.7734 14.5611C17.9202 14.6132 18.0682 14.657 18.2173 14.6925L18.8991 14.8629C19.1738 14.9268 19.4377 15.0133 19.6911 15.1222C19.9467 15.2311 20.1752 15.3684 20.3764 15.5341C20.58 15.6998 20.741 15.8999 20.8594 16.1342C20.9777 16.3686 21.0369 16.6432 21.0369 16.9581C21.0369 17.3842 20.928 17.7595 20.7102 18.0838C20.4924 18.4058 20.1776 18.6579 19.7656 18.8402C19.3561 19.0201 18.8601 19.1101 18.2777 19.1101C17.7119 19.1101 17.2206 19.0225 16.804 18.8473C16.3897 18.6721 16.0653 18.4164 15.831 18.0803C15.599 17.7441 15.4735 17.3345 15.4545 16.8516H16.7507C16.7696 17.1049 16.8478 17.3156 16.9851 17.4837C17.1224 17.6518 17.3011 17.7772 17.5213 17.8601C17.7438 17.9429 17.9924 17.9844 18.267 17.9844C18.5535 17.9844 18.8045 17.9418 19.0199 17.8565C19.2377 17.7689 19.4081 17.6482 19.5312 17.4943C19.6544 17.3381 19.7171 17.1558 19.7195 16.9474C19.7171 16.758 19.6615 16.6018 19.5526 16.4787C19.4437 16.3532 19.291 16.2491 19.0945 16.1662C18.9003 16.081 18.6731 16.0052 18.4126 15.9389L17.5852 15.7259C16.9863 15.572 16.5128 15.3388 16.1648 15.0263C15.8191 14.7114 15.6463 14.2936 15.6463 13.7727C15.6463 13.3442 15.7623 12.969 15.9943 12.647C16.2287 12.325 16.5471 12.0753 16.9496 11.8977C17.352 11.7178 17.8078 11.6278 18.3168 11.6278C18.8329 11.6278 19.285 11.7178 19.6733 11.8977C20.0639 12.0753 20.3705 12.3227 20.593 12.6399C20.8156 12.9548 20.9304 13.317 20.9375 13.7266H19.6697ZM24.5339 19.1065C24.0012 19.1065 23.5396 18.9893 23.149 18.755C22.7583 18.5206 22.4553 18.1927 22.2399 17.7713C22.0268 17.3499 21.9203 16.8575 21.9203 16.294C21.9203 15.7306 22.0268 15.237 22.2399 14.8132C22.4553 14.3894 22.7583 14.0604 23.149 13.826C23.5396 13.5916 24.0012 13.4744 24.5339 13.4744C25.0666 13.4744 25.5282 13.5916 25.9189 13.826C26.3095 14.0604 26.6113 14.3894 26.8244 14.8132C27.0398 15.237 27.1475 15.7306 27.1475 16.294C27.1475 16.8575 27.0398 17.3499 26.8244 17.7713C26.6113 18.1927 26.3095 18.5206 25.9189 18.755C25.5282 18.9893 25.0666 19.1065 24.5339 19.1065ZM24.541 18.0767C24.8298 18.0767 25.0713 17.9974 25.2654 17.8388C25.4596 17.6778 25.604 17.4624 25.6987 17.1925C25.7958 16.9226 25.8443 16.6219 25.8443 16.2905C25.8443 15.9567 25.7958 15.6548 25.6987 15.3849C25.604 15.1127 25.4596 14.8961 25.2654 14.7351C25.0713 14.5741 24.8298 14.4936 24.541 14.4936C24.2451 14.4936 23.9989 14.5741 23.8024 14.7351C23.6083 14.8961 23.4627 15.1127 23.3656 15.3849C23.2709 15.6548 23.2235 15.9567 23.2235 16.2905C23.2235 16.6219 23.2709 16.9226 23.3656 17.1925C23.4627 17.4624 23.6083 17.6778 23.8024 17.8388C23.9989 17.9974 24.2451 18.0767 24.541 18.0767ZM31.0014 13.5455V14.5398H27.777V13.5455H31.0014ZM28.5831 19V13.0305C28.5831 12.6636 28.6589 12.3582 28.8104 12.1143C28.9643 11.8705 29.1702 11.6882 29.4283 11.5675C29.6863 11.4467 29.9728 11.3864 30.2876 11.3864C30.5102 11.3864 30.7079 11.4041 30.8807 11.4396C31.0535 11.4751 31.1813 11.5071 31.2642 11.5355L31.0085 12.5298C30.9541 12.5133 30.8854 12.4967 30.8026 12.4801C30.7197 12.4612 30.6274 12.4517 30.5256 12.4517C30.2865 12.4517 30.1172 12.5097 30.0178 12.6257C29.9207 12.7393 29.8722 12.9027 29.8722 13.1158V19H28.5831ZM34.7319 13.5455V14.5398H31.5962V13.5455H34.7319ZM32.3704 12.2386H33.6559V17.3594C33.6559 17.5322 33.6819 17.6648 33.734 17.7571C33.7885 17.8471 33.8595 17.9086 33.9471 17.9418C34.0347 17.9749 34.1317 17.9915 34.2383 17.9915C34.3188 17.9915 34.3922 17.9856 34.4585 17.9737C34.5271 17.9619 34.5792 17.9512 34.6147 17.9418L34.8313 18.9467C34.7627 18.9704 34.6644 18.9964 34.5366 19.0249C34.4111 19.0533 34.2572 19.0698 34.0749 19.0746C33.753 19.084 33.4629 19.0355 33.2049 18.929C32.9469 18.8201 32.7421 18.652 32.5906 18.4247C32.4414 18.1974 32.368 17.9134 32.3704 17.5724V12.2386ZM36.9327 19L35.3915 13.5455H36.7019L37.6607 17.3807H37.7104L38.6905 13.5455H39.9867L40.9668 17.3594H41.0201L41.9647 13.5455H43.2786L41.7338 19H40.3951L39.3723 15.3139H39.2978L38.275 19H36.9327ZM45.7457 19.1101C45.4001 19.1101 45.0888 19.0485 44.8118 18.9254C44.5372 18.8 44.3194 18.6153 44.1584 18.3714C43.9998 18.1276 43.9205 17.8269 43.9205 17.4695C43.9205 17.1617 43.9773 16.9072 44.0909 16.706C44.2045 16.5047 44.3596 16.3438 44.5561 16.223C44.7526 16.1023 44.974 16.0111 45.2202 15.9496C45.4688 15.8857 45.7256 15.8395 45.9908 15.8111C46.3104 15.7779 46.5696 15.7483 46.7685 15.7223C46.9673 15.6939 47.1117 15.6513 47.2017 15.5945C47.294 15.5353 47.3402 15.4441 47.3402 15.321V15.2997C47.3402 15.0322 47.2609 14.825 47.1023 14.6783C46.9437 14.5315 46.7152 14.4581 46.4169 14.4581C46.102 14.4581 45.8523 14.5268 45.6676 14.6641C45.4853 14.8014 45.3622 14.9635 45.2983 15.1506L44.098 14.9801C44.1927 14.6487 44.349 14.3717 44.5668 14.1491C44.7846 13.9242 45.0509 13.7562 45.3658 13.6449C45.6806 13.5312 46.0286 13.4744 46.4098 13.4744C46.6726 13.4744 46.9342 13.5052 47.1946 13.5668C47.455 13.6283 47.6929 13.7301 47.9084 13.8722C48.1238 14.0118 48.2966 14.2024 48.4268 14.4439C48.5594 14.6854 48.6257 14.9872 48.6257 15.3494V19H47.3899V18.2507H47.3473C47.2692 18.4022 47.1591 18.5443 47.017 18.6768C46.8774 18.8071 46.701 18.9124 46.4879 18.9929C46.2772 19.071 46.0298 19.1101 45.7457 19.1101ZM46.0795 18.1655C46.3376 18.1655 46.5613 18.1146 46.7507 18.0128C46.9401 17.9086 47.0857 17.7713 47.1875 17.6009C47.2917 17.4304 47.3438 17.2446 47.3438 17.0433V16.4006C47.3035 16.4337 47.2348 16.4645 47.1378 16.4929C47.0431 16.5213 46.9366 16.5462 46.8182 16.5675C46.6998 16.5888 46.5826 16.6077 46.4666 16.6243C46.3506 16.6409 46.25 16.6551 46.1648 16.6669C45.973 16.6929 45.8014 16.7356 45.6499 16.7947C45.4983 16.8539 45.3788 16.9368 45.2912 17.0433C45.2036 17.1475 45.1598 17.2824 45.1598 17.4482C45.1598 17.6849 45.2462 17.8636 45.419 17.9844C45.5919 18.1051 45.812 18.1655 46.0795 18.1655ZM49.9183 19V13.5455H51.1648V14.4545H51.2216C51.321 14.1397 51.4915 13.897 51.733 13.7266C51.9768 13.5537 52.255 13.4673 52.5675 13.4673C52.6385 13.4673 52.7178 13.4709 52.8054 13.478C52.8954 13.4827 52.9699 13.491 53.0291 13.5028V14.6854C52.9747 14.6664 52.8883 14.6499 52.7699 14.6357C52.6539 14.6191 52.5414 14.6108 52.4325 14.6108C52.1982 14.6108 51.9875 14.6617 51.8004 14.7635C51.6158 14.8629 51.4702 15.0014 51.3636 15.179C51.2571 15.3565 51.2038 15.5613 51.2038 15.7933V19H49.9183ZM56.0733 19.1065C55.5265 19.1065 55.0542 18.9929 54.6564 18.7656C54.2611 18.536 53.9569 18.2116 53.7438 17.7926C53.5307 17.3712 53.4242 16.8752 53.4242 16.3047C53.4242 15.7436 53.5307 15.2512 53.7438 14.8274C53.9592 14.4013 54.2599 14.0698 54.6458 13.8331C55.0317 13.594 55.485 13.4744 56.0059 13.4744C56.342 13.4744 56.6593 13.5289 56.9576 13.6378C57.2582 13.7443 57.5234 13.91 57.753 14.1349C57.985 14.3598 58.1673 14.6463 58.2999 14.9943C58.4325 15.34 58.4988 15.7519 58.4988 16.2301V16.6243H54.0279V15.7578H57.2665C57.2641 15.5116 57.2109 15.2926 57.1067 15.1009C57.0025 14.9067 56.8569 14.754 56.6699 14.6428C56.4853 14.5315 56.2698 14.4759 56.0236 14.4759C55.7608 14.4759 55.53 14.5398 55.3311 14.6676C55.1323 14.7931 54.9772 14.9588 54.8659 15.1648C54.757 15.3684 54.7014 15.5921 54.699 15.8359V16.5923C54.699 16.9096 54.757 17.1818 54.873 17.4091C54.9891 17.634 55.1512 17.8068 55.3596 17.9276C55.5679 18.0459 55.8117 18.1051 56.0911 18.1051C56.2781 18.1051 56.4474 18.0791 56.5989 18.027C56.7504 17.9725 56.8818 17.8932 56.9931 17.7891C57.1043 17.6849 57.1884 17.5559 57.2452 17.402L58.4455 17.5369C58.3697 17.8542 58.2253 18.1312 58.0123 18.3679C57.8016 18.6023 57.5317 18.7846 57.2026 18.9148C56.8735 19.0426 56.4971 19.1065 56.0733 19.1065ZM66.3778 14.9872L65.206 15.1151C65.1728 14.9967 65.1148 14.8854 65.032 14.7812C64.9515 14.6771 64.8426 14.593 64.7053 14.5291C64.5679 14.4652 64.3999 14.4332 64.201 14.4332C63.9335 14.4332 63.7086 14.4912 63.5263 14.6072C63.3464 14.7232 63.2576 14.8736 63.2599 15.0582C63.2576 15.2169 63.3156 15.3459 63.4339 15.4453C63.5547 15.5447 63.7536 15.6264 64.0305 15.6903L64.9609 15.8892C65.477 16.0005 65.8606 16.1768 66.1115 16.4183C66.3648 16.6598 66.4927 16.9759 66.495 17.3665C66.4927 17.7098 66.392 18.0128 66.1932 18.2756C65.9967 18.536 65.7232 18.7396 65.3729 18.8864C65.0225 19.0331 64.62 19.1065 64.1655 19.1065C63.4979 19.1065 62.9605 18.9669 62.5533 18.6875C62.1461 18.4058 61.9034 18.014 61.8253 17.5121L63.0788 17.3913C63.1357 17.6375 63.2564 17.8234 63.4411 17.9489C63.6257 18.0743 63.866 18.1371 64.1619 18.1371C64.4673 18.1371 64.7124 18.0743 64.897 17.9489C65.084 17.8234 65.1776 17.6683 65.1776 17.4837C65.1776 17.3274 65.1172 17.1984 64.9964 17.0966C64.8781 16.9948 64.6934 16.9167 64.4425 16.8622L63.5121 16.6669C62.9889 16.558 62.6018 16.3745 62.3509 16.1165C62.0999 15.8561 61.9756 15.527 61.978 15.1293C61.9756 14.7931 62.0668 14.5019 62.2514 14.2557C62.4384 14.0071 62.6977 13.8153 63.0291 13.6804C63.3629 13.5431 63.7476 13.4744 64.1832 13.4744C64.8224 13.4744 65.3255 13.6106 65.6925 13.8828C66.0618 14.1551 66.2902 14.5232 66.3778 14.9872ZM67.555 21.0455V13.5455H68.8192V14.4474H68.8938C68.9601 14.3149 69.0536 14.174 69.1744 14.0249C69.2951 13.8733 69.4585 13.7443 69.6644 13.6378C69.8704 13.5289 70.1332 13.4744 70.4528 13.4744C70.8742 13.4744 71.2541 13.5821 71.5927 13.7976C71.9336 14.0107 72.2035 14.3267 72.4023 14.7457C72.6036 15.1624 72.7042 15.6738 72.7042 16.2798C72.7042 16.8788 72.6059 17.3878 72.4094 17.8068C72.2129 18.2259 71.9454 18.5455 71.6069 18.7656C71.2683 18.9858 70.8848 19.0959 70.4563 19.0959C70.1438 19.0959 69.8846 19.0438 69.6786 18.9396C69.4727 18.8355 69.3069 18.71 69.1815 18.5632C69.0584 18.4141 68.9625 18.2732 68.8938 18.1406H68.8406V21.0455H67.555ZM68.8157 16.2727C68.8157 16.6255 68.8654 16.9344 68.9648 17.1996C69.0666 17.4647 69.2122 17.6719 69.4016 17.821C69.5934 17.9678 69.8254 18.0412 70.0977 18.0412C70.3817 18.0412 70.6197 17.9654 70.8114 17.8139C71.0032 17.66 71.1476 17.4505 71.2447 17.1854C71.3441 16.9179 71.3938 16.6136 71.3938 16.2727C71.3938 15.9342 71.3453 15.6335 71.2482 15.3707C71.1512 15.108 71.0067 14.902 70.815 14.7528C70.6232 14.6037 70.3841 14.5291 70.0977 14.5291C69.823 14.5291 69.5898 14.6013 69.3981 14.7457C69.2063 14.8902 69.0607 15.0926 68.9613 15.353C68.8642 15.6134 68.8157 15.92 68.8157 16.2727ZM76.2198 19.1065C75.6729 19.1065 75.2006 18.9929 74.8029 18.7656C74.4076 18.536 74.1033 18.2116 73.8903 17.7926C73.6772 17.3712 73.5707 16.8752 73.5707 16.3047C73.5707 15.7436 73.6772 15.2512 73.8903 14.8274C74.1057 14.4013 74.4064 14.0698 74.7923 13.8331C75.1781 13.594 75.6315 13.4744 76.1523 13.4744C76.4885 13.4744 76.8058 13.5289 77.104 13.6378C77.4047 13.7443 77.6699 13.91 77.8995 14.1349C78.1315 14.3598 78.3138 14.6463 78.4464 14.9943C78.579 15.34 78.6452 15.7519 78.6452 16.2301V16.6243H74.1744V15.7578H77.413C77.4106 15.5116 77.3574 15.2926 77.2532 15.1009C77.149 14.9067 77.0034 14.754 76.8164 14.6428C76.6317 14.5315 76.4163 14.4759 76.1701 14.4759C75.9073 14.4759 75.6765 14.5398 75.4776 14.6676C75.2788 14.7931 75.1237 14.9588 75.0124 15.1648C74.9035 15.3684 74.8479 15.5921 74.8455 15.8359V16.5923C74.8455 16.9096 74.9035 17.1818 75.0195 17.4091C75.1355 17.634 75.2977 17.8068 75.506 17.9276C75.7144 18.0459 75.9582 18.1051 76.2376 18.1051C76.4246 18.1051 76.5939 18.0791 76.7454 18.027C76.8969 17.9725 77.0283 17.8932 77.1396 17.7891C77.2508 17.6849 77.3349 17.5559 77.3917 17.402L78.592 17.5369C78.5162 17.8542 78.3718 18.1312 78.1587 18.3679C77.948 18.6023 77.6781 18.7846 77.3491 18.9148C77.02 19.0426 76.6436 19.1065 76.2198 19.1065ZM82.1475 19.1065C81.6007 19.1065 81.1284 18.9929 80.7306 18.7656C80.3353 18.536 80.0311 18.2116 79.818 17.7926C79.6049 17.3712 79.4984 16.8752 79.4984 16.3047C79.4984 15.7436 79.6049 15.2512 79.818 14.8274C80.0334 14.4013 80.3341 14.0698 80.72 13.8331C81.1059 13.594 81.5592 13.4744 82.0801 13.4744C82.4163 13.4744 82.7335 13.5289 83.0318 13.6378C83.3324 13.7443 83.5976 13.91 83.8272 14.1349C84.0592 14.3598 84.2415 14.6463 84.3741 14.9943C84.5067 15.34 84.573 15.7519 84.573 16.2301V16.6243H80.1021V15.7578H83.3407C83.3384 15.5116 83.2851 15.2926 83.1809 15.1009C83.0768 14.9067 82.9312 14.754 82.7441 14.6428C82.5595 14.5315 82.344 14.4759 82.0978 14.4759C81.835 14.4759 81.6042 14.5398 81.4054 14.6676C81.2065 14.7931 81.0514 14.9588 80.9402 15.1648C80.8313 15.3684 80.7756 15.5921 80.7733 15.8359V16.5923C80.7733 16.9096 80.8313 17.1818 80.9473 17.4091C81.0633 17.634 81.2254 17.8068 81.4338 17.9276C81.6421 18.0459 81.8859 18.1051 82.1653 18.1051C82.3523 18.1051 82.5216 18.0791 82.6731 18.027C82.8246 17.9725 82.956 17.8932 83.0673 17.7891C83.1786 17.6849 83.2626 17.5559 83.3194 17.402L84.5197 17.5369C84.444 17.8542 84.2995 18.1312 84.0865 18.3679C83.8758 18.6023 83.6059 18.7846 83.2768 18.9148C82.9477 19.0426 82.5713 19.1065 82.1475 19.1065ZM87.6847 19.0959C87.2562 19.0959 86.8726 18.9858 86.5341 18.7656C86.1955 18.5455 85.928 18.2259 85.7315 17.8068C85.535 17.3878 85.4368 16.8788 85.4368 16.2798C85.4368 15.6738 85.5362 15.1624 85.7351 14.7457C85.9363 14.3267 86.2074 14.0107 86.5483 13.7976C86.8892 13.5821 87.2692 13.4744 87.6882 13.4744C88.0078 13.4744 88.2706 13.5289 88.4766 13.6378C88.6825 13.7443 88.8459 13.8733 88.9666 14.0249C89.0874 14.174 89.1809 14.3149 89.2472 14.4474H89.3004V11.7273H90.5895V19H89.3253V18.1406H89.2472C89.1809 18.2732 89.085 18.4141 88.9595 18.5632C88.834 18.71 88.6683 18.8355 88.4624 18.9396C88.2564 19.0438 87.9972 19.0959 87.6847 19.0959ZM88.0433 18.0412C88.3156 18.0412 88.5476 17.9678 88.7393 17.821C88.9311 17.6719 89.0767 17.4647 89.1761 17.1996C89.2756 16.9344 89.3253 16.6255 89.3253 16.2727C89.3253 15.92 89.2756 15.6134 89.1761 15.353C89.0791 15.0926 88.9347 14.8902 88.7429 14.7457C88.5535 14.6013 88.3203 14.5291 88.0433 14.5291C87.7569 14.5291 87.5178 14.6037 87.326 14.7528C87.1342 14.902 86.9898 15.108 86.8928 15.3707C86.7957 15.6335 86.7472 15.9342 86.7472 16.2727C86.7472 16.6136 86.7957 16.9179 86.8928 17.1854C86.9922 17.4505 87.1378 17.66 87.3295 17.8139C87.5237 17.9654 87.7616 18.0412 88.0433 18.0412Z" fill="#00264B" fill-opacity="0.2"/>
<path d="M234.244 16.0682V12.1364H235.136V16.0682H234.244ZM232.724 14.5483V13.6562H236.656V14.5483H232.724ZM239.933 17.0795C239.524 17.0795 239.161 17.0095 238.842 16.8693C238.526 16.7292 238.276 16.5341 238.092 16.2841C237.909 16.0341 237.811 15.7453 237.8 15.4176H238.868C238.877 15.5748 238.929 15.7121 239.024 15.8295C239.119 15.9451 239.245 16.035 239.402 16.0994C239.559 16.1638 239.735 16.196 239.93 16.196C240.139 16.196 240.323 16.16 240.484 16.0881C240.645 16.0142 240.771 15.9119 240.862 15.7812C240.953 15.6506 240.998 15.5 240.996 15.3295C240.998 15.1534 240.952 14.9981 240.859 14.8636C240.767 14.7292 240.632 14.6241 240.456 14.5483C240.282 14.4725 240.071 14.4347 239.825 14.4347H239.311V13.6222H239.825C240.028 13.6222 240.205 13.5871 240.357 13.517C240.51 13.447 240.63 13.3485 240.717 13.2216C240.804 13.0928 240.847 12.9441 240.845 12.7756C240.847 12.6108 240.81 12.4678 240.734 12.3466C240.661 12.2235 240.555 12.1278 240.419 12.0597C240.285 11.9915 240.126 11.9574 239.945 11.9574C239.767 11.9574 239.602 11.9896 239.45 12.054C239.299 12.1184 239.177 12.2102 239.084 12.3295C238.991 12.447 238.942 12.5871 238.936 12.75H237.922C237.929 12.4242 238.023 12.1383 238.203 11.892C238.385 11.6439 238.627 11.4508 238.93 11.3125C239.233 11.1723 239.573 11.1023 239.95 11.1023C240.339 11.1023 240.676 11.1752 240.962 11.321C241.25 11.465 241.472 11.6591 241.629 11.9034C241.786 12.1477 241.865 12.4176 241.865 12.7131C241.867 13.0407 241.77 13.3153 241.575 13.5369C241.382 13.7585 241.128 13.9034 240.814 13.9716V14.017C241.223 14.0739 241.536 14.2254 241.754 14.4716C241.974 14.7159 242.083 15.0199 242.081 15.3835C242.081 15.7093 241.988 16.0009 241.803 16.2585C241.619 16.5142 241.365 16.715 241.041 16.8608C240.719 17.0066 240.35 17.0795 239.933 17.0795ZM245.124 17.0795C244.702 17.0795 244.327 17.0085 243.999 16.8665C243.674 16.7244 243.418 16.5303 243.232 16.2841C243.049 16.036 242.958 15.7547 242.96 15.4403C242.958 15.196 243.011 14.9716 243.119 14.767C243.227 14.5625 243.372 14.392 243.556 14.2557C243.742 14.1174 243.948 14.0294 244.175 13.9915V13.9517C243.876 13.8854 243.634 13.733 243.448 13.4943C243.264 13.2538 243.174 12.9763 243.175 12.6619C243.174 12.3627 243.257 12.0956 243.425 11.8608C243.594 11.6259 243.825 11.4413 244.119 11.3068C244.412 11.1705 244.747 11.1023 245.124 11.1023C245.497 11.1023 245.83 11.1705 246.121 11.3068C246.415 11.4413 246.646 11.6259 246.815 11.8608C246.985 12.0956 247.07 12.3627 247.07 12.6619C247.07 12.9763 246.977 13.2538 246.789 13.4943C246.603 13.733 246.364 13.8854 246.07 13.9517V13.9915C246.298 14.0294 246.502 14.1174 246.684 14.2557C246.868 14.392 247.013 14.5625 247.121 14.767C247.231 14.9716 247.286 15.196 247.286 15.4403C247.286 15.7547 247.193 16.036 247.008 16.2841C246.822 16.5303 246.567 16.7244 246.241 16.8665C245.917 17.0085 245.545 17.0795 245.124 17.0795ZM245.124 16.267C245.342 16.267 245.531 16.2301 245.692 16.1562C245.853 16.0805 245.978 15.9744 246.067 15.8381C246.156 15.7017 246.202 15.5445 246.204 15.3665C246.202 15.1809 246.154 15.017 246.059 14.875C245.966 14.7311 245.838 14.6184 245.675 14.5369C245.514 14.4555 245.331 14.4148 245.124 14.4148C244.916 14.4148 244.73 14.4555 244.567 14.5369C244.405 14.6184 244.276 14.7311 244.181 14.875C244.088 15.017 244.043 15.1809 244.045 15.3665C244.043 15.5445 244.086 15.7017 244.175 15.8381C244.264 15.9725 244.389 16.0777 244.55 16.1534C244.713 16.2292 244.905 16.267 245.124 16.267ZM245.124 13.6165C245.302 13.6165 245.46 13.5805 245.596 13.5085C245.734 13.4366 245.843 13.3362 245.923 13.2074C246.002 13.0786 246.043 12.9299 246.045 12.7614C246.043 12.5947 246.003 12.4489 245.925 12.3239C245.848 12.197 245.74 12.0994 245.602 12.0312C245.463 11.9612 245.304 11.9261 245.124 11.9261C244.941 11.9261 244.779 11.9612 244.638 12.0312C244.5 12.0994 244.392 12.197 244.315 12.3239C244.239 12.4489 244.202 12.5947 244.204 12.7614C244.202 12.9299 244.24 13.0786 244.317 13.2074C244.397 13.3343 244.506 13.4347 244.644 13.5085C244.784 13.5805 244.944 13.6165 245.124 13.6165ZM251.331 15.9091V15.6023C251.331 15.3769 251.378 15.1695 251.473 14.9801C251.57 14.7907 251.71 14.6383 251.893 14.5227C252.077 14.4072 252.3 14.3494 252.561 14.3494C252.83 14.3494 253.055 14.4072 253.237 14.5227C253.419 14.6364 253.556 14.7879 253.649 14.9773C253.744 15.1667 253.791 15.375 253.791 15.6023V15.9091C253.791 16.1345 253.744 16.3419 253.649 16.5312C253.554 16.7206 253.415 16.8731 253.232 16.9886C253.05 17.1042 252.826 17.1619 252.561 17.1619C252.296 17.1619 252.071 17.1042 251.888 16.9886C251.704 16.8731 251.565 16.7206 251.47 16.5312C251.377 16.3419 251.331 16.1345 251.331 15.9091ZM252.072 15.6023V15.9091C252.072 16.0587 252.108 16.196 252.18 16.321C252.252 16.446 252.379 16.5085 252.561 16.5085C252.745 16.5085 252.871 16.447 252.939 16.3239C253.009 16.1989 253.044 16.0606 253.044 15.9091V15.6023C253.044 15.4508 253.011 15.3125 252.945 15.1875C252.878 15.0606 252.75 14.9972 252.561 14.9972C252.383 14.9972 252.257 15.0606 252.183 15.1875C252.109 15.3125 252.072 15.4508 252.072 15.6023ZM248.374 12.5795V12.2727C248.374 12.0455 248.422 11.8371 248.518 11.6477C248.615 11.4583 248.755 11.3068 248.939 11.1932C249.123 11.0777 249.345 11.0199 249.607 11.0199C249.874 11.0199 250.098 11.0777 250.28 11.1932C250.464 11.3068 250.602 11.4583 250.695 11.6477C250.787 11.8371 250.834 12.0455 250.834 12.2727V12.5795C250.834 12.8068 250.786 13.0152 250.692 13.2045C250.599 13.392 250.461 13.5426 250.277 13.6562C250.093 13.7699 249.87 13.8267 249.607 13.8267C249.339 13.8267 249.114 13.7699 248.93 13.6562C248.749 13.5426 248.61 13.3911 248.516 13.2017C248.421 13.0123 248.374 12.8049 248.374 12.5795ZM249.121 12.2727V12.5795C249.121 12.7311 249.156 12.8693 249.226 12.9943C249.298 13.1174 249.425 13.179 249.607 13.179C249.788 13.179 249.913 13.1174 249.982 12.9943C250.052 12.8693 250.087 12.7311 250.087 12.5795V12.2727C250.087 12.1212 250.054 11.983 249.987 11.858C249.921 11.7311 249.794 11.6676 249.607 11.6676C249.427 11.6676 249.301 11.7311 249.229 11.858C249.157 11.9848 249.121 12.1231 249.121 12.2727ZM248.697 17L252.697 11.1818H253.408L249.408 17H248.697Z" fill="url(#paint0_linear_410_58)" fill-opacity="0.2"/>
<rect x="0.5" y="38.5" width="271" height="31" rx="2.5" stroke="#00264B" stroke-opacity="0.3"/>
<path d="M17.2479 57L15.1953 49.7273H16.6122L17.9226 55.0717H17.9901L19.3892 49.7273H20.6783L22.081 55.0753H22.1449L23.4553 49.7273H24.8722L22.8196 57H21.5199L20.0639 51.897H20.0071L18.5476 57H17.2479ZM27.5515 57.1065C27.0188 57.1065 26.5572 56.9893 26.1665 56.755C25.7759 56.5206 25.4729 56.1927 25.2575 55.7713C25.0444 55.3499 24.9379 54.8575 24.9379 54.294C24.9379 53.7306 25.0444 53.237 25.2575 52.8132C25.4729 52.3894 25.7759 52.0604 26.1665 51.826C26.5572 51.5916 27.0188 51.4744 27.5515 51.4744C28.0842 51.4744 28.5458 51.5916 28.9364 51.826C29.3271 52.0604 29.6289 52.3894 29.842 52.8132C30.0574 53.237 30.1651 53.7306 30.1651 54.294C30.1651 54.8575 30.0574 55.3499 29.842 55.7713C29.6289 56.1927 29.3271 56.5206 28.9364 56.755C28.5458 56.9893 28.0842 57.1065 27.5515 57.1065ZM27.5586 56.0767C27.8474 56.0767 28.0889 55.9974 28.283 55.8388C28.4772 55.6778 28.6216 55.4624 28.7163 55.1925C28.8133 54.9226 28.8619 54.6219 28.8619 54.2905C28.8619 53.9567 28.8133 53.6548 28.7163 53.3849C28.6216 53.1127 28.4772 52.8961 28.283 52.7351C28.0889 52.5741 27.8474 52.4936 27.5586 52.4936C27.2627 52.4936 27.0165 52.5741 26.82 52.7351C26.6258 52.8961 26.4802 53.1127 26.3832 53.3849C26.2885 53.6548 26.2411 53.9567 26.2411 54.2905C26.2411 54.6219 26.2885 54.9226 26.3832 55.1925C26.4802 55.4624 26.6258 55.6778 26.82 55.8388C27.0165 55.9974 27.2627 56.0767 27.5586 56.0767ZM31.2562 57V51.5455H32.5027V52.4545H32.5595C32.6589 52.1397 32.8294 51.897 33.0708 51.7266C33.3147 51.5537 33.5929 51.4673 33.9054 51.4673C33.9764 51.4673 34.0557 51.4709 34.1433 51.478C34.2333 51.4827 34.3078 51.491 34.367 51.5028V52.6854C34.3126 52.6664 34.2261 52.6499 34.1078 52.6357C33.9918 52.6191 33.8793 52.6108 33.7704 52.6108C33.536 52.6108 33.3253 52.6617 33.1383 52.7635C32.9537 52.8629 32.8081 53.0014 32.7015 53.179C32.595 53.3565 32.5417 53.5613 32.5417 53.7933V57H31.2562ZM36.3929 55.2884L36.3894 53.7365H36.5953L38.5556 51.5455H40.0577L37.6465 54.2301H37.3801L36.3929 55.2884ZM35.2211 57V49.7273H36.5066V57H35.2211ZM38.6444 57L36.8688 54.5178L37.7353 53.6122L40.182 57H38.6444ZM43.6772 51.5455V52.5398H40.4528V51.5455H43.6772ZM41.2589 57V51.0305C41.2589 50.6636 41.3346 50.3582 41.4862 50.1143C41.64 49.8705 41.846 49.6882 42.104 49.5675C42.3621 49.4467 42.6486 49.3864 42.9634 49.3864C43.186 49.3864 43.3836 49.4041 43.5565 49.4396C43.7293 49.4751 43.8571 49.5071 43.94 49.5355L43.6843 50.5298C43.6299 50.5133 43.5612 50.4967 43.4783 50.4801C43.3955 50.4612 43.3031 50.4517 43.2013 50.4517C42.9622 50.4517 42.793 50.5097 42.6935 50.6257C42.5965 50.7393 42.5479 50.9027 42.5479 51.1158V57H41.2589ZM45.9695 49.7273V57H44.6839V49.7273H45.9695ZM49.6706 57.1065C49.138 57.1065 48.6763 56.9893 48.2857 56.755C47.8951 56.5206 47.592 56.1927 47.3766 55.7713C47.1635 55.3499 47.057 54.8575 47.057 54.294C47.057 53.7306 47.1635 53.237 47.3766 52.8132C47.592 52.3894 47.8951 52.0604 48.2857 51.826C48.6763 51.5916 49.138 51.4744 49.6706 51.4744C50.2033 51.4744 50.665 51.5916 51.0556 51.826C51.4462 52.0604 51.748 52.3894 51.9611 52.8132C52.1766 53.237 52.2843 53.7306 52.2843 54.294C52.2843 54.8575 52.1766 55.3499 51.9611 55.7713C51.748 56.1927 51.4462 56.5206 51.0556 56.755C50.665 56.9893 50.2033 57.1065 49.6706 57.1065ZM49.6777 56.0767C49.9666 56.0767 50.208 55.9974 50.4022 55.8388C50.5963 55.6778 50.7407 55.4624 50.8354 55.1925C50.9325 54.9226 50.981 54.6219 50.981 54.2905C50.981 53.9567 50.9325 53.6548 50.8354 53.3849C50.7407 53.1127 50.5963 52.8961 50.4022 52.7351C50.208 52.5741 49.9666 52.4936 49.6777 52.4936C49.3818 52.4936 49.1356 52.5741 48.9391 52.7351C48.745 52.8961 48.5994 53.1127 48.5023 53.3849C48.4076 53.6548 48.3603 53.9567 48.3603 54.2905C48.3603 54.6219 48.4076 54.9226 48.5023 55.1925C48.5994 55.4624 48.745 55.6778 48.9391 55.8388C49.1356 55.9974 49.3818 56.0767 49.6777 56.0767ZM54.3448 57L52.8036 51.5455H54.114L55.0728 55.3807H55.1225L56.1026 51.5455H57.3988L58.3789 55.3594H58.4322L59.3768 51.5455H60.6907L59.146 57H57.8072L56.7844 53.3139H56.7099L55.6871 57H54.3448ZM65.6383 57.1101C65.2927 57.1101 64.9814 57.0485 64.7044 56.9254C64.4297 56.8 64.2119 56.6153 64.051 56.3714C63.8923 56.1276 63.813 55.8269 63.813 55.4695C63.813 55.1617 63.8699 54.9072 63.9835 54.706C64.0971 54.5047 64.2522 54.3438 64.4487 54.223C64.6452 54.1023 64.8665 54.0111 65.1127 53.9496C65.3613 53.8857 65.6182 53.8395 65.8833 53.8111C66.2029 53.7779 66.4622 53.7483 66.661 53.7223C66.8599 53.6939 67.0043 53.6513 67.0943 53.5945C67.1866 53.5353 67.2328 53.4441 67.2328 53.321V53.2997C67.2328 53.0322 67.1535 52.825 66.9949 52.6783C66.8362 52.5315 66.6078 52.4581 66.3095 52.4581C65.9946 52.4581 65.7449 52.5268 65.5602 52.6641C65.3779 52.8014 65.2548 52.9635 65.1909 53.1506L63.9906 52.9801C64.0853 52.6487 64.2415 52.3717 64.4593 52.1491C64.6771 51.9242 64.9435 51.7562 65.2583 51.6449C65.5732 51.5312 65.9212 51.4744 66.3024 51.4744C66.5652 51.4744 66.8268 51.5052 67.0872 51.5668C67.3476 51.6283 67.5855 51.7301 67.801 51.8722C68.0164 52.0118 68.1892 52.2024 68.3194 52.4439C68.452 52.6854 68.5183 52.9872 68.5183 53.3494V57H67.2825V56.2507H67.2399C67.1618 56.4022 67.0517 56.5443 66.9096 56.6768C66.7699 56.8071 66.5936 56.9124 66.3805 56.9929C66.1698 57.071 65.9224 57.1101 65.6383 57.1101ZM65.9721 56.1655C66.2302 56.1655 66.4539 56.1146 66.6433 56.0128C66.8327 55.9086 66.9783 55.7713 67.0801 55.6009C67.1842 55.4304 67.2363 55.2446 67.2363 55.0433V54.4006C67.1961 54.4337 67.1274 54.4645 67.0304 54.4929C66.9357 54.5213 66.8291 54.5462 66.7108 54.5675C66.5924 54.5888 66.4752 54.6077 66.3592 54.6243C66.2432 54.6409 66.1426 54.6551 66.0574 54.6669C65.8656 54.6929 65.694 54.7356 65.5424 54.7947C65.3909 54.8539 65.2714 54.9368 65.1838 55.0433C65.0962 55.1475 65.0524 55.2824 65.0524 55.4482C65.0524 55.6849 65.1388 55.8636 65.3116 55.9844C65.4844 56.1051 65.7046 56.1655 65.9721 56.1655ZM72.5737 51.5455V52.5398H69.3493V51.5455H72.5737ZM70.1554 57V51.0305C70.1554 50.6636 70.2311 50.3582 70.3826 50.1143C70.5365 49.8705 70.7425 49.6882 71.0005 49.5675C71.2586 49.4467 71.545 49.3864 71.8599 49.3864C72.0824 49.3864 72.2801 49.4041 72.4529 49.4396C72.6258 49.4751 72.7536 49.5071 72.8365 49.5355L72.5808 50.5298C72.5263 50.5133 72.4577 50.4967 72.3748 50.4801C72.292 50.4612 72.1996 50.4517 72.0978 50.4517C71.8587 50.4517 71.6895 50.5097 71.59 50.6257C71.493 50.7393 71.4444 50.9027 71.4444 51.1158V57H70.1554ZM76.3432 51.5455V52.5398H73.1188V51.5455H76.3432ZM73.9249 57V51.0305C73.9249 50.6636 74.0007 50.3582 74.1522 50.1143C74.306 49.8705 74.512 49.6882 74.7701 49.5675C75.0281 49.4467 75.3146 49.3864 75.6294 49.3864C75.852 49.3864 76.0497 49.4041 76.2225 49.4396C76.3953 49.4751 76.5231 49.5071 76.606 49.5355L76.3503 50.5298C76.2959 50.5133 76.2272 50.4967 76.1444 50.4801C76.0615 50.4612 75.9692 50.4517 75.8674 50.4517C75.6283 50.4517 75.459 50.5097 75.3596 50.6257C75.2625 50.7393 75.214 50.9027 75.214 51.1158V57H73.9249ZM77.35 57V51.5455H78.6355V57H77.35ZM77.9963 50.7713C77.7927 50.7713 77.6175 50.7038 77.4707 50.5689C77.3239 50.4316 77.2505 50.267 77.2505 50.0753C77.2505 49.8812 77.3239 49.7166 77.4707 49.5817C77.6175 49.4444 77.7927 49.3757 77.9963 49.3757C78.2022 49.3757 78.3774 49.4444 78.5218 49.5817C78.6686 49.7166 78.742 49.8812 78.742 50.0753C78.742 50.267 78.6686 50.4316 78.5218 50.5689C78.3774 50.7038 78.2022 50.7713 77.9963 50.7713ZM82.3366 57.1065C81.7921 57.1065 81.3246 56.987 80.9339 56.7479C80.5457 56.5088 80.2462 56.1785 80.0355 55.7571C79.8272 55.3333 79.723 54.8456 79.723 54.294C79.723 53.7401 79.8295 53.2512 80.0426 52.8274C80.2557 52.4013 80.5563 52.0698 80.9446 51.8331C81.3352 51.594 81.7969 51.4744 82.3295 51.4744C82.7723 51.4744 83.1641 51.5561 83.505 51.7195C83.8482 51.8804 84.1217 52.1089 84.3253 52.4048C84.5289 52.6984 84.6449 53.0417 84.6733 53.4347H83.4446C83.3949 53.1719 83.2765 52.9529 83.0895 52.7777C82.9048 52.6001 82.6574 52.5114 82.3473 52.5114C82.0845 52.5114 81.8537 52.5824 81.6548 52.7244C81.456 52.8641 81.3009 53.0653 81.1896 53.3281C81.0807 53.5909 81.0263 53.9058 81.0263 54.2727C81.0263 54.6444 81.0807 54.964 81.1896 55.2315C81.2985 55.4967 81.4512 55.7015 81.6477 55.8459C81.8466 55.9879 82.0798 56.0589 82.3473 56.0589C82.5367 56.0589 82.706 56.0234 82.8551 55.9524C83.0066 55.879 83.1333 55.7737 83.2351 55.6364C83.3369 55.4991 83.4067 55.3321 83.4446 55.1357H84.6733C84.6425 55.5215 84.5289 55.8636 84.3324 56.1619C84.1359 56.4579 83.8684 56.6899 83.5298 56.858C83.1913 57.0237 82.7936 57.1065 82.3366 57.1065ZM85.7289 57V51.5455H87.0144V57H85.7289ZM86.3752 50.7713C86.1716 50.7713 85.9964 50.7038 85.8496 50.5689C85.7028 50.4316 85.6294 50.267 85.6294 50.0753C85.6294 49.8812 85.7028 49.7166 85.8496 49.5817C85.9964 49.4444 86.1716 49.3757 86.3752 49.3757C86.5811 49.3757 86.7563 49.4444 86.9007 49.5817C87.0475 49.7166 87.1209 49.8812 87.1209 50.0753C87.1209 50.267 87.0475 50.4316 86.9007 50.5689C86.7563 50.7038 86.5811 50.7713 86.3752 50.7713ZM89.9059 57.1101C89.5603 57.1101 89.2489 57.0485 88.9719 56.9254C88.6973 56.8 88.4795 56.6153 88.3185 56.3714C88.1599 56.1276 88.0806 55.8269 88.0806 55.4695C88.0806 55.1617 88.1374 54.9072 88.2511 54.706C88.3647 54.5047 88.5198 54.3438 88.7163 54.223C88.9128 54.1023 89.1341 54.0111 89.3803 53.9496C89.6289 53.8857 89.8858 53.8395 90.1509 53.8111C90.4705 53.7779 90.7298 53.7483 90.9286 53.7223C91.1275 53.6939 91.2719 53.6513 91.3619 53.5945C91.4542 53.5353 91.5004 53.4441 91.5004 53.321V53.2997C91.5004 53.0322 91.421 52.825 91.2624 52.6783C91.1038 52.5315 90.8754 52.4581 90.5771 52.4581C90.2622 52.4581 90.0124 52.5268 89.8278 52.6641C89.6455 52.8014 89.5224 52.9635 89.4585 53.1506L88.2582 52.9801C88.3529 52.6487 88.5091 52.3717 88.7269 52.1491C88.9447 51.9242 89.2111 51.7562 89.5259 51.6449C89.8408 51.5312 90.1888 51.4744 90.57 51.4744C90.8327 51.4744 91.0943 51.5052 91.3548 51.5668C91.6152 51.6283 91.8531 51.7301 92.0685 51.8722C92.284 52.0118 92.4568 52.2024 92.587 52.4439C92.7196 52.6854 92.7859 52.9872 92.7859 53.3494V57H91.5501V56.2507H91.5075C91.4293 56.4022 91.3192 56.5443 91.1772 56.6768C91.0375 56.8071 90.8612 56.9124 90.6481 56.9929C90.4374 57.071 90.19 57.1101 89.9059 57.1101ZM90.2397 56.1655C90.4978 56.1655 90.7215 56.1146 90.9109 56.0128C91.1003 55.9086 91.2459 55.7713 91.3477 55.6009C91.4518 55.4304 91.5039 55.2446 91.5039 55.0433V54.4006C91.4637 54.4337 91.395 54.4645 91.2979 54.4929C91.2032 54.5213 91.0967 54.5462 90.9783 54.5675C90.86 54.5888 90.7428 54.6077 90.6268 54.6243C90.5108 54.6409 90.4102 54.6551 90.3249 54.6669C90.1332 54.6929 89.9615 54.7356 89.81 54.7947C89.6585 54.8539 89.5389 54.9368 89.4513 55.0433C89.3638 55.1475 89.32 55.2824 89.32 55.4482C89.32 55.6849 89.4064 55.8636 89.5792 55.9844C89.752 56.1051 89.9722 56.1655 90.2397 56.1655ZM95.364 53.804V57H94.0785V51.5455H95.3072V52.4723H95.3711C95.4966 52.1669 95.6966 51.9242 95.9712 51.7443C96.2482 51.5644 96.5903 51.4744 96.9975 51.4744C97.3739 51.4744 97.7018 51.5549 97.9812 51.7159C98.2629 51.8769 98.4807 52.1101 98.6346 52.4155C98.7908 52.7209 98.8678 53.0914 98.8654 53.527V57H97.5799V53.7259C97.5799 53.3613 97.4852 53.076 97.2958 52.87C97.1088 52.6641 96.8496 52.5611 96.5181 52.5611C96.2932 52.5611 96.0932 52.6108 95.918 52.7102C95.7451 52.8073 95.609 52.9482 95.5096 53.1328C95.4125 53.3175 95.364 53.5412 95.364 53.804ZM102.551 57.1065C102.007 57.1065 101.539 56.987 101.149 56.7479C100.761 56.5088 100.461 56.1785 100.25 55.7571C100.042 55.3333 99.9379 54.8456 99.9379 54.294C99.9379 53.7401 100.044 53.2512 100.257 52.8274C100.471 52.4013 100.771 52.0698 101.159 51.8331C101.55 51.594 102.012 51.4744 102.544 51.4744C102.987 51.4744 103.379 51.5561 103.72 51.7195C104.063 51.8804 104.337 52.1089 104.54 52.4048C104.744 52.6984 104.86 53.0417 104.888 53.4347H103.659C103.61 53.1719 103.491 52.9529 103.304 52.7777C103.12 52.6001 102.872 52.5114 102.562 52.5114C102.299 52.5114 102.069 52.5824 101.87 52.7244C101.671 52.8641 101.516 53.0653 101.404 53.3281C101.296 53.5909 101.241 53.9058 101.241 54.2727C101.241 54.6444 101.296 54.964 101.404 55.2315C101.513 55.4967 101.666 55.7015 101.863 55.8459C102.061 55.9879 102.295 56.0589 102.562 56.0589C102.752 56.0589 102.921 56.0234 103.07 55.9524C103.221 55.879 103.348 55.7737 103.45 55.6364C103.552 55.4991 103.622 55.3321 103.659 55.1357H104.888C104.857 55.5215 104.744 55.8636 104.547 56.1619C104.351 56.4579 104.083 56.6899 103.745 56.858C103.406 57.0237 103.008 57.1065 102.551 57.1065ZM108.358 57.1065C107.812 57.1065 107.339 56.9929 106.942 56.7656C106.546 56.536 106.242 56.2116 106.029 55.7926C105.816 55.3712 105.709 54.8752 105.709 54.3047C105.709 53.7436 105.816 53.2512 106.029 52.8274C106.244 52.4013 106.545 52.0698 106.931 51.8331C107.317 51.594 107.77 51.4744 108.291 51.4744C108.627 51.4744 108.944 51.5289 109.243 51.6378C109.543 51.7443 109.809 51.91 110.038 52.1349C110.27 52.3598 110.452 52.6463 110.585 52.9943C110.718 53.34 110.784 53.7519 110.784 54.2301V54.6243H106.313V53.7578H109.552C109.549 53.5116 109.496 53.2926 109.392 53.1009C109.288 52.9067 109.142 52.754 108.955 52.6428C108.77 52.5315 108.555 52.4759 108.309 52.4759C108.046 52.4759 107.815 52.5398 107.616 52.6676C107.417 52.7931 107.262 52.9588 107.151 53.1648C107.042 53.3684 106.987 53.5921 106.984 53.8359V54.5923C106.984 54.9096 107.042 55.1818 107.158 55.4091C107.274 55.634 107.436 55.8068 107.645 55.9276C107.853 56.0459 108.097 56.1051 108.376 56.1051C108.563 56.1051 108.733 56.0791 108.884 56.027C109.036 55.9725 109.167 55.8932 109.278 55.7891C109.39 55.6849 109.474 55.5559 109.53 55.402L110.731 55.5369C110.655 55.8542 110.51 56.1312 110.297 56.3679C110.087 56.6023 109.817 56.7846 109.488 56.9148C109.159 57.0426 108.782 57.1065 108.358 57.1065Z" fill="#00264B" fill-opacity="0.3"/>
<path d="M235.244 54.0682V50.1364H236.136V54.0682H235.244ZM233.724 52.5483V51.6562H237.656V52.5483H233.724ZM238.697 55V54.2386L240.717 52.2585C240.91 52.0634 241.071 51.8902 241.2 51.7386C241.328 51.5871 241.425 51.4403 241.489 51.2983C241.554 51.1562 241.586 51.0047 241.586 50.8438C241.586 50.66 241.544 50.5028 241.461 50.3722C241.378 50.2396 241.263 50.1373 241.117 50.0653C240.971 49.9934 240.806 49.9574 240.62 49.9574C240.429 49.9574 240.261 49.9972 240.117 50.0767C239.973 50.1544 239.862 50.2652 239.782 50.4091C239.704 50.553 239.665 50.7244 239.665 50.9233H238.663C238.663 50.554 238.747 50.233 238.915 49.9602C239.084 49.6875 239.316 49.4763 239.612 49.3267C239.909 49.1771 240.25 49.1023 240.634 49.1023C241.024 49.1023 241.367 49.1752 241.663 49.321C241.958 49.4669 242.187 49.6667 242.35 49.9205C242.515 50.1742 242.597 50.464 242.597 50.7898C242.597 51.0076 242.556 51.2216 242.472 51.4318C242.389 51.642 242.242 51.875 242.032 52.1307C241.824 52.3864 241.531 52.696 241.154 53.0597L240.151 54.0795V54.1193H242.685V55H238.697ZM245.688 55.0795C245.309 55.0795 244.97 55.0085 244.671 54.8665C244.372 54.7225 244.134 54.5256 243.958 54.2756C243.784 54.0256 243.691 53.7396 243.68 53.4176H244.702C244.721 53.6562 244.825 53.8513 245.012 54.0028C245.2 54.1525 245.425 54.2273 245.688 54.2273C245.895 54.2273 246.078 54.1799 246.239 54.0852C246.4 53.9905 246.527 53.8589 246.62 53.6903C246.713 53.5218 246.758 53.3295 246.756 53.1136C246.758 52.8939 246.712 52.6989 246.617 52.5284C246.522 52.358 246.393 52.2244 246.228 52.1278C246.063 52.0294 245.874 51.9801 245.66 51.9801C245.486 51.9782 245.314 52.0104 245.146 52.0767C244.977 52.143 244.844 52.2301 244.745 52.3381L243.793 52.1818L244.097 49.1818H247.472V50.0625H244.969L244.802 51.6051H244.836C244.944 51.4782 245.096 51.3731 245.293 51.2898C245.49 51.2045 245.706 51.1619 245.941 51.1619C246.293 51.1619 246.608 51.2453 246.884 51.4119C247.161 51.5767 247.379 51.804 247.538 52.0938C247.697 52.3835 247.776 52.715 247.776 53.0881C247.776 53.4725 247.687 53.8153 247.509 54.1165C247.333 54.4157 247.088 54.6515 246.773 54.8239C246.461 54.9943 246.099 55.0795 245.688 55.0795ZM251.839 53.9091V53.6023C251.839 53.3769 251.886 53.1695 251.981 52.9801C252.077 52.7907 252.218 52.6383 252.401 52.5227C252.585 52.4072 252.808 52.3494 253.069 52.3494C253.338 52.3494 253.563 52.4072 253.745 52.5227C253.927 52.6364 254.064 52.7879 254.157 52.9773C254.252 53.1667 254.299 53.375 254.299 53.6023V53.9091C254.299 54.1345 254.252 54.3419 254.157 54.5312C254.062 54.7206 253.923 54.8731 253.739 54.9886C253.558 55.1042 253.334 55.1619 253.069 55.1619C252.804 55.1619 252.579 55.1042 252.396 54.9886C252.212 54.8731 252.073 54.7206 251.978 54.5312C251.885 54.3419 251.839 54.1345 251.839 53.9091ZM252.58 53.6023V53.9091C252.58 54.0587 252.616 54.196 252.688 54.321C252.76 54.446 252.887 54.5085 253.069 54.5085C253.253 54.5085 253.379 54.447 253.447 54.3239C253.517 54.1989 253.552 54.0606 253.552 53.9091V53.6023C253.552 53.4508 253.519 53.3125 253.452 53.1875C253.386 53.0606 253.258 52.9972 253.069 52.9972C252.891 52.9972 252.765 53.0606 252.691 53.1875C252.617 53.3125 252.58 53.4508 252.58 53.6023ZM248.881 50.5795V50.2727C248.881 50.0455 248.93 49.8371 249.026 49.6477C249.123 49.4583 249.263 49.3068 249.447 49.1932C249.63 49.0777 249.853 49.0199 250.114 49.0199C250.381 49.0199 250.606 49.0777 250.788 49.1932C250.971 49.3068 251.11 49.4583 251.202 49.6477C251.295 49.8371 251.342 50.0455 251.342 50.2727V50.5795C251.342 50.8068 251.294 51.0152 251.2 51.2045C251.107 51.392 250.969 51.5426 250.785 51.6562C250.601 51.7699 250.378 51.8267 250.114 51.8267C249.847 51.8267 249.622 51.7699 249.438 51.6562C249.256 51.5426 249.118 51.3911 249.023 51.2017C248.929 51.0123 248.881 50.8049 248.881 50.5795ZM249.629 50.2727V50.5795C249.629 50.7311 249.664 50.8693 249.734 50.9943C249.806 51.1174 249.933 51.179 250.114 51.179C250.296 51.179 250.421 51.1174 250.489 50.9943C250.559 50.8693 250.594 50.7311 250.594 50.5795V50.2727C250.594 50.1212 250.561 49.983 250.495 49.858C250.429 49.7311 250.302 49.6676 250.114 49.6676C249.934 49.6676 249.808 49.7311 249.737 49.858C249.665 49.9848 249.629 50.1231 249.629 50.2727ZM249.205 55L253.205 49.1818H253.915L249.915 55H249.205Z" fill="url(#paint1_linear_410_58)" fill-opacity="0.3"/>
<rect x="0.5" y="78.5" width="271" height="31" rx="2.5" stroke="#00264B" stroke-opacity="0.4"/>
<path d="M22.2159 93.3636C22.2159 94.1473 22.0691 94.8184 21.7756 95.3771C21.4844 95.9335 21.0866 96.3596 20.5824 96.6555C20.0805 96.9515 19.5111 97.0994 18.8743 97.0994C18.2375 97.0994 17.6669 96.9515 17.1626 96.6555C16.6607 96.3572 16.263 95.9299 15.9695 95.3736C15.6783 94.8149 15.5327 94.1449 15.5327 93.3636C15.5327 92.58 15.6783 91.91 15.9695 91.3537C16.263 90.795 16.6607 90.3677 17.1626 90.0717C17.6669 89.7758 18.2375 89.6278 18.8743 89.6278C19.5111 89.6278 20.0805 89.7758 20.5824 90.0717C21.0866 90.3677 21.4844 90.795 21.7756 91.3537C22.0691 91.91 22.2159 92.58 22.2159 93.3636ZM20.8913 93.3636C20.8913 92.812 20.8049 92.3468 20.6321 91.968C20.4616 91.5869 20.2249 91.2992 19.9219 91.1051C19.6188 90.9086 19.2696 90.8104 18.8743 90.8104C18.4789 90.8104 18.1297 90.9086 17.8267 91.1051C17.5237 91.2992 17.2857 91.5869 17.1129 91.968C16.9425 92.3468 16.8572 92.812 16.8572 93.3636C16.8572 93.9152 16.9425 94.3816 17.1129 94.7628C17.2857 95.1416 17.5237 95.4292 17.8267 95.6257C18.1297 95.8198 18.4789 95.9169 18.8743 95.9169C19.2696 95.9169 19.6188 95.8198 19.9219 95.6257C20.2249 95.4292 20.4616 95.1416 20.6321 94.7628C20.8049 94.3816 20.8913 93.9152 20.8913 93.3636ZM23.4047 99.0455V91.5455H24.6689V92.4474H24.7434C24.8097 92.3149 24.9032 92.174 25.024 92.0249C25.1447 91.8733 25.3081 91.7443 25.514 91.6378C25.72 91.5289 25.9828 91.4744 26.3024 91.4744C26.7238 91.4744 27.1038 91.5821 27.4423 91.7976C27.7832 92.0107 28.0531 92.3267 28.252 92.7457C28.4532 93.1624 28.5538 93.6738 28.5538 94.2798C28.5538 94.8788 28.4556 95.3878 28.2591 95.8068C28.0626 96.2259 27.795 96.5455 27.4565 96.7656C27.118 96.9858 26.7344 97.0959 26.3059 97.0959C25.9934 97.0959 25.7342 97.0438 25.5282 96.9396C25.3223 96.8355 25.1565 96.71 25.0311 96.5632C24.908 96.4141 24.8121 96.2732 24.7434 96.1406H24.6902V99.0455H23.4047ZM24.6653 94.2727C24.6653 94.6255 24.715 94.9344 24.8145 95.1996C24.9163 95.4647 25.0618 95.6719 25.2512 95.821C25.443 95.9678 25.675 96.0412 25.9473 96.0412C26.2314 96.0412 26.4693 95.9654 26.661 95.8139C26.8528 95.66 26.9972 95.4505 27.0943 95.1854C27.1937 94.9179 27.2434 94.6136 27.2434 94.2727C27.2434 93.9342 27.1949 93.6335 27.0978 93.3707C27.0008 93.108 26.8564 92.902 26.6646 92.7528C26.4728 92.6037 26.2337 92.5291 25.9473 92.5291C25.6726 92.5291 25.4395 92.6013 25.2477 92.7457C25.0559 92.8902 24.9103 93.0926 24.8109 93.353C24.7138 93.6134 24.6653 93.92 24.6653 94.2727ZM31.2243 97.1101C30.8786 97.1101 30.5673 97.0485 30.2903 96.9254C30.0157 96.8 29.7979 96.6153 29.6369 96.3714C29.4783 96.1276 29.399 95.8269 29.399 95.4695C29.399 95.1617 29.4558 94.9072 29.5694 94.706C29.6831 94.5047 29.8381 94.3438 30.0346 94.223C30.2311 94.1023 30.4525 94.0111 30.6987 93.9496C30.9473 93.8857 31.2041 93.8395 31.4693 93.8111C31.7889 93.7779 32.0481 93.7483 32.247 93.7223C32.4458 93.6939 32.5903 93.6513 32.6802 93.5945C32.7725 93.5353 32.8187 93.4441 32.8187 93.321V93.2997C32.8187 93.0322 32.7394 92.825 32.5808 92.6783C32.4222 92.5315 32.1937 92.4581 31.8954 92.4581C31.5806 92.4581 31.3308 92.5268 31.1461 92.6641C30.9638 92.8014 30.8407 92.9635 30.7768 93.1506L29.5765 92.9801C29.6712 92.6487 29.8275 92.3717 30.0453 92.1491C30.2631 91.9242 30.5294 91.7562 30.8443 91.6449C31.1592 91.5312 31.5072 91.4744 31.8883 91.4744C32.1511 91.4744 32.4127 91.5052 32.6731 91.5668C32.9335 91.6283 33.1715 91.7301 33.3869 91.8722C33.6023 92.0118 33.7752 92.2024 33.9054 92.4439C34.0379 92.6854 34.1042 92.9872 34.1042 93.3494V97H32.8684V96.2507H32.8258C32.7477 96.4022 32.6376 96.5443 32.4956 96.6768C32.3559 96.8071 32.1795 96.9124 31.9664 96.9929C31.7557 97.071 31.5083 97.1101 31.2243 97.1101ZM31.5581 96.1655C31.8161 96.1655 32.0398 96.1146 32.2292 96.0128C32.4186 95.9086 32.5642 95.7713 32.666 95.6009C32.7702 95.4304 32.8223 95.2446 32.8223 95.0433V94.4006C32.782 94.4337 32.7134 94.4645 32.6163 94.4929C32.5216 94.5213 32.4151 94.5462 32.2967 94.5675C32.1783 94.5888 32.0611 94.6077 31.9451 94.6243C31.8291 94.6409 31.7285 94.6551 31.6433 94.6669C31.4515 94.6929 31.2799 94.7356 31.1284 94.7947C30.9769 94.8539 30.8573 94.9368 30.7697 95.0433C30.6821 95.1475 30.6383 95.2824 30.6383 95.4482C30.6383 95.6849 30.7247 95.8636 30.8975 95.9844C31.0704 96.1051 31.2905 96.1655 31.5581 96.1655ZM35.3968 97V91.5455H36.6433V92.4545H36.7001C36.7995 92.1397 36.97 91.897 37.2115 91.7266C37.4553 91.5537 37.7335 91.4673 38.046 91.4673C38.117 91.4673 38.1963 91.4709 38.2839 91.478C38.3739 91.4827 38.4484 91.491 38.5076 91.5028V92.6854C38.4532 92.6664 38.3668 92.6499 38.2484 92.6357C38.1324 92.6191 38.0199 92.6108 37.911 92.6108C37.6767 92.6108 37.466 92.6617 37.2789 92.7635C37.0943 92.8629 36.9487 93.0014 36.8422 93.179C36.7356 93.3565 36.6824 93.5613 36.6824 93.7933V97H35.3968ZM40.8336 97.1101C40.488 97.1101 40.1767 97.0485 39.8997 96.9254C39.6251 96.8 39.4073 96.6153 39.2463 96.3714C39.0877 96.1276 39.0083 95.8269 39.0083 95.4695C39.0083 95.1617 39.0652 94.9072 39.1788 94.706C39.2924 94.5047 39.4475 94.3438 39.644 94.223C39.8405 94.1023 40.0618 94.0111 40.3081 93.9496C40.5566 93.8857 40.8135 93.8395 41.0787 93.8111C41.3983 93.7779 41.6575 93.7483 41.8564 93.7223C42.0552 93.6939 42.1996 93.6513 42.2896 93.5945C42.3819 93.5353 42.4281 93.4441 42.4281 93.321V93.2997C42.4281 93.0322 42.3488 92.825 42.1902 92.6783C42.0315 92.5315 41.8031 92.4581 41.5048 92.4581C41.1899 92.4581 40.9402 92.5268 40.7555 92.6641C40.5732 92.8014 40.4501 92.9635 40.3862 93.1506L39.1859 92.9801C39.2806 92.6487 39.4368 92.3717 39.6547 92.1491C39.8725 91.9242 40.1388 91.7562 40.4537 91.6449C40.7685 91.5312 41.1165 91.4744 41.4977 91.4744C41.7605 91.4744 42.0221 91.5052 42.2825 91.5668C42.5429 91.6283 42.7808 91.7301 42.9963 91.8722C43.2117 92.0118 43.3845 92.2024 43.5147 92.4439C43.6473 92.6854 43.7136 92.9872 43.7136 93.3494V97H42.4778V96.2507H42.4352C42.3571 96.4022 42.247 96.5443 42.1049 96.6768C41.9653 96.8071 41.7889 96.9124 41.5758 96.9929C41.3651 97.071 41.1177 97.1101 40.8336 97.1101ZM41.1674 96.1655C41.4255 96.1655 41.6492 96.1146 41.8386 96.0128C42.028 95.9086 42.1736 95.7713 42.2754 95.6009C42.3796 95.4304 42.4316 95.2446 42.4316 95.0433V94.4006C42.3914 94.4337 42.3227 94.4645 42.2257 94.4929C42.131 94.5213 42.0244 94.5462 41.9061 94.5675C41.7877 94.5888 41.6705 94.6077 41.5545 94.6243C41.4385 94.6409 41.3379 94.6551 41.2527 94.6669C41.0609 94.6929 40.8893 94.7356 40.7377 94.7947C40.5862 94.8539 40.4667 94.9368 40.3791 95.0433C40.2915 95.1475 40.2477 95.2824 40.2477 95.4482C40.2477 95.6849 40.3341 95.8636 40.5069 95.9844C40.6797 96.1051 40.8999 96.1655 41.1674 96.1655ZM47.7299 91.5455V92.5398H44.5943V91.5455H47.7299ZM45.3684 90.2386H46.6539V95.3594C46.6539 95.5322 46.68 95.6648 46.7321 95.7571C46.7865 95.8471 46.8575 95.9086 46.9451 95.9418C47.0327 95.9749 47.1298 95.9915 47.2363 95.9915C47.3168 95.9915 47.3902 95.9856 47.4565 95.9737C47.5252 95.9619 47.5772 95.9512 47.6127 95.9418L47.8294 96.9467C47.7607 96.9704 47.6625 96.9964 47.5346 97.0249C47.4092 97.0533 47.2553 97.0698 47.073 97.0746C46.751 97.084 46.461 97.0355 46.2029 96.929C45.9449 96.8201 45.7401 96.652 45.5886 96.4247C45.4395 96.1974 45.3661 95.9134 45.3684 95.5724V90.2386ZM48.805 97V91.5455H50.0906V97H48.805ZM49.4513 90.7713C49.2478 90.7713 49.0726 90.7038 48.9258 90.5689C48.779 90.4316 48.7056 90.267 48.7056 90.0753C48.7056 89.8812 48.779 89.7166 48.9258 89.5817C49.0726 89.4444 49.2478 89.3757 49.4513 89.3757C49.6573 89.3757 49.8325 89.4444 49.9769 89.5817C50.1237 89.7166 50.1971 89.8812 50.1971 90.0753C50.1971 90.267 50.1237 90.4316 49.9769 90.5689C49.8325 90.7038 49.6573 90.7713 49.4513 90.7713ZM53.7917 97.1065C53.2591 97.1065 52.7974 96.9893 52.4068 96.755C52.0162 96.5206 51.7131 96.1927 51.4977 95.7713C51.2846 95.3499 51.1781 94.8575 51.1781 94.294C51.1781 93.7306 51.2846 93.237 51.4977 92.8132C51.7131 92.3894 52.0162 92.0604 52.4068 91.826C52.7974 91.5916 53.2591 91.4744 53.7917 91.4744C54.3244 91.4744 54.786 91.5916 55.1767 91.826C55.5673 92.0604 55.8691 92.3894 56.0822 92.8132C56.2976 93.237 56.4054 93.7306 56.4054 94.294C56.4054 94.8575 56.2976 95.3499 56.0822 95.7713C55.8691 96.1927 55.5673 96.5206 55.1767 96.755C54.786 96.9893 54.3244 97.1065 53.7917 97.1065ZM53.7988 96.0767C54.0877 96.0767 54.3291 95.9974 54.5233 95.8388C54.7174 95.6778 54.8618 95.4624 54.9565 95.1925C55.0536 94.9226 55.1021 94.6219 55.1021 94.2905C55.1021 93.9567 55.0536 93.6548 54.9565 93.3849C54.8618 93.1127 54.7174 92.8961 54.5233 92.7351C54.3291 92.5741 54.0877 92.4936 53.7988 92.4936C53.5029 92.4936 53.2567 92.5741 53.0602 92.7351C52.8661 92.8961 52.7205 93.1127 52.6234 93.3849C52.5287 93.6548 52.4814 93.9567 52.4814 94.2905C52.4814 94.6219 52.5287 94.9226 52.6234 95.1925C52.7205 95.4624 52.8661 95.6778 53.0602 95.8388C53.2567 95.9974 53.5029 96.0767 53.7988 96.0767ZM58.782 93.804V97H57.4964V91.5455H58.7251V92.4723H58.7891C58.9145 92.1669 59.1146 91.9242 59.3892 91.7443C59.6662 91.5644 60.0083 91.4744 60.4155 91.4744C60.7919 91.4744 61.1198 91.5549 61.3991 91.7159C61.6809 91.8769 61.8987 92.1101 62.0526 92.4155C62.2088 92.7209 62.2857 93.0914 62.2834 93.527V97H60.9979V93.7259C60.9979 93.3613 60.9032 93.076 60.7138 92.87C60.5268 92.6641 60.2675 92.5611 59.9361 92.5611C59.7112 92.5611 59.5111 92.6108 59.3359 92.7102C59.1631 92.8073 59.027 92.9482 58.9276 93.1328C58.8305 93.3175 58.782 93.5412 58.782 93.804ZM65.1598 97.1101C64.8142 97.1101 64.5028 97.0485 64.2259 96.9254C63.9512 96.8 63.7334 96.6153 63.5724 96.3714C63.4138 96.1276 63.3345 95.8269 63.3345 95.4695C63.3345 95.1617 63.3913 94.9072 63.505 94.706C63.6186 94.5047 63.7737 94.3438 63.9702 94.223C64.1667 94.1023 64.388 94.0111 64.6342 93.9496C64.8828 93.8857 65.1397 93.8395 65.4048 93.8111C65.7244 93.7779 65.9837 93.7483 66.1825 93.7223C66.3814 93.6939 66.5258 93.6513 66.6158 93.5945C66.7081 93.5353 66.7543 93.4441 66.7543 93.321V93.2997C66.7543 93.0322 66.675 92.825 66.5163 92.6783C66.3577 92.5315 66.1293 92.4581 65.831 92.4581C65.5161 92.4581 65.2663 92.5268 65.0817 92.6641C64.8994 92.8014 64.7763 92.9635 64.7124 93.1506L63.5121 92.9801C63.6068 92.6487 63.763 92.3717 63.9808 92.1491C64.1986 91.9242 64.465 91.7562 64.7798 91.6449C65.0947 91.5312 65.4427 91.4744 65.8239 91.4744C66.0866 91.4744 66.3482 91.5052 66.6087 91.5668C66.8691 91.6283 67.107 91.7301 67.3224 91.8722C67.5379 92.0118 67.7107 92.2024 67.8409 92.4439C67.9735 92.6854 68.0398 92.9872 68.0398 93.3494V97H66.804V96.2507H66.7614C66.6832 96.4022 66.5732 96.5443 66.4311 96.6768C66.2914 96.8071 66.1151 96.9124 65.902 96.9929C65.6913 97.071 65.4439 97.1101 65.1598 97.1101ZM65.4936 96.1655C65.7517 96.1655 65.9754 96.1146 66.1648 96.0128C66.3542 95.9086 66.4998 95.7713 66.6016 95.6009C66.7057 95.4304 66.7578 95.2446 66.7578 95.0433V94.4006C66.7176 94.4337 66.6489 94.4645 66.5518 94.4929C66.4571 94.5213 66.3506 94.5462 66.2322 94.5675C66.1139 94.5888 65.9967 94.6077 65.8807 94.6243C65.7647 94.6409 65.6641 94.6551 65.5788 94.6669C65.3871 94.6929 65.2154 94.7356 65.0639 94.7947C64.9124 94.8539 64.7929 94.9368 64.7053 95.0433C64.6177 95.1475 64.5739 95.2824 64.5739 95.4482C64.5739 95.6849 64.6603 95.8636 64.8331 95.9844C65.0059 96.1051 65.2261 96.1655 65.4936 96.1655ZM70.6179 89.7273V97H69.3324V89.7273H70.6179ZM76.7995 97.1065C76.255 97.1065 75.7875 96.987 75.3968 96.7479C75.0086 96.5088 74.7091 96.1785 74.4984 95.7571C74.2901 95.3333 74.1859 94.8456 74.1859 94.294C74.1859 93.7401 74.2924 93.2512 74.5055 92.8274C74.7186 92.4013 75.0192 92.0698 75.4075 91.8331C75.7981 91.594 76.2598 91.4744 76.7924 91.4744C77.2351 91.4744 77.627 91.5561 77.9679 91.7195C78.3111 91.8804 78.5846 92.1089 78.7882 92.4048C78.9918 92.6984 79.1078 93.0417 79.1362 93.4347H77.9075C77.8578 93.1719 77.7394 92.9529 77.5524 92.7777C77.3677 92.6001 77.1203 92.5114 76.8102 92.5114C76.5474 92.5114 76.3166 92.5824 76.1177 92.7244C75.9189 92.8641 75.7638 93.0653 75.6525 93.3281C75.5436 93.5909 75.4892 93.9058 75.4892 94.2727C75.4892 94.6444 75.5436 94.964 75.6525 95.2315C75.7614 95.4967 75.9141 95.7015 76.1106 95.8459C76.3095 95.9879 76.5427 96.0589 76.8102 96.0589C76.9996 96.0589 77.1689 96.0234 77.318 95.9524C77.4695 95.879 77.5962 95.7737 77.698 95.6364C77.7998 95.4991 77.8696 95.3321 77.9075 95.1357H79.1362C79.1054 95.5215 78.9918 95.8636 78.7953 96.1619C78.5988 96.4579 78.3313 96.6899 77.9927 96.858C77.6542 97.0237 77.2565 97.1065 76.7995 97.1065ZM82.571 97.1065C82.0384 97.1065 81.5767 96.9893 81.1861 96.755C80.7955 96.5206 80.4924 96.1927 80.277 95.7713C80.0639 95.3499 79.9574 94.8575 79.9574 94.294C79.9574 93.7306 80.0639 93.237 80.277 92.8132C80.4924 92.3894 80.7955 92.0604 81.1861 91.826C81.5767 91.5916 82.0384 91.4744 82.571 91.4744C83.1037 91.4744 83.5653 91.5916 83.956 91.826C84.3466 92.0604 84.6484 92.3894 84.8615 92.8132C85.0769 93.237 85.1847 93.7306 85.1847 94.294C85.1847 94.8575 85.0769 95.3499 84.8615 95.7713C84.6484 96.1927 84.3466 96.5206 83.956 96.755C83.5653 96.9893 83.1037 97.1065 82.571 97.1065ZM82.5781 96.0767C82.867 96.0767 83.1084 95.9974 83.3026 95.8388C83.4967 95.6778 83.6411 95.4624 83.7358 95.1925C83.8329 94.9226 83.8814 94.6219 83.8814 94.2905C83.8814 93.9567 83.8329 93.6548 83.7358 93.3849C83.6411 93.1127 83.4967 92.8961 83.3026 92.7351C83.1084 92.5741 82.867 92.4936 82.5781 92.4936C82.2822 92.4936 82.036 92.5741 81.8395 92.7351C81.6454 92.8961 81.4998 93.1127 81.4027 93.3849C81.308 93.6548 81.2607 93.9567 81.2607 94.2905C81.2607 94.6219 81.308 94.9226 81.4027 95.1925C81.4998 95.4624 81.6454 95.6778 81.8395 95.8388C82.036 95.9974 82.2822 96.0767 82.5781 96.0767ZM90.5868 92.9872L89.415 93.1151C89.3818 92.9967 89.3238 92.8854 89.2409 92.7812C89.1605 92.6771 89.0516 92.593 88.9142 92.5291C88.7769 92.4652 88.6088 92.4332 88.41 92.4332C88.1425 92.4332 87.9176 92.4912 87.7353 92.6072C87.5553 92.7232 87.4666 92.8736 87.4689 93.0582C87.4666 93.2169 87.5246 93.3459 87.6429 93.4453C87.7637 93.5447 87.9625 93.6264 88.2395 93.6903L89.1699 93.8892C89.686 94.0005 90.0695 94.1768 90.3205 94.4183C90.5738 94.6598 90.7016 94.9759 90.704 95.3665C90.7016 95.7098 90.601 96.0128 90.4022 96.2756C90.2057 96.536 89.9322 96.7396 89.5819 96.8864C89.2315 97.0331 88.829 97.1065 88.3745 97.1065C87.7069 97.1065 87.1694 96.9669 86.7623 96.6875C86.3551 96.4058 86.1124 96.014 86.0343 95.5121L87.2878 95.3913C87.3446 95.6375 87.4654 95.8234 87.65 95.9489C87.8347 96.0743 88.075 96.1371 88.3709 96.1371C88.6763 96.1371 88.9213 96.0743 89.106 95.9489C89.293 95.8234 89.3865 95.6683 89.3865 95.4837C89.3865 95.3274 89.3262 95.1984 89.2054 95.0966C89.0871 94.9948 88.9024 94.9167 88.6515 94.8622L87.7211 94.6669C87.1979 94.558 86.8108 94.3745 86.5598 94.1165C86.3089 93.8561 86.1846 93.527 86.187 93.1293C86.1846 92.7931 86.2757 92.5019 86.4604 92.2557C86.6474 92.0071 86.9067 91.8153 87.2381 91.6804C87.5719 91.5431 87.9566 91.4744 88.3922 91.4744C89.0314 91.4744 89.5345 91.6106 89.9015 91.8828C90.2708 92.1551 90.4992 92.5232 90.5868 92.9872ZM94.4877 91.5455V92.5398H91.3521V91.5455H94.4877ZM92.1262 90.2386H93.4118V95.3594C93.4118 95.5322 93.4378 95.6648 93.4899 95.7571C93.5443 95.8471 93.6154 95.9086 93.7029 95.9418C93.7905 95.9749 93.8876 95.9915 93.9941 95.9915C94.0746 95.9915 94.148 95.9856 94.2143 95.9737C94.283 95.9619 94.335 95.9512 94.3706 95.9418L94.5872 96.9467C94.5185 96.9704 94.4203 96.9964 94.2924 97.0249C94.167 97.0533 94.0131 97.0698 93.8308 97.0746C93.5088 97.084 93.2188 97.0355 92.9608 96.929C92.7027 96.8201 92.4979 96.652 92.3464 96.4247C92.1973 96.1974 92.1239 95.9134 92.1262 95.5724V90.2386Z" fill="#00264B" fill-opacity="0.4"/>
<path d="M237.244 94.0682V90.1364H238.136V94.0682H237.244ZM235.724 92.5483V91.6562H239.656V92.5483H235.724ZM243.266 89.1818V95H242.212V90.2074H242.178L240.817 91.0767V90.1108L242.263 89.1818H243.266ZM247.11 89.1818V95H246.056V90.2074H246.022L244.661 91.0767V90.1108L246.107 89.1818H247.11ZM251.698 93.9091V93.6023C251.698 93.3769 251.746 93.1695 251.84 92.9801C251.937 92.7907 252.077 92.6383 252.261 92.5227C252.444 92.4072 252.667 92.3494 252.928 92.3494C253.197 92.3494 253.423 92.4072 253.604 92.5227C253.786 92.6364 253.924 92.7879 254.016 92.9773C254.111 93.1667 254.158 93.375 254.158 93.6023V93.9091C254.158 94.1345 254.111 94.3419 254.016 94.5312C253.922 94.7206 253.782 94.8731 253.599 94.9886C253.417 95.1042 253.193 95.1619 252.928 95.1619C252.663 95.1619 252.439 95.1042 252.255 94.9886C252.071 94.8731 251.932 94.7206 251.837 94.5312C251.745 94.3419 251.698 94.1345 251.698 93.9091ZM252.44 93.6023V93.9091C252.44 94.0587 252.476 94.196 252.548 94.321C252.62 94.446 252.746 94.5085 252.928 94.5085C253.112 94.5085 253.238 94.447 253.306 94.3239C253.376 94.1989 253.411 94.0606 253.411 93.9091V93.6023C253.411 93.4508 253.378 93.3125 253.312 93.1875C253.246 93.0606 253.118 92.9972 252.928 92.9972C252.75 92.9972 252.624 93.0606 252.55 93.1875C252.477 93.3125 252.44 93.4508 252.44 93.6023ZM248.741 90.5795V90.2727C248.741 90.0455 248.789 89.8371 248.886 89.6477C248.982 89.4583 249.122 89.3068 249.306 89.1932C249.49 89.0777 249.712 89.0199 249.974 89.0199C250.241 89.0199 250.465 89.0777 250.647 89.1932C250.831 89.3068 250.969 89.4583 251.062 89.6477C251.155 89.8371 251.201 90.0455 251.201 90.2727V90.5795C251.201 90.8068 251.154 91.0152 251.059 91.2045C250.966 91.392 250.828 91.5426 250.644 91.6562C250.46 91.7699 250.237 91.8267 249.974 91.8267C249.707 91.8267 249.481 91.7699 249.298 91.6562C249.116 91.5426 248.978 91.3911 248.883 91.2017C248.788 91.0123 248.741 90.8049 248.741 90.5795ZM249.488 90.2727V90.5795C249.488 90.7311 249.523 90.8693 249.593 90.9943C249.665 91.1174 249.792 91.179 249.974 91.179C250.156 91.179 250.281 91.1174 250.349 90.9943C250.419 90.8693 250.454 90.7311 250.454 90.5795V90.2727C250.454 90.1212 250.421 89.983 250.354 89.858C250.288 89.7311 250.161 89.6676 249.974 89.6676C249.794 89.6676 249.668 89.7311 249.596 89.858C249.524 89.9848 249.488 90.1231 249.488 90.2727ZM249.065 95L253.065 89.1818H253.775L249.775 95H249.065Z" fill="url(#paint2_linear_410_58)" fill-opacity="0.4"/>
<rect x="0.5" y="118.5" width="271" height="38" rx="2.5" stroke="#00264B" stroke-opacity="0.8"/>
<path d="M20.3018 134.727H21.6193V139.479C21.6193 140 21.4962 140.458 21.25 140.853C21.0062 141.248 20.6629 141.557 20.2202 141.78C19.7775 142 19.2602 142.11 18.6683 142.11C18.0741 142.11 17.5556 142 17.1129 141.78C16.6702 141.557 16.3269 141.248 16.0831 140.853C15.8393 140.458 15.7173 140 15.7173 139.479V134.727H17.0348V139.369C17.0348 139.672 17.1011 139.942 17.2337 140.178C17.3686 140.415 17.558 140.601 17.8018 140.736C18.0457 140.868 18.3345 140.935 18.6683 140.935C19.0021 140.935 19.291 140.868 19.5348 140.736C19.781 140.601 19.9704 140.415 20.103 140.178C20.2356 139.942 20.3018 139.672 20.3018 139.369V134.727ZM22.9945 144.045V136.545H24.2587V137.447H24.3333C24.3996 137.315 24.4931 137.174 24.6138 137.025C24.7346 136.873 24.8979 136.744 25.1039 136.638C25.3098 136.529 25.5726 136.474 25.8922 136.474C26.3136 136.474 26.6936 136.582 27.0321 136.798C27.373 137.011 27.6429 137.327 27.8418 137.746C28.043 138.162 28.1436 138.674 28.1436 139.28C28.1436 139.879 28.0454 140.388 27.8489 140.807C27.6524 141.226 27.3849 141.545 27.0463 141.766C26.7078 141.986 26.3243 142.096 25.8958 142.096C25.5833 142.096 25.324 142.044 25.1181 141.94C24.9121 141.835 24.7464 141.71 24.6209 141.563C24.4978 141.414 24.4019 141.273 24.3333 141.141H24.28V144.045H22.9945ZM24.2551 139.273C24.2551 139.625 24.3049 139.934 24.4043 140.2C24.5061 140.465 24.6517 140.672 24.8411 140.821C25.0328 140.968 25.2649 141.041 25.5371 141.041C25.8212 141.041 26.0591 140.965 26.2509 140.814C26.4426 140.66 26.5871 140.451 26.6841 140.185C26.7836 139.918 26.8333 139.614 26.8333 139.273C26.8333 138.934 26.7847 138.634 26.6877 138.371C26.5906 138.108 26.4462 137.902 26.2544 137.753C26.0627 137.604 25.8236 137.529 25.5371 137.529C25.2625 137.529 25.0293 137.601 24.8375 137.746C24.6458 137.89 24.5002 138.093 24.4007 138.353C24.3037 138.613 24.2551 138.92 24.2551 139.273ZM30.8141 142.11C30.4685 142.11 30.1571 142.049 29.8801 141.925C29.6055 141.8 29.3877 141.615 29.2267 141.371C29.0681 141.128 28.9888 140.827 28.9888 140.469C28.9888 140.162 29.0456 139.907 29.1593 139.706C29.2729 139.505 29.428 139.344 29.6245 139.223C29.821 139.102 30.0423 139.011 30.2885 138.95C30.5371 138.886 30.794 138.839 31.0591 138.811C31.3787 138.778 31.638 138.748 31.8368 138.722C32.0357 138.694 32.1801 138.651 32.2701 138.594C32.3624 138.535 32.4086 138.444 32.4086 138.321V138.3C32.4086 138.032 32.3292 137.825 32.1706 137.678C32.012 137.531 31.7836 137.458 31.4853 137.458C31.1704 137.458 30.9206 137.527 30.736 137.664C30.5537 137.801 30.4306 137.964 30.3667 138.151L29.1664 137.98C29.2611 137.649 29.4173 137.372 29.6351 137.149C29.8529 136.924 30.1193 136.756 30.4341 136.645C30.749 136.531 31.097 136.474 31.4782 136.474C31.7409 136.474 32.0025 136.505 32.263 136.567C32.5234 136.628 32.7613 136.73 32.9767 136.872C33.1922 137.012 33.365 137.202 33.4952 137.444C33.6278 137.685 33.6941 137.987 33.6941 138.349V142H32.4583V141.251H32.4157C32.3375 141.402 32.2275 141.544 32.0854 141.677C31.9457 141.807 31.7694 141.912 31.5563 141.993C31.3456 142.071 31.0982 142.11 30.8141 142.11ZM31.1479 141.165C31.406 141.165 31.6297 141.115 31.8191 141.013C32.0085 140.909 32.1541 140.771 32.2559 140.601C32.36 140.43 32.4121 140.245 32.4121 140.043V139.401C32.3719 139.434 32.3032 139.464 32.2061 139.493C32.1114 139.521 32.0049 139.546 31.8865 139.567C31.7682 139.589 31.651 139.608 31.535 139.624C31.419 139.641 31.3184 139.655 31.2331 139.667C31.0414 139.693 30.8697 139.736 30.7182 139.795C30.5667 139.854 30.4471 139.937 30.3596 140.043C30.272 140.147 30.2282 140.282 30.2282 140.448C30.2282 140.685 30.3146 140.864 30.4874 140.984C30.6602 141.105 30.8804 141.165 31.1479 141.165ZM37.0108 142.096C36.5823 142.096 36.1988 141.986 35.8603 141.766C35.5217 141.545 35.2542 141.226 35.0577 140.807C34.8612 140.388 34.763 139.879 34.763 139.28C34.763 138.674 34.8624 138.162 35.0613 137.746C35.2625 137.327 35.5336 137.011 35.8745 136.798C36.2154 136.582 36.5953 136.474 37.0144 136.474C37.334 136.474 37.5968 136.529 37.8027 136.638C38.0087 136.744 38.1721 136.873 38.2928 137.025C38.4135 137.174 38.507 137.315 38.5733 137.447H38.6266V134.727H39.9157V142H38.6515V141.141H38.5733C38.507 141.273 38.4112 141.414 38.2857 141.563C38.1602 141.71 37.9945 141.835 37.7885 141.94C37.5826 142.044 37.3233 142.096 37.0108 142.096ZM37.3695 141.041C37.6417 141.041 37.8738 140.968 38.0655 140.821C38.2573 140.672 38.4029 140.465 38.5023 140.2C38.6017 139.934 38.6515 139.625 38.6515 139.273C38.6515 138.92 38.6017 138.613 38.5023 138.353C38.4052 138.093 38.2608 137.89 38.0691 137.746C37.8797 137.601 37.6465 137.529 37.3695 137.529C37.083 137.529 36.8439 137.604 36.6522 137.753C36.4604 137.902 36.316 138.108 36.2189 138.371C36.1219 138.634 36.0733 138.934 36.0733 139.273C36.0733 139.614 36.1219 139.918 36.2189 140.185C36.3184 140.451 36.464 140.66 36.6557 140.814C36.8498 140.965 37.0878 141.041 37.3695 141.041ZM44.0092 136.545V137.54H40.8736V136.545H44.0092ZM41.6477 135.239H42.9332V140.359C42.9332 140.532 42.9593 140.665 43.0114 140.757C43.0658 140.847 43.1368 140.909 43.2244 140.942C43.312 140.975 43.4091 140.991 43.5156 140.991C43.5961 140.991 43.6695 140.986 43.7358 140.974C43.8045 140.962 43.8565 140.951 43.892 140.942L44.1087 141.947C44.04 141.97 43.9418 141.996 43.8139 142.025C43.6884 142.053 43.5346 142.07 43.3523 142.075C43.0303 142.084 42.7403 142.036 42.4822 141.929C42.2242 141.82 42.0194 141.652 41.8679 141.425C41.7188 141.197 41.6454 140.913 41.6477 140.572V135.239ZM47.4405 142.107C46.8936 142.107 46.4213 141.993 46.0236 141.766C45.6283 141.536 45.324 141.212 45.111 140.793C44.8979 140.371 44.7914 139.875 44.7914 139.305C44.7914 138.744 44.8979 138.251 45.111 137.827C45.3264 137.401 45.6271 137.07 46.013 136.833C46.3989 136.594 46.8522 136.474 47.373 136.474C47.7092 136.474 48.0265 136.529 48.3248 136.638C48.6254 136.744 48.8906 136.91 49.1202 137.135C49.3522 137.36 49.5345 137.646 49.6671 137.994C49.7997 138.34 49.8659 138.752 49.8659 139.23V139.624H45.3951V138.758H48.6337C48.6313 138.512 48.5781 138.293 48.4739 138.101C48.3697 137.907 48.2241 137.754 48.0371 137.643C47.8525 137.531 47.637 137.476 47.3908 137.476C47.128 137.476 46.8972 137.54 46.6983 137.668C46.4995 137.793 46.3444 137.959 46.2331 138.165C46.1242 138.368 46.0686 138.592 46.0662 138.836V139.592C46.0662 139.91 46.1242 140.182 46.2402 140.409C46.3562 140.634 46.5184 140.807 46.7267 140.928C46.9351 141.046 47.1789 141.105 47.4583 141.105C47.6453 141.105 47.8146 141.079 47.9661 141.027C48.1176 140.973 48.249 140.893 48.3603 140.789C48.4715 140.685 48.5556 140.556 48.6124 140.402L49.8127 140.537C49.7369 140.854 49.5925 141.131 49.3794 141.368C49.1687 141.602 48.8989 141.785 48.5698 141.915C48.2407 142.043 47.8643 142.107 47.4405 142.107ZM55.0036 142.11C54.6579 142.11 54.3466 142.049 54.0696 141.925C53.795 141.8 53.5772 141.615 53.4162 141.371C53.2576 141.128 53.1783 140.827 53.1783 140.469C53.1783 140.162 53.2351 139.907 53.3487 139.706C53.4624 139.505 53.6174 139.344 53.8139 139.223C54.0104 139.102 54.2318 139.011 54.478 138.95C54.7266 138.886 54.9834 138.839 55.2486 138.811C55.5682 138.778 55.8274 138.748 56.0263 138.722C56.2251 138.694 56.3696 138.651 56.4595 138.594C56.5518 138.535 56.598 138.444 56.598 138.321V138.3C56.598 138.032 56.5187 137.825 56.3601 137.678C56.2015 137.531 55.973 137.458 55.6747 137.458C55.3598 137.458 55.1101 137.527 54.9254 137.664C54.7431 137.801 54.62 137.964 54.5561 138.151L53.3558 137.98C53.4505 137.649 53.6068 137.372 53.8246 137.149C54.0424 136.924 54.3087 136.756 54.6236 136.645C54.9384 136.531 55.2865 136.474 55.6676 136.474C55.9304 136.474 56.192 136.505 56.4524 136.567C56.7128 136.628 56.9508 136.73 57.1662 136.872C57.3816 137.012 57.5545 137.202 57.6847 137.444C57.8172 137.685 57.8835 137.987 57.8835 138.349V142H56.6477V141.251H56.6051C56.527 141.402 56.4169 141.544 56.2749 141.677C56.1352 141.807 55.9588 141.912 55.7457 141.993C55.535 142.071 55.2876 142.11 55.0036 142.11ZM55.3374 141.165C55.5954 141.165 55.8191 141.115 56.0085 141.013C56.1979 140.909 56.3435 140.771 56.4453 140.601C56.5495 140.43 56.6016 140.245 56.6016 140.043V139.401C56.5613 139.434 56.4927 139.464 56.3956 139.493C56.3009 139.521 56.1944 139.546 56.076 139.567C55.9576 139.589 55.8404 139.608 55.7244 139.624C55.6084 139.641 55.5078 139.655 55.4226 139.667C55.2308 139.693 55.0592 139.736 54.9077 139.795C54.7562 139.854 54.6366 139.937 54.549 140.043C54.4614 140.147 54.4176 140.282 54.4176 140.448C54.4176 140.685 54.504 140.864 54.6768 140.984C54.8497 141.105 55.0698 141.165 55.3374 141.165ZM63.853 136.545L61.9105 142H60.4901L58.5476 136.545H59.9183L61.1719 140.597H61.2287L62.4858 136.545H63.853ZM66.1559 142.11C65.8103 142.11 65.4989 142.049 65.2219 141.925C64.9473 141.8 64.7295 141.615 64.5685 141.371C64.4099 141.128 64.3306 140.827 64.3306 140.469C64.3306 140.162 64.3874 139.907 64.5011 139.706C64.6147 139.505 64.7698 139.344 64.9663 139.223C65.1628 139.102 65.3841 139.011 65.6303 138.95C65.8789 138.886 66.1358 138.839 66.4009 138.811C66.7205 138.778 66.9798 138.748 67.1786 138.722C67.3775 138.694 67.5219 138.651 67.6119 138.594C67.7042 138.535 67.7504 138.444 67.7504 138.321V138.3C67.7504 138.032 67.671 137.825 67.5124 137.678C67.3538 137.531 67.1254 137.458 66.8271 137.458C66.5122 137.458 66.2624 137.527 66.0778 137.664C65.8955 137.801 65.7724 137.964 65.7085 138.151L64.5082 137.98C64.6029 137.649 64.7591 137.372 64.9769 137.149C65.1947 136.924 65.4611 136.756 65.7759 136.645C66.0908 136.531 66.4388 136.474 66.82 136.474C67.0827 136.474 67.3443 136.505 67.6048 136.567C67.8652 136.628 68.1031 136.73 68.3185 136.872C68.534 137.012 68.7068 137.202 68.837 137.444C68.9696 137.685 69.0359 137.987 69.0359 138.349V142H67.8001V141.251H67.7575C67.6793 141.402 67.5692 141.544 67.4272 141.677C67.2875 141.807 67.1112 141.912 66.8981 141.993C66.6874 142.071 66.44 142.11 66.1559 142.11ZM66.4897 141.165C66.7478 141.165 66.9715 141.115 67.1609 141.013C67.3503 140.909 67.4959 140.771 67.5977 140.601C67.7018 140.43 67.7539 140.245 67.7539 140.043V139.401C67.7137 139.434 67.645 139.464 67.5479 139.493C67.4532 139.521 67.3467 139.546 67.2283 139.567C67.11 139.589 66.9928 139.608 66.8768 139.624C66.7608 139.641 66.6602 139.655 66.5749 139.667C66.3832 139.693 66.2115 139.736 66.06 139.795C65.9085 139.854 65.7889 139.937 65.7013 140.043C65.6138 140.147 65.57 140.282 65.57 140.448C65.57 140.685 65.6564 140.864 65.8292 140.984C66.002 141.105 66.2222 141.165 66.4897 141.165ZM70.3285 142V136.545H71.614V142H70.3285ZM70.9748 135.771C70.7712 135.771 70.596 135.704 70.4492 135.569C70.3024 135.432 70.229 135.267 70.229 135.075C70.229 134.881 70.3024 134.717 70.4492 134.582C70.596 134.444 70.7712 134.376 70.9748 134.376C71.1808 134.376 71.3559 134.444 71.5004 134.582C71.6471 134.717 71.7205 134.881 71.7205 135.075C71.7205 135.267 71.6471 135.432 71.5004 135.569C71.3559 135.704 71.1808 135.771 70.9748 135.771ZM74.2214 134.727V142H72.9359V134.727H74.2214ZM77.1129 142.11C76.7673 142.11 76.456 142.049 76.179 141.925C75.9044 141.8 75.6866 141.615 75.5256 141.371C75.367 141.128 75.2876 140.827 75.2876 140.469C75.2876 140.162 75.3445 139.907 75.4581 139.706C75.5717 139.505 75.7268 139.344 75.9233 139.223C76.1198 139.102 76.3411 139.011 76.5874 138.95C76.8359 138.886 77.0928 138.839 77.358 138.811C77.6776 138.778 77.9368 138.748 78.1357 138.722C78.3345 138.694 78.4789 138.651 78.5689 138.594C78.6612 138.535 78.7074 138.444 78.7074 138.321V138.3C78.7074 138.032 78.6281 137.825 78.4695 137.678C78.3108 137.531 78.0824 137.458 77.7841 137.458C77.4692 137.458 77.2195 137.527 77.0348 137.664C76.8525 137.801 76.7294 137.964 76.6655 138.151L75.4652 137.98C75.5599 137.649 75.7161 137.372 75.9339 137.149C76.1518 136.924 76.4181 136.756 76.733 136.645C77.0478 136.531 77.3958 136.474 77.777 136.474C78.0398 136.474 78.3014 136.505 78.5618 136.567C78.8222 136.628 79.0601 136.73 79.2756 136.872C79.491 137.012 79.6638 137.202 79.794 137.444C79.9266 137.685 79.9929 137.987 79.9929 138.349V142H78.7571V141.251H78.7145C78.6364 141.402 78.5263 141.544 78.3842 141.677C78.2446 141.807 78.0682 141.912 77.8551 141.993C77.6444 142.071 77.397 142.11 77.1129 142.11ZM77.4467 141.165C77.7048 141.165 77.9285 141.115 78.1179 141.013C78.3073 140.909 78.4529 140.771 78.5547 140.601C78.6589 140.43 78.7109 140.245 78.7109 140.043V139.401C78.6707 139.434 78.602 139.464 78.505 139.493C78.4103 139.521 78.3037 139.546 78.1854 139.567C78.067 139.589 77.9498 139.608 77.8338 139.624C77.7178 139.641 77.6172 139.655 77.532 139.667C77.3402 139.693 77.1686 139.736 77.017 139.795C76.8655 139.854 76.746 139.937 76.6584 140.043C76.5708 140.147 76.527 140.282 76.527 140.448C76.527 140.685 76.6134 140.864 76.7862 140.984C76.959 141.105 77.1792 141.165 77.4467 141.165ZM81.3423 142V134.727H82.6278V137.447H82.6811C82.7474 137.315 82.8409 137.174 82.9616 137.025C83.0824 136.873 83.2457 136.744 83.4517 136.638C83.6577 136.529 83.9205 136.474 84.2401 136.474C84.6615 136.474 85.0414 136.582 85.38 136.798C85.7209 137.011 85.9908 137.327 86.1896 137.746C86.3909 138.162 86.4915 138.674 86.4915 139.28C86.4915 139.879 86.3932 140.388 86.1967 140.807C86.0002 141.226 85.7327 141.545 85.3942 141.766C85.0556 141.986 84.6721 142.096 84.2436 142.096C83.9311 142.096 83.6719 142.044 83.4659 141.94C83.2599 141.835 83.0942 141.71 82.9688 141.563C82.8456 141.414 82.7498 141.273 82.6811 141.141H82.6065V142H81.3423ZM82.603 139.273C82.603 139.625 82.6527 139.934 82.7521 140.2C82.8539 140.465 82.9995 140.672 83.1889 140.821C83.3807 140.968 83.6127 141.041 83.8849 141.041C84.169 141.041 84.407 140.965 84.5987 140.814C84.7905 140.66 84.9349 140.451 85.032 140.185C85.1314 139.918 85.1811 139.614 85.1811 139.273C85.1811 138.934 85.1326 138.634 85.0355 138.371C84.9384 138.108 84.794 137.902 84.6023 137.753C84.4105 137.604 84.1714 137.529 83.8849 137.529C83.6103 137.529 83.3771 137.601 83.1854 137.746C82.9936 137.89 82.848 138.093 82.7486 138.353C82.6515 138.613 82.603 138.92 82.603 139.273ZM88.8699 134.727V142H87.5843V134.727H88.8699ZM92.6065 142.107C92.0597 142.107 91.5874 141.993 91.1896 141.766C90.7943 141.536 90.4901 141.212 90.277 140.793C90.0639 140.371 89.9574 139.875 89.9574 139.305C89.9574 138.744 90.0639 138.251 90.277 137.827C90.4924 137.401 90.7931 137.07 91.179 136.833C91.5649 136.594 92.0182 136.474 92.5391 136.474C92.8752 136.474 93.1925 136.529 93.4908 136.638C93.7914 136.744 94.0566 136.91 94.2862 137.135C94.5182 137.36 94.7005 137.646 94.8331 137.994C94.9657 138.34 95.032 138.752 95.032 139.23V139.624H90.5611V138.758H93.7997C93.7973 138.512 93.7441 138.293 93.6399 138.101C93.5357 137.907 93.3902 137.754 93.2031 137.643C93.0185 137.531 92.803 137.476 92.5568 137.476C92.294 137.476 92.0632 137.54 91.8643 137.668C91.6655 137.793 91.5104 137.959 91.3991 138.165C91.2902 138.368 91.2346 138.592 91.2322 138.836V139.592C91.2322 139.91 91.2902 140.182 91.4062 140.409C91.5223 140.634 91.6844 140.807 91.8928 140.928C92.1011 141.046 92.3449 141.105 92.6243 141.105C92.8113 141.105 92.9806 141.079 93.1321 141.027C93.2836 140.973 93.415 140.893 93.5263 140.789C93.6375 140.685 93.7216 140.556 93.7784 140.402L94.9787 140.537C94.9029 140.854 94.7585 141.131 94.5455 141.368C94.3348 141.602 94.0649 141.785 93.7358 141.915C93.4067 142.043 93.0303 142.107 92.6065 142.107Z" fill="#00264B" fill-opacity="0.8"/>
<g filter="url(#filter0_d_410_58)">
<rect x="190" y="126" width="68" height="21" rx="4" fill="#B1C5DF" fill-opacity="0.2" shape-rendering="crispEdges"/>
<rect x="189.5" y="125.5" width="69" height="22" rx="4.5" stroke="url(#paint3_linear_410_58)" shape-rendering="crispEdges"/>
<g style="mix-blend-mode:hard-light">
<path d="M203.653 133.227H204.534V138.043C204.534 138.54 204.417 138.984 204.183 139.374C203.951 139.763 203.623 140.069 203.199 140.294C202.775 140.517 202.278 140.628 201.707 140.628C201.137 140.628 200.64 140.517 200.216 140.294C199.792 140.069 199.463 139.763 199.229 139.374C198.997 138.984 198.881 138.54 198.881 138.043V133.227H199.761V137.972C199.761 138.327 199.839 138.643 199.996 138.92C200.152 139.194 200.375 139.411 200.663 139.57C200.955 139.726 201.303 139.804 201.707 139.804C202.112 139.804 202.46 139.726 202.751 139.57C203.043 139.411 203.265 139.194 203.419 138.92C203.575 138.643 203.653 138.327 203.653 137.972V133.227ZM206.179 142.545V135.045H206.989V135.912H207.088C207.15 135.817 207.235 135.696 207.344 135.55C207.455 135.401 207.614 135.268 207.82 135.152C208.028 135.034 208.31 134.974 208.665 134.974C209.124 134.974 209.529 135.089 209.879 135.319C210.23 135.549 210.503 135.874 210.7 136.295C210.896 136.717 210.994 137.214 210.994 137.787C210.994 138.365 210.896 138.865 210.7 139.289C210.503 139.71 210.231 140.037 209.883 140.269C209.535 140.499 209.134 140.614 208.679 140.614C208.329 140.614 208.048 140.556 207.838 140.44C207.627 140.321 207.465 140.187 207.351 140.038C207.237 139.887 207.15 139.761 207.088 139.662H207.017V142.545H206.179ZM207.003 137.773C207.003 138.185 207.063 138.548 207.184 138.863C207.305 139.175 207.481 139.42 207.713 139.598C207.945 139.773 208.229 139.861 208.566 139.861C208.916 139.861 209.208 139.768 209.443 139.584C209.679 139.397 209.857 139.146 209.975 138.831C210.096 138.514 210.156 138.161 210.156 137.773C210.156 137.389 210.097 137.044 209.979 136.736C209.863 136.426 209.686 136.181 209.45 136.001C209.215 135.818 208.921 135.727 208.566 135.727C208.225 135.727 207.938 135.814 207.706 135.987C207.474 136.157 207.299 136.396 207.181 136.704C207.062 137.009 207.003 137.366 207.003 137.773ZM214.333 140.614C213.878 140.614 213.477 140.499 213.129 140.269C212.781 140.037 212.508 139.71 212.312 139.289C212.115 138.865 212.017 138.365 212.017 137.787C212.017 137.214 212.115 136.717 212.312 136.295C212.508 135.874 212.782 135.549 213.132 135.319C213.483 135.089 213.887 134.974 214.347 134.974C214.702 134.974 214.982 135.034 215.188 135.152C215.397 135.268 215.555 135.401 215.664 135.55C215.776 135.696 215.862 135.817 215.923 135.912H215.994V133.227H216.833V140.5H216.023V139.662H215.923C215.862 139.761 215.774 139.887 215.661 140.038C215.547 140.187 215.385 140.321 215.174 140.44C214.963 140.556 214.683 140.614 214.333 140.614ZM214.446 139.861C214.782 139.861 215.066 139.773 215.298 139.598C215.53 139.42 215.707 139.175 215.828 138.863C215.948 138.548 216.009 138.185 216.009 137.773C216.009 137.366 215.95 137.009 215.831 136.704C215.713 136.396 215.538 136.157 215.306 135.987C215.074 135.814 214.787 135.727 214.446 135.727C214.091 135.727 213.795 135.818 213.558 136.001C213.324 136.181 213.148 136.426 213.029 136.736C212.913 137.044 212.855 137.389 212.855 137.773C212.855 138.161 212.914 138.514 213.033 138.831C213.154 139.146 213.331 139.397 213.566 139.584C213.802 139.768 214.096 139.861 214.446 139.861ZM220.089 140.628C219.743 140.628 219.43 140.563 219.148 140.433C218.866 140.3 218.642 140.109 218.477 139.861C218.311 139.61 218.228 139.307 218.228 138.952C218.228 138.639 218.29 138.386 218.413 138.192C218.536 137.995 218.7 137.841 218.906 137.73C219.112 137.619 219.34 137.536 219.588 137.482C219.839 137.425 220.091 137.38 220.345 137.347C220.676 137.304 220.945 137.272 221.151 137.251C221.359 137.227 221.511 137.188 221.605 137.134C221.702 137.079 221.751 136.984 221.751 136.849V136.821C221.751 136.471 221.655 136.198 221.463 136.004C221.274 135.81 220.986 135.713 220.6 135.713C220.2 135.713 219.887 135.801 219.659 135.976C219.432 136.151 219.272 136.338 219.18 136.537L218.384 136.253C218.526 135.921 218.716 135.663 218.953 135.479C219.192 135.292 219.452 135.161 219.734 135.088C220.018 135.012 220.297 134.974 220.572 134.974C220.747 134.974 220.948 134.996 221.176 135.038C221.405 135.079 221.627 135.163 221.84 135.29C222.055 135.418 222.234 135.611 222.376 135.869C222.518 136.127 222.589 136.473 222.589 136.906V140.5H221.751V139.761H221.708C221.651 139.88 221.557 140.006 221.424 140.141C221.292 140.276 221.115 140.391 220.895 140.486C220.675 140.58 220.406 140.628 220.089 140.628ZM220.217 139.875C220.548 139.875 220.828 139.81 221.055 139.68C221.285 139.549 221.457 139.381 221.573 139.175C221.692 138.969 221.751 138.753 221.751 138.526V137.759C221.715 137.801 221.637 137.84 221.517 137.876C221.398 137.909 221.261 137.938 221.105 137.964C220.951 137.988 220.8 138.009 220.654 138.028C220.509 138.045 220.392 138.059 220.302 138.071C220.084 138.099 219.881 138.146 219.691 138.21C219.504 138.271 219.353 138.365 219.237 138.49C219.123 138.613 219.066 138.781 219.066 138.994C219.066 139.286 219.174 139.506 219.389 139.655C219.607 139.802 219.883 139.875 220.217 139.875ZM226.491 135.045V135.756H223.664V135.045H226.491ZM224.488 133.739H225.326V138.938C225.326 139.174 225.36 139.352 225.429 139.47C225.5 139.586 225.59 139.664 225.699 139.705C225.81 139.742 225.927 139.761 226.05 139.761C226.143 139.761 226.219 139.757 226.278 139.747C226.337 139.735 226.384 139.726 226.42 139.719L226.59 140.472C226.533 140.493 226.454 140.514 226.352 140.536C226.25 140.559 226.121 140.571 225.965 140.571C225.728 140.571 225.496 140.52 225.269 140.418C225.044 140.317 224.857 140.161 224.708 139.953C224.561 139.745 224.488 139.482 224.488 139.165V133.739ZM229.98 140.614C229.454 140.614 229.001 140.498 228.62 140.266C228.241 140.031 227.949 139.705 227.743 139.286C227.539 138.864 227.437 138.374 227.437 137.815C227.437 137.257 227.539 136.764 227.743 136.338C227.949 135.91 228.235 135.576 228.602 135.337C228.971 135.095 229.402 134.974 229.895 134.974C230.179 134.974 230.459 135.022 230.736 135.116C231.013 135.211 231.265 135.365 231.493 135.578C231.72 135.789 231.901 136.068 232.036 136.416C232.171 136.764 232.238 137.193 232.238 137.702V138.057H228.034V137.332H231.386C231.386 137.025 231.324 136.75 231.201 136.509C231.081 136.267 230.908 136.076 230.683 135.937C230.46 135.797 230.198 135.727 229.895 135.727C229.561 135.727 229.272 135.81 229.028 135.976C228.787 136.139 228.601 136.352 228.471 136.615C228.34 136.878 228.275 137.16 228.275 137.46V137.943C228.275 138.355 228.346 138.704 228.488 138.991C228.633 139.275 228.833 139.491 229.088 139.641C229.344 139.787 229.641 139.861 229.98 139.861C230.2 139.861 230.399 139.83 230.576 139.768C230.756 139.705 230.911 139.61 231.042 139.484C231.172 139.357 231.272 139.198 231.343 139.009L232.153 139.236C232.068 139.51 231.925 139.752 231.723 139.96C231.522 140.166 231.274 140.327 230.978 140.443C230.682 140.557 230.349 140.614 229.98 140.614Z" fill="url(#paint4_linear_410_58)"/>
</g>
<path d="M246 139.625V133.375M246 133.375L243.5 135.719M246 133.375L248.5 135.719" stroke="#00264B" stroke-width="0.5" stroke-linecap="round" stroke-linejoin="round"/>
</g>
<defs>
<filter id="filter0_d_410_58" x="149" y="85" width="150" height="103" filterUnits="userSpaceOnUse" color-interpolation-filters="sRGB">
<feFlood flood-opacity="0" result="BackgroundImageFix"/>
<feColorMatrix in="SourceAlpha" type="matrix" values="0 0 0 0 0 0 0 0 0 0 0 0 0 0 0 0 0 0 127 0" result="hardAlpha"/>
<feMorphology radius="1" operator="erode" in="SourceAlpha" result="effect1_dropShadow_410_58"/>
<feOffset dy="4"/>
<feGaussianBlur stdDeviation="12"/>
<feComposite in2="hardAlpha" operator="out"/>
<feColorMatrix type="matrix" values="0 0 0 0 0 0 0 0 0 0 0 0 0 0 0 0 0 0 0.2 0"/>
<feBlend mode="normal" in2="BackgroundImageFix" result="effect1_dropShadow_410_58"/>
<feBlend mode="normal" in="SourceGraphic" in2="effect1_dropShadow_410_58" result="shape"/>
</filter>
<linearGradient id="paint0_linear_410_58" x1="232" y1="14" x2="257" y2="14" gradientUnits="userSpaceOnUse">
<stop stop-color="#006CFF"/>
<stop offset="1" stop-color="#00264B"/>
</linearGradient>
<linearGradient id="paint1_linear_410_58" x1="233" y1="52" x2="256.913" y2="52" gradientUnits="userSpaceOnUse">
<stop stop-color="#006CFF"/>
<stop offset="1" stop-color="#00264B"/>
</linearGradient>
<linearGradient id="paint2_linear_410_58" x1="235" y1="92" x2="256.739" y2="92" gradientUnits="userSpaceOnUse">
<stop stop-color="#006CFF"/>
<stop offset="1" stop-color="#00264B"/>
</linearGradient>
<linearGradient id="paint3_linear_410_58" x1="190" y1="136.5" x2="258" y2="136.5" gradientUnits="userSpaceOnUse">
<stop stop-color="#006CFF"/>
<stop offset="1" stop-color="#00224F" stop-opacity="0.4"/>
</linearGradient>
<linearGradient id="paint4_linear_410_58" x1="198" y1="136.5" x2="233" y2="136.5" gradientUnits="userSpaceOnUse">
<stop stop-color="#006CFF"/>
<stop offset="0.531666" stop-color="#00264B"/>
</linearGradient>
</defs>
</svg>
