<svg width="213" height="175" viewBox="0 0 213 175" fill="none" xmlns="http://www.w3.org/2000/svg">
<g opacity="0.5">
<path d="M151.843 119.462V55.0479L107.427 22.2551L61.8428 55.0479V119.462L106.843 152.255L151.843 119.462Z" stroke="#3D4F60" stroke-opacity="0.5"/>
<path d="M106.843 14.2551V162.255" stroke="#3D4F60" stroke-opacity="0.5"/>
<path d="M53.8428 49.2552L160.843 125.255" stroke="#3D4F60" stroke-opacity="0.5"/>
<path d="M160.843 49.2552L54.8428 125.255" stroke="#3D4F60" stroke-opacity="0.5"/>
<g filter="url(#filter0_di_435_661)">
<circle cx="106.843" cy="87.2552" r="28" fill="url(#paint0_linear_435_661)"/>
<circle cx="106.843" cy="87.2552" r="27" stroke="#CBE1FF" stroke-width="2"/>
</g>
<path d="M132.843 9.25513C152.224 15.0691 160.343 20.2551 169.843 34.2551" stroke="#3D4F60" stroke-opacity="0.5"/>
<path d="M184.592 58.9276C194.343 81.2552 191.343 96.2552 183.53 117.904" stroke="#3D4F60" stroke-opacity="0.5"/>
<path d="M170.555 139.136C161.343 156.755 150.843 163.255 131.63 166.227" stroke="#3D4F60" stroke-opacity="0.5"/>
<path d="M83.2695 166.265C63.3428 164.755 54.3709 156.239 45.525 142.119" stroke="#3D4F60" stroke-opacity="0.5"/>
<path d="M29.8369 118.415C21.9326 104.34 17.3418 82.2552 29.5996 58.3378" stroke="#3D4F60" stroke-opacity="0.5"/>
<path d="M44.3447 32.9778C50.7802 18.173 68.5252 9.38708 81.4457 8.25525" stroke="#3D4F60" stroke-opacity="0.5"/>
<path d="M85.748 10.2551V5.89149H87.346C87.6556 5.89149 87.912 5.94263 88.1151 6.0449C88.3183 6.14575 88.4703 6.28283 88.5711 6.45612C88.672 6.628 88.7224 6.82189 88.7224 7.0378C88.7224 7.21962 88.689 7.37302 88.6222 7.49802C88.5555 7.6216 88.466 7.72104 88.3538 7.79632C88.243 7.87018 88.1208 7.92416 87.9873 7.95825V8.00087C88.1322 8.00797 88.2735 8.05484 88.4113 8.14149C88.5505 8.22672 88.6656 8.34817 88.7565 8.50584C88.8474 8.66351 88.8928 8.85527 88.8928 9.08112C88.8928 9.30413 88.8403 9.50442 88.7352 9.68197C88.6315 9.85811 88.471 9.99802 88.2536 10.1017C88.0363 10.204 87.7586 10.2551 87.4205 10.2551H85.748ZM86.4063 9.6905H87.3566C87.672 9.6905 87.8978 9.62942 88.0342 9.50726C88.1705 9.3851 88.2387 9.2324 88.2387 9.04916C88.2387 8.91138 88.2039 8.78496 88.1343 8.6699C88.0647 8.55484 87.9653 8.46322 87.836 8.39504C87.7082 8.32686 87.5562 8.29277 87.3801 8.29277H86.4063V9.6905ZM86.4063 7.77927H87.2884C87.4362 7.77927 87.569 7.75087 87.6869 7.69405C87.8062 7.63723 87.9007 7.55768 87.9703 7.45541C88.0413 7.35172 88.0768 7.22956 88.0768 7.08893C88.0768 6.90854 88.0136 6.75726 87.8872 6.6351C87.7607 6.51294 87.5669 6.45186 87.3055 6.45186H86.4063V7.77927ZM89.6226 10.2551V6.9824H90.2384V7.50229H90.2725C90.3321 7.32615 90.4372 7.18766 90.5878 7.0868C90.7398 6.98453 90.9117 6.93339 91.1034 6.93339C91.1432 6.93339 91.1901 6.93481 91.2441 6.93766C91.2994 6.9405 91.3428 6.94405 91.374 6.94831V7.55768C91.3485 7.55058 91.303 7.54277 91.2377 7.53425C91.1723 7.5243 91.107 7.51933 91.0416 7.51933C90.8911 7.51933 90.7568 7.55129 90.6389 7.61521C90.5225 7.67771 90.4301 7.76507 90.3619 7.87729C90.2938 7.98808 90.2597 8.1145 90.2597 8.25655V10.2551H89.6226ZM92.8485 10.3276C92.6411 10.3276 92.4536 10.2892 92.286 10.2125C92.1183 10.1344 91.9855 10.0215 91.8875 9.87373C91.7909 9.72601 91.7426 9.5449 91.7426 9.33041C91.7426 9.14575 91.7781 8.99376 91.8492 8.87445C91.9202 8.75513 92.0161 8.66067 92.1368 8.59106C92.2575 8.52146 92.3925 8.46891 92.5416 8.43339C92.6908 8.39788 92.8428 8.37089 92.9976 8.35243C93.1936 8.3297 93.3527 8.31123 93.4749 8.29703C93.597 8.28141 93.6858 8.25655 93.7412 8.22246C93.7966 8.18837 93.8243 8.13297 93.8243 8.05626V8.04135C93.8243 7.85527 93.7718 7.71109 93.6666 7.60882C93.5629 7.50655 93.4081 7.45541 93.2021 7.45541C92.9877 7.45541 92.8186 7.503 92.695 7.59817C92.5729 7.69192 92.4884 7.79632 92.4415 7.91138L91.8428 7.77501C91.9138 7.57615 92.0175 7.41564 92.1539 7.29348C92.2916 7.1699 92.45 7.08041 92.629 7.02501C92.808 6.9682 92.9962 6.93979 93.1936 6.93979C93.3243 6.93979 93.4628 6.95541 93.6091 6.98666C93.7568 7.01649 93.8946 7.07189 94.0225 7.15285C94.1517 7.23382 94.2575 7.34959 94.3399 7.50016C94.4223 7.6493 94.4635 7.8432 94.4635 8.08183V10.2551H93.8414V9.80768H93.8158C93.7746 9.89007 93.7128 9.97104 93.6304 10.0506C93.548 10.1301 93.4422 10.1962 93.3129 10.2487C93.1837 10.3013 93.0289 10.3276 92.8485 10.3276ZM92.9869 9.81621C93.1631 9.81621 93.3137 9.78141 93.4387 9.7118C93.5651 9.6422 93.661 9.55129 93.7263 9.43908C93.7931 9.32544 93.8264 9.20399 93.8264 9.07473V8.65285C93.8037 8.67558 93.7597 8.69689 93.6943 8.71677C93.6304 8.73524 93.5573 8.75158 93.4749 8.76578C93.3925 8.77856 93.3122 8.79064 93.2341 8.802C93.156 8.81195 93.0906 8.82047 93.0381 8.82757C92.9145 8.8432 92.8016 8.86947 92.6993 8.90641C92.5985 8.94334 92.5175 8.9966 92.4564 9.06621C92.3968 9.13439 92.3669 9.2253 92.3669 9.33893C92.3669 9.4966 92.4252 9.61592 92.5416 9.69689C92.6581 9.77643 92.8066 9.81621 92.9869 9.81621ZM95.9491 8.31195V10.2551H95.3121V6.9824H95.9236V7.51507H95.964C96.0393 7.34177 96.1572 7.20257 96.3177 7.09746C96.4797 6.99234 96.6835 6.93979 96.9292 6.93979C97.1523 6.93979 97.3476 6.98666 97.5152 7.08041C97.6828 7.17274 97.8128 7.31052 97.9051 7.49376C97.9974 7.677 98.0436 7.90356 98.0436 8.17345V10.2551H97.4065V8.25016C97.4065 8.01294 97.3447 7.82757 97.2211 7.69405C97.0976 7.5591 96.9278 7.49163 96.7119 7.49163C96.5642 7.49163 96.4328 7.52359 96.3177 7.58751C96.2041 7.65143 96.1139 7.74518 96.0471 7.86876C95.9818 7.99092 95.9491 8.13865 95.9491 8.31195ZM100.123 10.319C99.8589 10.319 99.6231 10.2516 99.4157 10.1166C99.2098 9.98027 99.0479 9.78638 98.93 9.53496C98.8135 9.28212 98.7552 8.97885 98.7552 8.62516C98.7552 8.27146 98.8142 7.96891 98.9321 7.71748C99.0514 7.46606 99.2148 7.27359 99.4221 7.14007C99.6295 7.00655 99.8646 6.93979 100.127 6.93979C100.331 6.93979 100.494 6.97388 100.617 7.04206C100.742 7.10882 100.839 7.18694 100.907 7.27643C100.977 7.36592 101.031 7.44476 101.069 7.51294H101.108V5.89149H101.745V10.2551H101.122V9.74589H101.069C101.031 9.8155 100.975 9.89504 100.903 9.98453C100.832 10.074 100.734 10.1521 100.609 10.2189C100.484 10.2857 100.322 10.319 100.123 10.319ZM100.264 9.77572C100.447 9.77572 100.602 9.72743 100.728 9.63084C100.856 9.53283 100.953 9.39717 101.018 9.22388C101.085 9.05058 101.118 8.84888 101.118 8.61876C101.118 8.39149 101.085 8.19263 101.02 8.02217C100.955 7.85172 100.859 7.71891 100.733 7.62373C100.606 7.52856 100.45 7.48098 100.264 7.48098C100.072 7.48098 99.9122 7.5307 99.7844 7.63013C99.6565 7.72956 99.5599 7.86521 99.4946 8.03709C99.4307 8.20896 99.3987 8.40285 99.3987 8.61876C99.3987 8.83751 99.4314 9.03425 99.4967 9.20896C99.5621 9.38368 99.6586 9.52217 99.7865 9.62445C99.9157 9.7253 100.075 9.77572 100.264 9.77572ZM106.673 7.0378C106.65 6.83609 106.556 6.67984 106.392 6.56905C106.227 6.45683 106.019 6.40072 105.769 6.40072C105.59 6.40072 105.436 6.42913 105.305 6.48595C105.174 6.54135 105.073 6.61805 105 6.71606C104.929 6.81266 104.894 6.92274 104.894 7.04632C104.894 7.15001 104.918 7.2395 104.966 7.31479C105.016 7.39007 105.081 7.45328 105.16 7.50442C105.241 7.55413 105.328 7.59604 105.42 7.63013C105.512 7.6628 105.601 7.68979 105.686 7.71109L106.112 7.82189C106.252 7.85598 106.394 7.90214 106.541 7.96038C106.687 8.01862 106.823 8.09533 106.948 8.1905C107.073 8.28567 107.174 8.40356 107.25 8.54419C107.328 8.68481 107.367 8.85314 107.367 9.04916C107.367 9.29632 107.304 9.51578 107.176 9.70754C107.049 9.8993 106.865 10.0506 106.624 10.1614C106.384 10.2722 106.093 10.3276 105.752 10.3276C105.426 10.3276 105.143 10.2757 104.904 10.172C104.666 10.0683 104.479 9.92132 104.344 9.73098C104.209 9.53922 104.134 9.31195 104.12 9.04916H104.781C104.794 9.20683 104.845 9.33822 104.934 9.44334C105.025 9.54703 105.141 9.62445 105.282 9.67558C105.424 9.7253 105.579 9.75016 105.748 9.75016C105.934 9.75016 106.1 9.72104 106.245 9.6628C106.391 9.60314 106.506 9.52075 106.59 9.41564C106.674 9.3091 106.715 9.18481 106.715 9.04277C106.715 8.91351 106.679 8.80768 106.605 8.7253C106.532 8.64291 106.434 8.57473 106.309 8.52075C106.185 8.46677 106.045 8.41919 105.889 8.378L105.373 8.23737C105.024 8.1422 104.747 8.00229 104.542 7.81763C104.339 7.63297 104.237 7.38865 104.237 7.08467C104.237 6.83325 104.306 6.61379 104.442 6.42629C104.578 6.23879 104.763 6.09319 104.996 5.9895C105.229 5.88439 105.492 5.83183 105.784 5.83183C106.08 5.83183 106.34 5.88368 106.566 5.98737C106.794 6.09106 106.973 6.23382 107.103 6.41564C107.234 6.59604 107.302 6.80342 107.308 7.0378H106.673ZM109.631 6.9824V7.49376H107.843V6.9824H109.631ZM108.323 6.19831H108.96V9.29419C108.96 9.41777 108.978 9.51081 109.015 9.57331C109.052 9.63439 109.1 9.67629 109.158 9.69902C109.217 9.72033 109.282 9.73098 109.352 9.73098C109.403 9.73098 109.448 9.72743 109.486 9.72033C109.524 9.71322 109.554 9.70754 109.575 9.70328L109.69 10.2296C109.653 10.2438 109.601 10.258 109.533 10.2722C109.465 10.2878 109.379 10.2963 109.277 10.2977C109.109 10.3006 108.953 10.2708 108.808 10.2083C108.663 10.1458 108.546 10.0492 108.457 9.91848C108.367 9.7878 108.323 9.62373 108.323 9.42629V6.19831ZM110.335 10.2551V6.9824H110.951V7.50229H110.985C111.045 7.32615 111.15 7.18766 111.301 7.0868C111.453 6.98453 111.625 6.93339 111.816 6.93339C111.856 6.93339 111.903 6.93481 111.957 6.93766C112.012 6.9405 112.056 6.94405 112.087 6.94831V7.55768C112.061 7.55058 112.016 7.54277 111.951 7.53425C111.885 7.5243 111.82 7.51933 111.755 7.51933C111.604 7.51933 111.47 7.55129 111.352 7.61521C111.235 7.67771 111.143 7.76507 111.075 7.87729C111.007 7.98808 110.973 8.1145 110.973 8.25655V10.2551H110.335ZM113.561 10.3276C113.354 10.3276 113.166 10.2892 112.999 10.2125C112.831 10.1344 112.698 10.0215 112.6 9.87373C112.504 9.72601 112.456 9.5449 112.456 9.33041C112.456 9.14575 112.491 8.99376 112.562 8.87445C112.633 8.75513 112.729 8.66067 112.85 8.59106C112.97 8.52146 113.105 8.46891 113.255 8.43339C113.404 8.39788 113.556 8.37089 113.71 8.35243C113.907 8.3297 114.066 8.31123 114.188 8.29703C114.31 8.28141 114.399 8.25655 114.454 8.22246C114.509 8.18837 114.537 8.13297 114.537 8.05626V8.04135C114.537 7.85527 114.485 7.71109 114.38 7.60882C114.276 7.50655 114.121 7.45541 113.915 7.45541C113.701 7.45541 113.532 7.503 113.408 7.59817C113.286 7.69192 113.201 7.79632 113.154 7.91138L112.556 7.77501C112.627 7.57615 112.73 7.41564 112.867 7.29348C113.005 7.1699 113.163 7.08041 113.342 7.02501C113.521 6.9682 113.709 6.93979 113.907 6.93979C114.037 6.93979 114.176 6.95541 114.322 6.98666C114.47 7.01649 114.608 7.07189 114.735 7.15285C114.865 7.23382 114.97 7.34959 115.053 7.50016C115.135 7.6493 115.176 7.8432 115.176 8.08183V10.2551H114.554V9.80768H114.529C114.487 9.89007 114.426 9.97104 114.343 10.0506C114.261 10.1301 114.155 10.1962 114.026 10.2487C113.897 10.3013 113.742 10.3276 113.561 10.3276ZM113.7 9.81621C113.876 9.81621 114.027 9.78141 114.152 9.7118C114.278 9.6422 114.374 9.55129 114.439 9.43908C114.506 9.32544 114.539 9.20399 114.539 9.07473V8.65285C114.517 8.67558 114.473 8.69689 114.407 8.71677C114.343 8.73524 114.27 8.75158 114.188 8.76578C114.105 8.77856 114.025 8.79064 113.947 8.802C113.869 8.81195 113.804 8.82047 113.751 8.82757C113.627 8.8432 113.514 8.86947 113.412 8.90641C113.311 8.94334 113.23 8.9966 113.169 9.06621C113.11 9.13439 113.08 9.2253 113.08 9.33893C113.08 9.4966 113.138 9.61592 113.255 9.69689C113.371 9.77643 113.519 9.81621 113.7 9.81621ZM117.553 6.9824V7.49376H115.765V6.9824H117.553ZM116.244 6.19831H116.881V9.29419C116.881 9.41777 116.9 9.51081 116.937 9.57331C116.974 9.63439 117.021 9.67629 117.08 9.69902C117.139 9.72033 117.204 9.73098 117.274 9.73098C117.325 9.73098 117.369 9.72743 117.408 9.72033C117.446 9.71322 117.476 9.70754 117.497 9.70328L117.612 10.2296C117.575 10.2438 117.523 10.258 117.455 10.2722C117.386 10.2878 117.301 10.2963 117.199 10.2977C117.031 10.3006 116.875 10.2708 116.73 10.2083C116.585 10.1458 116.468 10.0492 116.379 9.91848C116.289 9.7878 116.244 9.62373 116.244 9.42629V6.19831ZM119.633 10.3212C119.31 10.3212 119.033 10.2523 118.8 10.1145C118.568 9.9753 118.389 9.77998 118.263 9.52856C118.138 9.27572 118.075 8.97956 118.075 8.64007C118.075 8.30484 118.138 8.00939 118.263 7.75371C118.389 7.49802 118.565 7.29845 118.791 7.15498C119.018 7.01152 119.284 6.93979 119.588 6.93979C119.773 6.93979 119.952 6.97033 120.125 7.03141C120.298 7.09248 120.454 7.18837 120.592 7.31905C120.729 7.44973 120.838 7.61947 120.918 7.82828C120.997 8.03567 121.037 8.2878 121.037 8.58467V8.81052H118.435V8.33325H120.413C120.413 8.16564 120.378 8.0172 120.31 7.88794C120.242 7.75726 120.146 7.65427 120.023 7.57899C119.9 7.50371 119.757 7.46606 119.592 7.46606C119.413 7.46606 119.257 7.5101 119.123 7.59817C118.991 7.68481 118.889 7.79845 118.817 7.93908C118.746 8.07828 118.71 8.22956 118.71 8.39291V8.76578C118.71 8.98453 118.748 9.17061 118.825 9.32402C118.903 9.47743 119.012 9.59462 119.151 9.67558C119.29 9.75513 119.453 9.7949 119.639 9.7949C119.76 9.7949 119.87 9.77785 119.969 9.74376C120.069 9.70825 120.155 9.6557 120.227 9.58609C120.3 9.51649 120.355 9.43055 120.393 9.32828L120.996 9.43695C120.948 9.6145 120.861 9.77004 120.736 9.90356C120.613 10.0357 120.457 10.1386 120.27 10.2125C120.084 10.285 119.871 10.3212 119.633 10.3212ZM123.116 11.5506C122.856 11.5506 122.632 11.5165 122.445 11.4483C122.259 11.3801 122.107 11.2899 121.989 11.1777C121.871 11.0655 121.783 10.9426 121.725 10.8091L122.272 10.5833C122.31 10.6458 122.362 10.7118 122.426 10.7814C122.491 10.8524 122.579 10.9128 122.69 10.9625C122.802 11.0122 122.946 11.0371 123.122 11.0371C123.364 11.0371 123.563 10.9781 123.721 10.8602C123.879 10.7438 123.957 10.5577 123.957 10.302V9.65854H123.917C123.879 9.72814 123.823 9.80555 123.751 9.89078C123.68 9.97601 123.582 10.0499 123.457 10.1124C123.332 10.1749 123.169 10.2061 122.969 10.2061C122.71 10.2061 122.477 10.1458 122.27 10.025C122.064 9.90285 121.901 9.72317 121.78 9.48595C121.661 9.24731 121.601 8.95399 121.601 8.60598C121.601 8.25797 121.66 7.95967 121.778 7.71109C121.897 7.46251 122.06 7.27217 122.268 7.14007C122.475 7.00655 122.71 6.93979 122.973 6.93979C123.176 6.93979 123.34 6.97388 123.465 7.04206C123.59 7.10882 123.688 7.18694 123.757 7.27643C123.828 7.36592 123.883 7.44476 123.921 7.51294H123.968V6.9824H124.592V10.3276C124.592 10.6088 124.527 10.8396 124.396 11.02C124.266 11.2004 124.089 11.334 123.866 11.4206C123.644 11.5073 123.394 11.5506 123.116 11.5506ZM123.109 9.67771C123.293 9.67771 123.448 9.6351 123.574 9.54987C123.702 9.46322 123.798 9.33964 123.864 9.17913C123.93 9.0172 123.964 8.82331 123.964 8.59746C123.964 8.37729 123.931 8.18339 123.866 8.01578C123.801 7.84817 123.705 7.71748 123.578 7.62373C123.452 7.52856 123.296 7.48098 123.109 7.48098C122.918 7.48098 122.758 7.5307 122.63 7.63013C122.502 7.72814 122.406 7.86166 122.34 8.0307C122.276 8.19973 122.244 8.38865 122.244 8.59746C122.244 8.81195 122.277 9.00016 122.342 9.16209C122.408 9.32402 122.504 9.45044 122.632 9.54135C122.761 9.63226 122.921 9.67771 123.109 9.67771ZM125.85 11.4824C125.754 11.4824 125.668 11.4746 125.59 11.459C125.511 11.4448 125.453 11.4291 125.415 11.4121L125.568 10.8901C125.685 10.9213 125.788 10.9348 125.879 10.9306C125.97 10.9263 126.051 10.8922 126.12 10.8283C126.191 10.7644 126.254 10.66 126.308 10.5151L126.386 10.2977L125.189 6.9824H125.871L126.7 9.52217H126.734L127.563 6.9824H128.247L126.898 10.6919C126.835 10.8624 126.756 11.0065 126.659 11.1244C126.563 11.2438 126.448 11.3333 126.314 11.3929C126.18 11.4526 126.026 11.4824 125.85 11.4824Z" fill="#00264B" fill-opacity="0.5"/>
<path d="M91.9795 167.038C91.9568 166.836 91.863 166.68 91.6982 166.569C91.5335 166.457 91.3261 166.401 91.0761 166.401C90.8971 166.401 90.7423 166.429 90.6116 166.486C90.4809 166.541 90.3794 166.618 90.3069 166.716C90.2359 166.813 90.2004 166.923 90.2004 167.046C90.2004 167.15 90.2245 167.24 90.2728 167.315C90.3225 167.39 90.3872 167.453 90.4667 167.505C90.5477 167.554 90.6343 167.596 90.7267 167.63C90.819 167.663 90.9078 167.69 90.993 167.711L91.4191 167.822C91.5583 167.856 91.7011 167.902 91.8474 167.961C91.9937 168.019 92.1294 168.095 92.2544 168.191C92.3794 168.286 92.4802 168.404 92.5569 168.544C92.635 168.685 92.6741 168.853 92.6741 169.049C92.6741 169.296 92.6102 169.516 92.4823 169.708C92.3559 169.899 92.172 170.051 91.9305 170.161C91.6904 170.272 91.3999 170.328 91.059 170.328C90.7323 170.328 90.4497 170.276 90.211 170.172C89.9724 170.068 89.7856 169.921 89.6507 169.731C89.5157 169.539 89.4411 169.312 89.4269 169.049H90.0874C90.1002 169.207 90.1514 169.338 90.2409 169.443C90.3318 169.547 90.4475 169.625 90.5882 169.676C90.7302 169.725 90.8857 169.75 91.0548 169.75C91.2409 169.75 91.4063 169.721 91.5512 169.663C91.6975 169.603 91.8126 169.521 91.8964 169.416C91.9802 169.309 92.0221 169.185 92.0221 169.043C92.0221 168.914 91.9852 168.808 91.9113 168.725C91.8389 168.643 91.7401 168.575 91.6151 168.521C91.4916 168.467 91.3517 168.419 91.1954 168.378L90.6798 168.237C90.3303 168.142 90.0534 168.002 89.8488 167.818C89.6457 167.633 89.5441 167.389 89.5441 167.085C89.5441 166.833 89.6123 166.614 89.7487 166.426C89.885 166.239 90.0697 166.093 90.3026 165.99C90.5356 165.885 90.7984 165.832 91.091 165.832C91.3865 165.832 91.6471 165.884 91.873 165.987C92.1002 166.091 92.2792 166.234 92.4099 166.416C92.5406 166.596 92.6088 166.804 92.6144 167.038H91.9795ZM94.7883 170.321C94.4814 170.321 94.2137 170.251 93.985 170.11C93.7563 169.97 93.5787 169.773 93.4523 169.52C93.3259 169.267 93.2627 168.972 93.2627 168.634C93.2627 168.294 93.3259 167.997 93.4523 167.743C93.5787 167.489 93.7563 167.291 93.985 167.151C94.2137 167.01 94.4814 166.94 94.7883 166.94C95.0951 166.94 95.3628 167.01 95.5915 167.151C95.8202 167.291 95.9978 167.489 96.1242 167.743C96.2506 167.997 96.3138 168.294 96.3138 168.634C96.3138 168.972 96.2506 169.267 96.1242 169.52C95.9978 169.773 95.8202 169.97 95.5915 170.11C95.3628 170.251 95.0951 170.321 94.7883 170.321ZM94.7904 169.786C94.9893 169.786 95.154 169.734 95.2847 169.629C95.4154 169.524 95.512 169.384 95.5745 169.209C95.6384 169.034 95.6704 168.842 95.6704 168.632C95.6704 168.423 95.6384 168.231 95.5745 168.056C95.512 167.88 95.4154 167.739 95.2847 167.632C95.154 167.526 94.9893 167.473 94.7904 167.473C94.5901 167.473 94.4239 167.526 94.2918 167.632C94.1611 167.739 94.0638 167.88 93.9999 168.056C93.9374 168.231 93.9062 168.423 93.9062 168.632C93.9062 168.842 93.9374 169.034 93.9999 169.209C94.0638 169.384 94.1611 169.524 94.2918 169.629C94.4239 169.734 94.5901 169.786 94.7904 169.786ZM98.4035 170.321C98.0867 170.321 97.814 170.25 97.5853 170.106C97.358 169.961 97.1833 169.762 97.0612 169.507C96.939 169.253 96.8779 168.962 96.8779 168.634C96.8779 168.301 96.9404 168.008 97.0654 167.754C97.1904 167.498 97.3666 167.299 97.5938 167.155C97.8211 167.012 98.0889 166.94 98.3971 166.94C98.6457 166.94 98.8673 166.986 99.0619 167.078C99.2565 167.169 99.4134 167.297 99.5328 167.462C99.6535 167.627 99.7252 167.819 99.748 168.039H99.1279C99.0938 167.886 99.0157 167.754 98.8936 167.643C98.7728 167.532 98.6109 167.477 98.4078 167.477C98.2302 167.477 98.0747 167.524 97.9411 167.617C97.809 167.71 97.7061 167.842 97.6322 168.014C97.5583 168.184 97.5214 168.386 97.5214 168.619C97.5214 168.858 97.5576 169.063 97.6301 169.237C97.7025 169.41 97.8048 169.544 97.9369 169.639C98.0704 169.735 98.2274 169.782 98.4078 169.782C98.5285 169.782 98.6379 169.76 98.7359 169.716C98.8353 169.671 98.9184 169.606 98.9852 169.522C99.0534 169.438 99.1009 169.338 99.1279 169.22H99.748C99.7252 169.431 99.6563 169.62 99.5413 169.786C99.4262 169.953 99.2721 170.083 99.0789 170.179C98.8872 170.274 98.662 170.321 98.4035 170.321ZM100.429 170.255V166.983H101.066V170.255H100.429ZM100.751 166.478C100.64 166.478 100.545 166.441 100.465 166.367C100.387 166.291 100.348 166.202 100.348 166.098C100.348 165.993 100.387 165.904 100.465 165.83C100.545 165.755 100.64 165.717 100.751 165.717C100.862 165.717 100.956 165.755 101.034 165.83C101.114 165.904 101.154 165.993 101.154 166.098C101.154 166.202 101.114 166.291 101.034 166.367C100.956 166.441 100.862 166.478 100.751 166.478ZM102.876 170.328C102.668 170.328 102.481 170.289 102.313 170.213C102.146 170.135 102.013 170.022 101.915 169.874C101.818 169.726 101.77 169.545 101.77 169.331C101.77 169.146 101.805 168.994 101.877 168.875C101.948 168.755 102.043 168.661 102.164 168.591C102.285 168.522 102.42 168.469 102.569 168.434C102.718 168.398 102.87 168.371 103.025 168.353C103.221 168.33 103.38 168.311 103.502 168.297C103.624 168.282 103.713 168.257 103.769 168.223C103.824 168.188 103.852 168.133 103.852 168.056V168.041C103.852 167.855 103.799 167.711 103.694 167.609C103.59 167.507 103.435 167.456 103.229 167.456C103.015 167.456 102.846 167.503 102.722 167.598C102.6 167.692 102.516 167.796 102.469 167.911L101.87 167.775C101.941 167.576 102.045 167.416 102.181 167.294C102.319 167.17 102.477 167.081 102.656 167.025C102.835 166.968 103.024 166.94 103.221 166.94C103.352 166.94 103.49 166.956 103.636 166.987C103.784 167.017 103.922 167.072 104.05 167.153C104.179 167.234 104.285 167.35 104.367 167.5C104.45 167.649 104.491 167.843 104.491 168.082V170.255H103.869V169.808H103.843C103.802 169.89 103.74 169.971 103.658 170.051C103.575 170.13 103.47 170.196 103.34 170.249C103.211 170.301 103.056 170.328 102.876 170.328ZM103.014 169.816C103.19 169.816 103.341 169.782 103.466 169.712C103.592 169.642 103.688 169.551 103.754 169.439C103.82 169.326 103.854 169.204 103.854 169.075V168.653C103.831 168.676 103.787 168.697 103.722 168.717C103.658 168.735 103.585 168.752 103.502 168.766C103.42 168.779 103.34 168.791 103.261 168.802C103.183 168.812 103.118 168.821 103.065 168.828C102.942 168.843 102.829 168.87 102.727 168.907C102.626 168.943 102.545 168.997 102.484 169.066C102.424 169.135 102.394 169.225 102.394 169.339C102.394 169.497 102.453 169.616 102.569 169.697C102.685 169.777 102.834 169.816 103.014 169.816ZM105.976 165.892V170.255H105.339V165.892H105.976ZM108.473 165.892H109.272L110.661 169.284H110.712L112.101 165.892H112.9V170.255H112.274V167.098H112.233L110.946 170.249H110.426L109.139 167.095H109.099V170.255H108.473V165.892ZM115.217 170.321C114.894 170.321 114.617 170.252 114.384 170.115C114.152 169.975 113.973 169.78 113.847 169.529C113.722 169.276 113.659 168.98 113.659 168.64C113.659 168.305 113.722 168.01 113.847 167.754C113.973 167.498 114.149 167.299 114.375 167.155C114.602 167.012 114.868 166.94 115.172 166.94C115.357 166.94 115.536 166.97 115.709 167.032C115.882 167.093 116.038 167.188 116.176 167.319C116.313 167.45 116.422 167.62 116.502 167.828C116.581 168.036 116.621 168.288 116.621 168.585V168.811H114.019V168.333H115.997C115.997 168.166 115.962 168.017 115.894 167.888C115.826 167.757 115.73 167.654 115.607 167.579C115.484 167.504 115.341 167.466 115.176 167.466C114.997 167.466 114.841 167.51 114.707 167.598C114.575 167.685 114.473 167.799 114.401 167.939C114.33 168.078 114.294 168.23 114.294 168.393V168.766C114.294 168.985 114.332 169.171 114.409 169.324C114.487 169.478 114.596 169.595 114.735 169.676C114.874 169.755 115.037 169.795 115.223 169.795C115.344 169.795 115.454 169.778 115.553 169.744C115.653 169.708 115.739 169.656 115.811 169.586C115.884 169.517 115.939 169.431 115.977 169.328L116.58 169.437C116.532 169.615 116.445 169.77 116.32 169.904C116.197 170.036 116.041 170.139 115.854 170.213C115.668 170.285 115.455 170.321 115.217 170.321ZM118.553 170.319C118.289 170.319 118.053 170.252 117.845 170.117C117.639 169.98 117.478 169.786 117.36 169.535C117.243 169.282 117.185 168.979 117.185 168.625C117.185 168.272 117.244 167.969 117.362 167.718C117.481 167.466 117.644 167.274 117.852 167.14C118.059 167.007 118.294 166.94 118.557 166.94C118.76 166.94 118.924 166.974 119.047 167.042C119.172 167.109 119.269 167.187 119.337 167.277C119.407 167.366 119.46 167.445 119.499 167.513H119.537V165.892H120.174V170.255H119.552V169.746H119.499C119.46 169.816 119.405 169.895 119.333 169.985C119.262 170.074 119.164 170.152 119.039 170.219C118.914 170.286 118.752 170.319 118.553 170.319ZM118.693 169.776C118.877 169.776 119.032 169.728 119.158 169.631C119.286 169.533 119.382 169.397 119.448 169.224C119.514 169.051 119.548 168.849 119.548 168.619C119.548 168.392 119.515 168.193 119.45 168.022C119.384 167.852 119.289 167.719 119.162 167.624C119.036 167.529 118.88 167.481 118.693 167.481C118.502 167.481 118.342 167.531 118.214 167.63C118.086 167.73 117.99 167.865 117.924 168.037C117.86 168.209 117.828 168.403 117.828 168.619C117.828 168.838 117.861 169.034 117.926 169.209C117.992 169.384 118.088 169.522 118.216 169.625C118.345 169.725 118.505 169.776 118.693 169.776ZM121.084 170.255V166.983H121.721V170.255H121.084ZM121.405 166.478C121.294 166.478 121.199 166.441 121.12 166.367C121.042 166.291 121.003 166.202 121.003 166.098C121.003 165.993 121.042 165.904 121.12 165.83C121.199 165.755 121.294 165.717 121.405 165.717C121.516 165.717 121.611 165.755 121.689 165.83C121.768 165.904 121.808 165.993 121.808 166.098C121.808 166.202 121.768 166.291 121.689 166.367C121.611 166.441 121.516 166.478 121.405 166.478ZM123.53 170.328C123.323 170.328 123.135 170.289 122.968 170.213C122.8 170.135 122.667 170.022 122.569 169.874C122.473 169.726 122.424 169.545 122.424 169.331C122.424 169.146 122.46 168.994 122.531 168.875C122.602 168.755 122.698 168.661 122.818 168.591C122.939 168.522 123.074 168.469 123.223 168.434C123.372 168.398 123.524 168.371 123.679 168.353C123.875 168.33 124.034 168.311 124.157 168.297C124.279 168.282 124.367 168.257 124.423 168.223C124.478 168.188 124.506 168.133 124.506 168.056V168.041C124.506 167.855 124.453 167.711 124.348 167.609C124.245 167.507 124.09 167.456 123.884 167.456C123.669 167.456 123.5 167.503 123.377 167.598C123.255 167.692 123.17 167.796 123.123 167.911L122.524 167.775C122.595 167.576 122.699 167.416 122.835 167.294C122.973 167.17 123.132 167.081 123.311 167.025C123.49 166.968 123.678 166.94 123.875 166.94C124.006 166.94 124.144 166.956 124.291 166.987C124.438 167.017 124.576 167.072 124.704 167.153C124.833 167.234 124.939 167.35 125.022 167.5C125.104 167.649 125.145 167.843 125.145 168.082V170.255H124.523V169.808H124.497C124.456 169.89 124.394 169.971 124.312 170.051C124.23 170.13 124.124 170.196 123.995 170.249C123.865 170.301 123.71 170.328 123.53 170.328ZM123.669 169.816C123.845 169.816 123.995 169.782 124.12 169.712C124.247 169.642 124.343 169.551 124.408 169.439C124.475 169.326 124.508 169.204 124.508 169.075V168.653C124.485 168.676 124.441 168.697 124.376 168.717C124.312 168.735 124.239 168.752 124.157 168.766C124.074 168.779 123.994 168.791 123.916 168.802C123.838 168.812 123.772 168.821 123.72 168.828C123.596 168.843 123.483 168.87 123.381 168.907C123.28 168.943 123.199 168.997 123.138 169.066C123.078 169.135 123.049 169.225 123.049 169.339C123.049 169.497 123.107 169.616 123.223 169.697C123.34 169.777 123.488 169.816 123.669 169.816Z" fill="#00264B" fill-opacity="0.5"/>
<path d="M172.704 39.8916L173.918 43.4456H173.967L175.182 39.8916H175.893L174.323 44.2552H173.562L171.992 39.8916H172.704ZM176.472 44.2552V40.9825H177.109V44.2552H176.472ZM176.794 40.4776C176.683 40.4776 176.588 40.4406 176.508 40.3668C176.43 40.2915 176.391 40.202 176.391 40.0983C176.391 39.9932 176.43 39.9037 176.508 39.8298C176.588 39.7545 176.683 39.7169 176.794 39.7169C176.905 39.7169 176.999 39.7545 177.077 39.8298C177.157 39.9037 177.197 39.9932 177.197 40.0983C177.197 40.202 177.157 40.2915 177.077 40.3668C176.999 40.4406 176.905 40.4776 176.794 40.4776ZM180.419 41.7815L179.841 41.8838C179.817 41.8099 179.779 41.7396 179.726 41.6729C179.675 41.6061 179.606 41.5514 179.517 41.5088C179.429 41.4662 179.319 41.4449 179.187 41.4449C179.007 41.4449 178.856 41.4854 178.736 41.5663C178.615 41.6459 178.554 41.7489 178.554 41.8753C178.554 41.9847 178.595 42.0727 178.676 42.1395C178.757 42.2062 178.888 42.2609 179.068 42.3035L179.588 42.4229C179.889 42.4925 180.113 42.5997 180.261 42.7446C180.409 42.8895 180.483 43.0777 180.483 43.3092C180.483 43.5052 180.426 43.68 180.312 43.8334C180.2 43.9854 180.043 44.1047 179.841 44.1913C179.641 44.278 179.409 44.3213 179.145 44.3213C178.778 44.3213 178.479 44.2432 178.248 44.0869C178.016 43.9293 177.874 43.7055 177.821 43.4158L178.437 43.322C178.476 43.4825 178.554 43.604 178.674 43.6864C178.793 43.7673 178.949 43.8078 179.14 43.8078C179.349 43.8078 179.516 43.7645 179.641 43.6778C179.766 43.5898 179.829 43.4825 179.829 43.3561C179.829 43.2538 179.79 43.1679 179.714 43.0983C179.638 43.0287 179.522 42.9761 179.366 42.9406L178.812 42.8192C178.507 42.7496 178.281 42.6388 178.135 42.4868C177.99 42.3348 177.917 42.1423 177.917 41.9094C177.917 41.7162 177.971 41.5472 178.079 41.4023C178.187 41.2574 178.336 41.1445 178.527 41.0635C178.717 40.9811 178.935 40.9399 179.181 40.9399C179.535 40.9399 179.813 41.0166 180.016 41.17C180.219 41.322 180.353 41.5258 180.419 41.7815ZM183.256 42.898V40.9825H183.896V44.2552H183.269V43.6885H183.235C183.16 43.8632 183.039 44.0088 182.873 44.1253C182.708 44.2403 182.503 44.2979 182.257 44.2979C182.047 44.2979 181.861 44.2517 181.699 44.1594C181.538 44.0656 181.412 43.9271 181.32 43.7439C181.229 43.5606 181.183 43.3341 181.183 43.0642V40.9825H181.82V42.9875C181.82 43.2105 181.882 43.3881 182.006 43.5202C182.129 43.6523 182.29 43.7183 182.487 43.7183C182.606 43.7183 182.725 43.6885 182.843 43.6288C182.962 43.5692 183.061 43.479 183.139 43.3582C183.219 43.2375 183.258 43.0841 183.256 42.898ZM185.704 44.3277C185.497 44.3277 185.309 44.2893 185.141 44.2126C184.974 44.1345 184.841 44.0216 184.743 43.8739C184.646 43.7261 184.598 43.545 184.598 43.3305C184.598 43.1459 184.634 42.9939 184.705 42.8746C184.776 42.7552 184.872 42.6608 184.992 42.5912C185.113 42.5216 185.248 42.469 185.397 42.4335C185.546 42.398 185.698 42.371 185.853 42.3526C186.049 42.3298 186.208 42.3114 186.33 42.2972C186.453 42.2815 186.541 42.2567 186.597 42.2226C186.652 42.1885 186.68 42.1331 186.68 42.0564V42.0415C186.68 41.8554 186.627 41.7112 186.522 41.6089C186.418 41.5067 186.264 41.4555 186.058 41.4555C185.843 41.4555 185.674 41.5031 185.551 41.5983C185.428 41.692 185.344 41.7964 185.297 41.9115L184.698 41.7751C184.769 41.5763 184.873 41.4158 185.009 41.2936C185.147 41.17 185.305 41.0805 185.484 41.0251C185.663 40.9683 185.852 40.9399 186.049 40.9399C186.18 40.9399 186.318 40.9555 186.465 40.9868C186.612 41.0166 186.75 41.072 186.878 41.153C187.007 41.2339 187.113 41.3497 187.195 41.5003C187.278 41.6494 187.319 41.8433 187.319 42.082V44.2552H186.697V43.8078H186.671C186.63 43.8902 186.568 43.9712 186.486 44.0507C186.403 44.1302 186.298 44.1963 186.168 44.2489C186.039 44.3014 185.884 44.3277 185.704 44.3277ZM185.842 43.8163C186.019 43.8163 186.169 43.7815 186.294 43.7119C186.421 43.6423 186.516 43.5514 186.582 43.4392C186.649 43.3256 186.682 43.2041 186.682 43.0749V42.653C186.659 42.6757 186.615 42.697 186.55 42.7169C186.486 42.7354 186.413 42.7517 186.33 42.7659C186.248 42.7787 186.168 42.7908 186.09 42.8021C186.011 42.8121 185.946 42.8206 185.894 42.8277C185.77 42.8433 185.657 42.8696 185.555 42.9065C185.454 42.9435 185.373 42.9967 185.312 43.0663C185.252 43.1345 185.222 43.2254 185.222 43.3391C185.222 43.4967 185.281 43.616 185.397 43.697C185.514 43.7766 185.662 43.8163 185.842 43.8163ZM188.805 39.8916V44.2552H188.168V39.8916H188.805ZM174.702 48.0379C174.679 47.8362 174.586 47.68 174.421 47.5692C174.256 47.457 174.049 47.4008 173.799 47.4008C173.62 47.4008 173.465 47.4293 173.334 47.4861C173.204 47.5415 173.102 47.6182 173.03 47.7162C172.959 47.8128 172.923 47.9229 172.923 48.0464C172.923 48.1501 172.947 48.2396 172.995 48.3149C173.045 48.3902 173.11 48.4534 173.189 48.5045C173.27 48.5543 173.357 48.5962 173.449 48.6302C173.542 48.6629 173.63 48.6899 173.716 48.7112L174.142 48.822C174.281 48.8561 174.424 48.9023 174.57 48.9605C174.716 49.0187 174.852 49.0954 174.977 49.1906C175.102 49.2858 175.203 49.4037 175.28 49.5443C175.358 49.6849 175.397 49.8533 175.397 50.0493C175.397 50.2964 175.333 50.5159 175.205 50.7077C175.079 50.8994 174.895 51.0507 174.653 51.1615C174.413 51.2723 174.123 51.3277 173.782 51.3277C173.455 51.3277 173.172 51.2758 172.934 51.1722C172.695 51.0685 172.508 50.9214 172.373 50.7311C172.238 50.5393 172.164 50.3121 172.15 50.0493H172.81C172.823 50.207 172.874 50.3383 172.964 50.4435C173.054 50.5472 173.17 50.6246 173.311 50.6757C173.453 50.7254 173.608 50.7503 173.777 50.7503C173.964 50.7503 174.129 50.7212 174.274 50.6629C174.42 50.6033 174.535 50.5209 174.619 50.4158C174.703 50.3092 174.745 50.1849 174.745 50.0429C174.745 49.9136 174.708 49.8078 174.634 49.7254C174.562 49.643 174.463 49.5749 174.338 49.5209C174.214 49.4669 174.074 49.4193 173.918 49.3781L173.402 49.2375C173.053 49.1423 172.776 49.0024 172.571 48.8177C172.368 48.6331 172.267 48.3888 172.267 48.0848C172.267 47.8334 172.335 47.6139 172.471 47.4264C172.608 47.2389 172.792 47.0933 173.025 46.9896C173.258 46.8845 173.521 46.832 173.814 46.832C174.109 46.832 174.37 46.8838 174.596 46.9875C174.823 47.0912 175.002 47.2339 175.133 47.4158C175.263 47.5962 175.331 47.8035 175.337 48.0379H174.702ZM177.66 47.9825V48.4939H175.872V47.9825H177.66ZM176.352 47.1984H176.989V50.2943C176.989 50.4179 177.007 50.5109 177.044 50.5734C177.081 50.6345 177.129 50.6764 177.187 50.6991C177.247 50.7204 177.311 50.7311 177.381 50.7311C177.432 50.7311 177.477 50.7276 177.515 50.7204C177.554 50.7133 177.583 50.7077 177.605 50.7034L177.72 51.2297C177.683 51.2439 177.63 51.2581 177.562 51.2723C177.494 51.2879 177.409 51.2964 177.306 51.2979C177.139 51.3007 176.983 51.2709 176.838 51.2084C176.693 51.1459 176.576 51.0493 176.486 50.9186C176.397 50.7879 176.352 50.6239 176.352 50.4264V47.1984ZM178.767 52.4825C178.672 52.4825 178.586 52.4747 178.508 52.4591C178.429 52.4449 178.371 52.4293 178.333 52.4122L178.486 51.8902C178.603 51.9214 178.706 51.9349 178.797 51.9307C178.888 51.9264 178.968 51.8923 179.038 51.8284C179.109 51.7645 179.172 51.6601 179.226 51.5152L179.304 51.2979L178.107 47.9825H178.789L179.618 50.5223H179.652L180.481 47.9825H181.165L179.816 51.692C179.753 51.8625 179.674 52.0067 179.577 52.1246C179.481 52.2439 179.366 52.3334 179.232 52.393C179.098 52.4527 178.944 52.4825 178.767 52.4825ZM182.4 46.8916V51.2552H181.763V46.8916H182.4ZM184.668 51.3213C184.345 51.3213 184.068 51.2524 183.835 51.1146C183.603 50.9754 183.424 50.7801 183.298 50.5287C183.173 50.2758 183.11 49.9797 183.11 49.6402C183.11 49.305 183.173 49.0095 183.298 48.7538C183.424 48.4981 183.6 48.2986 183.826 48.1551C184.054 48.0116 184.319 47.9399 184.623 47.9399C184.808 47.9399 184.987 47.9704 185.16 48.0315C185.333 48.0926 185.489 48.1885 185.627 48.3192C185.764 48.4499 185.873 48.6196 185.953 48.8284C186.032 49.0358 186.072 49.2879 186.072 49.5848V49.8106H183.47V49.3334H185.448C185.448 49.1658 185.414 49.0173 185.345 48.8881C185.277 48.7574 185.181 48.6544 185.058 48.5791C184.936 48.5038 184.792 48.4662 184.627 48.4662C184.448 48.4662 184.292 48.5102 184.159 48.5983C184.027 48.6849 183.924 48.7986 183.852 48.9392C183.781 49.0784 183.745 49.2297 183.745 49.393V49.7659C183.745 49.9847 183.784 50.1707 183.86 50.3241C183.938 50.4776 184.047 50.5947 184.186 50.6757C184.326 50.7552 184.488 50.795 184.674 50.795C184.795 50.795 184.905 50.778 185.005 50.7439C185.104 50.7084 185.19 50.6558 185.262 50.5862C185.335 50.5166 185.39 50.4307 185.429 50.3284L186.032 50.4371C185.983 50.6146 185.897 50.7702 185.772 50.9037C185.648 51.0358 185.492 51.1388 185.305 51.2126C185.119 51.2851 184.907 51.3213 184.668 51.3213Z" fill="#00264B" fill-opacity="0.5"/>
<path d="M27.3212 45.2552V40.8916H28.8766C29.2161 40.8916 29.4973 40.9534 29.7203 41.077C29.9434 41.2006 30.1103 41.3696 30.2211 41.5841C30.3319 41.7972 30.3873 42.0372 30.3873 42.3043C30.3873 42.5727 30.3311 42.8142 30.2189 43.0287C30.1081 43.2418 29.9405 43.4108 29.7161 43.5358C29.4931 43.6594 29.2125 43.7212 28.8745 43.7212H27.8049V43.1629H28.8148C29.0293 43.1629 29.2033 43.126 29.3368 43.0521C29.4703 42.9768 29.5684 42.8746 29.6309 42.7453C29.6934 42.616 29.7246 42.469 29.7246 42.3043C29.7246 42.1395 29.6934 41.9932 29.6309 41.8653C29.5684 41.7375 29.4696 41.6374 29.3347 41.5649C29.2012 41.4925 29.025 41.4562 28.8063 41.4562H27.9796V45.2552H27.3212ZM33.1811 43.898V41.9825H33.8203V45.2552H33.1939V44.6885H33.1598C33.0845 44.8632 32.9638 45.0088 32.7976 45.1253C32.6328 45.2403 32.4276 45.2979 32.1818 45.2979C31.9716 45.2979 31.7855 45.2517 31.6236 45.1594C31.4631 45.0656 31.3366 44.9271 31.2443 44.7439C31.1534 44.5606 31.108 44.3341 31.108 44.0642V41.9825H31.745V43.9875C31.745 44.2105 31.8068 44.3881 31.9304 44.5202C32.054 44.6523 32.2145 44.7183 32.4119 44.7183C32.5313 44.7183 32.6499 44.6885 32.7678 44.6288C32.8871 44.5692 32.9858 44.479 33.0639 44.3582C33.1435 44.2375 33.1825 44.0841 33.1811 43.898ZM34.7275 45.2552V40.8916H35.3645V42.5131H35.4029C35.4398 42.4449 35.4931 42.366 35.5627 42.2766C35.6323 42.1871 35.7289 42.1089 35.8525 42.0422C35.976 41.974 36.1394 41.9399 36.3425 41.9399C36.6067 41.9399 36.8425 42.0067 37.0499 42.1402C37.2573 42.2737 37.4199 42.4662 37.5378 42.7176C37.6571 42.969 37.7168 43.2716 37.7168 43.6253C37.7168 43.979 37.6578 44.2822 37.54 44.5351C37.4221 44.7865 37.2601 44.9804 37.0542 45.1168C36.8482 45.2517 36.6131 45.3192 36.3489 45.3192C36.15 45.3192 35.9874 45.2858 35.861 45.219C35.736 45.1523 35.638 45.0741 35.5669 44.9847C35.4959 44.8952 35.4412 44.8156 35.4029 44.746H35.3496V45.2552H34.7275ZM35.3517 43.6189C35.3517 43.849 35.3851 44.0507 35.4519 44.224C35.5186 44.3973 35.6152 44.5329 35.7417 44.631C35.8681 44.7276 36.0229 44.7758 36.2061 44.7758C36.3965 44.7758 36.5556 44.7254 36.6834 44.6246C36.8113 44.5223 36.9078 44.3838 36.9732 44.2091C37.04 44.0344 37.0733 43.8376 37.0733 43.6189C37.0733 43.403 37.0407 43.2091 36.9753 43.0372C36.9114 42.8653 36.8148 42.7297 36.6855 42.6302C36.5577 42.5308 36.3979 42.4811 36.2061 42.4811C36.0215 42.4811 35.8652 42.5287 35.7374 42.6239C35.611 42.719 35.5151 42.8518 35.4498 43.0223C35.3844 43.1927 35.3517 43.3916 35.3517 43.6189ZM39.0692 40.8916V45.2552H38.4322V40.8916H39.0692ZM39.9263 45.2552V41.9825H40.5634V45.2552H39.9263ZM40.248 41.4776C40.1373 41.4776 40.0421 41.4406 39.9625 41.3668C39.8844 41.2915 39.8453 41.202 39.8453 41.0983C39.8453 40.9932 39.8844 40.9037 39.9625 40.8298C40.0421 40.7545 40.1373 40.7169 40.248 40.7169C40.3588 40.7169 40.4533 40.7545 40.5314 40.8298C40.611 40.9037 40.6507 40.9932 40.6507 41.0983C40.6507 41.202 40.611 41.2915 40.5314 41.3668C40.4533 41.4406 40.3588 41.4776 40.248 41.4776ZM42.799 45.3213C42.4822 45.3213 42.2095 45.2496 41.9808 45.1061C41.7536 44.9612 41.5788 44.7616 41.4567 44.5074C41.3345 44.2531 41.2734 43.9619 41.2734 43.6338C41.2734 43.3014 41.3359 43.0081 41.4609 42.7538C41.5859 42.4981 41.7621 42.2986 41.9893 42.1551C42.2166 42.0116 42.4844 41.9399 42.7926 41.9399C43.0412 41.9399 43.2628 41.9861 43.4574 42.0784C43.652 42.1693 43.8089 42.2972 43.9283 42.4619C44.049 42.6267 44.1207 42.8192 44.1435 43.0393H43.5234C43.4893 42.8859 43.4112 42.7538 43.2891 42.643C43.1683 42.5322 43.0064 42.4768 42.8033 42.4768C42.6257 42.4768 42.4702 42.5237 42.3366 42.6175C42.2045 42.7098 42.1016 42.8419 42.0277 43.0138C41.9538 43.1842 41.9169 43.3859 41.9169 43.6189C41.9169 43.8575 41.9531 44.0635 42.0256 44.2368C42.098 44.4101 42.2003 44.5443 42.3324 44.6395C42.4659 44.7347 42.6229 44.7822 42.8033 44.7822C42.924 44.7822 43.0334 44.7602 43.1314 44.7162C43.2308 44.6707 43.3139 44.6061 43.3807 44.5223C43.4489 44.4385 43.4964 44.3376 43.5234 44.2197H44.1435C44.1207 44.4314 44.0518 44.6203 43.9368 44.7865C43.8217 44.9527 43.6676 45.0834 43.4744 45.1785C43.2827 45.2737 43.0575 45.3213 42.799 45.3213ZM27.3212 52.2552V47.8916H28.8766C29.2147 47.8916 29.4952 47.9499 29.7182 48.0663C29.9426 48.1828 30.1103 48.344 30.2211 48.55C30.3319 48.7545 30.3873 48.991 30.3873 49.2595C30.3873 49.5266 30.3311 49.7616 30.2189 49.9648C30.1081 50.1665 29.9405 50.3234 29.7161 50.4356C29.4931 50.5479 29.2125 50.604 28.8745 50.604H27.6962V50.0372H28.8148C29.0279 50.0372 29.2012 50.0067 29.3347 49.9456C29.4696 49.8845 29.5684 49.7957 29.6309 49.6793C29.6934 49.5628 29.7246 49.4229 29.7246 49.2595C29.7246 49.0947 29.6926 48.952 29.6287 48.8312C29.5662 48.7105 29.4675 48.6182 29.3326 48.5543C29.199 48.4889 29.0236 48.4562 28.8063 48.4562H27.9796V52.2552H27.3212ZM29.4753 50.2865L30.5534 52.2552H29.8034L28.7466 50.2865H29.4753ZM32.5067 52.3213C32.1843 52.3213 31.9066 52.2524 31.6737 52.1146C31.4421 51.9754 31.2631 51.7801 31.1367 51.5287C31.0117 51.2758 30.9492 50.9797 30.9492 50.6402C30.9492 50.305 31.0117 50.0095 31.1367 49.7538C31.2631 49.4981 31.4393 49.2986 31.6651 49.1551C31.8924 49.0116 32.158 48.9399 32.462 48.9399C32.6467 48.9399 32.8256 48.9704 32.9989 49.0315C33.1722 49.0926 33.3278 49.1885 33.4656 49.3192C33.6033 49.4499 33.712 49.6196 33.7915 49.8284C33.8711 50.0358 33.9109 50.2879 33.9109 50.5848V50.8106H31.3093V50.3334H33.2866C33.2866 50.1658 33.2525 50.0173 33.1843 49.8881C33.1161 49.7574 33.0202 49.6544 32.8967 49.5791C32.7745 49.5038 32.631 49.4662 32.4663 49.4662C32.2873 49.4662 32.131 49.5102 31.9975 49.5983C31.8654 49.6849 31.7631 49.7986 31.6907 49.9392C31.6197 50.0784 31.5842 50.2297 31.5842 50.393V50.7659C31.5842 50.9847 31.6225 51.1707 31.6992 51.3241C31.7773 51.4776 31.886 51.5947 32.0252 51.6757C32.1644 51.7552 32.3271 51.795 32.5131 51.795C32.6339 51.795 32.744 51.778 32.8434 51.7439C32.9428 51.7084 33.0288 51.6558 33.1012 51.5862C33.1737 51.5166 33.229 51.4307 33.2674 51.3284L33.8704 51.4371C33.8221 51.6146 33.7354 51.7702 33.6104 51.9037C33.4869 52.0358 33.3313 52.1388 33.1438 52.2126C32.9577 52.2851 32.7454 52.3213 32.5067 52.3213ZM35.2548 47.8916V52.2552H34.6177V47.8916H35.2548ZM37.0643 52.3277C36.8569 52.3277 36.6694 52.2893 36.5018 52.2126C36.3342 52.1345 36.2013 52.0216 36.1033 51.8739C36.0067 51.7261 35.9585 51.545 35.9585 51.3305C35.9585 51.1459 35.994 50.9939 36.065 50.8746C36.136 50.7552 36.2319 50.6608 36.3526 50.5912C36.4734 50.5216 36.6083 50.469 36.7575 50.4335C36.9066 50.398 37.0586 50.371 37.2134 50.3526C37.4094 50.3298 37.5685 50.3114 37.6907 50.2972C37.8129 50.2815 37.9016 50.2567 37.957 50.2226C38.0124 50.1885 38.0401 50.1331 38.0401 50.0564V50.0415C38.0401 49.8554 37.9876 49.7112 37.8825 49.6089C37.7788 49.5067 37.6239 49.4555 37.418 49.4555C37.2035 49.4555 37.0344 49.5031 36.9109 49.5983C36.7887 49.692 36.7042 49.7964 36.6573 49.9115L36.0586 49.7751C36.1296 49.5763 36.2333 49.4158 36.3697 49.2936C36.5075 49.17 36.6658 49.0805 36.8448 49.0251C37.0238 48.9683 37.212 48.9399 37.4094 48.9399C37.5401 48.9399 37.6786 48.9555 37.8249 48.9868C37.9727 49.0166 38.1104 49.072 38.2383 49.153C38.3675 49.2339 38.4734 49.3497 38.5558 49.5003C38.6381 49.6494 38.6793 49.8433 38.6793 50.082V52.2552H38.0572V51.8078H38.0316C37.9904 51.8902 37.9286 51.9712 37.8462 52.0507C37.7638 52.1302 37.658 52.1963 37.5288 52.2489C37.3995 52.3014 37.2447 52.3277 37.0643 52.3277ZM37.2028 51.8163C37.3789 51.8163 37.5295 51.7815 37.6545 51.7119C37.7809 51.6423 37.8768 51.5514 37.9421 51.4392C38.0089 51.3256 38.0423 51.2041 38.0423 51.0749V50.653C38.0195 50.6757 37.9755 50.697 37.9102 50.7169C37.8462 50.7354 37.7731 50.7517 37.6907 50.7659C37.6083 50.7787 37.5281 50.7908 37.4499 50.8021C37.3718 50.8121 37.3065 50.8206 37.2539 50.8277C37.1303 50.8433 37.0174 50.8696 36.9151 50.9065C36.8143 50.9435 36.7333 50.9967 36.6722 51.0663C36.6126 51.1345 36.5827 51.2254 36.5827 51.3391C36.5827 51.4967 36.641 51.616 36.7575 51.697C36.8739 51.7766 37.0224 51.8163 37.2028 51.8163ZM41.0556 48.9825V49.4939H39.2679V48.9825H41.0556ZM39.7473 48.1984H40.3844V51.2943C40.3844 51.4179 40.4029 51.5109 40.4398 51.5734C40.4767 51.6345 40.5243 51.6764 40.5826 51.6991C40.6422 51.7204 40.7069 51.7311 40.7765 51.7311C40.8276 51.7311 40.8723 51.7276 40.9107 51.7204C40.949 51.7133 40.9789 51.7077 41.0002 51.7034L41.1152 52.2297C41.0783 52.2439 41.0257 52.2581 40.9576 52.2723C40.8894 52.2879 40.8042 52.2964 40.7019 52.2979C40.5343 52.3007 40.378 52.2709 40.2331 52.2084C40.0882 52.1459 39.9711 52.0493 39.8816 51.9186C39.7921 51.7879 39.7473 51.6239 39.7473 51.4264V48.1984ZM41.7603 52.2552V48.9825H42.3974V52.2552H41.7603ZM42.082 48.4776C41.9712 48.4776 41.8761 48.4406 41.7965 48.3668C41.7184 48.2915 41.6793 48.202 41.6793 48.0983C41.6793 47.9932 41.7184 47.9037 41.7965 47.8298C41.8761 47.7545 41.9712 47.7169 42.082 47.7169C42.1928 47.7169 42.2873 47.7545 42.3654 47.8298C42.445 47.9037 42.4847 47.9932 42.4847 48.0983C42.4847 48.202 42.445 48.2915 42.3654 48.3668C42.2873 48.4406 42.1928 48.4776 42.082 48.4776ZM44.633 52.3213C44.3262 52.3213 44.0584 52.251 43.8297 52.1104C43.601 51.9697 43.4235 51.773 43.2971 51.5202C43.1706 51.2673 43.1074 50.9719 43.1074 50.6338C43.1074 50.2943 43.1706 49.9974 43.2971 49.7432C43.4235 49.4889 43.601 49.2915 43.8297 49.1508C44.0584 49.0102 44.3262 48.9399 44.633 48.9399C44.9398 48.9399 45.2076 49.0102 45.4363 49.1508C45.665 49.2915 45.8425 49.4889 45.9689 49.7432C46.0953 49.9974 46.1586 50.2943 46.1586 50.6338C46.1586 50.9719 46.0953 51.2673 45.9689 51.5202C45.8425 51.773 45.665 51.9697 45.4363 52.1104C45.2076 52.251 44.9398 52.3213 44.633 52.3213ZM44.6351 51.7865C44.834 51.7865 44.9988 51.7339 45.1294 51.6288C45.2601 51.5237 45.3567 51.3838 45.4192 51.2091C45.4831 51.0344 45.5151 50.8419 45.5151 50.6317C45.5151 50.4229 45.4831 50.2311 45.4192 50.0564C45.3567 49.8802 45.2601 49.7389 45.1294 49.6324C44.9988 49.5258 44.834 49.4726 44.6351 49.4726C44.4348 49.4726 44.2686 49.5258 44.1365 49.6324C44.0059 49.7389 43.9086 49.8802 43.8446 50.0564C43.7821 50.2311 43.7509 50.4229 43.7509 50.6317C43.7509 50.8419 43.7821 51.0344 43.8446 51.2091C43.9086 51.3838 44.0059 51.5237 44.1365 51.6288C44.2686 51.7339 44.4348 51.7865 44.6351 51.7865ZM47.5067 50.3121V52.2552H46.8697V48.9825H47.4812V49.5152H47.5217C47.5969 49.3419 47.7148 49.2027 47.8754 49.0976C48.0373 48.9925 48.2411 48.9399 48.4869 48.9399C48.7099 48.9399 48.9052 48.9868 49.0728 49.0805C49.2404 49.1729 49.3704 49.3106 49.4627 49.4939C49.555 49.6771 49.6012 49.9037 49.6012 50.1736V52.2552H48.9641V50.2503C48.9641 50.0131 48.9023 49.8277 48.7788 49.6942C48.6552 49.5592 48.4854 49.4918 48.2695 49.4918C48.1218 49.4918 47.9904 49.5237 47.8754 49.5876C47.7617 49.6516 47.6715 49.7453 47.6048 49.8689C47.5394 49.991 47.5067 50.1388 47.5067 50.3121Z" fill="#00264B" fill-opacity="0.5"/>
<path d="M171.946 124.311H171.282C171.256 124.169 171.209 124.044 171.139 123.936C171.069 123.828 170.984 123.736 170.883 123.661C170.782 123.586 170.669 123.529 170.544 123.49C170.421 123.452 170.29 123.433 170.15 123.433C169.899 123.433 169.674 123.496 169.475 123.622C169.277 123.749 169.121 123.934 169.006 124.179C168.892 124.423 168.836 124.721 168.836 125.073C168.836 125.429 168.892 125.728 169.006 125.973C169.121 126.217 169.278 126.402 169.477 126.527C169.676 126.652 169.9 126.714 170.148 126.714C170.286 126.714 170.417 126.696 170.54 126.659C170.665 126.62 170.778 126.564 170.879 126.49C170.98 126.416 171.065 126.326 171.135 126.22C171.206 126.112 171.255 125.988 171.282 125.849L171.946 125.851C171.911 126.066 171.842 126.263 171.74 126.443C171.639 126.622 171.509 126.777 171.35 126.908C171.192 127.037 171.012 127.137 170.809 127.208C170.606 127.279 170.384 127.315 170.144 127.315C169.766 127.315 169.429 127.225 169.134 127.046C168.839 126.866 168.606 126.608 168.435 126.273C168.266 125.938 168.182 125.538 168.182 125.073C168.182 124.608 168.267 124.208 168.437 123.874C168.608 123.539 168.841 123.282 169.136 123.103C169.432 122.922 169.767 122.832 170.144 122.832C170.375 122.832 170.591 122.865 170.792 122.932C170.993 122.997 171.174 123.094 171.335 123.222C171.495 123.348 171.628 123.503 171.733 123.686C171.839 123.868 171.91 124.076 171.946 124.311ZM174.062 127.321C173.755 127.321 173.487 127.251 173.258 127.11C173.03 126.97 172.852 126.773 172.726 126.52C172.599 126.267 172.536 125.972 172.536 125.634C172.536 125.294 172.599 124.997 172.726 124.743C172.852 124.489 173.03 124.291 173.258 124.151C173.487 124.01 173.755 123.94 174.062 123.94C174.369 123.94 174.636 124.01 174.865 124.151C175.094 124.291 175.271 124.489 175.398 124.743C175.524 124.997 175.587 125.294 175.587 125.634C175.587 125.972 175.524 126.267 175.398 126.52C175.271 126.773 175.094 126.97 174.865 127.11C174.636 127.251 174.369 127.321 174.062 127.321ZM174.064 126.786C174.263 126.786 174.427 126.734 174.558 126.629C174.689 126.524 174.785 126.384 174.848 126.209C174.912 126.034 174.944 125.842 174.944 125.632C174.944 125.423 174.912 125.231 174.848 125.056C174.785 124.88 174.689 124.739 174.558 124.632C174.427 124.526 174.263 124.473 174.064 124.473C173.864 124.473 173.697 124.526 173.565 124.632C173.435 124.739 173.337 124.88 173.273 125.056C173.211 125.231 173.18 125.423 173.18 125.632C173.18 125.842 173.211 126.034 173.273 126.209C173.337 126.384 173.435 126.524 173.565 126.629C173.697 126.734 173.864 126.786 174.064 126.786ZM176.935 125.312V127.255H176.298V123.983H176.91V124.515H176.95C177.026 124.342 177.144 124.203 177.304 124.098C177.466 123.992 177.67 123.94 177.916 123.94C178.139 123.94 178.334 123.987 178.502 124.081C178.669 124.173 178.799 124.311 178.891 124.494C178.984 124.677 179.03 124.904 179.03 125.174V127.255H178.393V125.25C178.393 125.013 178.331 124.828 178.207 124.694C178.084 124.559 177.914 124.492 177.698 124.492C177.551 124.492 177.419 124.524 177.304 124.588C177.19 124.652 177.1 124.745 177.033 124.869C176.968 124.991 176.935 125.139 176.935 125.312ZM181.412 123.983V124.494H179.624V123.983H181.412ZM180.104 123.198H180.741V126.294C180.741 126.418 180.759 126.511 180.796 126.573C180.833 126.635 180.881 126.676 180.939 126.699C180.999 126.72 181.063 126.731 181.133 126.731C181.184 126.731 181.229 126.728 181.267 126.72C181.305 126.713 181.335 126.708 181.357 126.703L181.472 127.23C181.435 127.244 181.382 127.258 181.314 127.272C181.246 127.288 181.161 127.296 181.058 127.298C180.891 127.301 180.734 127.271 180.59 127.208C180.445 127.146 180.328 127.049 180.238 126.919C180.149 126.788 180.104 126.624 180.104 126.426V123.198ZM183.492 127.321C183.17 127.321 182.892 127.252 182.659 127.115C182.427 126.975 182.248 126.78 182.122 126.529C181.997 126.276 181.935 125.98 181.935 125.64C181.935 125.305 181.997 125.01 182.122 124.754C182.248 124.498 182.425 124.299 182.65 124.155C182.878 124.012 183.143 123.94 183.447 123.94C183.632 123.94 183.811 123.97 183.984 124.032C184.158 124.093 184.313 124.188 184.451 124.319C184.589 124.45 184.697 124.62 184.777 124.828C184.856 125.036 184.896 125.288 184.896 125.585V125.811H182.295V125.333H184.272C184.272 125.166 184.238 125.017 184.17 124.888C184.101 124.757 184.006 124.654 183.882 124.579C183.76 124.504 183.616 124.466 183.452 124.466C183.273 124.466 183.116 124.51 182.983 124.598C182.851 124.685 182.748 124.799 182.676 124.939C182.605 125.078 182.57 125.23 182.57 125.393V125.766C182.57 125.985 182.608 126.171 182.685 126.324C182.763 126.478 182.871 126.595 183.011 126.676C183.15 126.755 183.312 126.795 183.498 126.795C183.619 126.795 183.729 126.778 183.829 126.744C183.928 126.708 184.014 126.656 184.087 126.586C184.159 126.517 184.214 126.431 184.253 126.328L184.856 126.437C184.807 126.615 184.721 126.77 184.596 126.904C184.472 127.036 184.317 127.139 184.129 127.213C183.943 127.285 183.731 127.321 183.492 127.321ZM186.24 125.312V127.255H185.603V123.983H186.215V124.515H186.255C186.33 124.342 186.448 124.203 186.609 124.098C186.771 123.992 186.975 123.94 187.22 123.94C187.443 123.94 187.639 123.987 187.806 124.081C187.974 124.173 188.104 124.311 188.196 124.494C188.288 124.677 188.335 124.904 188.335 125.174V127.255H187.698V125.25C187.698 125.013 187.636 124.828 187.512 124.694C187.389 124.559 187.219 124.492 187.003 124.492C186.855 124.492 186.724 124.524 186.609 124.588C186.495 124.652 186.405 124.745 186.338 124.869C186.273 124.991 186.24 125.139 186.24 125.312ZM190.717 123.983V124.494H188.929V123.983H190.717ZM189.408 123.198H190.046V126.294C190.046 126.418 190.064 126.511 190.101 126.573C190.138 126.635 190.185 126.676 190.244 126.699C190.303 126.72 190.368 126.731 190.438 126.731C190.489 126.731 190.533 126.728 190.572 126.72C190.61 126.713 190.64 126.708 190.661 126.703L190.776 127.23C190.739 127.244 190.687 127.258 190.619 127.272C190.551 127.288 190.465 127.296 190.363 127.298C190.195 127.301 190.039 127.271 189.894 127.208C189.749 127.146 189.632 127.049 189.543 126.919C189.453 126.788 189.408 126.624 189.408 126.426V123.198ZM168.322 129.892H169.121L170.51 133.284H170.562L171.951 129.892H172.75V134.255H172.123V131.098H172.083L170.796 134.249H170.276L168.989 131.095H168.949V134.255H168.322V129.892ZM174.608 134.328C174.401 134.328 174.213 134.289 174.046 134.213C173.878 134.135 173.745 134.022 173.647 133.874C173.551 133.726 173.502 133.545 173.502 133.331C173.502 133.146 173.538 132.994 173.609 132.875C173.68 132.755 173.776 132.661 173.897 132.591C174.017 132.522 174.152 132.469 174.301 132.434C174.451 132.398 174.603 132.371 174.757 132.353C174.953 132.33 175.112 132.311 175.235 132.297C175.357 132.282 175.446 132.257 175.501 132.223C175.556 132.188 175.584 132.133 175.584 132.056V132.041C175.584 131.855 175.532 131.711 175.426 131.609C175.323 131.507 175.168 131.456 174.962 131.456C174.747 131.456 174.578 131.503 174.455 131.598C174.333 131.692 174.248 131.796 174.201 131.911L173.603 131.775C173.674 131.576 173.777 131.416 173.914 131.294C174.051 131.17 174.21 131.081 174.389 131.025C174.568 130.968 174.756 130.94 174.953 130.94C175.084 130.94 175.223 130.956 175.369 130.987C175.517 131.017 175.654 131.072 175.782 131.153C175.911 131.234 176.017 131.35 176.1 131.5C176.182 131.649 176.223 131.843 176.223 132.082V134.255H175.601V133.808H175.576C175.534 133.89 175.473 133.971 175.39 134.051C175.308 134.13 175.202 134.196 175.073 134.249C174.943 134.301 174.789 134.328 174.608 134.328ZM174.747 133.816C174.923 133.816 175.073 133.782 175.198 133.712C175.325 133.642 175.421 133.551 175.486 133.439C175.553 133.326 175.586 133.204 175.586 133.075V132.653C175.563 132.676 175.519 132.697 175.454 132.717C175.39 132.735 175.317 132.752 175.235 132.766C175.152 132.779 175.072 132.791 174.994 132.802C174.916 132.812 174.85 132.821 174.798 132.828C174.674 132.843 174.561 132.87 174.459 132.907C174.358 132.943 174.277 132.997 174.216 133.066C174.157 133.135 174.127 133.225 174.127 133.339C174.127 133.497 174.185 133.616 174.301 133.697C174.418 133.777 174.566 133.816 174.747 133.816ZM177.072 134.255V130.983H177.688V131.502H177.722C177.781 131.326 177.886 131.188 178.037 131.087C178.189 130.985 178.361 130.934 178.553 130.934C178.592 130.934 178.639 130.935 178.693 130.938C178.749 130.941 178.792 130.944 178.823 130.948V131.558C178.798 131.551 178.752 131.543 178.687 131.534C178.622 131.524 178.556 131.519 178.491 131.519C178.34 131.519 178.206 131.551 178.088 131.615C177.972 131.678 177.879 131.765 177.811 131.877C177.743 131.988 177.709 132.115 177.709 132.257V134.255H177.072ZM179.96 133.145L179.956 132.367H180.067L181.371 130.983H182.134L180.647 132.559H180.546L179.96 133.145ZM179.375 134.255V129.892H180.012V134.255H179.375ZM181.441 134.255L180.269 132.7L180.708 132.255L182.223 134.255H181.441ZM183.99 134.321C183.668 134.321 183.39 134.252 183.157 134.115C182.926 133.975 182.747 133.78 182.62 133.529C182.495 133.276 182.433 132.98 182.433 132.64C182.433 132.305 182.495 132.01 182.62 131.754C182.747 131.498 182.923 131.299 183.149 131.155C183.376 131.012 183.641 130.94 183.945 130.94C184.13 130.94 184.309 130.97 184.482 131.032C184.656 131.093 184.811 131.188 184.949 131.319C185.087 131.45 185.195 131.62 185.275 131.828C185.354 132.036 185.394 132.288 185.394 132.585V132.811H182.793V132.333H184.77C184.77 132.166 184.736 132.017 184.668 131.888C184.6 131.757 184.504 131.654 184.38 131.579C184.258 131.504 184.114 131.466 183.95 131.466C183.771 131.466 183.614 131.51 183.481 131.598C183.349 131.685 183.247 131.799 183.174 131.939C183.103 132.078 183.068 132.23 183.068 132.393V132.766C183.068 132.985 183.106 133.171 183.183 133.324C183.261 133.478 183.369 133.595 183.509 133.676C183.648 133.755 183.81 133.795 183.997 133.795C184.117 133.795 184.227 133.778 184.327 133.744C184.426 133.708 184.512 133.656 184.585 133.586C184.657 133.517 184.712 133.431 184.751 133.328L185.354 133.437C185.305 133.615 185.219 133.77 185.094 133.904C184.97 134.036 184.815 134.139 184.627 134.213C184.441 134.285 184.229 134.321 183.99 134.321ZM187.629 130.983V131.494H185.841V130.983H187.629ZM186.321 130.198H186.958V133.294C186.958 133.418 186.976 133.511 187.013 133.573C187.05 133.635 187.098 133.676 187.156 133.699C187.215 133.72 187.28 133.731 187.35 133.731C187.401 133.731 187.446 133.728 187.484 133.72C187.522 133.713 187.552 133.708 187.573 133.703L187.688 134.23C187.652 134.244 187.599 134.258 187.531 134.272C187.463 134.288 187.377 134.296 187.275 134.298C187.108 134.301 186.951 134.271 186.806 134.208C186.661 134.146 186.544 134.049 186.455 133.919C186.365 133.788 186.321 133.624 186.321 133.426V130.198ZM188.334 134.255V130.983H188.971V134.255H188.334ZM188.655 130.478C188.544 130.478 188.449 130.441 188.37 130.367C188.292 130.291 188.253 130.202 188.253 130.098C188.253 129.993 188.292 129.904 188.37 129.83C188.449 129.755 188.544 129.717 188.655 129.717C188.766 129.717 188.861 129.755 188.939 129.83C189.018 129.904 189.058 129.993 189.058 130.098C189.058 130.202 189.018 130.291 188.939 130.367C188.861 130.441 188.766 130.478 188.655 130.478ZM190.465 132.312V134.255H189.828V130.983H190.439V131.515H190.48C190.555 131.342 190.673 131.203 190.833 131.098C190.995 130.992 191.199 130.94 191.445 130.94C191.668 130.94 191.863 130.987 192.031 131.081C192.198 131.173 192.328 131.311 192.421 131.494C192.513 131.677 192.559 131.904 192.559 132.174V134.255H191.922V132.25C191.922 132.013 191.86 131.828 191.737 131.694C191.613 131.559 191.443 131.492 191.228 131.492C191.08 131.492 190.948 131.524 190.833 131.588C190.72 131.652 190.63 131.745 190.563 131.869C190.497 131.991 190.465 132.139 190.465 132.312ZM194.786 135.551C194.526 135.551 194.302 135.517 194.115 135.448C193.929 135.38 193.777 135.29 193.659 135.178C193.541 135.066 193.453 134.943 193.394 134.809L193.942 134.583C193.98 134.646 194.032 134.712 194.095 134.782C194.161 134.853 194.249 134.913 194.36 134.963C194.472 135.012 194.616 135.037 194.792 135.037C195.034 135.037 195.233 134.978 195.391 134.86C195.549 134.744 195.627 134.558 195.627 134.302V133.659H195.587C195.549 133.728 195.493 133.806 195.421 133.891C195.35 133.976 195.252 134.05 195.127 134.112C195.002 134.175 194.839 134.206 194.639 134.206C194.38 134.206 194.147 134.146 193.94 134.025C193.734 133.903 193.571 133.723 193.45 133.486C193.331 133.247 193.271 132.954 193.271 132.606C193.271 132.258 193.33 131.96 193.448 131.711C193.567 131.463 193.73 131.272 193.938 131.14C194.145 131.007 194.38 130.94 194.643 130.94C194.846 130.94 195.01 130.974 195.135 131.042C195.26 131.109 195.358 131.187 195.427 131.277C195.498 131.366 195.553 131.445 195.591 131.513H195.638V130.983H196.262V134.328C196.262 134.609 196.197 134.84 196.066 135.02C195.936 135.201 195.759 135.334 195.536 135.421C195.314 135.507 195.064 135.551 194.786 135.551ZM194.779 133.678C194.963 133.678 195.117 133.635 195.244 133.55C195.372 133.463 195.468 133.34 195.534 133.179C195.6 133.017 195.634 132.823 195.634 132.598C195.634 132.377 195.601 132.184 195.536 132.016C195.47 131.848 195.375 131.718 195.248 131.624C195.122 131.529 194.965 131.481 194.779 131.481C194.588 131.481 194.428 131.531 194.3 131.63C194.172 131.728 194.076 131.862 194.01 132.031C193.946 132.2 193.914 132.389 193.914 132.598C193.914 132.812 193.947 133 194.012 133.162C194.078 133.324 194.174 133.451 194.302 133.541C194.431 133.632 194.59 133.678 194.779 133.678Z" fill="#00264B" fill-opacity="0.5"/>
<path d="M26.9455 125.311H26.2807C26.2551 125.169 26.2076 125.044 26.138 124.936C26.0684 124.828 25.9831 124.736 25.8823 124.661C25.7814 124.586 25.6685 124.529 25.5435 124.49C25.4199 124.452 25.2885 124.433 25.1493 124.433C24.8979 124.433 24.6728 124.496 24.4739 124.622C24.2765 124.749 24.1202 124.934 24.0051 125.179C23.8915 125.423 23.8347 125.721 23.8347 126.073C23.8347 126.429 23.8915 126.728 24.0051 126.973C24.1202 127.217 24.2772 127.402 24.476 127.527C24.6749 127.652 24.8986 127.714 25.1472 127.714C25.285 127.714 25.4157 127.696 25.5392 127.659C25.6642 127.62 25.7772 127.564 25.878 127.49C25.9789 127.416 26.0641 127.326 26.1337 127.22C26.2047 127.112 26.2537 126.988 26.2807 126.849L26.9455 126.851C26.91 127.066 26.8411 127.263 26.7388 127.443C26.638 127.622 26.508 127.777 26.3489 127.908C26.1912 128.037 26.0108 128.137 25.8077 128.208C25.6046 128.279 25.383 128.315 25.1429 128.315C24.7651 128.315 24.4284 128.225 24.133 128.046C23.8375 127.866 23.6046 127.608 23.4341 127.273C23.2651 126.938 23.1806 126.538 23.1806 126.073C23.1806 125.608 23.2658 125.208 23.4363 124.874C23.6067 124.539 23.8397 124.282 24.1351 124.103C24.4306 123.922 24.7665 123.832 25.1429 123.832C25.3745 123.832 25.5904 123.865 25.7907 123.932C25.9924 123.997 26.1735 124.094 26.334 124.222C26.4945 124.348 26.6273 124.503 26.7324 124.686C26.8375 124.868 26.9086 125.076 26.9455 125.311ZM29.7553 126.898V124.983H30.3945V128.255H29.7681V127.688H29.734C29.6587 127.863 29.538 128.009 29.3718 128.125C29.207 128.24 29.0018 128.298 28.756 128.298C28.5458 128.298 28.3597 128.252 28.1978 128.159C28.0373 128.066 27.9109 127.927 27.8185 127.744C27.7276 127.561 27.6822 127.334 27.6822 127.064V124.983H28.3192V126.987C28.3192 127.211 28.381 127.388 28.5046 127.52C28.6282 127.652 28.7887 127.718 28.9862 127.718C29.1055 127.718 29.2241 127.688 29.342 127.629C29.4613 127.569 29.56 127.479 29.6381 127.358C29.7177 127.237 29.7567 127.084 29.7553 126.898ZM33.7029 125.782L33.1255 125.884C33.1014 125.81 33.063 125.74 33.0105 125.673C32.9593 125.606 32.8897 125.551 32.8017 125.509C32.7136 125.466 32.6035 125.445 32.4714 125.445C32.291 125.445 32.1404 125.485 32.0197 125.566C31.899 125.646 31.8386 125.749 31.8386 125.875C31.8386 125.985 31.8791 126.073 31.96 126.139C32.041 126.206 32.1717 126.261 32.3521 126.304L32.872 126.423C33.1731 126.492 33.3975 126.6 33.5453 126.745C33.693 126.889 33.7669 127.078 33.7669 127.309C33.7669 127.505 33.71 127.68 33.5964 127.833C33.4842 127.985 33.3272 128.105 33.1255 128.191C32.9252 128.278 32.693 128.321 32.4288 128.321C32.0623 128.321 31.7633 128.243 31.5318 128.087C31.3002 127.929 31.1582 127.706 31.1056 127.416L31.7214 127.322C31.7598 127.483 31.8386 127.604 31.9579 127.686C32.0772 127.767 32.2328 127.808 32.4245 127.808C32.6333 127.808 32.8002 127.764 32.9252 127.678C33.0502 127.59 33.1127 127.483 33.1127 127.356C33.1127 127.254 33.0744 127.168 32.9977 127.098C32.9224 127.029 32.8066 126.976 32.6504 126.941L32.0964 126.819C31.791 126.75 31.5652 126.639 31.4189 126.487C31.274 126.335 31.2015 126.142 31.2015 125.909C31.2015 125.716 31.2555 125.547 31.3635 125.402C31.4714 125.257 31.6206 125.144 31.8109 125.063C32.0012 124.981 32.2193 124.94 32.465 124.94C32.8187 124.94 33.0971 125.017 33.3002 125.17C33.5034 125.322 33.6376 125.526 33.7029 125.782ZM35.995 124.983V125.494H34.2074V124.983H35.995ZM34.6868 124.198H35.3239V127.294C35.3239 127.418 35.3423 127.511 35.3793 127.573C35.4162 127.635 35.4638 127.676 35.522 127.699C35.5817 127.72 35.6463 127.731 35.7159 127.731C35.767 127.731 35.8118 127.728 35.8501 127.72C35.8885 127.713 35.9183 127.708 35.9396 127.703L36.0547 128.23C36.0178 128.244 35.9652 128.258 35.897 128.272C35.8288 128.288 35.7436 128.296 35.6413 128.298C35.4737 128.301 35.3175 128.271 35.1726 128.208C35.0277 128.146 34.9105 128.049 34.821 127.919C34.7315 127.788 34.6868 127.624 34.6868 127.426V124.198ZM38.0431 128.321C37.7363 128.321 37.4686 128.251 37.2399 128.11C37.0112 127.97 36.8336 127.773 36.7072 127.52C36.5808 127.267 36.5176 126.972 36.5176 126.634C36.5176 126.294 36.5808 125.997 36.7072 125.743C36.8336 125.489 37.0112 125.291 37.2399 125.151C37.4686 125.01 37.7363 124.94 38.0431 124.94C38.35 124.94 38.6177 125.01 38.8464 125.151C39.0751 125.291 39.2527 125.489 39.3791 125.743C39.5055 125.997 39.5687 126.294 39.5687 126.634C39.5687 126.972 39.5055 127.267 39.3791 127.52C39.2527 127.773 39.0751 127.97 38.8464 128.11C38.6177 128.251 38.35 128.321 38.0431 128.321ZM38.0453 127.786C38.2441 127.786 38.4089 127.734 38.5396 127.629C38.6703 127.524 38.7669 127.384 38.8294 127.209C38.8933 127.034 38.9252 126.842 38.9252 126.632C38.9252 126.423 38.8933 126.231 38.8294 126.056C38.7669 125.88 38.6703 125.739 38.5396 125.632C38.4089 125.526 38.2441 125.473 38.0453 125.473C37.845 125.473 37.6788 125.526 37.5467 125.632C37.416 125.739 37.3187 125.88 37.2548 126.056C37.1923 126.231 37.161 126.423 37.161 126.632C37.161 126.842 37.1923 127.034 37.2548 127.209C37.3187 127.384 37.416 127.524 37.5467 127.629C37.6788 127.734 37.845 127.786 38.0453 127.786ZM40.2798 128.255V124.983H40.8913V125.515H40.9318C41 125.335 41.1115 125.194 41.2663 125.093C41.4212 124.991 41.6065 124.94 41.8224 124.94C42.0412 124.94 42.2244 124.991 42.3722 125.093C42.5213 125.196 42.6314 125.336 42.7024 125.515H42.7365C42.8146 125.34 42.9389 125.201 43.1094 125.098C43.2798 124.992 43.483 124.94 43.7188 124.94C44.0156 124.94 44.2578 125.033 44.4453 125.219C44.6342 125.405 44.7287 125.686 44.7287 126.061V128.255H44.0916V126.12C44.0916 125.899 44.0313 125.738 43.9105 125.639C43.7898 125.539 43.6456 125.49 43.478 125.49C43.2706 125.49 43.1094 125.554 42.9943 125.681C42.8793 125.808 42.8217 125.97 42.8217 126.169V128.255H42.1868V126.08C42.1868 125.902 42.1314 125.76 42.0206 125.652C41.9098 125.544 41.7656 125.49 41.5881 125.49C41.4673 125.49 41.3558 125.522 41.2536 125.586C41.1527 125.648 41.071 125.735 41.0085 125.848C40.9474 125.96 40.9169 126.09 40.9169 126.237V128.255H40.2798ZM46.9931 128.321C46.6706 128.321 46.3929 128.252 46.16 128.115C45.9284 127.975 45.7495 127.78 45.623 127.529C45.498 127.276 45.4355 126.98 45.4355 126.64C45.4355 126.305 45.498 126.01 45.623 125.754C45.7495 125.498 45.9256 125.299 46.1515 125.155C46.3787 125.012 46.6444 124.94 46.9483 124.94C47.133 124.94 47.312 124.97 47.4853 125.032C47.6586 125.093 47.8141 125.188 47.9519 125.319C48.0897 125.45 48.1983 125.62 48.2779 125.828C48.3574 126.036 48.3972 126.288 48.3972 126.585V126.811H45.7956V126.333H47.7729C47.7729 126.166 47.7388 126.017 47.6706 125.888C47.6025 125.757 47.5066 125.654 47.383 125.579C47.2608 125.504 47.1174 125.466 46.9526 125.466C46.7736 125.466 46.6174 125.51 46.4838 125.598C46.3517 125.685 46.2495 125.799 46.177 125.939C46.106 126.078 46.0705 126.23 46.0705 126.393V126.766C46.0705 126.985 46.1088 127.171 46.1855 127.324C46.2637 127.478 46.3723 127.595 46.5115 127.676C46.6507 127.755 46.8134 127.795 46.9995 127.795C47.1202 127.795 47.2303 127.778 47.3297 127.744C47.4292 127.708 47.5151 127.656 47.5875 127.586C47.66 127.517 47.7154 127.431 47.7537 127.328L48.3567 127.437C48.3084 127.615 48.2218 127.77 48.0968 127.904C47.9732 128.036 47.8176 128.139 47.6301 128.213C47.4441 128.285 47.2317 128.321 46.9931 128.321ZM49.104 128.255V124.983H49.7198V125.502H49.7539C49.8136 125.326 49.9187 125.188 50.0692 125.087C50.2212 124.985 50.3931 124.934 50.5849 124.934C50.6246 124.934 50.6715 124.935 50.7255 124.938C50.7809 124.941 50.8242 124.944 50.8555 124.948V125.558C50.8299 125.551 50.7844 125.543 50.7191 125.534C50.6538 125.524 50.5884 125.519 50.5231 125.519C50.3725 125.519 50.2383 125.551 50.1204 125.615C50.0039 125.678 49.9116 125.765 49.8434 125.877C49.7752 125.988 49.7411 126.115 49.7411 126.257V128.255H49.104ZM23.3212 135.255V130.892H26.057V131.458H23.9796V132.788H25.9142V133.353H23.9796V134.688H26.0826V135.255H23.3212ZM27.3881 131.983L28.1104 133.257L28.8391 131.983H29.5359L28.5153 133.619L29.5444 135.255H28.8477L28.1104 134.032L27.3754 135.255H26.6765L27.695 133.619L26.6893 131.983H27.3881ZM30.19 136.483V131.983H30.8121V132.513H30.8654C30.9023 132.445 30.9556 132.366 31.0252 132.277C31.0948 132.187 31.1914 132.109 31.315 132.042C31.4386 131.974 31.6019 131.94 31.805 131.94C32.0692 131.94 32.305 132.007 32.5124 132.14C32.7198 132.274 32.8825 132.466 33.0004 132.718C33.1197 132.969 33.1793 133.272 33.1793 133.625C33.1793 133.979 33.1204 134.282 33.0025 134.535C32.8846 134.786 32.7227 134.98 32.5167 135.117C32.3107 135.252 32.0756 135.319 31.8114 135.319C31.6126 135.319 31.4499 135.286 31.3235 135.219C31.1985 135.152 31.1005 135.074 31.0295 134.985C30.9585 134.895 30.9038 134.816 30.8654 134.746H30.8271V136.483H30.19ZM30.8143 133.619C30.8143 133.849 30.8477 134.051 30.9144 134.224C30.9812 134.397 31.0778 134.533 31.2042 134.631C31.3306 134.728 31.4854 134.776 31.6687 134.776C31.859 134.776 32.0181 134.725 32.146 134.625C32.2738 134.522 32.3704 134.384 32.4357 134.209C32.5025 134.034 32.5359 133.838 32.5359 133.619C32.5359 133.403 32.5032 133.209 32.4379 133.037C32.3739 132.865 32.2773 132.73 32.1481 132.63C32.0202 132.531 31.8604 132.481 31.6687 132.481C31.484 132.481 31.3278 132.529 31.1999 132.624C31.0735 132.719 30.9776 132.852 30.9123 133.022C30.8469 133.193 30.8143 133.392 30.8143 133.619ZM35.3036 135.321C34.9812 135.321 34.7035 135.252 34.4705 135.115C34.239 134.975 34.06 134.78 33.9336 134.529C33.8086 134.276 33.7461 133.98 33.7461 133.64C33.7461 133.305 33.8086 133.01 33.9336 132.754C34.06 132.498 34.2362 132.299 34.462 132.155C34.6893 132.012 34.9549 131.94 35.2589 131.94C35.4435 131.94 35.6225 131.97 35.7958 132.032C35.9691 132.093 36.1246 132.188 36.2624 132.319C36.4002 132.45 36.5089 132.62 36.5884 132.828C36.668 133.036 36.7077 133.288 36.7077 133.585V133.811H34.1062V133.333H36.0835C36.0835 133.166 36.0494 133.017 35.9812 132.888C35.913 132.757 35.8171 132.654 35.6935 132.579C35.5714 132.504 35.4279 132.466 35.2631 132.466C35.0842 132.466 34.9279 132.51 34.7944 132.598C34.6623 132.685 34.56 132.799 34.4876 132.939C34.4165 133.078 34.381 133.23 34.381 133.393V133.766C34.381 133.985 34.4194 134.171 34.4961 134.324C34.5742 134.478 34.6829 134.595 34.8221 134.676C34.9613 134.755 35.1239 134.795 35.31 134.795C35.4308 134.795 35.5408 134.778 35.6403 134.744C35.7397 134.708 35.8256 134.656 35.8981 134.586C35.9705 134.517 36.0259 134.431 36.0643 134.328L36.6673 134.437C36.619 134.615 36.5323 134.77 36.4073 134.904C36.2837 135.036 36.1282 135.139 35.9407 135.213C35.7546 135.285 35.5423 135.321 35.3036 135.321ZM37.4146 135.255V131.983H38.0304V132.502H38.0645C38.1241 132.326 38.2292 132.188 38.3798 132.087C38.5318 131.985 38.7037 131.934 38.8954 131.934C38.9352 131.934 38.9821 131.935 39.036 131.938C39.0914 131.941 39.1348 131.944 39.166 131.948V132.558C39.1404 132.551 39.095 132.543 39.0297 132.534C38.9643 132.524 38.899 132.519 38.8336 132.519C38.6831 132.519 38.5488 132.551 38.4309 132.615C38.3145 132.678 38.2221 132.765 38.1539 132.877C38.0858 132.988 38.0517 133.115 38.0517 133.257V135.255H37.4146ZM39.7173 135.255V131.983H40.3544V135.255H39.7173ZM40.0391 131.478C39.9283 131.478 39.8331 131.441 39.7536 131.367C39.6754 131.291 39.6364 131.202 39.6364 131.098C39.6364 130.993 39.6754 130.904 39.7536 130.83C39.8331 130.755 39.9283 130.717 40.0391 130.717C40.1499 130.717 40.2443 130.755 40.3224 130.83C40.402 130.904 40.4418 130.993 40.4418 131.098C40.4418 131.202 40.402 131.291 40.3224 131.367C40.2443 131.441 40.1499 131.478 40.0391 131.478ZM42.622 135.321C42.2995 135.321 42.0218 135.252 41.7889 135.115C41.5574 134.975 41.3784 134.78 41.252 134.529C41.127 134.276 41.0645 133.98 41.0645 133.64C41.0645 133.305 41.127 133.01 41.252 132.754C41.3784 132.498 41.5545 132.299 41.7804 132.155C42.0076 132.012 42.2733 131.94 42.5772 131.94C42.7619 131.94 42.9409 131.97 43.1142 132.032C43.2875 132.093 43.443 132.188 43.5808 132.319C43.7186 132.45 43.8272 132.62 43.9068 132.828C43.9863 133.036 44.0261 133.288 44.0261 133.585V133.811H41.4245V133.333H43.4018C43.4018 133.166 43.3677 133.017 43.2995 132.888C43.2314 132.757 43.1355 132.654 43.0119 132.579C42.8897 132.504 42.7463 132.466 42.5815 132.466C42.4025 132.466 42.2463 132.51 42.1127 132.598C41.9806 132.685 41.8784 132.799 41.8059 132.939C41.7349 133.078 41.6994 133.23 41.6994 133.393V133.766C41.6994 133.985 41.7377 134.171 41.8145 134.324C41.8926 134.478 42.0012 134.595 42.1404 134.676C42.2797 134.755 42.4423 134.795 42.6284 134.795C42.7491 134.795 42.8592 134.778 42.9586 134.744C43.0581 134.708 43.144 134.656 43.2164 134.586C43.2889 134.517 43.3443 134.431 43.3826 134.328L43.9856 134.437C43.9373 134.615 43.8507 134.77 43.7257 134.904C43.6021 135.036 43.4466 135.139 43.2591 135.213C43.073 135.285 42.8606 135.321 42.622 135.321ZM45.37 133.312V135.255H44.733V131.983H45.3445V132.515H45.3849C45.4602 132.342 45.5781 132.203 45.7386 132.098C45.9006 131.992 46.1044 131.94 46.3501 131.94C46.5732 131.94 46.7685 131.987 46.9361 132.081C47.1037 132.173 47.2337 132.311 47.326 132.494C47.4183 132.677 47.4645 132.904 47.4645 133.174V135.255H46.8274V133.25C46.8274 133.013 46.7656 132.828 46.642 132.694C46.5185 132.559 46.3487 132.492 46.1328 132.492C45.9851 132.492 45.8537 132.524 45.7386 132.588C45.625 132.652 45.5348 132.745 45.468 132.869C45.4027 132.991 45.37 133.139 45.37 133.312ZM49.6974 135.321C49.3807 135.321 49.108 135.25 48.8793 135.106C48.652 134.961 48.4773 134.762 48.3551 134.507C48.233 134.253 48.1719 133.962 48.1719 133.634C48.1719 133.301 48.2344 133.008 48.3594 132.754C48.4844 132.498 48.6605 132.299 48.8878 132.155C49.1151 132.012 49.3828 131.94 49.6911 131.94C49.9396 131.94 50.1612 131.986 50.3558 132.078C50.5504 132.169 50.7074 132.297 50.8267 132.462C50.9474 132.627 51.0192 132.819 51.0419 133.039H50.4219C50.3878 132.886 50.3097 132.754 50.1875 132.643C50.0668 132.532 49.9048 132.477 49.7017 132.477C49.5241 132.477 49.3686 132.524 49.2351 132.617C49.103 132.71 49 132.842 48.9261 133.014C48.8523 133.184 48.8153 133.386 48.8153 133.619C48.8153 133.858 48.8516 134.063 48.924 134.237C48.9964 134.41 49.0987 134.544 49.2308 134.639C49.3643 134.735 49.5213 134.782 49.7017 134.782C49.8224 134.782 49.9318 134.76 50.0298 134.716C50.1293 134.671 50.2124 134.606 50.2791 134.522C50.3473 134.438 50.3949 134.338 50.4219 134.22H51.0419C51.0192 134.431 50.9503 134.62 50.8352 134.786C50.7202 134.953 50.5661 135.083 50.3729 135.179C50.1811 135.274 49.956 135.321 49.6974 135.321ZM53.1337 135.321C52.8113 135.321 52.5336 135.252 52.3006 135.115C52.0691 134.975 51.8901 134.78 51.7637 134.529C51.6387 134.276 51.5762 133.98 51.5762 133.64C51.5762 133.305 51.6387 133.01 51.7637 132.754C51.8901 132.498 52.0662 132.299 52.2921 132.155C52.5194 132.012 52.785 131.94 53.089 131.94C53.2736 131.94 53.4526 131.97 53.6259 132.032C53.7992 132.093 53.9547 132.188 54.0925 132.319C54.2303 132.45 54.339 132.62 54.4185 132.828C54.498 133.036 54.5378 133.288 54.5378 133.585V133.811H51.9363V133.333H53.9135C53.9135 133.166 53.8794 133.017 53.8113 132.888C53.7431 132.757 53.6472 132.654 53.5236 132.579C53.4015 132.504 53.258 132.466 53.0932 132.466C52.9142 132.466 52.758 132.51 52.6245 132.598C52.4924 132.685 52.3901 132.799 52.3176 132.939C52.2466 133.078 52.2111 133.23 52.2111 133.393V133.766C52.2111 133.985 52.2495 134.171 52.3262 134.324C52.4043 134.478 52.513 134.595 52.6522 134.676C52.7914 134.755 52.954 134.795 53.1401 134.795C53.2608 134.795 53.3709 134.778 53.4703 134.744C53.5698 134.708 53.6557 134.656 53.7282 134.586C53.8006 134.517 53.856 134.431 53.8944 134.328L54.4973 134.437C54.449 134.615 54.3624 134.77 54.2374 134.904C54.1138 135.036 53.9583 135.139 53.7708 135.213C53.5847 135.285 53.3723 135.321 53.1337 135.321Z" fill="#00264B" fill-opacity="0.5"/>
<path d="M92.1288 89.636V85.2724H93.7268C94.0365 85.2724 94.2929 85.3235 94.496 85.4258C94.6991 85.5267 94.8511 85.6637 94.952 85.837C95.0528 86.0089 95.1032 86.2028 95.1032 86.4187C95.1032 86.6005 95.0699 86.7539 95.0031 86.8789C94.9363 87.0025 94.8469 87.102 94.7346 87.1772C94.6238 87.2511 94.5017 87.3051 94.3682 87.3392V87.3818C94.5131 87.3889 94.6544 87.4358 94.7922 87.5224C94.9314 87.6076 95.0464 87.7291 95.1373 87.8868C95.2282 88.0444 95.2737 88.2362 95.2737 88.462C95.2737 88.6851 95.2211 88.8853 95.116 89.0629C95.0123 89.239 94.8518 89.3789 94.6345 89.4826C94.4172 89.5849 94.1395 89.636 93.8014 89.636H92.1288ZM92.7872 89.0714H93.7375C94.0528 89.0714 94.2787 89.0103 94.415 88.8882C94.5514 88.766 94.6196 88.6133 94.6196 88.4301C94.6196 88.2923 94.5848 88.1659 94.5152 88.0508C94.4456 87.9358 94.3461 87.8441 94.2169 87.776C94.089 87.7078 93.9371 87.6737 93.7609 87.6737H92.7872V89.0714ZM92.7872 87.1602H93.6693C93.817 87.1602 93.9498 87.1318 94.0677 87.075C94.1871 87.0181 94.2815 86.9386 94.3511 86.8363C94.4221 86.7326 94.4577 86.6105 94.4577 86.4699C94.4577 86.2895 94.3944 86.1382 94.268 86.016C94.1416 85.8939 93.9477 85.8328 93.6863 85.8328H92.7872V87.1602ZM96.0546 89.636V85.2724H97.61C97.9481 85.2724 98.2286 85.3306 98.4516 85.4471C98.676 85.5636 98.8437 85.7248 98.9545 85.9308C99.0653 86.1353 99.1207 86.3718 99.1207 86.6403C99.1207 86.9074 99.0645 87.1424 98.9523 87.3456C98.8415 87.5473 98.6739 87.7042 98.4495 87.8164C98.2265 87.9287 97.9459 87.9848 97.6079 87.9848H96.4296V87.418H97.5482C97.7613 87.418 97.9346 87.3875 98.0681 87.3264C98.203 87.2653 98.3018 87.1765 98.3643 87.0601C98.4268 86.9436 98.458 86.8037 98.458 86.6403C98.458 86.4755 98.426 86.3328 98.3621 86.212C98.2996 86.0913 98.2009 85.999 98.066 85.9351C97.9324 85.8697 97.757 85.837 97.5397 85.837H96.713V89.636H96.0546ZM98.2087 87.6673L99.2868 89.636H98.5368L97.48 87.6673H98.2087ZM100.29 89.636H99.5915L101.162 85.2724H101.922L103.493 89.636H102.794L101.56 86.065H101.526L100.29 89.636ZM100.408 87.9272H102.675V88.4812H100.408V87.9272ZM107.645 85.2724V89.636H107.04L104.822 86.4358H104.781V89.636H104.123V85.2724H104.732L106.953 88.477H106.993V85.2724H107.645ZM110.018 89.636H108.605V85.2724H110.063C110.49 85.2724 110.858 85.3598 111.164 85.5345C111.471 85.7078 111.706 85.9571 111.87 86.2824C112.034 86.6062 112.117 86.9947 112.117 87.4478C112.117 87.9024 112.034 88.293 111.867 88.6197C111.703 88.9464 111.464 89.1978 111.152 89.374C110.839 89.5487 110.461 89.636 110.018 89.636ZM109.264 89.0608H109.982C110.314 89.0608 110.59 88.9983 110.811 88.8733C111.031 88.7468 111.196 88.5643 111.305 88.3257C111.414 88.0856 111.469 87.793 111.469 87.4478C111.469 87.1055 111.414 86.815 111.305 86.5764C111.197 86.3378 111.036 86.1566 110.821 86.0331C110.607 85.9095 110.34 85.8477 110.022 85.8477H109.264V89.0608ZM113.594 85.2724V89.636H112.935V85.2724H113.594ZM118.075 85.2724V89.636H117.47L115.252 86.4358H115.211V89.636H114.553V85.2724H115.162L117.382 88.477H117.423V85.2724H118.075ZM121.988 86.651C121.947 86.5217 121.892 86.4059 121.822 86.3037C121.754 86.2 121.672 86.1119 121.577 86.0395C121.482 85.9656 121.373 85.9095 121.251 85.8711C121.13 85.8328 120.997 85.8136 120.853 85.8136C120.607 85.8136 120.385 85.8768 120.188 86.0032C119.99 86.1297 119.834 86.315 119.719 86.5593C119.605 86.8022 119.549 87.0998 119.549 87.4521C119.549 87.8058 119.606 88.1048 119.721 88.3491C119.836 88.5934 119.994 88.7788 120.194 88.9052C120.394 89.0316 120.622 89.0949 120.878 89.0949C121.115 89.0949 121.322 89.0466 121.498 88.95C121.676 88.8534 121.813 88.717 121.909 88.5409C122.007 88.3633 122.056 88.1545 122.056 87.9145L122.227 87.9464H120.978V87.4031H122.693V87.8995C122.693 88.266 122.615 88.5842 122.459 88.8541C122.304 89.1226 122.09 89.3299 121.816 89.4762C121.543 89.6226 121.23 89.6957 120.878 89.6957C120.483 89.6957 120.137 89.6048 119.838 89.423C119.541 89.2412 119.31 88.9833 119.144 88.6495C118.978 88.3143 118.894 87.9166 118.894 87.4564C118.894 87.1083 118.943 86.7958 119.039 86.5189C119.136 86.2419 119.272 86.0068 119.446 85.8136C119.622 85.619 119.829 85.4706 120.066 85.3683C120.305 85.2646 120.566 85.2128 120.848 85.2128C121.084 85.2128 121.304 85.2476 121.507 85.3172C121.711 85.3868 121.893 85.4855 122.052 85.6133C122.213 85.7412 122.345 85.8931 122.451 86.0693C122.556 86.244 122.627 86.4379 122.664 86.651H121.988Z" fill="#CBE1FF"/>
</g>
<defs>
<filter id="filter0_di_435_661" x="54.9428" y="58.3552" width="103.8" height="103.8" filterUnits="userSpaceOnUse" color-interpolation-filters="sRGB">
<feFlood flood-opacity="0" result="BackgroundImageFix"/>
<feColorMatrix in="SourceAlpha" type="matrix" values="0 0 0 0 0 0 0 0 0 0 0 0 0 0 0 0 0 0 127 0" result="hardAlpha"/>
<feMorphology radius="2" operator="dilate" in="SourceAlpha" result="effect1_dropShadow_435_661"/>
<feOffset dy="23"/>
<feGaussianBlur stdDeviation="10.95"/>
<feComposite in2="hardAlpha" operator="out"/>
<feColorMatrix type="matrix" values="0 0 0 0 0 0 0 0 0 0.14902 0 0 0 0 0.294118 0 0 0 0.75 0"/>
<feBlend mode="normal" in2="BackgroundImageFix" result="effect1_dropShadow_435_661"/>
<feBlend mode="normal" in="SourceGraphic" in2="effect1_dropShadow_435_661" result="shape"/>
<feColorMatrix in="SourceAlpha" type="matrix" values="0 0 0 0 0 0 0 0 0 0 0 0 0 0 0 0 0 0 127 0" result="hardAlpha"/>
<feOffset dy="4"/>
<feGaussianBlur stdDeviation="2"/>
<feComposite in2="hardAlpha" operator="arithmetic" k2="-1" k3="1"/>
<feColorMatrix type="matrix" values="0 0 0 0 0 0 0 0 0 0 0 0 0 0 0 0 0 0 0.25 0"/>
<feBlend mode="normal" in2="shape" result="effect2_innerShadow_435_661"/>
</filter>
<linearGradient id="paint0_linear_435_661" x1="106.843" y1="59.2552" x2="106.843" y2="115.255" gradientUnits="userSpaceOnUse">
<stop stop-color="#CBE1FF"/>
<stop offset="1" stop-color="#005AB1"/>
</linearGradient>
</defs>
</svg>
