<svg width="331" height="248" viewBox="0 0 331 248" fill="none" xmlns="http://www.w3.org/2000/svg">
<path d="M229.937 92.6032L228.059 92.4553L228.516 86.655L230.453 86.8076C231.022 86.8524 231.501 87.007 231.89 87.2713C232.28 87.5338 232.566 87.8898 232.749 88.3392C232.934 88.787 233.003 89.312 232.956 89.9143C232.908 90.5185 232.757 91.029 232.502 91.4459C232.249 91.8629 231.905 92.1721 231.471 92.3735C231.038 92.573 230.526 92.6496 229.937 92.6032ZM228.995 91.7595L229.949 91.8347C230.391 91.8695 230.765 91.8153 231.071 91.6722C231.376 91.5273 231.615 91.3019 231.785 90.9961C231.955 90.6885 232.059 90.3053 232.095 89.8465C232.131 89.3914 232.088 88.9996 231.968 88.671C231.85 88.3424 231.654 88.0848 231.382 87.8981C231.11 87.7114 230.762 87.6014 230.339 87.5681L229.331 87.4887L228.995 91.7595ZM235.615 93.1387C235.186 93.105 234.824 92.9843 234.529 92.7768C234.236 92.5675 234.019 92.2892 233.877 91.9417C233.737 91.5926 233.685 91.1924 233.721 90.7411C233.756 90.2955 233.87 89.9093 234.063 89.5826C234.258 89.2559 234.513 89.0091 234.828 88.8421C235.145 88.6752 235.505 88.6076 235.91 88.6394C236.155 88.6588 236.39 88.7181 236.614 88.8174C236.838 88.9168 237.034 89.0605 237.204 89.2486C237.373 89.4368 237.5 89.6738 237.584 89.9596C237.668 90.2436 237.694 90.5829 237.663 90.9775L237.64 91.2778L234.182 91.0054L234.231 90.371L236.86 90.578C236.877 90.3552 236.847 90.1543 236.77 89.9754C236.693 89.7945 236.577 89.6476 236.42 89.5346C236.266 89.4217 236.079 89.3567 235.86 89.3394C235.622 89.3207 235.41 89.3629 235.223 89.4659C235.039 89.5673 234.891 89.7076 234.78 89.887C234.671 90.0646 234.608 90.2619 234.591 90.4791L234.552 90.9747C234.529 91.2654 234.56 91.5168 234.646 91.7287C234.734 91.9408 234.866 92.108 235.043 92.2302C235.219 92.3505 235.431 92.4204 235.679 92.4399C235.839 92.4525 235.987 92.4414 236.123 92.4065C236.259 92.3697 236.379 92.3088 236.482 92.2239C236.586 92.139 236.668 92.0305 236.73 91.8986L237.52 92.1062C237.437 92.3371 237.306 92.5348 237.126 92.6992C236.948 92.8618 236.73 92.9824 236.473 93.061C236.218 93.1378 235.932 93.1637 235.615 93.1387ZM241.947 90.2406L241.168 90.3161C241.144 90.2154 241.1 90.1179 241.038 90.0237C240.977 89.9296 240.89 89.8496 240.777 89.7837C240.665 89.7179 240.521 89.678 240.345 89.6642C240.105 89.6453 239.901 89.6833 239.732 89.7783C239.563 89.8714 239.472 90.002 239.459 90.17C239.447 90.3154 239.492 90.4367 239.592 90.5339C239.693 90.6311 239.861 90.7175 240.096 90.793L240.775 91.0061C241.168 91.1301 241.455 91.2962 241.636 91.5042C241.817 91.7123 241.896 91.9702 241.872 92.2779C241.851 92.5385 241.757 92.7648 241.59 92.9568C241.425 93.1471 241.204 93.2892 240.927 93.3833C240.652 93.4775 240.338 93.5108 239.987 93.4831C239.5 93.4447 239.111 93.3096 238.819 93.0777C238.528 92.8438 238.363 92.5316 238.323 92.1409L239.151 92.0808C239.186 92.2981 239.278 92.4678 239.428 92.5898C239.578 92.7099 239.78 92.78 240.035 92.8001C240.313 92.822 240.539 92.7819 240.714 92.6798C240.89 92.5758 240.984 92.4398 240.997 92.2718C241.008 92.1358 240.966 92.0176 240.871 91.917C240.779 91.8166 240.63 91.7346 240.426 91.6711L239.703 91.4517C239.304 91.3272 239.015 91.1562 238.837 90.9389C238.66 90.7217 238.584 90.4583 238.608 90.1486C238.629 89.8919 238.718 89.6728 238.877 89.4915C239.035 89.3103 239.245 89.1758 239.507 89.0881C239.769 88.9985 240.063 88.9666 240.389 88.9923C240.859 89.0293 241.221 89.1604 241.475 89.3856C241.729 89.6089 241.887 89.8939 241.947 90.2406ZM242.704 93.6087L243.046 89.2586L243.893 89.3253L243.55 93.6754L242.704 93.6087ZM243.527 88.621C243.38 88.6094 243.257 88.5504 243.159 88.4439C243.063 88.3356 243.02 88.2126 243.031 88.0748C243.042 87.935 243.104 87.8202 243.215 87.7302C243.329 87.6384 243.459 87.5984 243.606 87.61C243.754 87.6216 243.875 87.6815 243.971 87.7897C244.069 87.8963 244.113 88.0194 244.102 88.1591C244.091 88.2969 244.029 88.4117 243.915 88.5034C243.804 88.5934 243.674 88.6326 243.527 88.621ZM246.378 95.6308C246.032 95.6036 245.739 95.5348 245.497 95.4246C245.256 95.3145 245.064 95.1786 244.919 95.0171C244.774 94.8556 244.67 94.6831 244.606 94.4995L245.358 94.2566C245.402 94.3437 245.463 94.4369 245.541 94.5361C245.62 94.6373 245.731 94.7268 245.873 94.8045C246.017 94.8823 246.206 94.9305 246.44 94.9489C246.761 94.9742 247.033 94.9167 247.255 94.7765C247.476 94.6382 247.601 94.3991 247.627 94.0593L247.695 93.204L247.641 93.1997C247.583 93.2882 247.501 93.3853 247.396 93.491C247.292 93.5969 247.154 93.6848 246.982 93.7548C246.809 93.8248 246.59 93.8493 246.323 93.8283C245.98 93.8012 245.676 93.6966 245.413 93.5144C245.152 93.3305 244.954 93.0745 244.818 92.7466C244.685 92.4169 244.636 92.0207 244.673 91.5582C244.709 91.0956 244.819 90.7052 245.001 90.3872C245.186 90.0693 245.423 89.8333 245.713 89.6795C246.002 89.5237 246.322 89.4596 246.671 89.4871C246.941 89.5084 247.155 89.5708 247.314 89.6746C247.474 89.7764 247.595 89.8904 247.678 90.0167C247.763 90.143 247.827 90.2536 247.871 90.3482L247.934 90.3531L247.989 89.6479L248.819 89.7133L248.469 94.1597C248.439 94.5336 248.328 94.8335 248.136 95.0596C247.943 95.2858 247.694 95.4447 247.388 95.5365C247.085 95.6285 246.748 95.6599 246.378 95.6308ZM246.566 93.1407C246.809 93.1598 247.019 93.1194 247.196 93.0194C247.375 92.9176 247.517 92.7634 247.62 92.5569C247.726 92.3487 247.791 92.0944 247.814 91.7942C247.837 91.5016 247.814 91.2404 247.745 91.0108C247.676 90.7812 247.562 90.5974 247.404 90.4596C247.246 90.3198 247.043 90.2402 246.796 90.2207C246.541 90.2007 246.323 90.25 246.143 90.3688C245.963 90.4857 245.82 90.653 245.716 90.8709C245.613 91.0889 245.551 91.3366 245.529 91.6142C245.506 91.8993 245.53 92.1529 245.6 92.375C245.67 92.5971 245.785 92.7752 245.945 92.9094C246.108 93.0438 246.314 93.1209 246.566 93.1407ZM250.662 91.6367L250.459 94.2196L249.612 94.1529L249.955 89.8027L250.767 89.8667L250.712 90.5748L250.765 90.579C250.884 90.3566 251.055 90.1839 251.279 90.061C251.506 89.9382 251.782 89.8897 252.109 89.9154C252.405 89.9387 252.66 90.0215 252.873 90.1637C253.086 90.3039 253.244 90.5007 253.348 90.7539C253.451 91.0072 253.489 91.3131 253.461 91.6719L253.243 94.4389L252.396 94.3722L252.606 91.7071C252.631 91.3918 252.568 91.139 252.418 90.9485C252.268 90.7562 252.049 90.6488 251.762 90.6262C251.566 90.6107 251.388 90.6394 251.228 90.7123C251.07 90.7854 250.941 90.9006 250.839 91.0579C250.739 91.2134 250.68 91.4063 250.662 91.6367Z" fill="#00264B"/>
<path d="M209.009 143.096L207.138 142.881L207.803 137.101L209.733 137.323C210.299 137.388 210.773 137.56 211.152 137.838C211.532 138.114 211.806 138.48 211.973 138.936C212.142 139.39 212.191 139.917 212.122 140.518C212.053 141.12 211.884 141.625 211.614 142.032C211.346 142.44 210.991 142.736 210.551 142.922C210.11 143.106 209.596 143.164 209.009 143.096ZM208.098 142.22L209.049 142.329C209.489 142.38 209.865 142.339 210.175 142.207C210.486 142.073 210.732 141.856 210.913 141.557C211.095 141.255 211.212 140.876 211.264 140.419C211.317 139.966 211.288 139.572 211.18 139.24C211.073 138.907 210.887 138.643 210.622 138.446C210.357 138.25 210.013 138.128 209.592 138.079L208.587 137.964L208.098 142.22ZM214.664 143.836C214.237 143.786 213.88 143.653 213.592 143.435C213.307 143.215 213.099 142.929 212.97 142.577C212.843 142.223 212.805 141.821 212.857 141.371C212.908 140.927 213.036 140.546 213.241 140.226C213.447 139.906 213.711 139.669 214.032 139.513C214.355 139.358 214.717 139.303 215.12 139.35C215.365 139.378 215.597 139.446 215.817 139.553C216.037 139.66 216.229 139.811 216.392 140.005C216.554 140.199 216.672 140.44 216.746 140.729C216.82 141.016 216.834 141.356 216.789 141.749L216.754 142.048L213.308 141.652L213.381 141.02L216 141.321C216.025 141.099 216.003 140.897 215.932 140.716C215.862 140.532 215.751 140.381 215.598 140.263C215.448 140.144 215.264 140.073 215.045 140.047C214.808 140.02 214.595 140.055 214.404 140.151C214.216 140.246 214.063 140.381 213.946 140.556C213.831 140.729 213.761 140.924 213.736 141.141L213.679 141.635C213.646 141.924 213.668 142.177 213.746 142.392C213.826 142.607 213.953 142.779 214.125 142.907C214.297 143.034 214.506 143.111 214.753 143.139C214.913 143.158 215.061 143.152 215.198 143.122C215.335 143.09 215.457 143.034 215.564 142.952C215.67 142.871 215.757 142.766 215.823 142.636L216.605 142.872C216.514 143.1 216.376 143.293 216.19 143.45C216.006 143.607 215.784 143.719 215.525 143.789C215.267 143.856 214.98 143.872 214.664 143.836ZM221.096 141.167L220.315 141.214C220.295 141.112 220.254 141.014 220.195 140.917C220.137 140.821 220.054 140.738 219.943 140.668C219.833 140.598 219.691 140.553 219.516 140.533C219.277 140.505 219.071 140.536 218.899 140.625C218.727 140.712 218.631 140.839 218.612 141.007C218.595 141.152 218.635 141.274 218.733 141.375C218.83 141.476 218.994 141.568 219.227 141.652L219.897 141.889C220.286 142.027 220.567 142.204 220.74 142.418C220.914 142.633 220.983 142.893 220.948 143.2C220.918 143.459 220.816 143.682 220.642 143.868C220.47 144.052 220.244 144.187 219.964 144.271C219.685 144.355 219.371 144.377 219.021 144.337C218.536 144.281 218.151 144.132 217.869 143.889C217.586 143.645 217.432 143.327 217.406 142.936L218.236 142.905C218.263 143.124 218.349 143.297 218.494 143.424C218.64 143.549 218.84 143.627 219.094 143.656C219.37 143.688 219.598 143.656 219.777 143.56C219.956 143.462 220.055 143.33 220.074 143.162C220.09 143.027 220.052 142.907 219.961 142.803C219.872 142.7 219.726 142.612 219.525 142.541L218.81 142.296C218.416 142.158 218.133 141.976 217.963 141.753C217.794 141.529 217.727 141.263 217.763 140.955C217.792 140.699 217.89 140.483 218.055 140.308C218.22 140.132 218.434 140.005 218.699 139.927C218.964 139.847 219.259 139.826 219.584 139.863C220.053 139.917 220.41 140.061 220.655 140.295C220.901 140.527 221.048 140.818 221.096 141.167ZM221.731 144.56L222.23 140.225L223.074 140.322L222.575 144.657L221.731 144.56ZM222.733 139.605C222.586 139.588 222.466 139.524 222.372 139.414C222.28 139.303 222.242 139.178 222.257 139.041C222.273 138.902 222.339 138.789 222.454 138.703C222.57 138.616 222.702 138.58 222.849 138.597C222.996 138.614 223.115 138.678 223.207 138.79C223.301 138.9 223.34 139.024 223.324 139.164C223.308 139.301 223.242 139.414 223.125 139.501C223.011 139.587 222.88 139.622 222.733 139.605ZM225.331 146.712C224.986 146.673 224.695 146.593 224.457 146.475C224.221 146.356 224.034 146.213 223.895 146.047C223.755 145.88 223.658 145.704 223.601 145.518L224.36 145.302C224.402 145.391 224.459 145.486 224.533 145.588C224.609 145.692 224.717 145.786 224.856 145.868C224.997 145.951 225.184 146.006 225.417 146.033C225.737 146.07 226.011 146.022 226.237 145.89C226.464 145.76 226.597 145.525 226.636 145.187L226.734 144.334L226.68 144.328C226.619 144.414 226.534 144.509 226.425 144.61C226.318 144.712 226.176 144.795 226.001 144.859C225.826 144.923 225.606 144.94 225.341 144.909C224.998 144.87 224.699 144.754 224.443 144.563C224.188 144.369 223.999 144.107 223.876 143.774C223.754 143.44 223.72 143.042 223.773 142.581C223.826 142.12 223.949 141.734 224.143 141.423C224.339 141.112 224.585 140.884 224.879 140.741C225.174 140.596 225.496 140.543 225.844 140.583C226.113 140.614 226.325 140.684 226.48 140.793C226.636 140.901 226.753 141.019 226.831 141.148C226.912 141.278 226.972 141.391 227.013 141.487L227.075 141.494L227.156 140.791L227.982 140.886L227.473 145.317C227.43 145.69 227.308 145.986 227.108 146.205C226.907 146.424 226.653 146.574 226.344 146.654C226.037 146.735 225.699 146.755 225.331 146.712ZM225.608 144.23C225.85 144.258 226.062 144.226 226.242 144.132C226.425 144.037 226.572 143.888 226.683 143.685C226.796 143.481 226.869 143.229 226.904 142.93C226.937 142.638 226.924 142.376 226.863 142.144C226.802 141.912 226.695 141.725 226.541 141.581C226.388 141.436 226.189 141.349 225.942 141.321C225.688 141.291 225.469 141.333 225.284 141.445C225.1 141.556 224.952 141.718 224.84 141.932C224.729 142.146 224.658 142.391 224.626 142.668C224.594 142.952 224.608 143.206 224.67 143.431C224.732 143.655 224.841 143.837 224.996 143.977C225.154 144.117 225.357 144.202 225.608 144.23ZM229.756 142.875L229.46 145.448L228.616 145.351L229.114 141.016L229.924 141.109L229.843 141.815L229.897 141.821C230.023 141.603 230.2 141.437 230.429 141.322C230.659 141.207 230.937 141.169 231.263 141.206C231.558 141.24 231.81 141.332 232.018 141.482C232.226 141.63 232.377 141.832 232.471 142.089C232.565 142.346 232.592 142.653 232.551 143.01L232.234 145.768L231.39 145.67L231.695 143.015C231.732 142.7 231.678 142.446 231.535 142.25C231.391 142.052 231.177 141.937 230.891 141.904C230.695 141.882 230.516 141.904 230.354 141.971C230.194 142.038 230.06 142.149 229.953 142.302C229.848 142.454 229.782 142.645 229.756 142.875ZM239.094 143.236L238.314 143.284C238.293 143.182 238.253 143.083 238.194 142.987C238.136 142.891 238.052 142.808 237.942 142.738C237.832 142.668 237.689 142.623 237.514 142.603C237.275 142.575 237.07 142.606 236.897 142.695C236.725 142.782 236.63 142.909 236.61 143.077C236.594 143.222 236.634 143.344 236.731 143.445C236.828 143.546 236.993 143.638 237.225 143.722L237.896 143.959C238.284 144.097 238.565 144.274 238.739 144.488C238.912 144.703 238.981 144.963 238.946 145.27C238.916 145.529 238.814 145.752 238.641 145.938C238.469 146.122 238.243 146.257 237.962 146.341C237.684 146.425 237.37 146.447 237.02 146.407C236.534 146.351 236.15 146.202 235.867 145.959C235.584 145.715 235.43 145.397 235.405 145.006L236.235 144.975C236.261 145.194 236.347 145.366 236.493 145.494C236.638 145.619 236.838 145.697 237.092 145.726C237.369 145.758 237.596 145.726 237.775 145.63C237.954 145.532 238.053 145.4 238.073 145.232C238.088 145.097 238.05 144.977 237.959 144.873C237.87 144.77 237.725 144.682 237.523 144.611L236.808 144.366C236.414 144.227 236.132 144.046 235.961 143.823C235.793 143.599 235.726 143.333 235.761 143.025C235.791 142.769 235.888 142.553 236.053 142.378C236.218 142.202 236.433 142.075 236.697 141.997C236.962 141.917 237.257 141.896 237.583 141.933C238.051 141.987 238.408 142.131 238.654 142.365C238.9 142.597 239.047 142.888 239.094 143.236ZM240.076 148.317C239.95 148.302 239.837 148.279 239.736 148.246C239.634 148.215 239.56 148.186 239.511 148.157L239.794 147.489C239.944 147.548 240.079 147.582 240.2 147.59C240.321 147.598 240.433 147.565 240.534 147.491C240.638 147.418 240.737 147.289 240.831 147.105L240.968 146.829L239.887 142.255L240.79 142.359L241.501 145.85L241.546 145.855L243.031 142.617L243.937 142.721L241.585 147.429C241.477 147.646 241.349 147.824 241.203 147.966C241.057 148.109 240.891 148.21 240.705 148.269C240.519 148.328 240.31 148.343 240.076 148.317ZM247.857 144.244L247.076 144.292C247.056 144.19 247.016 144.091 246.956 143.995C246.899 143.899 246.815 143.816 246.705 143.746C246.594 143.676 246.452 143.631 246.277 143.611C246.038 143.583 245.832 143.614 245.66 143.703C245.488 143.79 245.392 143.917 245.373 144.084C245.356 144.229 245.397 144.352 245.494 144.453C245.591 144.554 245.755 144.646 245.988 144.73L246.658 144.967C247.047 145.105 247.328 145.281 247.501 145.496C247.675 145.71 247.744 145.971 247.709 146.278C247.679 146.537 247.577 146.76 247.403 146.946C247.231 147.13 247.005 147.264 246.725 147.348C246.446 147.433 246.132 147.455 245.782 147.414C245.297 147.359 244.913 147.209 244.63 146.967C244.347 146.723 244.193 146.405 244.167 146.013L244.997 145.983C245.024 146.201 245.11 146.374 245.255 146.502C245.401 146.627 245.601 146.704 245.855 146.734C246.131 146.765 246.359 146.733 246.538 146.638C246.717 146.54 246.816 146.407 246.835 146.24C246.851 146.105 246.813 145.985 246.722 145.881C246.633 145.777 246.488 145.69 246.286 145.619L245.571 145.374C245.177 145.235 244.894 145.054 244.724 144.83C244.555 144.607 244.488 144.341 244.524 144.033C244.553 143.777 244.651 143.561 244.816 143.385C244.981 143.21 245.196 143.083 245.46 143.005C245.725 142.925 246.02 142.903 246.345 142.941C246.814 142.995 247.171 143.139 247.417 143.373C247.662 143.605 247.809 143.896 247.857 144.244ZM251.015 143.535L250.937 144.212L248.569 143.94L248.647 143.263L251.015 143.535ZM249.401 142.297L250.245 142.394L249.773 146.495C249.755 146.659 249.765 146.785 249.804 146.873C249.844 146.96 249.901 147.022 249.974 147.061C250.05 147.099 250.134 147.123 250.226 147.133C250.294 147.141 250.354 147.143 250.406 147.14C250.457 147.136 250.498 147.133 250.527 147.131L250.599 147.845C250.548 147.859 250.476 147.869 250.384 147.878C250.291 147.888 250.177 147.886 250.041 147.873C249.819 147.851 249.616 147.788 249.434 147.683C249.251 147.578 249.111 147.432 249.012 147.245C248.914 147.059 248.879 146.834 248.909 146.573L249.401 142.297ZM253.261 148.274C252.834 148.225 252.477 148.092 252.189 147.874C251.904 147.654 251.696 147.368 251.567 147.016C251.44 146.662 251.403 146.26 251.454 145.81C251.505 145.366 251.633 144.985 251.838 144.665C252.044 144.345 252.308 144.108 252.629 143.952C252.952 143.797 253.314 143.742 253.717 143.789C253.962 143.817 254.194 143.885 254.414 143.992C254.635 144.099 254.826 144.25 254.989 144.444C255.151 144.638 255.269 144.879 255.343 145.168C255.417 145.455 255.431 145.795 255.386 146.188L255.351 146.487L251.905 146.091L251.978 145.459L254.597 145.76C254.623 145.538 254.6 145.336 254.529 145.155C254.459 144.971 254.348 144.82 254.195 144.702C254.045 144.583 253.861 144.512 253.643 144.486C253.406 144.459 253.192 144.494 253.002 144.59C252.813 144.685 252.661 144.82 252.543 144.995C252.428 145.168 252.358 145.363 252.333 145.58L252.276 146.074C252.243 146.363 252.265 146.616 252.344 146.831C252.424 147.046 252.55 147.218 252.722 147.346C252.894 147.473 253.103 147.55 253.35 147.578C253.51 147.597 253.658 147.591 253.795 147.561C253.932 147.529 254.054 147.473 254.161 147.391C254.267 147.31 254.354 147.205 254.42 147.075L255.202 147.311C255.111 147.539 254.973 147.732 254.787 147.889C254.603 148.046 254.381 148.158 254.122 148.228C253.864 148.295 253.577 148.311 253.261 148.274ZM256.068 148.509L256.566 144.174L257.376 144.267L257.295 144.972L257.349 144.978C257.466 144.75 257.635 144.581 257.856 144.471C258.077 144.359 258.33 144.319 258.616 144.352C258.906 144.385 259.141 144.481 259.321 144.639C259.503 144.797 259.627 145 259.694 145.248L259.739 145.253C259.869 145.034 260.055 144.868 260.297 144.757C260.538 144.644 260.815 144.605 261.128 144.641C261.521 144.686 261.828 144.846 262.048 145.121C262.27 145.397 262.352 145.783 262.295 146.279L261.96 149.186L261.117 149.089L261.442 146.261C261.476 145.968 261.42 145.746 261.275 145.596C261.131 145.446 260.947 145.358 260.725 145.332C260.45 145.301 260.227 145.361 260.055 145.513C259.884 145.663 259.783 145.869 259.752 146.133L259.435 148.896L258.593 148.799L258.925 145.918C258.952 145.682 258.9 145.485 258.77 145.325C258.64 145.165 258.457 145.072 258.222 145.045C258.062 145.026 257.909 145.051 257.764 145.121C257.621 145.188 257.499 145.291 257.4 145.43C257.302 145.57 257.241 145.737 257.219 145.933L256.911 148.606L256.068 148.509Z" fill="#00264B" fill-opacity="0.3"/>
<path d="M273.542 151.326L272.615 151.229L275.303 145.66L276.311 145.765L277.789 151.77L276.862 151.673L275.721 146.766L275.676 146.762L273.542 151.326ZM273.934 149.076L276.941 149.39L276.864 150.125L273.858 149.811L273.934 149.076ZM279.671 149.361L279.402 151.938L278.557 151.85L279.01 147.51L279.821 147.595L279.747 148.301L279.801 148.307C279.925 148.087 280.101 147.919 280.328 147.802C280.557 147.685 280.835 147.644 281.161 147.678C281.457 147.709 281.709 147.798 281.918 147.945C282.128 148.091 282.281 148.292 282.378 148.548C282.475 148.803 282.505 149.11 282.468 149.468L282.179 152.229L281.334 152.14L281.612 149.481C281.645 149.167 281.589 148.913 281.443 148.718C281.298 148.522 281.082 148.409 280.796 148.379C280.6 148.359 280.422 148.383 280.26 148.452C280.101 148.521 279.968 148.633 279.862 148.787C279.759 148.94 279.695 149.132 279.671 149.361ZM283.312 152.347L283.766 148.007L284.611 148.095L284.157 152.435L283.312 152.347ZM284.262 147.382C284.115 147.367 283.994 147.304 283.899 147.196C283.806 147.085 283.767 146.961 283.781 146.823C283.795 146.684 283.86 146.571 283.974 146.483C284.089 146.395 284.221 146.358 284.368 146.373C284.515 146.389 284.635 146.452 284.728 146.562C284.823 146.671 284.864 146.796 284.849 146.935C284.835 147.072 284.769 147.186 284.654 147.274C284.54 147.361 284.409 147.397 284.262 147.382ZM285.293 152.554L285.747 148.214L286.558 148.299L286.484 149.005L286.538 149.011C286.653 148.781 286.821 148.61 287.04 148.498C287.259 148.384 287.512 148.342 287.799 148.372C288.089 148.402 288.325 148.495 288.506 148.651C288.69 148.807 288.816 149.009 288.886 149.256L288.931 149.261C289.059 149.04 289.243 148.873 289.483 148.759C289.724 148.643 290.001 148.602 290.313 148.634C290.707 148.676 291.015 148.832 291.238 149.105C291.463 149.378 291.549 149.763 291.497 150.261L291.193 153.171L290.348 153.083L290.644 150.251C290.675 149.958 290.617 149.736 290.471 149.588C290.324 149.439 290.14 149.353 289.918 149.33C289.643 149.301 289.42 149.364 289.25 149.517C289.08 149.669 288.981 149.877 288.953 150.14L288.664 152.907L287.822 152.819L288.124 149.934C288.148 149.698 288.095 149.501 287.963 149.343C287.831 149.184 287.647 149.093 287.412 149.068C287.252 149.051 287.099 149.078 286.955 149.149C286.812 149.218 286.692 149.322 286.593 149.462C286.497 149.603 286.438 149.771 286.418 149.967L286.138 152.642L285.293 152.554ZM293.578 153.517C293.303 153.489 293.06 153.412 292.848 153.287C292.637 153.16 292.476 152.992 292.367 152.782C292.259 152.573 292.22 152.326 292.25 152.042C292.276 151.797 292.344 151.6 292.455 151.452C292.565 151.303 292.706 151.191 292.875 151.116C293.045 151.04 293.231 150.989 293.434 150.963C293.637 150.937 293.842 150.922 294.05 150.919C294.313 150.916 294.527 150.913 294.691 150.911C294.855 150.908 294.976 150.887 295.054 150.849C295.132 150.812 295.177 150.742 295.187 150.641L295.189 150.621C295.215 150.374 295.165 150.176 295.04 150.025C294.917 149.875 294.719 149.786 294.446 149.758C294.161 149.728 293.93 149.768 293.753 149.877C293.578 149.984 293.452 150.111 293.374 150.257L292.599 149.993C292.72 149.739 292.88 149.541 293.078 149.398C293.278 149.253 293.5 149.156 293.745 149.107C293.99 149.057 294.244 149.045 294.506 149.073C294.679 149.091 294.861 149.131 295.05 149.192C295.242 149.252 295.417 149.345 295.575 149.47C295.736 149.595 295.86 149.764 295.948 149.975C296.037 150.184 296.065 150.447 296.031 150.763L295.73 153.645L294.905 153.559L294.967 152.966L294.933 152.962C294.867 153.066 294.774 153.164 294.654 153.258C294.533 153.352 294.384 153.425 294.205 153.477C294.027 153.529 293.818 153.542 293.578 153.517ZM293.833 152.858C294.066 152.883 294.271 152.858 294.446 152.783C294.624 152.708 294.763 152.601 294.866 152.461C294.97 152.319 295.031 152.163 295.049 151.992L295.107 151.432C295.074 151.459 295.013 151.481 294.923 151.499C294.836 151.514 294.737 151.526 294.626 151.533C294.515 151.539 294.406 151.544 294.301 151.548C294.196 151.55 294.108 151.552 294.038 151.554C293.872 151.558 293.718 151.577 293.578 151.612C293.439 151.647 293.324 151.706 293.233 151.79C293.145 151.872 293.093 151.989 293.077 152.14C293.055 152.349 293.116 152.515 293.259 152.638C293.402 152.76 293.594 152.833 293.833 152.858ZM299.335 149.635L299.264 150.313L296.893 150.065L296.964 149.387L299.335 149.635ZM297.709 148.413L298.554 148.502L298.124 152.607C298.107 152.771 298.119 152.897 298.159 152.985C298.2 153.071 298.257 153.133 298.331 153.172C298.407 153.208 298.492 153.231 298.584 153.241C298.652 153.248 298.711 153.249 298.763 153.245C298.815 153.241 298.856 153.238 298.884 153.235L298.964 153.949C298.913 153.963 298.841 153.974 298.749 153.984C298.656 153.995 298.542 153.994 298.406 153.982C298.184 153.963 297.981 153.901 297.797 153.798C297.614 153.695 297.472 153.551 297.371 153.365C297.271 153.18 297.234 152.956 297.261 152.694L297.709 148.413ZM299.816 154.072L300.27 149.732L301.114 149.821L300.661 154.161L299.816 154.072ZM300.766 149.107C300.619 149.092 300.498 149.03 300.403 148.921C300.31 148.81 300.27 148.686 300.285 148.548C300.299 148.409 300.364 148.296 300.477 148.209C300.593 148.12 300.725 148.083 300.872 148.099C301.019 148.114 301.139 148.177 301.232 148.288C301.327 148.397 301.367 148.521 301.353 148.66C301.338 148.798 301.273 148.911 301.157 149C301.043 149.087 300.913 149.123 300.766 149.107ZM303.616 154.558C303.209 154.516 302.864 154.385 302.58 154.167C302.296 153.949 302.088 153.663 301.956 153.31C301.823 152.958 301.78 152.557 301.827 152.109C301.874 151.659 301.999 151.274 302.202 150.954C302.405 150.634 302.668 150.397 302.99 150.242C303.313 150.088 303.678 150.031 304.085 150.074C304.492 150.117 304.837 150.247 305.121 150.465C305.405 150.683 305.613 150.97 305.745 151.324C305.878 151.679 305.92 152.082 305.873 152.532C305.826 152.98 305.702 153.363 305.499 153.681C305.296 153.999 305.033 154.235 304.711 154.39C304.388 154.544 304.023 154.601 303.616 154.558ZM303.693 153.849C303.957 153.877 304.183 153.83 304.371 153.709C304.558 153.587 304.706 153.415 304.813 153.192C304.922 152.969 304.991 152.718 305.02 152.44C305.049 152.163 305.033 151.904 304.973 151.664C304.914 151.421 304.806 151.22 304.647 151.061C304.489 150.902 304.278 150.808 304.014 150.781C303.748 150.753 303.521 150.8 303.331 150.923C303.143 151.047 302.994 151.221 302.885 151.445C302.778 151.668 302.71 151.918 302.681 152.195C302.652 152.474 302.666 152.734 302.725 152.974C302.785 153.214 302.895 153.413 303.054 153.571C303.214 153.729 303.428 153.821 303.693 153.849ZM307.706 152.292L307.436 154.869L306.591 154.781L307.045 150.441L307.856 150.525L307.782 151.232L307.836 151.237C307.96 151.018 308.135 150.85 308.363 150.733C308.592 150.616 308.87 150.574 309.196 150.608C309.491 150.639 309.744 150.728 309.953 150.876C310.163 151.022 310.316 151.222 310.413 151.478C310.51 151.734 310.54 152.041 310.502 152.399L310.214 155.159L309.369 155.071L309.647 152.412C309.68 152.097 309.623 151.843 309.478 151.649C309.333 151.453 309.117 151.34 308.831 151.31C308.635 151.289 308.456 151.314 308.295 151.382C308.135 151.451 308.003 151.563 307.897 151.718C307.793 151.871 307.73 152.062 307.706 152.292Z" fill="#00264B" fill-opacity="0.3"/>
<path d="M37.0365 163.868L37.7049 158.088L39.7651 158.326C40.2128 158.378 40.5755 158.498 40.853 158.687C41.1324 158.875 41.3297 159.114 41.445 159.404C41.5604 159.692 41.5975 160.014 41.5564 160.369C41.5155 160.723 41.4052 161.026 41.2254 161.278C41.0478 161.528 40.8017 161.71 40.4873 161.824C40.1747 161.939 39.7945 161.97 39.3468 161.919L37.7861 161.738L37.873 160.987L39.3546 161.159C39.6368 161.191 39.871 161.177 40.0572 161.117C40.2453 161.057 40.3896 160.954 40.4903 160.81C40.5909 160.665 40.6537 160.484 40.6787 160.268C40.704 160.05 40.6835 159.856 40.6173 159.686C40.553 159.517 40.4364 159.379 40.2675 159.274C40.1006 159.167 39.8733 159.097 39.5854 159.063L38.4905 158.937L37.9086 163.969L37.0365 163.868ZM40.1912 161.59L41.3177 164.363L40.3243 164.248L39.2261 161.478L40.1912 161.59ZM43.8947 164.749C43.4676 164.7 43.1104 164.566 42.8229 164.348C42.5376 164.128 42.3304 163.842 42.2015 163.49C42.0747 163.136 42.0372 162.734 42.0892 162.284C42.1406 161.84 42.2686 161.459 42.4734 161.139C42.68 160.82 42.9438 160.582 43.2649 160.427C43.5879 160.272 43.9508 160.217 44.3534 160.264C44.598 160.292 44.8303 160.36 45.0505 160.468C45.2707 160.575 45.462 160.726 45.6245 160.92C45.787 161.114 45.9049 161.356 45.9783 161.644C46.0519 161.931 46.0659 162.271 46.0204 162.665L45.9859 162.964L42.5401 162.565L42.6132 161.933L45.2321 162.236C45.2578 162.014 45.2353 161.812 45.1648 161.63C45.0945 161.447 44.9833 161.296 44.8312 161.177C44.6809 161.059 44.4966 160.987 44.2784 160.962C44.0413 160.934 43.8276 160.969 43.6373 161.065C43.4491 161.159 43.2962 161.294 43.1787 161.469C43.0633 161.643 42.9931 161.838 42.9681 162.054L42.911 162.548C42.8775 162.838 42.8998 163.09 42.9779 163.305C43.0578 163.52 43.1838 163.692 43.3558 163.821C43.528 163.947 43.7373 164.025 43.9838 164.053C44.1437 164.072 44.2921 164.066 44.429 164.036C44.5662 164.004 44.688 163.948 44.7947 163.867C44.9013 163.786 44.9878 163.68 45.0543 163.551L45.8363 163.787C45.7451 164.015 45.6065 164.208 45.4205 164.365C45.2366 164.521 45.0148 164.634 44.7551 164.703C44.4976 164.771 44.2108 164.786 43.8947 164.749ZM50.328 162.085L49.5475 162.132C49.5268 162.03 49.4868 161.931 49.4274 161.835C49.3699 161.738 49.2861 161.655 49.176 161.585C49.0659 161.515 48.9233 161.47 48.7483 161.45C48.5094 161.422 48.3038 161.453 48.1315 161.542C47.9594 161.629 47.8636 161.756 47.8443 161.923C47.8275 162.068 47.8676 162.191 47.9646 162.292C48.0617 162.393 48.2264 162.485 48.4588 162.569L49.1291 162.807C49.5173 162.945 49.7981 163.121 49.9716 163.336C50.1451 163.551 50.2141 163.811 50.1786 164.118C50.1486 164.377 50.0466 164.6 49.8726 164.786C49.7007 164.97 49.4745 165.104 49.194 165.188C48.9155 165.272 48.6013 165.294 48.2513 165.253C47.7659 165.197 47.3818 165.048 47.0991 164.805C46.8166 164.561 46.6627 164.243 46.6375 163.851L47.4674 163.821C47.4937 164.04 47.5795 164.213 47.7249 164.34C47.8705 164.466 48.0703 164.543 48.3243 164.573C48.6009 164.605 48.8286 164.573 49.0074 164.477C49.1865 164.38 49.2857 164.247 49.3051 164.08C49.3207 163.944 49.2831 163.825 49.1921 163.721C49.1031 163.617 48.9578 163.53 48.7563 163.459L48.0412 163.213C47.6473 163.074 47.3651 162.893 47.1946 162.669C47.026 162.445 46.9595 162.179 46.9952 161.871C47.0248 161.615 47.1222 161.399 47.2874 161.224C47.4526 161.048 47.6674 160.922 47.9319 160.844C48.1966 160.764 48.4917 160.743 48.8172 160.78C49.2857 160.834 49.6427 160.979 49.8882 161.213C50.134 161.445 50.2806 161.736 50.328 162.085ZM52.8196 165.782C52.3925 165.732 52.0353 165.598 51.7478 165.38C51.4625 165.16 51.2553 164.874 51.1264 164.522C50.9996 164.168 50.9621 163.766 51.0141 163.316C51.0655 162.872 51.1935 162.491 51.3982 162.171C51.6049 161.852 51.8687 161.614 52.1898 161.459C52.5128 161.304 52.8756 161.25 53.2783 161.296C53.5228 161.324 53.7552 161.392 53.9754 161.5C54.1956 161.607 54.3869 161.758 54.5494 161.952C54.7119 162.146 54.8298 162.388 54.9032 162.677C54.9768 162.963 54.9908 163.303 54.9453 163.697L54.9107 163.996L51.465 163.597L51.5381 162.965L54.157 163.268C54.1826 163.046 54.1602 162.844 54.0897 162.663C54.0194 162.479 53.9082 162.328 53.7561 162.209C53.6058 162.091 53.4215 162.019 53.2033 161.994C52.9662 161.966 52.7525 162.001 52.5622 162.097C52.374 162.192 52.2211 162.326 52.1036 162.502C51.9882 162.675 51.918 162.87 51.893 163.086L51.8359 163.58C51.8024 163.87 51.8247 164.122 51.9028 164.337C51.9827 164.552 52.1087 164.724 52.2807 164.853C52.4529 164.979 52.6622 165.057 52.9087 165.086C53.0686 165.104 53.217 165.098 53.3539 165.068C53.4911 165.037 53.6129 164.98 53.7196 164.899C53.8262 164.818 53.9127 164.713 53.9792 164.583L54.7612 164.819C54.67 165.047 54.5314 165.24 54.3454 165.398C54.1615 165.554 53.9397 165.666 53.68 165.735C53.4225 165.803 53.1357 165.818 52.8196 165.782ZM56.8761 166.259C56.6014 166.228 56.3589 166.148 56.1487 166.021C55.9386 165.892 55.78 165.722 55.6728 165.511C55.5675 165.301 55.5313 165.053 55.5642 164.769C55.5924 164.525 55.6628 164.329 55.7751 164.182C55.8874 164.034 56.0289 163.924 56.1995 163.85C56.3701 163.777 56.5569 163.728 56.7598 163.703C56.9628 163.679 57.1683 163.667 57.3762 163.666C57.6393 163.666 57.8528 163.666 58.0168 163.666C58.181 163.664 58.3024 163.644 58.381 163.608C58.4596 163.571 58.5048 163.502 58.5165 163.4L58.5188 163.381C58.5473 163.134 58.4998 162.935 58.3762 162.784C58.2545 162.632 58.0573 162.541 57.7845 162.509C57.5004 162.476 57.2692 162.514 57.091 162.621C56.9148 162.726 56.7869 162.852 56.7072 162.997L55.935 162.724C56.0596 162.472 56.2215 162.275 56.4208 162.134C56.6222 161.992 56.8457 161.897 57.0913 161.851C57.337 161.804 57.5907 161.795 57.8522 161.825C58.0253 161.845 58.2063 161.887 58.3953 161.951C58.5864 162.013 58.7604 162.107 58.9173 162.234C59.0761 162.361 59.1986 162.531 59.2846 162.743C59.3709 162.953 59.3958 163.216 59.3592 163.532L59.0263 166.411L58.2023 166.315L58.2708 165.723L58.237 165.719C58.1698 165.822 58.0755 165.919 57.9542 166.012C57.8329 166.105 57.6826 166.176 57.5034 166.226C57.3241 166.276 57.115 166.287 56.8761 166.259ZM57.1378 165.603C57.3711 165.63 57.5759 165.607 57.7521 165.534C57.9302 165.461 58.0712 165.356 58.1749 165.217C58.2807 165.077 58.3435 164.921 58.3633 164.75L58.428 164.191C58.3944 164.218 58.3328 164.239 58.2432 164.255C58.1557 164.27 58.0563 164.28 57.945 164.287C57.8339 164.291 57.7258 164.295 57.6206 164.298C57.5156 164.299 57.4277 164.3 57.357 164.302C57.1909 164.303 57.0373 164.321 56.8962 164.354C56.757 164.388 56.6416 164.446 56.55 164.529C56.4606 164.61 56.4071 164.726 56.3897 164.876C56.3656 165.085 56.4244 165.252 56.5663 165.377C56.7084 165.5 56.8989 165.576 57.1378 165.603ZM60.1502 166.541L60.6515 162.206L61.4671 162.3L61.3875 162.989L61.4326 162.994C61.5386 162.77 61.6991 162.603 61.9139 162.492C62.1309 162.38 62.3664 162.339 62.6204 162.368C62.6731 162.374 62.7349 162.383 62.806 162.395C62.8789 162.407 62.9358 162.419 62.9765 162.429L62.8832 163.236C62.8504 163.223 62.7914 163.206 62.7062 163.184C62.6211 163.161 62.5353 163.145 62.4488 163.134C62.2494 163.111 62.0667 163.133 61.9007 163.2C61.7369 163.265 61.6012 163.366 61.4937 163.505C61.3864 163.641 61.3219 163.803 61.3002 163.991L60.994 166.638L60.1502 166.541ZM64.8608 167.174C64.4412 167.126 64.091 166.989 63.8101 166.764C63.5312 166.537 63.3304 166.246 63.2075 165.89C63.0847 165.535 63.0484 165.14 63.0986 164.705C63.1496 164.265 63.2773 163.886 63.4818 163.569C63.6865 163.249 63.9504 163.012 64.2734 162.856C64.5964 162.701 64.962 162.647 65.3703 162.694C65.6995 162.733 65.9859 162.828 66.2295 162.98C66.4734 163.13 66.6617 163.323 66.7945 163.56C66.9292 163.797 66.9947 164.062 66.9911 164.358L66.1698 164.263C66.1482 164.054 66.0649 163.867 65.9201 163.702C65.7772 163.537 65.5712 163.438 65.3021 163.407C65.067 163.38 64.8538 163.418 64.6625 163.522C64.4734 163.624 64.3168 163.783 64.1926 164C64.0687 164.214 63.9889 164.476 63.9532 164.784C63.9166 165.1 63.9331 165.379 64.0025 165.619C64.0719 165.86 64.1868 166.053 64.3472 166.2C64.5095 166.346 64.7101 166.433 64.949 166.461C65.1089 166.479 65.2572 166.467 65.3937 166.424C65.5324 166.379 65.6523 166.306 65.7536 166.205C65.8568 166.104 65.9352 165.978 65.989 165.826L66.8103 165.921C66.7477 166.198 66.6276 166.438 66.4497 166.64C66.2719 166.843 66.0477 166.992 65.7773 167.089C65.5087 167.185 65.2032 167.214 64.8608 167.174ZM68.6955 164.921L68.3978 167.495L67.554 167.397L68.2224 161.617L69.0549 161.714L68.8062 163.864L68.8599 163.87C68.9884 163.649 69.1651 163.481 69.3898 163.368C69.6145 163.255 69.8953 163.218 70.232 163.257C70.5293 163.291 70.7819 163.382 70.9897 163.53C71.1995 163.678 71.3514 163.881 71.4457 164.138C71.542 164.393 71.5693 164.701 71.5275 165.062L71.2086 167.82L70.3648 167.722L70.6719 165.066C70.7087 164.748 70.6554 164.493 70.5119 164.299C70.3687 164.103 70.1513 163.988 69.8597 163.954C69.6602 163.931 69.4766 163.953 69.3088 164.019C69.1428 164.086 69.0052 164.196 68.896 164.349C68.7889 164.501 68.722 164.691 68.6955 164.921Z" fill="#00264B" fill-opacity="0.3"/>
<path d="M77.5076 219.835L76.5826 219.722L79.3681 214.201L80.3748 214.325L81.7458 220.354L80.8209 220.241L79.767 215.315L79.7219 215.31L77.5076 219.835ZM77.9396 217.593L80.9399 217.96L80.8501 218.693L77.8498 218.326L77.9396 217.593ZM84.0533 220.723C83.7037 220.68 83.4025 220.552 83.1499 220.34C82.8995 220.126 82.7166 219.844 82.6013 219.492C82.4881 219.138 82.4602 218.727 82.5175 218.259C82.5749 217.791 82.7019 217.4 82.8987 217.087C83.0974 216.773 83.3447 216.545 83.6409 216.402C83.937 216.259 84.2589 216.209 84.6067 216.251C84.8755 216.284 85.0862 216.356 85.2387 216.466C85.3933 216.575 85.5085 216.694 85.5842 216.823C85.6618 216.953 85.7204 217.066 85.7602 217.162L85.8109 217.169L86.0737 215.023L86.9169 215.126L86.2096 220.901L85.3862 220.8L85.4687 220.126L85.3982 220.118C85.3362 220.204 85.25 220.3 85.1396 220.406C85.0311 220.513 84.8887 220.601 84.7125 220.669C84.5362 220.737 84.3165 220.755 84.0533 220.723ZM84.3275 220.027C84.57 220.056 84.7827 220.017 84.9657 219.91C85.1508 219.801 85.3006 219.637 85.4152 219.418C85.5316 219.2 85.6085 218.938 85.6458 218.634C85.6826 218.333 85.6716 218.065 85.6128 217.828C85.5539 217.592 85.4485 217.401 85.2967 217.254C85.1448 217.108 84.9457 217.02 84.6994 216.99C84.4457 216.958 84.2261 216.998 84.0408 217.109C83.8555 217.22 83.7057 217.384 83.5913 217.601C83.4789 217.818 83.4052 218.069 83.3702 218.355C83.3347 218.645 83.3461 218.91 83.4042 219.152C83.4624 219.394 83.5678 219.593 83.7204 219.749C83.8751 219.903 84.0775 219.996 84.3275 220.027ZM89.2267 221.359C88.8206 221.31 88.4777 221.173 88.1978 220.95C87.9179 220.727 87.7148 220.438 87.5885 220.082C87.4622 219.727 87.4264 219.326 87.4812 218.879C87.5362 218.429 87.668 218.047 87.8765 217.731C88.085 217.415 88.352 217.182 88.6775 217.033C89.0029 216.884 89.3687 216.834 89.7747 216.884C90.1808 216.934 90.5238 217.07 90.8036 217.294C91.0835 217.517 91.2865 217.807 91.4126 218.164C91.5387 218.521 91.5742 218.924 91.5192 219.373C91.4644 219.821 91.3329 220.201 91.1246 220.516C90.9163 220.83 90.6494 221.061 90.3239 221.21C89.9985 221.359 89.6327 221.409 89.2267 221.359ZM89.3162 220.652C89.5794 220.684 89.8059 220.641 89.9959 220.523C90.1859 220.405 90.3364 220.236 90.4475 220.015C90.5604 219.794 90.6339 219.544 90.668 219.266C90.7018 218.99 90.6906 218.731 90.6343 218.489C90.5801 218.246 90.4752 218.043 90.3195 217.881C90.1638 217.719 89.9544 217.622 89.6912 217.589C89.4262 217.557 89.1976 217.601 89.0055 217.72C88.8153 217.84 88.6636 218.011 88.5504 218.234C88.4394 218.455 88.367 218.704 88.3331 218.98C88.299 219.258 88.3092 219.518 88.3636 219.76C88.4199 220.001 88.526 220.202 88.6819 220.362C88.8397 220.523 89.0511 220.619 89.3162 220.652ZM92.2652 221.643L92.9725 215.868L93.8156 215.971L93.5528 218.117L93.6035 218.123C93.6635 218.039 93.7467 217.943 93.8534 217.836C93.96 217.729 94.1005 217.641 94.2748 217.573C94.4494 217.502 94.6712 217.484 94.94 217.517C95.2896 217.56 95.5909 217.686 95.8437 217.897C96.0965 218.107 96.2806 218.388 96.3959 218.74C96.513 219.092 96.5429 219.502 96.4856 219.97C96.4283 220.438 96.3011 220.83 96.1041 221.145C95.9073 221.459 95.6616 221.689 95.3669 221.837C95.0724 221.982 94.7504 222.033 94.4007 221.99C94.1375 221.958 93.9277 221.887 93.7712 221.778C93.6166 221.67 93.4995 221.551 93.4201 221.421C93.3406 221.291 93.2811 221.177 93.2416 221.078L93.1711 221.07L93.0886 221.744L92.2652 221.643ZM93.3566 219.578C93.3193 219.883 93.3308 220.155 93.3911 220.395C93.4513 220.635 93.5572 220.831 93.7086 220.981C93.8603 221.129 94.0573 221.218 94.2999 221.248C94.5518 221.279 94.7705 221.238 94.956 221.125C95.1418 221.01 95.2921 220.843 95.4069 220.622C95.5235 220.402 95.5996 220.147 95.6351 219.857C95.6701 219.572 95.6582 219.31 95.5996 219.072C95.5429 218.834 95.437 218.639 95.2821 218.486C95.129 218.334 94.9256 218.242 94.6718 218.211C94.4274 218.181 94.2129 218.219 94.0283 218.324C93.8456 218.429 93.6971 218.59 93.583 218.805C93.4689 219.02 93.3935 219.277 93.3566 219.578ZM99.0242 222.559C98.5975 222.507 98.2411 222.371 97.9551 222.151C97.6713 221.929 97.4661 221.641 97.3395 221.288C97.2151 220.933 97.1804 220.531 97.2354 220.082C97.2897 219.638 97.4203 219.257 97.6272 218.939C97.836 218.621 98.1014 218.386 98.4236 218.232C98.7476 218.079 99.1108 218.028 99.5131 218.077C99.7574 218.107 99.9894 218.176 100.209 218.285C100.428 218.394 100.619 218.546 100.78 218.741C100.941 218.937 101.057 219.179 101.129 219.468C101.2 219.756 101.212 220.096 101.164 220.489L101.127 220.788L97.6843 220.366L97.7617 219.734L100.378 220.055C100.406 219.833 100.385 219.631 100.315 219.449C100.246 219.265 100.136 219.113 99.9847 218.993C99.8352 218.874 99.6515 218.801 99.4334 218.774C99.1965 218.745 98.9826 218.778 98.7916 218.873C98.6027 218.966 98.449 219.1 98.3303 219.274C98.2138 219.447 98.1422 219.642 98.1158 219.858L98.0553 220.351C98.0199 220.641 98.0405 220.893 98.1171 221.109C98.1956 221.324 98.3205 221.497 98.4916 221.627C98.6629 221.755 98.8717 221.834 99.118 221.864C99.2778 221.883 99.4262 221.879 99.5633 221.85C99.7007 221.819 99.8229 221.763 99.9301 221.683C100.037 221.602 100.124 221.498 100.192 221.368L100.972 221.61C100.88 221.837 100.74 222.029 100.553 222.185C100.368 222.34 100.145 222.451 99.8849 222.519C99.6269 222.584 99.34 222.598 99.0242 222.559ZM107.669 219.207C107.672 218.937 107.573 218.715 107.373 218.541C107.173 218.366 106.908 218.258 106.577 218.218C106.34 218.189 106.13 218.201 105.948 218.255C105.766 218.307 105.619 218.393 105.508 218.511C105.398 218.627 105.333 218.767 105.313 218.93C105.296 219.068 105.314 219.19 105.365 219.297C105.419 219.405 105.494 219.499 105.591 219.58C105.69 219.659 105.798 219.728 105.915 219.788C106.032 219.846 106.145 219.897 106.254 219.939L106.8 220.154C106.979 220.222 107.161 220.306 107.345 220.407C107.529 220.508 107.696 220.631 107.846 220.777C107.996 220.924 108.11 221.096 108.189 221.295C108.27 221.493 108.294 221.722 108.262 221.982C108.222 222.309 108.102 222.589 107.902 222.822C107.703 223.055 107.435 223.226 107.098 223.333C106.762 223.441 106.369 223.467 105.918 223.412C105.485 223.359 105.12 223.245 104.821 223.069C104.522 222.893 104.298 222.668 104.15 222.394C104.003 222.119 103.941 221.806 103.965 221.456L104.839 221.563C104.83 221.773 104.877 221.956 104.978 222.109C105.082 222.261 105.222 222.382 105.4 222.473C105.58 222.562 105.782 222.62 106.006 222.647C106.252 222.677 106.476 222.666 106.677 222.612C106.88 222.557 107.046 222.466 107.174 222.341C107.302 222.213 107.377 222.056 107.4 221.868C107.421 221.697 107.39 221.551 107.305 221.43C107.223 221.309 107.103 221.203 106.947 221.111C106.792 221.019 106.614 220.934 106.414 220.854L105.755 220.584C105.308 220.402 104.964 220.172 104.723 219.894C104.484 219.617 104.389 219.277 104.438 218.875C104.479 218.542 104.605 218.263 104.816 218.037C105.027 217.81 105.295 217.648 105.62 217.548C105.945 217.447 106.301 217.42 106.689 217.467C107.08 217.515 107.416 217.626 107.698 217.8C107.982 217.974 108.196 218.192 108.34 218.454C108.483 218.714 108.54 218.999 108.509 219.31L107.669 219.207ZM112.004 222.237L112.315 219.702L113.161 219.806L112.63 224.137L111.801 224.035L111.893 223.285L111.848 223.28C111.72 223.499 111.536 223.672 111.298 223.799C111.061 223.925 110.78 223.967 110.455 223.928C110.176 223.894 109.938 223.802 109.738 223.654C109.541 223.504 109.396 223.3 109.304 223.043C109.213 222.785 109.19 222.478 109.233 222.121L109.571 219.366L110.414 219.469L110.089 222.123C110.053 222.418 110.106 222.663 110.248 222.858C110.39 223.053 110.592 223.166 110.853 223.198C111.011 223.217 111.173 223.197 111.339 223.137C111.506 223.078 111.651 222.974 111.774 222.827C111.899 222.68 111.976 222.483 112.004 222.237ZM113.763 224.276L114.293 219.944L115.137 220.048L114.606 224.379L113.763 224.276ZM114.801 219.328C114.654 219.31 114.534 219.246 114.441 219.135C114.35 219.023 114.313 218.898 114.33 218.761C114.347 218.622 114.413 218.51 114.528 218.425C114.646 218.338 114.778 218.303 114.924 218.321C115.071 218.339 115.19 218.405 115.281 218.517C115.374 218.627 115.412 218.752 115.395 218.891C115.379 219.029 115.312 219.141 115.194 219.227C115.079 219.313 114.948 219.346 114.801 219.328ZM118.293 220.434L118.21 221.111L115.844 220.821L115.927 220.144L118.293 220.434ZM116.688 219.184L117.531 219.288L117.03 223.385C117.01 223.548 117.019 223.674 117.058 223.763C117.097 223.85 117.153 223.913 117.226 223.953C117.302 223.991 117.386 224.015 117.478 224.026C117.545 224.035 117.605 224.037 117.657 224.034C117.709 224.031 117.749 224.028 117.778 224.026L117.845 224.741C117.794 224.754 117.722 224.764 117.63 224.772C117.537 224.782 117.423 224.779 117.287 224.764C117.065 224.741 116.863 224.676 116.681 224.57C116.5 224.464 116.36 224.317 116.263 224.13C116.166 223.942 116.133 223.718 116.165 223.456L116.688 219.184ZM120.504 225.19C120.078 225.138 119.721 225.001 119.435 224.781C119.151 224.56 118.946 224.272 118.82 223.919C118.695 223.564 118.66 223.162 118.716 222.713C118.77 222.269 118.9 221.888 119.107 221.57C119.316 221.252 119.582 221.016 119.904 220.863C120.228 220.71 120.591 220.658 120.993 220.708C121.238 220.738 121.469 220.807 121.689 220.916C121.908 221.025 122.099 221.177 122.26 221.372C122.421 221.567 122.537 221.81 122.609 222.099C122.68 222.386 122.692 222.726 122.644 223.119L122.607 223.418L119.164 222.997L119.242 222.365L121.859 222.685C121.886 222.464 121.865 222.262 121.795 222.079C121.726 221.895 121.616 221.744 121.465 221.624C121.315 221.505 121.132 221.431 120.914 221.405C120.677 221.376 120.463 221.409 120.272 221.504C120.083 221.597 119.929 221.731 119.81 221.905C119.694 222.078 119.622 222.272 119.596 222.488L119.535 222.982C119.5 223.271 119.521 223.524 119.597 223.739C119.676 223.955 119.801 224.128 119.972 224.257C120.143 224.385 120.352 224.464 120.598 224.494C120.758 224.514 120.906 224.509 121.043 224.48C121.181 224.449 121.303 224.394 121.41 224.313C121.517 224.233 121.605 224.128 121.672 223.999L122.452 224.241C122.36 224.468 122.22 224.66 122.033 224.816C121.848 224.971 121.625 225.082 121.365 225.149C121.107 225.215 120.82 225.229 120.504 225.19Z" fill="#00264B" fill-opacity="0.3"/>
<path d="M30.5575 104.798L29.6757 104.708C29.661 104.516 29.6147 104.344 29.537 104.191C29.4592 104.039 29.3585 103.906 29.2349 103.792C29.1113 103.679 28.9692 103.588 28.8085 103.52C28.6498 103.453 28.4781 103.409 28.2934 103.391C27.9599 103.357 27.6528 103.41 27.3719 103.551C27.0929 103.692 26.8606 103.917 26.675 104.225C26.4913 104.534 26.3757 104.922 26.3281 105.389C26.2802 105.861 26.3151 106.266 26.4328 106.605C26.5525 106.945 26.7357 107.211 26.9827 107.404C27.2296 107.596 27.5179 107.709 27.8476 107.743C28.0304 107.762 28.2062 107.755 28.3751 107.722C28.5461 107.688 28.7035 107.629 28.8473 107.545C28.991 107.46 29.1162 107.352 29.2229 107.22C29.3317 107.087 29.4134 106.929 29.468 106.748L30.3495 106.841C30.2735 107.121 30.1554 107.373 29.9954 107.599C29.8375 107.823 29.6442 108.01 29.4155 108.162C29.1889 108.313 28.9361 108.421 28.657 108.488C28.378 108.555 28.0793 108.572 27.7609 108.539C27.2597 108.488 26.8252 108.324 26.4574 108.047C26.0899 107.768 25.8157 107.394 25.6348 106.927C25.4559 106.459 25.3977 105.917 25.4604 105.301C25.5233 104.683 25.6904 104.164 25.9616 103.744C26.2329 103.323 26.5766 103.013 26.9927 102.816C27.409 102.616 27.8668 102.542 28.3661 102.593C28.6732 102.624 28.9551 102.697 29.2118 102.813C29.4705 102.927 29.6977 103.08 29.8934 103.271C30.0892 103.46 30.2445 103.683 30.3592 103.941C30.474 104.196 30.5402 104.482 30.5575 104.798ZM31.1372 108.803L31.579 104.462L32.3958 104.545L32.3256 105.235L32.3708 105.239C32.4738 105.014 32.6319 104.844 32.8452 104.731C33.0606 104.615 33.2955 104.571 33.5499 104.597C33.6027 104.602 33.6647 104.61 33.7359 104.621C33.809 104.633 33.866 104.643 33.9068 104.653L33.8246 105.461C33.7916 105.449 33.7324 105.432 33.6468 105.412C33.5615 105.39 33.4755 105.374 33.3888 105.366C33.1891 105.345 33.0067 105.37 32.8417 105.438C32.6788 105.506 32.5445 105.609 32.4389 105.749C32.3335 105.886 32.2712 106.05 32.2521 106.238L31.9822 108.889L31.1372 108.803ZM35.8983 109.376C35.4706 109.333 35.1116 109.204 34.8212 108.99C34.5328 108.774 34.3218 108.49 34.188 108.14C34.0564 107.788 34.0134 107.386 34.0593 106.936C34.1045 106.491 34.2273 106.108 34.4277 105.785C34.6299 105.463 34.8905 105.222 35.2094 105.063C35.5303 104.903 35.8923 104.844 36.2955 104.885C36.5405 104.91 36.7737 104.974 36.9954 105.079C37.217 105.183 37.4104 105.331 37.5755 105.523C37.7406 105.715 37.8618 105.955 37.9392 106.243C38.0167 106.529 38.0354 106.868 37.9953 107.262L37.9648 107.562L34.5139 107.211L34.5783 106.578L37.2012 106.844C37.2238 106.622 37.1986 106.421 37.1256 106.24C37.0528 106.057 36.9395 105.908 36.7858 105.791C36.6339 105.675 36.4487 105.606 36.2301 105.583C35.9927 105.559 35.7795 105.597 35.5905 105.695C35.4036 105.792 35.2526 105.929 35.1375 106.106C35.0245 106.281 34.9569 106.477 34.9349 106.694L34.8845 107.188C34.855 107.479 34.8808 107.731 34.9618 107.944C35.0447 108.158 35.173 108.329 35.3468 108.455C35.5207 108.579 35.731 108.654 35.9779 108.679C36.138 108.695 36.2864 108.687 36.4229 108.656C36.5595 108.622 36.6806 108.564 36.7861 108.481C36.8916 108.399 36.9767 108.292 37.0414 108.162L37.8266 108.387C37.7385 108.616 37.6026 108.811 37.4188 108.971C37.237 109.13 37.0168 109.245 36.7581 109.318C36.5015 109.389 36.2149 109.408 35.8983 109.376ZM39.961 109.798C39.6859 109.77 39.4424 109.694 39.2304 109.57C39.0186 109.443 38.8577 109.276 38.7476 109.066C38.6394 108.857 38.5998 108.611 38.6288 108.326C38.6537 108.081 38.7213 107.884 38.8317 107.736C38.942 107.587 39.0819 107.475 39.2515 107.399C39.421 107.323 39.6071 107.271 39.8097 107.244C40.0124 107.217 40.2176 107.202 40.4255 107.198C40.6886 107.195 40.9021 107.192 41.0661 107.189C41.2302 107.185 41.3514 107.164 41.4294 107.126C41.5075 107.089 41.5517 107.019 41.5621 106.917L41.5641 106.897C41.5892 106.65 41.539 106.452 41.4134 106.302C41.2896 106.153 41.0911 106.064 40.8179 106.036C40.5334 106.007 40.3028 106.047 40.126 106.157C39.9513 106.265 39.8251 106.392 39.7474 106.538L38.9716 106.277C39.0927 106.022 39.2519 105.823 39.4493 105.68C39.6487 105.534 39.8709 105.437 40.1158 105.388C40.3609 105.337 40.6143 105.324 40.8762 105.351C41.0496 105.369 41.2312 105.408 41.421 105.469C41.613 105.529 41.7883 105.621 41.9469 105.745C42.1074 105.87 42.2322 106.038 42.3211 106.249C42.4103 106.458 42.4388 106.721 42.4065 107.037L42.1131 109.92L41.2879 109.836L41.3483 109.243L41.3143 109.239C41.2486 109.343 41.1557 109.442 41.0357 109.536C40.9156 109.631 40.7663 109.704 40.5878 109.756C40.4092 109.809 40.2003 109.823 39.961 109.798ZM40.2138 109.139C40.4474 109.162 40.6518 109.137 40.827 109.061C41.0041 108.986 41.1436 108.878 41.2454 108.738C41.3493 108.596 41.41 108.44 41.4274 108.268L41.4844 107.709C41.4512 107.736 41.3899 107.758 41.3005 107.776C41.2132 107.792 41.114 107.803 41.0028 107.811C40.8918 107.817 40.7837 107.822 40.6785 107.827C40.5736 107.829 40.4857 107.832 40.4151 107.834C40.249 107.838 40.0957 107.858 39.955 107.893C39.8163 107.928 39.7017 107.988 39.6113 108.072C39.5229 108.154 39.4711 108.271 39.4557 108.422C39.4345 108.631 39.4956 108.797 39.6392 108.92C39.7829 109.041 39.9745 109.114 40.2138 109.139ZM45.707 105.9L45.638 106.578L43.2667 106.337L43.3357 105.658L45.707 105.9ZM44.0775 104.683L44.9226 104.769L44.5046 108.876C44.4879 109.04 44.4999 109.166 44.5404 109.253C44.5812 109.339 44.6386 109.401 44.7128 109.439C44.7891 109.476 44.8734 109.499 44.9657 109.508C45.0335 109.515 45.0934 109.516 45.1452 109.512C45.197 109.508 45.2374 109.504 45.2662 109.501L45.3478 110.215C45.2969 110.229 45.2252 110.241 45.1329 110.25C45.0403 110.262 44.9261 110.262 44.7903 110.25C44.5675 110.231 44.3643 110.17 44.1805 110.068C43.9968 109.965 43.8544 109.821 43.7533 109.636C43.6523 109.45 43.6151 109.227 43.6417 108.965L44.0775 104.683ZM46.2 110.336L46.6418 105.995L47.4869 106.081L47.045 110.422L46.2 110.336ZM47.1368 105.368C46.9898 105.354 46.8685 105.292 46.773 105.183C46.6795 105.073 46.6398 104.949 46.6538 104.811C46.668 104.672 46.7319 104.558 46.8455 104.471C46.9612 104.382 47.0925 104.345 47.2395 104.359C47.3864 104.374 47.5066 104.437 47.6001 104.548C47.6957 104.656 47.7363 104.78 47.7221 104.92C47.7081 105.057 47.6433 105.171 47.5276 105.26C47.414 105.347 47.2837 105.383 47.1368 105.368ZM52.3375 106.575L50.3214 110.756L49.417 110.664L48.2818 106.162L49.189 106.254L49.9484 109.707L49.9937 109.711L51.4303 106.482L52.3375 106.575ZM52.6899 110.997L53.1317 106.655L53.9768 106.741L53.535 111.083L52.6899 110.997ZM53.6267 106.029C53.4797 106.014 53.3584 105.952 53.2629 105.844C53.1694 105.733 53.1297 105.609 53.1437 105.472C53.1579 105.332 53.2218 105.219 53.3354 105.131C53.4511 105.042 53.5824 105.005 53.7294 105.02C53.8763 105.035 53.9966 105.098 54.09 105.208C54.1856 105.317 54.2262 105.441 54.212 105.58C54.198 105.718 54.1332 105.831 54.0175 105.92C53.9039 106.008 53.7736 106.044 53.6267 106.029ZM57.1401 107.063L57.0711 107.742L54.6998 107.5L54.7689 106.822L57.1401 107.063ZM55.5106 105.847L56.3557 105.933L55.9377 110.039C55.9211 110.203 55.933 110.329 55.9735 110.417C56.0143 110.503 56.0718 110.565 56.1459 110.603C56.2222 110.639 56.3065 110.662 56.3988 110.672C56.4666 110.679 56.5265 110.68 56.5783 110.676C56.6301 110.671 56.6705 110.668 56.6993 110.665L56.7809 111.379C56.73 111.393 56.6583 111.404 56.566 111.414C56.4734 111.425 56.3592 111.425 56.2234 111.413C56.0007 111.395 55.7974 111.334 55.6137 111.231C55.4299 111.129 55.2875 110.985 55.1865 110.8C55.0854 110.614 55.0482 110.39 55.0748 110.129L55.5106 105.847ZM58.0016 113.182C57.8753 113.169 57.7615 113.147 57.6599 113.116C57.5582 113.086 57.4831 113.058 57.4345 113.03L57.7085 112.358C57.8588 112.416 57.9945 112.447 58.1157 112.454C58.2368 112.461 58.3479 112.426 58.4488 112.351C58.5517 112.276 58.6487 112.146 58.7398 111.961L58.8737 111.683L57.733 107.124L58.6374 107.216L59.3939 110.697L59.4391 110.701L60.8815 107.444L61.7887 107.537L59.4988 112.275C59.3929 112.493 59.2679 112.673 59.1239 112.817C58.9797 112.962 58.815 113.065 58.6298 113.126C58.4446 113.187 58.2352 113.206 58.0016 113.182Z" fill="#00264B" fill-opacity="0.3"/>
<path d="M100.167 171.628L100.772 165.841L102.891 166.063C103.302 166.106 103.635 166.209 103.89 166.373C104.145 166.535 104.328 166.738 104.438 166.982C104.548 167.224 104.588 167.488 104.558 167.774C104.533 168.015 104.467 168.214 104.361 168.37C104.255 168.525 104.123 168.644 103.964 168.729C103.807 168.811 103.637 168.866 103.455 168.893L103.449 168.949C103.641 168.979 103.822 169.06 103.992 169.194C104.165 169.327 104.301 169.504 104.399 169.725C104.498 169.947 104.532 170.208 104.501 170.507C104.47 170.803 104.372 171.061 104.208 171.282C104.046 171.501 103.814 171.665 103.511 171.772C103.209 171.878 102.834 171.907 102.385 171.86L100.167 171.628ZM101.119 170.971L102.379 171.102C102.797 171.146 103.105 171.096 103.303 170.953C103.501 170.81 103.612 170.617 103.638 170.374C103.657 170.191 103.628 170.019 103.552 169.857C103.475 169.695 103.356 169.559 103.194 169.451C103.034 169.343 102.837 169.277 102.604 169.252L101.312 169.117L101.119 170.971ZM101.384 168.436L102.553 168.558C102.749 168.579 102.929 168.56 103.094 168.501C103.26 168.442 103.396 168.349 103.502 168.223C103.611 168.096 103.675 167.939 103.695 167.752C103.72 167.513 103.657 167.304 103.506 167.124C103.355 166.945 103.107 166.837 102.76 166.801L101.568 166.676L101.384 168.436ZM105.306 172.165L105.759 167.825L106.576 167.911L106.504 168.6L106.549 168.605C106.652 168.379 106.811 168.21 107.025 168.098C107.24 167.983 107.475 167.939 107.73 167.966C107.782 167.971 107.844 167.979 107.916 167.991C107.989 168.002 108.046 168.013 108.086 168.023L108.002 168.831C107.969 168.818 107.91 168.801 107.824 168.781C107.739 168.759 107.653 168.743 107.567 168.734C107.367 168.713 107.184 168.737 107.019 168.805C106.856 168.872 106.722 168.975 106.616 169.114C106.51 169.252 106.447 169.415 106.427 169.603L106.15 172.254L105.306 172.165ZM109.573 172.708C109.298 172.68 109.055 172.603 108.843 172.478C108.632 172.351 108.471 172.183 108.362 171.973C108.254 171.764 108.215 171.517 108.245 171.233C108.271 170.988 108.339 170.791 108.45 170.643C108.56 170.495 108.701 170.383 108.87 170.307C109.04 170.231 109.226 170.18 109.429 170.154C109.632 170.128 109.837 170.113 110.045 170.11C110.308 170.107 110.522 170.105 110.685 170.103C110.85 170.099 110.971 170.078 111.049 170.041C111.127 170.003 111.172 169.933 111.182 169.832L111.184 169.812C111.21 169.565 111.16 169.367 111.035 169.217C110.912 169.067 110.714 168.977 110.44 168.949C110.156 168.919 109.925 168.959 109.748 169.068C109.573 169.175 109.447 169.302 109.369 169.448L108.593 169.184C108.715 168.93 108.875 168.732 109.073 168.589C109.273 168.444 109.495 168.347 109.74 168.299C109.985 168.248 110.239 168.236 110.501 168.264C110.674 168.282 110.855 168.322 111.045 168.384C111.237 168.444 111.412 168.536 111.57 168.661C111.73 168.787 111.855 168.955 111.943 169.166C112.032 169.375 112.059 169.638 112.026 169.954L111.725 172.836L110.9 172.75L110.962 172.157L110.928 172.153C110.862 172.257 110.769 172.356 110.649 172.45C110.528 172.544 110.379 172.617 110.2 172.668C110.021 172.72 109.813 172.734 109.573 172.708ZM109.828 172.05C110.061 172.074 110.266 172.049 110.441 171.974C110.619 171.899 110.758 171.792 110.861 171.652C110.965 171.511 111.026 171.354 111.044 171.183L111.102 170.623C111.069 170.65 111.008 170.672 110.918 170.69C110.831 170.705 110.732 170.717 110.62 170.724C110.509 170.73 110.401 170.735 110.296 170.739C110.191 170.741 110.103 170.743 110.033 170.746C109.867 170.749 109.713 170.768 109.573 170.803C109.434 170.838 109.319 170.898 109.228 170.981C109.14 171.064 109.088 171.18 109.072 171.331C109.05 171.54 109.111 171.706 109.254 171.83C109.397 171.951 109.589 172.025 109.828 172.05ZM112.85 172.954L113.304 168.614L114.149 168.702L113.695 173.042L112.85 172.954ZM113.801 167.989C113.654 167.974 113.533 167.911 113.437 167.802C113.344 167.692 113.305 167.568 113.319 167.43C113.334 167.291 113.398 167.177 113.512 167.09C113.628 167.002 113.759 166.965 113.906 166.98C114.053 166.996 114.173 167.059 114.266 167.169C114.361 167.278 114.402 167.402 114.387 167.542C114.373 167.679 114.308 167.792 114.192 167.881C114.078 167.968 113.948 168.004 113.801 167.989ZM115.946 170.673L115.677 173.249L114.832 173.161L115.285 168.821L116.096 168.906L116.022 169.612L116.076 169.618C116.2 169.398 116.376 169.23 116.603 169.113C116.832 168.996 117.11 168.955 117.436 168.989C117.732 169.02 117.984 169.109 118.193 169.256C118.403 169.402 118.556 169.603 118.653 169.859C118.75 170.114 118.78 170.421 118.743 170.779L118.454 173.54L117.609 173.451L117.887 170.793C117.92 170.478 117.864 170.224 117.718 170.029C117.573 169.833 117.357 169.72 117.071 169.69C116.875 169.67 116.697 169.694 116.535 169.763C116.376 169.832 116.243 169.944 116.137 170.098C116.034 170.251 115.97 170.443 115.946 170.673ZM123.182 170.718L122.402 170.773C122.38 170.672 122.339 170.573 122.279 170.478C122.22 170.382 122.136 170.3 122.025 170.231C121.914 170.162 121.771 170.119 121.596 170.101C121.356 170.076 121.151 170.108 120.98 170.199C120.809 170.288 120.714 170.416 120.697 170.584C120.682 170.729 120.723 170.851 120.821 170.951C120.919 171.051 121.085 171.141 121.318 171.223L121.991 171.453C122.381 171.587 122.664 171.76 122.84 171.973C123.015 172.186 123.087 172.445 123.055 172.752C123.028 173.012 122.928 173.236 122.756 173.424C122.587 173.61 122.362 173.746 122.082 173.833C121.805 173.92 121.491 173.946 121.14 173.909C120.654 173.858 120.269 173.713 119.983 173.474C119.698 173.233 119.541 172.916 119.511 172.525L120.341 172.486C120.369 172.704 120.457 172.876 120.604 173.002C120.751 173.126 120.952 173.201 121.206 173.228C121.483 173.256 121.71 173.222 121.888 173.125C122.066 173.025 122.164 172.892 122.181 172.724C122.195 172.588 122.156 172.469 122.064 172.366C121.974 172.263 121.828 172.178 121.626 172.109L120.908 171.871C120.513 171.736 120.228 171.558 120.055 171.336C119.884 171.115 119.815 170.849 119.847 170.54C119.874 170.284 119.969 170.068 120.132 169.89C120.296 169.713 120.509 169.584 120.773 169.503C121.036 169.42 121.331 169.396 121.657 169.43C122.126 169.479 122.485 169.619 122.733 169.851C122.981 170.081 123.131 170.37 123.182 170.718ZM126.332 169.976L126.262 170.654L123.891 170.406L123.962 169.728L126.332 169.976ZM124.706 168.755L125.551 168.843L125.122 172.949C125.105 173.112 125.116 173.238 125.157 173.326C125.197 173.412 125.255 173.475 125.329 173.513C125.405 173.549 125.489 173.572 125.581 173.582C125.649 173.589 125.709 173.591 125.761 173.587C125.813 173.582 125.853 173.579 125.882 173.576L125.961 174.29C125.91 174.304 125.839 174.315 125.746 174.325C125.654 174.336 125.54 174.336 125.404 174.323C125.181 174.304 124.978 174.243 124.795 174.14C124.611 174.037 124.469 173.892 124.369 173.707C124.268 173.521 124.231 173.297 124.259 173.035L124.706 168.755ZM128.586 174.687C128.179 174.645 127.833 174.514 127.55 174.296C127.266 174.078 127.058 173.793 126.925 173.44C126.793 173.087 126.75 172.686 126.797 172.238C126.844 171.788 126.969 171.403 127.171 171.083C127.374 170.764 127.637 170.526 127.96 170.372C128.283 170.217 128.648 170.161 129.054 170.203C129.461 170.246 129.807 170.376 130.09 170.594C130.374 170.813 130.582 171.099 130.715 171.454C130.847 171.808 130.89 172.211 130.843 172.661C130.796 173.109 130.671 173.492 130.468 173.81C130.266 174.128 130.003 174.364 129.68 174.519C129.357 174.674 128.993 174.73 128.586 174.687ZM128.663 173.978C128.926 174.006 129.152 173.959 129.34 173.838C129.528 173.717 129.675 173.544 129.782 173.321C129.891 173.099 129.96 172.848 129.99 172.569C130.019 172.292 130.003 172.033 129.942 171.793C129.884 171.551 129.775 171.35 129.617 171.19C129.458 171.031 129.247 170.938 128.983 170.91C128.718 170.882 128.49 170.93 128.3 171.053C128.112 171.176 127.963 171.35 127.854 171.575C127.747 171.798 127.679 172.048 127.65 172.324C127.621 172.603 127.636 172.863 127.694 173.103C127.755 173.344 127.865 173.543 128.023 173.7C128.184 173.858 128.397 173.951 128.663 173.978ZM131.561 174.91L132.015 170.57L132.831 170.655L132.759 171.345L132.804 171.349C132.908 171.124 133.066 170.955 133.28 170.842C133.496 170.728 133.731 170.684 133.985 170.71C134.038 170.716 134.1 170.724 134.171 170.735C134.244 170.747 134.301 170.757 134.342 170.767L134.257 171.576C134.224 171.563 134.165 171.546 134.08 171.526C133.995 171.503 133.909 171.488 133.822 171.479C133.622 171.458 133.44 171.481 133.275 171.55C133.111 171.617 132.977 171.72 132.871 171.859C132.765 171.997 132.702 172.159 132.683 172.348L132.406 174.998L131.561 174.91ZM134.615 175.229L135.068 170.889L135.879 170.974L135.805 171.68L135.859 171.686C135.974 171.456 136.142 171.285 136.361 171.173C136.581 171.059 136.833 171.016 137.12 171.046C137.41 171.077 137.646 171.17 137.828 171.326C138.011 171.482 138.138 171.684 138.207 171.931L138.252 171.936C138.38 171.715 138.564 171.548 138.805 171.434C139.045 171.318 139.322 171.277 139.635 171.309C140.028 171.35 140.336 171.507 140.559 171.78C140.784 172.053 140.87 172.438 140.818 172.935L140.514 175.846L139.669 175.757L139.965 172.926C139.996 172.632 139.938 172.411 139.792 172.263C139.646 172.114 139.461 172.028 139.239 172.005C138.964 171.976 138.741 172.039 138.571 172.192C138.401 172.344 138.302 172.552 138.275 172.815L137.985 175.581L137.143 175.493L137.445 172.609C137.47 172.373 137.416 172.176 137.284 172.018C137.152 171.859 136.968 171.767 136.733 171.743C136.573 171.726 136.42 171.753 136.276 171.824C136.134 171.893 136.013 171.997 135.915 172.137C135.818 172.278 135.76 172.446 135.739 172.642L135.459 175.317L134.615 175.229ZM141.647 175.964L142.1 171.624L142.945 171.712L142.491 176.052L141.647 175.964ZM142.597 170.999C142.45 170.984 142.329 170.922 142.234 170.813C142.14 170.702 142.101 170.578 142.115 170.44C142.13 170.301 142.194 170.188 142.308 170.101C142.424 170.012 142.555 169.975 142.702 169.99C142.849 170.006 142.969 170.069 143.062 170.179C143.158 170.288 143.198 170.413 143.183 170.552C143.169 170.689 143.104 170.803 142.988 170.891C142.874 170.979 142.744 171.014 142.597 170.999ZM144.742 173.683L144.473 176.26L143.628 176.171L144.082 171.831L144.893 171.916L144.819 172.622L144.872 172.628C144.996 172.409 145.172 172.24 145.399 172.123C145.629 172.006 145.906 171.965 146.232 171.999C146.528 172.03 146.78 172.119 146.99 172.267C147.199 172.412 147.352 172.613 147.449 172.869C147.546 173.125 147.576 173.431 147.539 173.789L147.25 176.55L146.405 176.462L146.683 173.803C146.716 173.488 146.66 173.234 146.515 173.04C146.369 172.844 146.154 172.731 145.867 172.701C145.671 172.68 145.493 172.704 145.331 172.773C145.172 172.842 145.039 172.954 144.934 173.109C144.83 173.261 144.766 173.453 144.742 173.683ZM150.023 178.576C149.679 178.54 149.387 178.464 149.147 178.348C148.91 178.232 148.721 178.091 148.58 177.926C148.44 177.761 148.34 177.585 148.281 177.4L149.039 177.177C149.081 177.265 149.139 177.36 149.215 177.461C149.291 177.564 149.4 177.656 149.54 177.738C149.682 177.819 149.869 177.872 150.103 177.896C150.423 177.93 150.696 177.879 150.921 177.745C151.147 177.612 151.277 177.376 151.313 177.037L151.402 176.184L151.348 176.178C151.288 176.265 151.203 176.36 151.095 176.463C150.989 176.567 150.849 176.651 150.675 176.716C150.5 176.782 150.28 176.801 150.015 176.773C149.672 176.737 149.371 176.625 149.113 176.436C148.857 176.246 148.665 175.985 148.538 175.653C148.413 175.32 148.374 174.923 148.423 174.462C148.471 174 148.59 173.613 148.781 173.299C148.974 172.986 149.217 172.757 149.51 172.61C149.804 172.462 150.125 172.406 150.473 172.442C150.743 172.47 150.955 172.538 151.112 172.646C151.268 172.752 151.386 172.869 151.466 172.997C151.548 173.126 151.61 173.238 151.651 173.334L151.713 173.34L151.787 172.637L152.615 172.723L152.151 177.159C152.112 177.532 151.993 177.829 151.795 178.05C151.597 178.272 151.344 178.424 151.036 178.508C150.73 178.592 150.393 178.615 150.023 178.576ZM150.274 176.092C150.517 176.117 150.729 176.082 150.908 175.987C151.09 175.89 151.235 175.739 151.344 175.535C151.455 175.33 151.526 175.077 151.557 174.778C151.588 174.486 151.571 174.224 151.508 173.993C151.445 173.762 151.335 173.575 151.181 173.433C151.026 173.289 150.826 173.205 150.579 173.179C150.325 173.152 150.106 173.196 149.923 173.31C149.739 173.422 149.593 173.586 149.483 173.801C149.375 174.016 149.306 174.263 149.277 174.539C149.247 174.824 149.265 175.078 149.329 175.302C149.393 175.526 149.504 175.707 149.66 175.845C149.819 175.983 150.024 176.066 150.274 176.092Z" fill="#00264B" fill-opacity="0.3"/>
<path d="M254.276 211.672L223.085 208.232C219.177 207.181 211.666 202.319 212.883 191.284L215.418 168.295C216.164 164.344 214.902 156.138 203.893 154.924L174.537 151.686" stroke="url(#paint0_linear_439_12)" stroke-opacity="0.5"/>
<path d="M24.0094 1.05569L146.022 14.5121C152.477 14.9138 163.985 21.7055 158.372 45.6586C156.738 52.6321 158.256 58.4904 174.484 59.5354L214.848 63.9872" stroke="url(#paint1_linear_439_12)" stroke-opacity="0.5"/>
<rect x="215.859" y="46.414" width="84.9111" height="33.3055" rx="5" transform="rotate(6.29358 215.859 46.414)" fill="#E9E9E9" fill-opacity="0.5"/>
<rect x="216.523" y="47.2417" width="83.4111" height="31.8055" rx="4.25" transform="rotate(6.29358 216.523 47.2417)" stroke="#E1E1E1" stroke-opacity="0.5" stroke-width="1.5"/>
<rect x="110.334" y="73.4654" width="67.2522" height="34.1055" rx="5.4" transform="rotate(6.29358 110.334 73.4654)" stroke="#E1E1E1" stroke-opacity="0.5" stroke-width="0.8"/>
<path d="M37.3236 171.52C40.2878 171.847 42.4254 174.515 42.0985 177.479L39.5436 200.645C39.2166 203.609 36.549 205.746 33.5848 205.42L3.29584 202.079L7.03459 168.179L37.3236 171.52Z" stroke="#E1E1E1" stroke-opacity="0.5" stroke-width="0.8"/>
<path d="M17.1143 63.5869L96.5438 72.3469C99.2885 72.6497 101.268 75.1201 100.966 77.8649L98.4107 101.03C98.108 103.775 95.6375 105.754 92.8927 105.452L13.4632 96.6916L17.1143 63.5869Z" fill="#E9E9E9" fill-opacity="0.5"/>
<path d="M96.4616 73.0924C98.7946 73.3498 100.477 75.4497 100.22 77.7827L97.6652 100.948C97.4078 103.281 95.3079 104.964 92.9749 104.706L14.2909 96.0285L17.7775 64.4146L96.4616 73.0924Z" stroke="#E1E1E1" stroke-opacity="0.5" stroke-width="1.5"/>
<path d="M54.6533 177.858C54.8955 175.662 56.8719 174.078 59.0677 174.321L161.202 185.585C163.398 185.827 164.982 187.803 164.739 189.999L161.965 215.152C161.723 217.348 159.747 218.932 157.551 218.69L55.4166 207.425C53.2208 207.183 51.6371 205.207 51.8792 203.011L54.6533 177.858Z" fill="white" fill-opacity="0.5"/>
<path d="M59.0129 174.818L161.148 186.082C163.069 186.294 164.455 188.023 164.243 189.944L161.469 215.098C161.257 217.019 159.527 218.405 157.606 218.193L55.4714 206.929C53.5501 206.717 52.1644 204.987 52.3762 203.066L55.1503 177.913C55.3622 175.991 57.0915 174.606 59.0129 174.818Z" stroke="#E1E1E1" stroke-opacity="0.5"/>
<path d="M312.554 62.1085C312.857 59.3637 315.328 57.384 318.072 57.6867L327.781 58.7574L324.13 91.8622L314.421 90.7915C311.677 90.4888 309.697 88.0183 310 85.2735L312.554 62.1085Z" fill="#E9E9E9" fill-opacity="0.5"/>
<path d="M317.99 58.4322L326.953 59.4207L323.467 91.0347L314.504 90.0462C312.171 89.7889 310.488 87.6889 310.745 85.3559L313.3 62.1907C313.557 59.8576 315.657 58.1749 317.99 58.4322Z" stroke="#E1E1E1" stroke-opacity="0.5" stroke-width="1.5"/>
<path d="M209.943 100.047C210.186 97.8512 212.162 96.2674 214.358 96.5096L322.303 108.415L318.449 143.359L210.504 131.454C208.308 131.211 206.724 129.235 206.966 127.039L209.943 100.047Z" fill="#E9E9E9" fill-opacity="0.5"/>
<path d="M214.276 97.2551L321.475 109.078L317.786 142.531L210.586 130.708C208.802 130.512 207.515 128.906 207.712 127.122L210.689 100.129C210.886 98.3451 212.491 97.0583 214.276 97.2551Z" stroke="#E1E1E1" stroke-opacity="0.5" stroke-width="1.5"/>
<path d="M213.428 102.142C213.549 101.044 214.537 100.252 215.635 100.373L321.899 112.093L318.856 139.68L212.593 127.961C211.495 127.84 210.703 126.851 210.824 125.754L213.428 102.142Z" fill="url(#paint2_linear_439_12)" fill-opacity="0.5"/>
<path d="M322.175 111.872L319.078 139.957L212.565 128.21C211.33 128.073 210.44 126.961 210.576 125.726L213.18 102.115C213.316 100.88 214.428 99.9887 215.663 100.125L322.175 111.872Z" stroke="url(#paint3_linear_439_12)" stroke-opacity="0.5" stroke-width="0.5"/>
<g filter="url(#filter0_d_439_12)">
<rect x="31.6182" y="117.309" width="140.288" height="35.1558" rx="3" transform="rotate(6.29358 31.6182 117.309)" fill="#EBEBEB" fill-opacity="0.5" shape-rendering="crispEdges"/>
<rect x="32.0603" y="117.861" width="139.288" height="34.1558" rx="2.5" transform="rotate(6.29358 32.0603 117.861)" stroke="url(#paint4_linear_439_12)" stroke-opacity="0.5" shape-rendering="crispEdges"/>
</g>
<rect x="71.1696" y="130.825" width="58.6988" height="16.958" rx="8.47899" transform="rotate(6.29358 71.1696 130.825)" stroke="url(#paint5_linear_439_12)" stroke-width="3"/>
<g filter="url(#filter1_d_439_12)">
<path d="M258.828 195.647C259.01 194 260.492 192.812 262.139 192.994L312.366 198.533L308.512 233.477L258.285 227.938C256.638 227.756 255.451 226.274 255.632 224.627L258.828 195.647Z" fill="#EBEBEB" fill-opacity="0.5" shape-rendering="crispEdges"/>
<path d="M262.084 193.491L311.814 198.975L308.07 232.926L258.34 227.441C256.968 227.29 255.978 226.054 256.129 224.682L259.325 195.702L259.366 195.449C259.632 194.21 260.798 193.349 262.084 193.491Z" stroke="url(#paint6_linear_439_12)" stroke-opacity="0.5" shape-rendering="crispEdges"/>
</g>
<path d="M209.272 114.564C203.495 113.617 192.657 113.662 191.648 131.235L190.532 141.351C190.059 145.642 185.443 153.82 169.949 151.181" stroke="url(#paint7_linear_439_12)" stroke-opacity="0.5"/>
<g filter="url(#filter2_d_439_12)">
<circle cx="235" cy="117" r="4" fill="white"/>
</g>
<g filter="url(#filter3_d_439_12)">
<circle cx="235" cy="117" r="2" fill="#006CFF"/>
</g>
<circle cx="221" cy="89" r="3" fill="#00264B" fill-opacity="0.5"/>
<circle cx="99" cy="142" r="3" fill="#006CFF"/>
<circle cx="221" cy="89" r="2" fill="#00264B"/>
<circle cx="99" cy="142" r="2" fill="white"/>
<circle cx="63" cy="85" r="2" fill="url(#paint8_linear_439_12)"/>
<path d="M273.82 184.257L274.882 184.351L276.328 189.02L276.396 189.026L278.64 184.684L279.701 184.778L279.188 190.574L278.356 190.5L278.727 186.306L278.673 186.301L276.593 190.335L275.903 190.274L274.565 185.935L274.511 185.93L274.139 190.127L273.307 190.053L273.82 184.257ZM281.647 190.889C281.372 190.864 281.127 190.791 280.914 190.67C280.7 190.546 280.537 190.38 280.424 190.173C280.314 189.965 280.271 189.719 280.296 189.434C280.318 189.189 280.383 188.991 280.491 188.841C280.599 188.691 280.738 188.577 280.906 188.498C281.075 188.42 281.26 188.366 281.463 188.337C281.665 188.307 281.87 188.289 282.078 188.283C282.341 188.276 282.554 188.27 282.718 188.265C282.882 188.259 283.003 188.236 283.081 188.198C283.158 188.159 283.202 188.089 283.211 187.987L283.212 187.967C283.234 187.72 283.181 187.522 283.054 187.374C282.928 187.226 282.729 187.14 282.455 187.115C282.17 187.09 281.94 187.134 281.765 187.245C281.591 187.356 281.467 187.484 281.391 187.632L280.612 187.38C280.73 187.124 280.886 186.923 281.082 186.777C281.279 186.629 281.5 186.529 281.744 186.476C281.989 186.422 282.242 186.406 282.504 186.43C282.678 186.445 282.86 186.482 283.051 186.541C283.243 186.598 283.42 186.688 283.58 186.81C283.742 186.933 283.869 187.099 283.961 187.309C284.053 187.517 284.085 187.779 284.057 188.096L283.801 190.982L282.975 190.909L283.027 190.315L282.993 190.312C282.929 190.416 282.837 190.517 282.718 190.613C282.6 190.709 282.451 190.784 282.274 190.838C282.096 190.893 281.887 190.91 281.647 190.889ZM281.891 190.226C282.125 190.246 282.329 190.218 282.504 190.14C282.68 190.063 282.818 189.953 282.918 189.812C283.02 189.669 283.078 189.511 283.094 189.34L283.143 188.779C283.11 188.807 283.049 188.83 282.96 188.849C282.873 188.866 282.774 188.879 282.663 188.888C282.552 188.895 282.444 188.902 282.339 188.908C282.234 188.912 282.146 188.915 282.076 188.919C281.91 188.925 281.757 188.946 281.616 188.983C281.478 189.021 281.364 189.082 281.275 189.167C281.188 189.251 281.137 189.368 281.124 189.519C281.106 189.728 281.169 189.894 281.314 190.015C281.459 190.134 281.652 190.204 281.891 190.226ZM284.928 191.082L285.313 186.735L286.131 186.808L286.07 187.498L286.115 187.502C286.215 187.275 286.371 187.104 286.582 186.988C286.796 186.87 287.031 186.822 287.285 186.845C287.338 186.849 287.4 186.857 287.472 186.867C287.545 186.877 287.602 186.887 287.643 186.896L287.571 187.706C287.538 187.693 287.479 187.677 287.393 187.658C287.307 187.637 287.221 187.623 287.134 187.615C286.934 187.598 286.752 187.624 286.588 187.695C286.426 187.765 286.293 187.87 286.19 188.011C286.086 188.15 286.026 188.314 286.009 188.503L285.774 191.157L284.928 191.082ZM288.895 189.948L288.981 188.914L289.128 188.927L291.023 187.241L292.036 187.331L289.875 189.25L289.742 189.238L288.895 189.948ZM287.986 191.353L288.5 185.557L289.346 185.632L288.832 191.428L287.986 191.353ZM290.731 191.596L289.358 189.392L289.993 188.853L291.77 191.688L290.731 191.596ZM294.109 191.984C293.68 191.946 293.32 191.822 293.026 191.611C292.735 191.399 292.521 191.119 292.382 190.77C292.246 190.419 292.198 190.019 292.238 189.568C292.277 189.122 292.395 188.737 292.591 188.412C292.789 188.088 293.046 187.843 293.363 187.679C293.682 187.516 294.043 187.452 294.447 187.487C294.692 187.509 294.926 187.571 295.149 187.672C295.372 187.774 295.568 187.919 295.735 188.109C295.903 188.299 296.027 188.537 296.108 188.824C296.189 189.109 296.213 189.448 296.178 189.842L296.151 190.142L292.696 189.836L292.752 189.203L295.378 189.435C295.398 189.212 295.37 189.011 295.295 188.832C295.219 188.65 295.104 188.502 294.949 188.387C294.796 188.273 294.609 188.206 294.391 188.187C294.153 188.166 293.94 188.206 293.753 188.307C293.567 188.407 293.418 188.546 293.305 188.724C293.194 188.9 293.129 189.097 293.11 189.314L293.066 189.809C293.04 190.1 293.07 190.351 293.153 190.564C293.239 190.777 293.37 190.946 293.545 191.07C293.72 191.192 293.932 191.263 294.179 191.285C294.339 191.3 294.488 191.29 294.624 191.256C294.76 191.221 294.88 191.161 294.985 191.077C295.089 190.993 295.173 190.886 295.236 190.754L296.024 190.97C295.939 191.2 295.805 191.396 295.624 191.559C295.444 191.72 295.225 191.838 294.967 191.914C294.712 191.989 294.426 192.012 294.109 191.984ZM299.334 187.977L299.274 188.656L296.9 188.446L296.96 187.767L299.334 187.977ZM297.689 186.782L298.535 186.857L298.171 190.969C298.156 191.133 298.17 191.259 298.211 191.346C298.253 191.431 298.312 191.493 298.386 191.53C298.463 191.565 298.547 191.587 298.64 191.595C298.708 191.601 298.768 191.601 298.819 191.597C298.871 191.592 298.912 191.588 298.94 191.584L299.031 192.297C298.981 192.311 298.909 192.324 298.817 192.335C298.724 192.348 298.61 192.349 298.474 192.339C298.251 192.323 298.047 192.265 297.862 192.165C297.677 192.065 297.533 191.923 297.429 191.739C297.326 191.555 297.286 191.331 297.309 191.069L297.689 186.782ZM299.885 192.407L300.27 188.06L301.116 188.135L300.731 192.482L299.885 192.407ZM300.757 187.427C300.609 187.414 300.487 187.354 300.39 187.247C300.296 187.137 300.254 187.014 300.266 186.876C300.279 186.737 300.341 186.622 300.454 186.533C300.568 186.443 300.699 186.404 300.846 186.417C300.993 186.43 301.114 186.491 301.209 186.6C301.306 186.708 301.348 186.831 301.336 186.971C301.324 187.109 301.261 187.223 301.146 187.314C301.034 187.402 300.904 187.44 300.757 187.427ZM302.944 190.077L302.715 192.657L301.869 192.583L302.254 188.236L303.067 188.308L303.004 189.015L303.058 189.02C303.178 188.799 303.351 188.628 303.576 188.507C303.804 188.386 304.081 188.341 304.407 188.37C304.703 188.396 304.957 188.481 305.169 188.625C305.381 188.768 305.537 188.966 305.638 189.22C305.739 189.474 305.774 189.781 305.742 190.139L305.497 192.904L304.651 192.829L304.887 190.166C304.915 189.851 304.855 189.598 304.706 189.406C304.558 189.212 304.34 189.102 304.054 189.077C303.857 189.06 303.679 189.087 303.519 189.158C303.36 189.229 303.23 189.343 303.126 189.5C303.025 189.654 302.964 189.847 302.944 190.077ZM308.302 194.886C307.957 194.856 307.664 194.784 307.423 194.672C307.184 194.559 306.992 194.421 306.849 194.258C306.706 194.096 306.603 193.922 306.541 193.738L307.295 193.502C307.339 193.59 307.399 193.684 307.476 193.784C307.554 193.886 307.664 193.976 307.805 194.055C307.948 194.134 308.137 194.184 308.371 194.205C308.692 194.233 308.964 194.179 309.187 194.041C309.41 193.904 309.537 193.667 309.567 193.327L309.642 192.472L309.589 192.468C309.529 192.556 309.447 192.652 309.341 192.757C309.236 192.861 309.097 192.948 308.924 193.016C308.751 193.085 308.531 193.107 308.265 193.083C307.922 193.053 307.619 192.945 307.358 192.761C307.099 192.574 306.903 192.316 306.771 191.987C306.64 191.656 306.595 191.259 306.636 190.797C306.677 190.335 306.791 189.946 306.977 189.63C307.164 189.313 307.404 189.08 307.695 188.929C307.986 188.776 308.306 188.715 308.655 188.746C308.925 188.77 309.138 188.834 309.296 188.939C309.455 189.043 309.575 189.158 309.657 189.285C309.74 189.412 309.804 189.523 309.847 189.618L309.909 189.624L309.971 188.919L310.8 188.993L310.407 193.436C310.374 193.809 310.26 194.108 310.065 194.332C309.87 194.557 309.62 194.713 309.313 194.802C309.009 194.891 308.672 194.919 308.302 194.886ZM308.514 192.398C308.757 192.42 308.968 192.381 309.146 192.283C309.326 192.183 309.469 192.03 309.574 191.825C309.682 191.617 309.749 191.364 309.776 191.064C309.802 190.771 309.781 190.51 309.714 190.28C309.647 190.05 309.535 189.865 309.378 189.725C309.221 189.584 309.019 189.502 308.772 189.481C308.518 189.458 308.299 189.505 308.118 189.622C307.937 189.737 307.793 189.903 307.686 190.12C307.581 190.337 307.517 190.584 307.492 190.862C307.467 191.146 307.488 191.4 307.556 191.623C307.623 191.846 307.737 192.025 307.896 192.161C308.057 192.297 308.263 192.376 308.514 192.398Z" fill="#00264B"/>
<rect x="264.529" y="183.341" width="6" height="6" rx="3" transform="rotate(5.06 264.529 183.341)" fill="#00264B" fill-opacity="0.5"/>
<circle cx="267.253" cy="186.594" r="2" transform="rotate(5.06 267.253 186.594)" fill="#006CFF"/>
<g filter="url(#filter4_d_439_12)">
<circle cx="293" cy="124" r="1.9" stroke="#00264B" stroke-opacity="0.5" stroke-width="0.2" shape-rendering="crispEdges"/>
</g>
<g filter="url(#filter5_d_439_12)">
<circle cx="293" cy="124" r="1" fill="#00264B"/>
</g>
<g filter="url(#filter6_d_439_12)">
<circle cx="285" cy="213" r="1.9" stroke="#00264B" stroke-opacity="0.5" stroke-width="0.2" shape-rendering="crispEdges"/>
</g>
<g filter="url(#filter7_d_439_12)">
<circle cx="285" cy="213" r="1" fill="#00264B"/>
</g>
<defs>
<filter id="filter0_d_439_12" x="21.7752" y="115.32" width="155.275" height="62.3016" filterUnits="userSpaceOnUse" color-interpolation-filters="sRGB">
<feFlood flood-opacity="0" result="BackgroundImageFix"/>
<feColorMatrix in="SourceAlpha" type="matrix" values="0 0 0 0 0 0 0 0 0 0 0 0 0 0 0 0 0 0 127 0" result="hardAlpha"/>
<feMorphology radius="4" operator="erode" in="SourceAlpha" result="effect1_dropShadow_439_12"/>
<feOffset dy="4"/>
<feGaussianBlur stdDeviation="5.15"/>
<feComposite in2="hardAlpha" operator="out"/>
<feColorMatrix type="matrix" values="0 0 0 0 0 0 0 0 0 0 0 0 0 0 0 0 0 0 0.2 0"/>
<feBlend mode="normal" in2="BackgroundImageFix" result="effect1_dropShadow_439_12"/>
<feBlend mode="normal" in="SourceGraphic" in2="effect1_dropShadow_439_12" result="shape"/>
</filter>
<filter id="filter1_d_439_12" x="249.314" y="190.675" width="69.351" height="53.1016" filterUnits="userSpaceOnUse" color-interpolation-filters="sRGB">
<feFlood flood-opacity="0" result="BackgroundImageFix"/>
<feColorMatrix in="SourceAlpha" type="matrix" values="0 0 0 0 0 0 0 0 0 0 0 0 0 0 0 0 0 0 127 0" result="hardAlpha"/>
<feMorphology radius="4" operator="erode" in="SourceAlpha" result="effect1_dropShadow_439_12"/>
<feOffset dy="4"/>
<feGaussianBlur stdDeviation="5.15"/>
<feComposite in2="hardAlpha" operator="out"/>
<feColorMatrix type="matrix" values="0 0 0 0 0 0 0 0 0 0 0 0 0 0 0 0 0 0 0.2 0"/>
<feBlend mode="normal" in2="BackgroundImageFix" result="effect1_dropShadow_439_12"/>
<feBlend mode="normal" in="SourceGraphic" in2="effect1_dropShadow_439_12" result="shape"/>
</filter>
<filter id="filter2_d_439_12" x="229" y="113" width="12" height="14" filterUnits="userSpaceOnUse" color-interpolation-filters="sRGB">
<feFlood flood-opacity="0" result="BackgroundImageFix"/>
<feColorMatrix in="SourceAlpha" type="matrix" values="0 0 0 0 0 0 0 0 0 0 0 0 0 0 0 0 0 0 127 0" result="hardAlpha"/>
<feMorphology radius="2" operator="erode" in="SourceAlpha" result="effect1_dropShadow_439_12"/>
<feOffset dy="4"/>
<feGaussianBlur stdDeviation="2"/>
<feComposite in2="hardAlpha" operator="out"/>
<feColorMatrix type="matrix" values="0 0 0 0 0 0 0 0 0 0 0 0 0 0 0 0 0 0 0.25 0"/>
<feBlend mode="normal" in2="BackgroundImageFix" result="effect1_dropShadow_439_12"/>
<feBlend mode="normal" in="SourceGraphic" in2="effect1_dropShadow_439_12" result="shape"/>
</filter>
<filter id="filter3_d_439_12" x="229" y="115" width="12" height="12" filterUnits="userSpaceOnUse" color-interpolation-filters="sRGB">
<feFlood flood-opacity="0" result="BackgroundImageFix"/>
<feColorMatrix in="SourceAlpha" type="matrix" values="0 0 0 0 0 0 0 0 0 0 0 0 0 0 0 0 0 0 127 0" result="hardAlpha"/>
<feOffset dy="4"/>
<feGaussianBlur stdDeviation="2"/>
<feComposite in2="hardAlpha" operator="out"/>
<feColorMatrix type="matrix" values="0 0 0 0 0 0 0 0 0 0 0 0 0 0 0 0 0 0 0.25 0"/>
<feBlend mode="normal" in2="BackgroundImageFix" result="effect1_dropShadow_439_12"/>
<feBlend mode="normal" in="SourceGraphic" in2="effect1_dropShadow_439_12" result="shape"/>
</filter>
<filter id="filter4_d_439_12" x="289" y="122" width="8" height="10" filterUnits="userSpaceOnUse" color-interpolation-filters="sRGB">
<feFlood flood-opacity="0" result="BackgroundImageFix"/>
<feColorMatrix in="SourceAlpha" type="matrix" values="0 0 0 0 0 0 0 0 0 0 0 0 0 0 0 0 0 0 127 0" result="hardAlpha"/>
<feMorphology radius="2" operator="erode" in="SourceAlpha" result="effect1_dropShadow_439_12"/>
<feOffset dy="4"/>
<feGaussianBlur stdDeviation="2"/>
<feComposite in2="hardAlpha" operator="out"/>
<feColorMatrix type="matrix" values="0 0 0 0 0 0 0 0 0 0 0 0 0 0 0 0 0 0 0.25 0"/>
<feBlend mode="normal" in2="BackgroundImageFix" result="effect1_dropShadow_439_12"/>
<feBlend mode="normal" in="SourceGraphic" in2="effect1_dropShadow_439_12" result="shape"/>
</filter>
<filter id="filter5_d_439_12" x="288" y="123" width="10" height="10" filterUnits="userSpaceOnUse" color-interpolation-filters="sRGB">
<feFlood flood-opacity="0" result="BackgroundImageFix"/>
<feColorMatrix in="SourceAlpha" type="matrix" values="0 0 0 0 0 0 0 0 0 0 0 0 0 0 0 0 0 0 127 0" result="hardAlpha"/>
<feOffset dy="4"/>
<feGaussianBlur stdDeviation="2"/>
<feComposite in2="hardAlpha" operator="out"/>
<feColorMatrix type="matrix" values="0 0 0 0 0 0 0 0 0 0 0 0 0 0 0 0 0 0 0.25 0"/>
<feBlend mode="normal" in2="BackgroundImageFix" result="effect1_dropShadow_439_12"/>
<feBlend mode="normal" in="SourceGraphic" in2="effect1_dropShadow_439_12" result="shape"/>
</filter>
<filter id="filter6_d_439_12" x="281" y="211" width="8" height="10" filterUnits="userSpaceOnUse" color-interpolation-filters="sRGB">
<feFlood flood-opacity="0" result="BackgroundImageFix"/>
<feColorMatrix in="SourceAlpha" type="matrix" values="0 0 0 0 0 0 0 0 0 0 0 0 0 0 0 0 0 0 127 0" result="hardAlpha"/>
<feMorphology radius="2" operator="erode" in="SourceAlpha" result="effect1_dropShadow_439_12"/>
<feOffset dy="4"/>
<feGaussianBlur stdDeviation="2"/>
<feComposite in2="hardAlpha" operator="out"/>
<feColorMatrix type="matrix" values="0 0 0 0 0 0 0 0 0 0 0 0 0 0 0 0 0 0 0.25 0"/>
<feBlend mode="normal" in2="BackgroundImageFix" result="effect1_dropShadow_439_12"/>
<feBlend mode="normal" in="SourceGraphic" in2="effect1_dropShadow_439_12" result="shape"/>
</filter>
<filter id="filter7_d_439_12" x="280" y="212" width="10" height="10" filterUnits="userSpaceOnUse" color-interpolation-filters="sRGB">
<feFlood flood-opacity="0" result="BackgroundImageFix"/>
<feColorMatrix in="SourceAlpha" type="matrix" values="0 0 0 0 0 0 0 0 0 0 0 0 0 0 0 0 0 0 127 0" result="hardAlpha"/>
<feOffset dy="4"/>
<feGaussianBlur stdDeviation="2"/>
<feComposite in2="hardAlpha" operator="out"/>
<feColorMatrix type="matrix" values="0 0 0 0 0 0 0 0 0 0 0 0 0 0 0 0 0 0 0.25 0"/>
<feBlend mode="normal" in2="BackgroundImageFix" result="effect1_dropShadow_439_12"/>
<feBlend mode="normal" in="SourceGraphic" in2="effect1_dropShadow_439_12" result="shape"/>
</filter>
<linearGradient id="paint0_linear_439_12" x1="215.105" y1="154.299" x2="216.09" y2="213.041" gradientUnits="userSpaceOnUse">
<stop stop-color="#DBDBDB"/>
<stop offset="0.5" stop-color="#006CFF"/>
<stop offset="1" stop-color="#DBDBDB"/>
</linearGradient>
<linearGradient id="paint1_linear_439_12" x1="21.7246" y1="21.7726" x2="217.127" y2="43.3231" gradientUnits="userSpaceOnUse">
<stop offset="0.137996" stop-color="#DBDBDB"/>
<stop offset="0.5" stop-color="#006CFF"/>
<stop offset="0.851429" stop-color="#DBDBDB"/>
</linearGradient>
<linearGradient id="paint2_linear_439_12" x1="212.126" y1="113.948" x2="320.378" y2="125.887" gradientUnits="userSpaceOnUse">
<stop stop-color="#30608F"/>
<stop offset="1" stop-color="#CBE1FF"/>
</linearGradient>
<linearGradient id="paint3_linear_439_12" x1="212.126" y1="113.948" x2="320.378" y2="125.887" gradientUnits="userSpaceOnUse">
<stop stop-color="#00264B"/>
<stop offset="1" stop-color="#CBE1FF"/>
</linearGradient>
<linearGradient id="paint4_linear_439_12" x1="87.9179" y1="98.8059" x2="87.9179" y2="226.477" gradientUnits="userSpaceOnUse">
<stop stop-color="#EBEBEB"/>
<stop offset="0.82234" stop-color="#DBDBDB"/>
</linearGradient>
<linearGradient id="paint5_linear_439_12" x1="94.3147" y1="129.591" x2="98.1626" y2="150.797" gradientUnits="userSpaceOnUse">
<stop stop-color="#ECECEC"/>
<stop offset="0.2" stop-color="#F59794"/>
<stop offset="0.5" stop-color="#ECC1C8"/>
<stop offset="0.8" stop-color="#4D72EA"/>
<stop offset="1" stop-color="#F9B56E"/>
</linearGradient>
<linearGradient id="paint6_linear_439_12" x1="282.539" y1="176.628" x2="268.543" y2="303.53" gradientUnits="userSpaceOnUse">
<stop stop-color="#EBEBEB"/>
<stop offset="0.82234" stop-color="#DBDBDB"/>
</linearGradient>
<linearGradient id="paint7_linear_439_12" x1="191.841" y1="112.641" x2="187.371" y2="153.171" gradientUnits="userSpaceOnUse">
<stop stop-color="#DBDBDB"/>
<stop offset="0.5" stop-color="#006CFF"/>
<stop offset="1" stop-color="#DBDBDB"/>
</linearGradient>
<linearGradient id="paint8_linear_439_12" x1="63" y1="83" x2="63" y2="87" gradientUnits="userSpaceOnUse">
<stop stop-color="white"/>
<stop offset="1" stop-color="#999999"/>
</linearGradient>
</defs>
</svg>
