<svg width="285" height="72" viewBox="0 0 285 72" fill="none" xmlns="http://www.w3.org/2000/svg">
<path d="M2.39681 45.4778C1.49943 37.2423 7.44819 29.8386 15.6837 28.9413L280.119 0.127575L284.56 40.8863L20.1249 69.7C11.8894 70.5974 4.48572 64.6486 3.58835 56.4131L2.39681 45.4778Z" fill="white" fill-opacity="0.5"/>
<g filter="url(#filter0_i_433_615)">
<rect x="9.2666" y="34.6701" width="61" height="31" rx="8" transform="rotate(-6.2186 9.2666 34.6701)" fill="url(#paint0_linear_433_615)" fill-opacity="0.5"/>
<path d="M21.8726 52.409L19.5321 52.664L18.7443 45.4341L21.159 45.1709C21.8674 45.0938 22.4915 45.1722 23.0314 45.4063C23.571 45.638 24.0055 46.0086 24.3349 46.5181C24.6664 47.0249 24.873 47.6537 24.9548 48.4045C25.0369 49.1576 24.9698 49.8198 24.7534 50.3911C24.5394 50.9622 24.1894 51.4218 23.7034 51.7701C23.2172 52.116 22.6069 52.3289 21.8726 52.409ZM20.519 51.592L21.7087 51.4623C22.2595 51.4023 22.7059 51.2489 23.0482 51.002C23.3901 50.7528 23.6302 50.4207 23.7683 50.0055C23.9062 49.588 23.944 49.0933 23.8817 48.5214C23.8199 47.9542 23.6768 47.4828 23.4525 47.1072C23.2305 46.7313 22.9307 46.4603 22.553 46.2943C22.1754 46.1283 21.7229 46.074 21.1957 46.1314L19.939 46.2684L20.519 51.592ZM28.9706 51.7463C28.4364 51.8045 27.9638 51.7405 27.553 51.5542C27.1442 51.3654 26.8124 51.0741 26.5576 50.6804C26.3048 50.284 26.1478 49.8046 26.0865 49.2421C26.026 48.6867 26.0762 48.1859 26.2371 47.7397C26.4004 47.2932 26.6562 46.9308 27.0046 46.6523C27.3552 46.3735 27.7824 46.2067 28.286 46.1519C28.592 46.1185 28.894 46.1368 29.1922 46.2067C29.4903 46.2766 29.7653 46.4074 30.0172 46.5991C30.2691 46.7907 30.4798 47.0523 30.6493 47.3839C30.8185 47.7132 30.9299 48.1237 30.9835 48.6156L31.0243 48.9898L26.7139 49.4595L26.6277 48.6687L29.9038 48.3118C29.8735 48.0341 29.7902 47.7943 29.6539 47.5924C29.5174 47.3882 29.3399 47.2349 29.1216 47.1325C28.9056 47.0298 28.6611 46.9933 28.3881 47.0231C28.0915 47.0554 27.8406 47.1565 27.6353 47.3266C27.4321 47.494 27.2831 47.7007 27.1885 47.9468C27.0959 48.1903 27.0644 48.4473 27.0939 48.718L27.1612 49.3358C27.2007 49.6982 27.2978 49.9996 27.4526 50.2399C27.6098 50.48 27.811 50.6545 28.0562 50.7635C28.3012 50.8702 28.5779 50.9067 28.8862 50.8731C29.0862 50.8513 29.2656 50.8032 29.4241 50.7288C29.5825 50.652 29.7154 50.5494 29.8228 50.421C29.9303 50.2926 30.0066 50.1402 30.0517 49.9639L31.0703 50.035C31.0224 50.3379 30.9069 50.6113 30.7239 50.8551C30.543 51.0963 30.3039 51.295 30.0065 51.4512C29.7113 51.6048 29.366 51.7032 28.9706 51.7463ZM36.073 46.7144L35.1348 46.9881C35.0814 46.87 35.0052 46.7605 34.906 46.6593C34.8093 46.558 34.6841 46.4799 34.5305 46.4252C34.3768 46.3705 34.1906 46.3551 33.9717 46.3789C33.6728 46.4115 33.4307 46.5057 33.2452 46.6617C33.0596 46.8153 32.9781 46.9968 33.0009 47.2063C33.0207 47.3875 33.1037 47.5261 33.2499 47.6221C33.3961 47.7181 33.6225 47.7851 33.9291 47.8232L34.812 47.927C35.3235 47.9879 35.7147 48.1251 35.9856 48.3385C36.2565 48.5519 36.4129 48.8504 36.4547 49.234C36.4901 49.5588 36.4275 49.8585 36.2669 50.1332C36.1084 50.4053 35.8699 50.6313 35.5513 50.8113C35.2351 50.991 34.8582 51.1047 34.4204 51.1524C33.8132 51.2186 33.3037 51.1431 32.8919 50.9261C32.4798 50.7066 32.2041 50.3616 32.0647 49.891L33.068 49.6245C33.1605 49.8835 33.313 50.0705 33.5256 50.1854C33.7379 50.298 34.0029 50.337 34.3207 50.3024C34.6666 50.2647 34.9353 50.1628 35.1268 49.9967C35.318 49.8282 35.4022 49.6392 35.3794 49.4298C35.3609 49.2603 35.2819 49.1248 35.1422 49.0234C35.0049 48.9216 34.8036 48.8555 34.5383 48.8248L33.5985 48.7236C33.0799 48.6634 32.6857 48.5206 32.4159 48.2952C32.1484 48.0696 31.9936 47.7637 31.9516 47.3778C31.9167 47.0577 31.9756 46.7679 32.1283 46.5083C32.281 46.2488 32.5077 46.0348 32.8085 45.8663C33.109 45.6954 33.4628 45.5878 33.87 45.5434C34.456 45.4796 34.9311 45.5564 35.2954 45.7739C35.6594 45.989 35.9186 46.3025 36.073 46.7144ZM37.7861 50.675L37.1952 45.2525L38.2508 45.1375L38.8416 50.56L37.7861 50.675ZM37.6371 44.3578C37.4535 44.3778 37.2892 44.3338 37.1441 44.2257C37.001 44.1151 36.9201 43.9739 36.9014 43.8021C36.8824 43.6279 36.931 43.4726 37.0471 43.3361C37.1653 43.197 37.3162 43.1175 37.4998 43.0975C37.6834 43.0775 37.8467 43.1228 37.9897 43.2334C38.1348 43.3414 38.2169 43.4825 38.2359 43.6567C38.2546 43.8285 38.2048 43.9839 38.0866 44.123C37.9705 44.2595 37.8207 44.3378 37.6371 44.3578ZM42.769 52.3039C42.3383 52.3508 41.9615 52.3347 41.6385 52.2556C41.3179 52.1762 41.0498 52.0542 40.8342 51.8896C40.6186 51.7249 40.4505 51.5373 40.3299 51.3266L41.1964 50.8535C41.2712 50.9501 41.3679 51.0503 41.4863 51.1541C41.6074 51.26 41.7642 51.3441 41.9568 51.4065C42.1517 51.4686 42.395 51.4837 42.6869 51.4519C43.087 51.4083 43.407 51.2746 43.6469 51.0508C43.8872 50.8294 43.9842 50.5069 43.938 50.0832L43.8219 49.0171L43.7548 49.0244C43.7038 49.1466 43.626 49.2849 43.5213 49.4392C43.4191 49.5932 43.27 49.7333 43.0742 49.8594C42.8784 49.9855 42.6145 50.0667 42.2827 50.1028C41.8543 50.1495 41.4575 50.0916 41.0921 49.9289C40.7288 49.7637 40.4257 49.4955 40.1828 49.1243C39.942 48.7504 39.7902 48.2752 39.7274 47.6986C39.6646 47.122 39.7084 46.6171 39.8588 46.184C40.0116 45.7506 40.2479 45.4057 40.5677 45.1494C40.8872 44.8907 41.2647 44.7377 41.7 44.6902C42.0366 44.6535 42.3146 44.6804 42.534 44.7708C42.7532 44.8589 42.9285 44.9707 43.06 45.1064C43.1938 45.2419 43.2986 45.3626 43.3745 45.4687L43.4521 45.4602L43.3564 44.5812L44.3907 44.4685L44.9947 50.011C45.0454 50.4769 44.9788 50.8712 44.7949 51.1937C44.6109 51.5162 44.342 51.7693 43.9882 51.9531C43.6367 52.1367 43.2303 52.2536 42.769 52.3039ZM42.4203 49.202C42.7239 49.1689 42.9727 49.0703 43.1668 48.9063C43.363 48.7396 43.5007 48.5175 43.58 48.2397C43.6614 47.9594 43.6817 47.6321 43.6409 47.2579C43.6011 46.8931 43.512 46.5777 43.3735 46.3118C43.235 46.0459 43.0525 45.8467 42.8261 45.7142C42.5995 45.5793 42.332 45.5287 42.0237 45.5623C41.706 45.5969 41.4502 45.7081 41.2563 45.8959C41.0622 46.0814 40.9263 46.3201 40.8485 46.6119C40.7731 46.9036 40.7543 47.2223 40.792 47.5683C40.8307 47.9237 40.9188 48.2296 41.0563 48.4861C41.1938 48.7426 41.3767 48.9346 41.6049 49.0622C41.8355 49.1895 42.1073 49.2361 42.4203 49.202ZM47.1019 46.4021L47.4527 49.6217L46.3972 49.7367L45.8063 44.3142L46.8195 44.2038L46.9157 45.0864L46.9828 45.0791C47.0762 44.7784 47.2464 44.5264 47.4934 44.3233C47.7427 44.1199 48.071 43.996 48.4781 43.9517C48.8476 43.9114 49.1797 43.9538 49.4743 44.0789C49.7687 44.2016 50.0089 44.4064 50.195 44.6933C50.381 44.9803 50.4984 45.3473 50.5471 45.7945L50.923 49.2435L49.8674 49.3585L49.5055 46.0366C49.4626 45.6436 49.3268 45.3476 49.0979 45.1487C48.8688 44.9474 48.5754 44.8662 48.2177 44.9052C47.9729 44.9319 47.761 45.0086 47.5819 45.1353C47.4051 45.2617 47.2726 45.4333 47.1843 45.6501C47.0981 45.8643 47.0706 46.115 47.1019 46.4021Z" fill="#00264B" fill-opacity="0.5"/>
<g clip-path="url(#clip0_433_615)">
<path d="M58.8076 43.3689C58.849 43.1776 59.1096 43.1492 59.1912 43.3271L59.6699 44.3709C59.7753 44.6004 59.9326 44.8021 60.1294 44.9602C60.3263 45.1183 60.5573 45.2284 60.8041 45.2817L61.926 45.5244C62.1172 45.5658 62.1456 45.8264 61.9678 45.908L60.9239 46.3867C60.6945 46.492 60.4927 46.6494 60.3346 46.8462C60.1765 47.0431 60.0665 47.274 60.0131 47.5208L59.7704 48.6427C59.7616 48.6846 59.7397 48.7226 59.708 48.7513C59.6763 48.78 59.6363 48.7979 59.5938 48.8025C59.5512 48.8072 59.5083 48.7983 59.4712 48.7771C59.434 48.7559 59.4045 48.7235 59.3868 48.6845L58.9081 47.6407C58.8029 47.4113 58.6456 47.2095 58.4489 47.0514C58.2521 46.8934 58.0212 46.7832 57.7745 46.7299L56.6521 46.4872C56.6102 46.4783 56.5723 46.4565 56.5436 46.4248C56.5149 46.393 56.4969 46.3531 56.4923 46.3105C56.4876 46.268 56.4966 46.2251 56.5177 46.1879C56.5389 46.1508 56.5713 46.1213 56.6103 46.1036L57.6541 45.6249C57.8835 45.5196 58.0853 45.3624 58.2434 45.1656C58.4015 44.9689 58.5116 44.738 58.565 44.4913L58.8076 43.3689ZM56.3368 40.7529C56.3422 40.7278 56.3553 40.7051 56.3744 40.6879C56.3934 40.6707 56.4174 40.66 56.4429 40.6572C56.4684 40.6544 56.4941 40.6597 56.5165 40.6724C56.5388 40.6851 56.5565 40.7045 56.5672 40.7278L56.8544 41.354C56.9827 41.6331 57.2344 41.8354 57.5346 41.9006L58.208 42.0462C58.2331 42.0516 58.2559 42.0647 58.273 42.0838C58.2902 42.1029 58.301 42.1268 58.3038 42.1523C58.3065 42.1779 58.3012 42.2036 58.2885 42.2259C58.2758 42.2482 58.2565 42.2659 58.2331 42.2766L57.6069 42.5638C57.4691 42.6268 57.348 42.7211 57.2531 42.8392C57.1582 42.9573 57.0922 43.096 57.0603 43.2441L56.9147 43.9174C56.9093 43.9425 56.8962 43.9653 56.8771 43.9825C56.8581 43.9997 56.8341 44.0104 56.8086 44.0132C56.7831 44.016 56.7573 44.0106 56.735 43.998C56.7127 43.9853 56.695 43.9659 56.6843 43.9425L56.3971 43.3163C56.3341 43.1786 56.2398 43.0574 56.1217 42.9625C56.0036 42.8676 55.865 42.8016 55.7168 42.7698L55.0435 42.6242C55.0184 42.6188 54.9956 42.6056 54.9785 42.5866C54.9613 42.5675 54.9505 42.5435 54.9477 42.518C54.945 42.4925 54.9503 42.4668 54.963 42.4445C54.9757 42.4222 54.995 42.4044 55.0184 42.3938L55.6446 42.1066C55.7824 42.0435 55.9035 41.9492 55.9984 41.8311C56.0933 41.713 56.1593 41.5744 56.1912 41.4263L56.3368 40.7529ZM60.2258 39.7356C60.2296 39.7191 60.2384 39.7042 60.2511 39.6929C60.2637 39.6816 60.2796 39.6746 60.2964 39.6727C60.3133 39.6709 60.3303 39.6744 60.3451 39.6826C60.3599 39.6909 60.3717 39.7036 60.379 39.7189L60.5704 40.136C60.6558 40.3225 60.8239 40.4575 61.0244 40.5007L61.4729 40.5978C61.4894 40.6016 61.5043 40.6105 61.5156 40.6231C61.5269 40.6358 61.5339 40.6517 61.5358 40.6685C61.5376 40.6854 61.5341 40.7024 61.5259 40.7172C61.5176 40.732 61.5049 40.7438 61.4896 40.7511L61.0725 40.9425C60.9807 40.9848 60.9 41.0477 60.8367 41.1265C60.7734 41.2053 60.7293 41.2977 60.7078 41.3964L60.6107 41.845C60.6069 41.8615 60.598 41.8764 60.5854 41.8877C60.5727 41.899 60.5568 41.906 60.54 41.9078C60.5231 41.9097 60.5061 41.9062 60.4913 41.8979C60.4765 41.8897 60.4647 41.877 60.4574 41.8617L60.266 41.4446C60.2237 41.3528 60.1608 41.272 60.082 41.2088C60.0032 41.1455 59.9108 41.1013 59.8121 41.0798L59.3641 40.9827C59.3476 40.9789 59.3326 40.97 59.3214 40.9574C59.3101 40.9447 59.3031 40.9288 59.3012 40.912C59.2994 40.8951 59.3029 40.8781 59.3111 40.8633C59.3194 40.8486 59.3321 40.8367 59.3474 40.8294L59.7645 40.638C59.951 40.5526 60.086 40.3846 60.1292 40.1841L60.2258 39.7356Z" fill="#00264B" fill-opacity="0.5"/>
</g>
</g>
<path d="M83.9981 38.8268L84.7859 46.0567L83.9104 46.1521L83.1226 38.9222L83.9981 38.8268ZM86.906 42.525L87.2615 45.7869L86.4283 45.8777L85.8375 40.4553L86.6424 40.3676L86.7347 41.2148L86.8053 41.2071C86.9024 40.9179 87.0713 40.6757 87.312 40.4804C87.5524 40.2827 87.8773 40.1616 88.2868 40.1169C88.654 40.0769 88.9835 40.1172 89.2752 40.2379C89.5667 40.3561 89.8055 40.5587 89.9916 40.8457C90.1774 41.1302 90.2954 41.5032 90.3457 41.9645L90.7211 45.41L89.888 45.5008L89.5187 42.1117C89.4723 41.6857 89.3255 41.3659 89.0784 41.1524C88.831 40.9364 88.5143 40.8495 88.1283 40.8915C87.8624 40.9205 87.631 41.0041 87.4341 41.1422C87.2395 41.2801 87.0943 41.4662 86.9984 41.7005C86.9025 41.9348 86.8717 42.2096 86.906 42.525ZM94.0109 39.5647L94.0878 40.2707L91.2777 40.5769L91.2008 39.8709L94.0109 39.5647ZM91.8783 38.4825L92.7114 38.3917L93.2746 43.56C93.3002 43.7953 93.3536 43.9681 93.4346 44.0784C93.5178 44.186 93.6157 44.2539 93.7283 44.2821C93.843 44.3077 93.9616 44.3139 94.084 44.3005C94.1758 44.2905 94.2506 44.2776 94.3084 44.2618C94.3659 44.2436 94.412 44.2291 94.4465 44.2182L94.6975 44.9481C94.6433 44.9754 94.5668 45.0052 94.4679 45.0374C94.3693 45.072 94.2423 45.0977 94.087 45.1147C93.8516 45.1403 93.6154 45.1148 93.3785 45.0383C93.1439 44.9614 92.9412 44.8275 92.7703 44.6366C92.6018 44.4454 92.5004 44.1921 92.466 43.8767L91.8783 38.4825ZM98.0825 44.7222C97.56 44.7791 97.0968 44.7129 96.6927 44.5235C96.2908 44.3316 95.9647 44.0384 95.7146 43.6442C95.4665 43.2473 95.3123 42.7712 95.2517 42.2158C95.1912 41.6603 95.2391 41.1598 95.3953 40.7141C95.5537 40.2658 95.8023 39.9029 96.1412 39.6255C96.4821 39.3454 96.8974 39.1787 97.3869 39.1254C97.6693 39.0946 97.9534 39.1113 98.239 39.1754C98.5246 39.2395 98.7919 39.3652 99.0409 39.5524C99.2897 39.7373 99.5 39.9953 99.6718 40.3267C99.8437 40.658 99.9572 41.0767 100.012 41.5827L100.051 41.9357L95.871 42.3912L95.7925 41.671L99.125 41.3079C99.0917 41.0019 99.0008 40.7356 98.8522 40.5089C98.706 40.2819 98.5136 40.1112 98.2749 39.9967C98.0385 39.8819 97.7697 39.841 97.4685 39.8738C97.1366 39.9099 96.8585 40.0236 96.634 40.2148C96.4117 40.4033 96.25 40.6352 96.149 40.9106C96.048 41.1859 96.0138 41.4731 96.0464 41.7719L96.0987 42.2521C96.1433 42.6616 96.2518 43.001 96.424 43.2704C96.5983 43.5372 96.8207 43.7309 97.091 43.8514C97.3611 43.9696 97.6644 44.0104 98.001 43.9737C98.2198 43.9499 98.4142 43.8978 98.584 43.8173C98.756 43.7343 98.8999 43.6234 99.0157 43.4845C99.1313 43.3433 99.2142 43.1748 99.2642 42.9788L100.094 43.117C100.039 43.3992 99.9226 43.6548 99.7451 43.8837C99.5673 44.1103 99.3377 44.2972 99.056 44.4446C98.7742 44.5896 98.4497 44.6822 98.0825 44.7222ZM101.583 44.2264L100.992 38.804L101.797 38.7163L101.886 39.5353L101.943 39.5292C102.012 39.2501 102.167 39.0129 102.408 38.8176C102.649 38.6223 102.931 38.5069 103.256 38.4715C103.317 38.4649 103.394 38.4577 103.486 38.4501C103.578 38.4424 103.648 38.4384 103.695 38.438L103.788 39.2852C103.759 39.2812 103.693 39.2777 103.59 39.2746C103.49 39.2689 103.384 39.2721 103.273 39.2841C103.01 39.3129 102.78 39.3938 102.585 39.527C102.392 39.6576 102.246 39.8259 102.147 40.0319C102.05 40.2354 102.015 40.4595 102.042 40.7043L102.416 44.1357L101.583 44.2264ZM113.782 42.8971L112.995 35.6672L115.438 35.401C116.002 35.3395 116.477 35.3854 116.86 35.5389C117.243 35.6901 117.54 35.9233 117.751 36.2385C117.961 36.5537 118.09 36.9243 118.136 37.3503C118.183 37.7763 118.137 38.1635 117.998 38.5119C117.86 38.8604 117.621 39.1484 117.282 39.3759C116.942 39.6011 116.492 39.7442 115.932 39.8052L113.955 40.0206L113.869 39.2299L115.817 39.0175C116.203 38.9755 116.508 38.8851 116.731 38.7465C116.956 38.6076 117.111 38.4289 117.194 38.2102C117.279 37.989 117.306 37.7336 117.275 37.4441C117.243 37.1547 117.162 36.9076 117.03 36.7028C116.898 36.4981 116.707 36.3499 116.456 36.2581C116.205 36.164 115.885 36.1382 115.494 36.1807L113.955 36.3485L114.658 42.8017L113.782 42.8971ZM116.832 39.2785L118.965 42.3324L117.948 42.4432L115.843 39.3862L116.832 39.2785ZM122.256 42.0882C121.733 42.1451 121.27 42.0789 120.866 41.8895C120.464 41.6976 120.138 41.4044 119.888 41.0102C119.64 40.6133 119.486 40.1372 119.425 39.5817C119.365 39.0263 119.412 38.5258 119.569 38.0801C119.727 37.6318 119.976 37.2689 120.314 36.9915C120.655 36.7114 121.071 36.5447 121.56 36.4914C121.843 36.4606 122.127 36.4773 122.412 36.5414C122.698 36.6055 122.965 36.7312 123.214 36.9184C123.463 37.1032 123.673 37.3613 123.845 37.6927C124.017 38.024 124.131 38.4427 124.186 38.9487L124.224 39.3017L120.044 39.7572L119.966 39.037L123.298 38.6739C123.265 38.3679 123.174 38.1016 123.026 37.8749C122.879 37.6479 122.687 37.4772 122.448 37.3627C122.212 37.2479 121.943 37.2069 121.642 37.2398C121.31 37.2759 121.032 37.3896 120.807 37.5807C120.585 37.7693 120.423 38.0012 120.322 38.2766C120.221 38.5519 120.187 38.839 120.22 39.1379L120.272 39.6181C120.317 40.0276 120.425 40.367 120.597 40.6364C120.772 40.9032 120.994 41.0968 121.264 41.2174C121.534 41.3356 121.838 41.3764 122.174 41.3397C122.393 41.3159 122.588 41.2638 122.757 41.1833C122.929 41.1003 123.073 40.9894 123.189 40.8505C123.305 40.7093 123.387 40.5407 123.438 40.3448L124.267 40.483C124.212 40.7652 124.096 41.0208 123.918 41.2497C123.741 41.4763 123.511 41.6632 123.229 41.8106C122.947 41.9556 122.623 42.0481 122.256 42.0882ZM128.179 43.5003C127.776 43.5442 127.425 43.5301 127.124 43.4581C126.823 43.3884 126.568 43.2806 126.356 43.1345C126.148 42.9905 125.977 42.8306 125.843 42.6546L126.456 42.1163C126.542 42.2069 126.65 42.3095 126.779 42.424C126.908 42.5409 127.078 42.6355 127.289 42.7079C127.502 42.7823 127.772 42.8017 128.099 42.766C128.536 42.7183 128.886 42.5731 129.148 42.3302C129.41 42.0874 129.516 41.74 129.467 41.2882L129.347 40.1867L129.276 40.1944C129.226 40.2999 129.152 40.4318 129.055 40.59C128.96 40.7456 128.814 40.8913 128.617 41.0271C128.421 41.1603 128.147 41.2461 127.794 41.2846C127.357 41.3323 126.952 41.2716 126.581 41.1024C126.213 40.933 125.906 40.6616 125.66 40.2883C125.417 39.9147 125.265 39.4455 125.203 38.8807C125.143 38.3252 125.188 37.831 125.338 37.3978C125.489 36.9623 125.726 36.6126 126.049 36.3487C126.373 36.0825 126.763 35.9245 127.219 35.8747C127.572 35.8363 127.859 35.8646 128.079 35.9597C128.301 36.0522 128.475 36.1666 128.602 36.3028C128.731 36.4364 128.831 36.5469 128.902 36.6344L128.987 36.6252L128.893 35.7638L129.698 35.6761L130.306 41.2539C130.357 41.7199 130.292 42.1103 130.112 42.4252C129.935 42.7422 129.676 42.9883 129.335 43.1636C128.997 43.3409 128.612 43.4531 128.179 43.5003ZM127.826 40.5239C128.16 40.4875 128.434 40.3802 128.648 40.2021C128.862 40.024 129.013 39.7848 129.102 39.4846C129.191 39.1844 129.213 38.8343 129.17 38.4342C129.127 38.0435 129.031 37.7051 128.881 37.4191C128.73 37.133 128.531 36.9178 128.282 36.7735C128.033 36.6292 127.739 36.5755 127.4 36.6124C127.047 36.6508 126.762 36.7723 126.546 36.9768C126.333 37.1811 126.184 37.4403 126.099 37.7543C126.016 38.0681 125.995 38.4086 126.035 38.7758C126.076 39.1523 126.171 39.4789 126.32 39.7556C126.472 40.0296 126.673 40.2363 126.924 40.3757C127.177 40.5124 127.478 40.5618 127.826 40.5239ZM134.99 38.343L134.64 35.1375L135.474 35.0468L136.064 40.4692L135.231 40.56L135.131 39.6421L135.075 39.6483C134.978 39.9375 134.806 40.1932 134.558 40.4154C134.311 40.6353 133.982 40.7675 133.573 40.8122C133.234 40.8491 132.924 40.8078 132.645 40.6882C132.365 40.5663 132.133 40.363 131.95 40.0781C131.766 39.7909 131.649 39.4167 131.599 38.9554L131.223 35.5099L132.056 35.4191L132.426 38.8082C132.469 39.2035 132.614 39.5069 132.861 39.7181C133.11 39.9291 133.407 40.0157 133.753 39.978C133.96 39.9555 134.165 39.8796 134.368 39.7503C134.573 39.6208 134.736 39.4387 134.858 39.2039C134.983 38.9689 135.027 38.6819 134.99 38.343ZM137.636 32.9822L138.423 40.2122L137.59 40.3029L136.803 33.073L137.636 32.9822ZM141.559 39.9991C141.215 40.0365 140.896 40.0058 140.602 39.9069C140.308 39.8056 140.065 39.6404 139.873 39.4112C139.681 39.1797 139.566 38.8874 139.528 38.5344C139.494 38.2237 139.527 37.9652 139.629 37.7589C139.73 37.5503 139.877 37.3795 140.07 37.2465C140.262 37.1136 140.479 37.0066 140.72 36.9256C140.964 36.8419 141.209 36.7699 141.458 36.7095C141.783 36.6312 142.046 36.5703 142.249 36.5268C142.453 36.4807 142.6 36.4255 142.688 36.3611C142.778 36.2965 142.816 36.1971 142.802 36.0629L142.799 36.0347C142.761 35.6863 142.636 35.4261 142.424 35.2539C142.215 35.0814 141.919 35.0161 141.535 35.0579C141.137 35.1012 140.835 35.2223 140.628 35.421C140.421 35.6198 140.282 35.8231 140.212 36.0307L139.391 35.8345C139.496 35.4896 139.656 35.2126 139.872 35.0034C140.089 34.7915 140.334 34.6339 140.606 34.5304C140.88 34.4243 141.154 34.3564 141.427 34.3267C141.601 34.3077 141.803 34.3071 142.034 34.3248C142.266 34.3399 142.496 34.3995 142.721 34.5035C142.949 34.6073 143.148 34.7797 143.317 35.0209C143.486 35.262 143.594 35.5979 143.641 36.0286L144.03 39.6012L143.197 39.692L143.117 38.9577L143.075 38.9623C143.031 39.0862 142.951 39.2223 142.834 39.3708C142.716 39.5193 142.554 39.6526 142.345 39.7706C142.136 39.8886 141.874 39.9647 141.559 39.9991ZM141.605 39.2368C141.934 39.2009 142.205 39.106 142.416 38.9519C142.631 38.7976 142.784 38.6118 142.877 38.3944C142.973 38.1769 143.008 37.9551 142.983 37.7292L142.9 36.9666C142.87 37.0129 142.796 37.0602 142.68 37.1085C142.566 37.1543 142.433 37.1986 142.28 37.2414C142.13 37.2816 141.983 37.3191 141.839 37.3538C141.697 37.3859 141.582 37.4127 141.494 37.4343C141.28 37.4861 141.083 37.554 140.902 37.6381C140.722 37.7195 140.582 37.8289 140.48 37.9662C140.381 38.1009 140.342 38.2742 140.365 38.486C140.397 38.7755 140.528 38.9827 140.758 39.1076C140.991 39.2299 141.273 39.273 141.605 39.2368ZM145.551 39.4355L144.96 34.0131L145.765 33.9254L145.854 34.7444L145.911 34.7382C145.98 34.4592 146.136 34.222 146.376 34.0267C146.617 33.8314 146.9 33.716 147.224 33.6806C147.286 33.674 147.362 33.6668 147.454 33.6591C147.546 33.6515 147.616 33.6475 147.664 33.647L147.756 34.4943C147.727 34.4903 147.661 34.4868 147.558 34.4837C147.458 34.478 147.352 34.4812 147.242 34.4932C146.978 34.5219 146.749 34.6029 146.554 34.7361C146.361 34.8666 146.215 35.035 146.116 35.241C146.019 35.4445 145.984 35.6686 146.01 35.9133L146.384 39.3447L145.551 39.4355Z" fill="#00264B" fill-opacity="0.5"/>
<circle cx="107.375" cy="39.5716" r="1" transform="rotate(-6.2186 107.375 39.5716)" fill="#D9D9D9" fill-opacity="0.5"/>
<path d="M155.843 32.0271L160.804 36.0132L164.79 31.0522" stroke="#3D4F60" stroke-opacity="0.5" stroke-linecap="round" stroke-linejoin="round"/>
<g filter="url(#filter1_i_433_615)">
<rect x="174.29" y="16.6886" width="58" height="31" rx="8" transform="rotate(-6.2186 174.29 16.6886)" fill="#EDEDED" fill-opacity="0.5"/>
<path d="M188.812 27.1772L189.679 35.1302L188.475 35.2613L187.74 28.5122L187.693 28.5173L185.926 29.9673L185.8 28.8178L187.643 27.3046L188.812 27.1772ZM191.494 33.3606L191.388 32.3898L194.233 26.5865L194.998 26.5032L195.154 27.9322L194.669 27.9851L192.635 32.144L192.641 32.2061L197.352 31.6929L197.463 32.7103L191.494 33.3606ZM195.434 34.5031L195.233 32.6547L195.192 32.2111L194.575 26.5493L195.713 26.4253L196.579 34.3783L195.434 34.5031ZM199.244 36.3512L198.351 28.1497L199.485 28.0262L199.59 28.9931L199.687 28.9825C199.741 28.8509 199.822 28.6967 199.931 28.5198C200.04 28.3428 200.201 28.1813 200.413 28.0351C200.625 27.8863 200.916 27.7917 201.286 27.7513C201.767 27.6989 202.21 27.7737 202.615 27.9759C203.019 28.1781 203.354 28.4965 203.619 28.9314C203.886 29.3659 204.055 29.9055 204.125 30.5501C204.195 31.1947 204.148 31.7591 203.984 32.2434C203.819 32.725 203.562 33.1105 203.214 33.4C202.865 33.6868 202.45 33.8565 201.969 33.9089C201.606 33.9484 201.303 33.9199 201.059 33.8233C200.818 33.7265 200.624 33.6035 200.477 33.4546C200.33 33.3056 200.214 33.1714 200.131 33.0522L200.061 33.0598L200.406 36.2247L199.244 36.3512ZM199.814 31.0081C199.859 31.4275 199.96 31.7885 200.116 32.0911C200.272 32.3937 200.475 32.6217 200.725 32.7752C200.975 32.9262 201.267 32.9834 201.6 32.9471C201.947 32.9093 202.227 32.7858 202.44 32.5766C202.653 32.3648 202.802 32.0932 202.886 31.7618C202.973 31.4301 202.995 31.0649 202.951 30.6662C202.908 30.2727 202.81 29.9258 202.657 29.6256C202.506 29.325 202.303 29.0969 202.048 28.9414C201.795 28.7856 201.494 28.7267 201.145 28.7648C200.808 28.8014 200.533 28.9192 200.319 29.118C200.107 29.3166 199.959 29.5777 199.874 29.9013C199.788 30.225 199.768 30.5939 199.814 31.0081ZM205.781 27.3401L207.351 29.5188L208.426 27.0519L209.696 26.9136L208.161 30.0986L210.361 32.8766L209.091 33.0149L207.505 30.9323L206.408 33.3073L205.134 33.4461L206.666 30.2615L204.508 27.4789L205.781 27.3401Z" fill="#00264B" fill-opacity="0.5"/>
<path d="M215.49 25.5278L220.451 29.5138L224.437 24.5529" stroke="#3D4F60" stroke-opacity="0.5" stroke-linecap="round" stroke-linejoin="round"/>
</g>
<g filter="url(#filter2_i_433_615)">
<circle cx="257.486" cy="23.215" r="13" transform="rotate(-6.2186 257.486 23.215)" fill="url(#paint1_linear_433_615)" fill-opacity="0.5"/>
</g>
<defs>
<filter id="filter0_i_433_615" x="-30.7334" y="-11.9376" width="143.999" height="117.425" filterUnits="userSpaceOnUse" color-interpolation-filters="sRGB">
<feFlood flood-opacity="0" result="BackgroundImageFix"/>
<feBlend mode="normal" in="SourceGraphic" in2="BackgroundImageFix" result="shape"/>
<feColorMatrix in="SourceAlpha" type="matrix" values="0 0 0 0 0 0 0 0 0 0 0 0 0 0 0 0 0 0 127 0" result="hardAlpha"/>
<feMorphology radius="2" operator="dilate" in="SourceAlpha" result="effect1_innerShadow_433_615"/>
<feOffset dy="4"/>
<feGaussianBlur stdDeviation="2"/>
<feComposite in2="hardAlpha" operator="arithmetic" k2="-1" k3="1"/>
<feColorMatrix type="matrix" values="0 0 0 0 0 0 0 0 0 0 0 0 0 0 0 0 0 0 0.15 0"/>
<feBlend mode="normal" in2="shape" result="effect1_innerShadow_433_615"/>
</filter>
<filter id="filter1_i_433_615" x="174.29" y="10.4059" width="61.0166" height="39.1003" filterUnits="userSpaceOnUse" color-interpolation-filters="sRGB">
<feFlood flood-opacity="0" result="BackgroundImageFix"/>
<feBlend mode="normal" in="SourceGraphic" in2="BackgroundImageFix" result="shape"/>
<feColorMatrix in="SourceAlpha" type="matrix" values="0 0 0 0 0 0 0 0 0 0 0 0 0 0 0 0 0 0 127 0" result="hardAlpha"/>
<feMorphology radius="2" operator="dilate" in="SourceAlpha" result="effect1_innerShadow_433_615"/>
<feOffset dy="4"/>
<feGaussianBlur stdDeviation="2"/>
<feComposite in2="hardAlpha" operator="arithmetic" k2="-1" k3="1"/>
<feColorMatrix type="matrix" values="0 0 0 0 0 0 0 0 0 0 0 0 0 0 0 0 0 0 0.15 0"/>
<feBlend mode="normal" in2="shape" result="effect1_innerShadow_433_615"/>
</filter>
<filter id="filter2_i_433_615" x="244.485" y="10.2139" width="26.002" height="30.0022" filterUnits="userSpaceOnUse" color-interpolation-filters="sRGB">
<feFlood flood-opacity="0" result="BackgroundImageFix"/>
<feBlend mode="normal" in="SourceGraphic" in2="BackgroundImageFix" result="shape"/>
<feColorMatrix in="SourceAlpha" type="matrix" values="0 0 0 0 0 0 0 0 0 0 0 0 0 0 0 0 0 0 127 0" result="hardAlpha"/>
<feOffset dy="4"/>
<feGaussianBlur stdDeviation="2.5"/>
<feComposite in2="hardAlpha" operator="arithmetic" k2="-1" k3="1"/>
<feColorMatrix type="matrix" values="0 0 0 0 0 0 0 0 0 0 0 0 0 0 0 0 0 0 0.4 0"/>
<feBlend mode="normal" in2="shape" result="effect1_innerShadow_433_615"/>
</filter>
<linearGradient id="paint0_linear_433_615" x1="37.346" y1="29.6701" x2="63.6772" y2="68.8937" gradientUnits="userSpaceOnUse">
<stop stop-color="#D46A9B"/>
<stop offset="0.3" stop-color="#FB8DCE"/>
<stop offset="0.6" stop-color="#FFC7DF"/>
<stop offset="1" stop-color="#FCE6D9"/>
</linearGradient>
<linearGradient id="paint1_linear_433_615" x1="257.486" y1="10.215" x2="257.486" y2="36.215" gradientUnits="userSpaceOnUse">
<stop stop-color="#005AB1"/>
<stop offset="1" stop-color="#00264B"/>
</linearGradient>
<clipPath id="clip0_433_615">
<rect width="9" height="9" fill="white" transform="translate(54.145 40.3422) rotate(-6.2186)"/>
</clipPath>
</defs>
</svg>
