<svg width="285" height="75" viewBox="0 0 285 75" fill="none" xmlns="http://www.w3.org/2000/svg">
<path d="M0.0717773 31.9352L264.417 2.31205C272.65 1.38947 280.072 7.31552 280.994 15.5483L282.219 26.4798C283.142 34.7126 277.216 42.1344 268.983 43.057L4.63776 72.6802L0.0717773 31.9352Z" fill="white" fill-opacity="0.5"/>
<g filter="url(#filter0_i_433_556)">
<path d="M1.62256 36.7928L38.3924 32.6723C42.7832 32.1802 46.7415 35.3408 47.2336 39.7316L48.904 54.6383C49.3961 59.0291 46.2355 62.9874 41.8447 63.4794L5.07489 67.6L1.62256 36.7928Z" fill="#EDEDED" fill-opacity="0.5"/>
<path d="M9.33769 54.4811L9.22893 53.5106L12.0563 47.6987L12.821 47.613L12.9811 49.0415L12.4959 49.0959L10.4745 53.261L10.4815 53.3231L15.1903 52.7954L15.3042 53.8125L9.33769 54.4811ZM13.2811 55.6115L13.074 53.7637L13.0322 53.3203L12.3979 47.6604L13.5353 47.5329L14.4262 55.4832L13.2811 55.6115ZM17.0972 57.4479L16.1785 49.2493L17.312 49.1222L17.4203 50.0888L17.5174 50.078C17.5707 49.9462 17.6517 49.7917 17.7602 49.6144C17.8687 49.4372 18.0288 49.2751 18.2403 49.1283C18.4515 48.9788 18.7422 48.8834 19.1123 48.8419C19.5936 48.7879 20.0369 48.8614 20.442 49.0624C20.8471 49.2633 21.1827 49.5807 21.4488 50.0147C21.7176 50.4485 21.888 50.9875 21.9602 51.6319C22.0324 52.2763 21.987 52.8409 21.8238 53.3256C21.6603 53.8078 21.4049 54.1941 21.0575 54.4846C20.7098 54.7725 20.2952 54.9434 19.8139 54.9974C19.4515 55.038 19.1484 55.0103 18.9044 54.9145C18.6631 54.8184 18.4686 54.6961 18.3209 54.5475C18.1732 54.399 18.0573 54.2652 17.9733 54.1463L17.9034 54.1541L18.2579 57.3179L17.0972 57.4479ZM17.65 52.1031C17.6969 52.5224 17.7989 52.8831 17.956 53.1852C18.113 53.4873 18.3167 53.7147 18.567 53.8675C18.817 54.0176 19.109 54.074 19.4428 54.0366C19.7896 53.9977 20.0692 53.8734 20.2815 53.6635C20.4935 53.4511 20.6413 53.1791 20.7246 52.8474C20.8106 52.5154 20.8312 52.1502 20.7866 51.7516C20.7425 51.3583 20.6434 51.0117 20.4892 50.7119C20.3377 50.4118 20.134 50.1844 19.8782 50.0296C19.625 49.8745 19.3237 49.8166 18.9743 49.8557C18.6379 49.8934 18.3629 50.012 18.1494 50.2115C17.9385 50.4107 17.791 50.6723 17.7067 50.9962C17.6225 51.3201 17.6036 51.6891 17.65 52.1031ZM23.6066 48.4169L25.1827 50.5908L26.2502 48.1206L27.5196 47.9784L25.9942 51.1681L28.2033 53.9393L26.9339 54.0815L25.341 52.0038L24.2515 54.3821L22.9782 54.5248L24.4997 51.3355L22.3333 48.5595L23.6066 48.4169Z" fill="#00264B" fill-opacity="0.5"/>
<path d="M32.9116 46.6194L37.8848 50.5903L41.8556 45.6172" stroke="#3D4F60" stroke-opacity="0.5" stroke-linecap="round" stroke-linejoin="round"/>
</g>
<path d="M63.7939 34.8571L66.1326 55.7264" stroke="#00264B" stroke-opacity="0.4" stroke-linecap="round"/>
<g filter="url(#filter1_d_433_556)">
<rect x="80.1313" y="27.9949" width="32" height="31" rx="8" transform="rotate(-6.39403 80.1313 27.9949)" fill="#EDEDED" fill-opacity="0.5" shape-rendering="crispEdges"/>
<path d="M95.0152 45.9491L94.0433 37.2761L97.5159 36.8869C98.154 36.8154 98.6967 36.8504 99.1442 36.9917C99.5917 37.1331 99.9416 37.3598 100.194 37.6717C100.446 37.9808 100.596 38.3527 100.645 38.7875C100.683 39.1263 100.648 39.4318 100.542 39.7039C100.435 39.9731 100.272 40.2029 100.053 40.3933C99.8366 40.5804 99.5812 40.7248 99.2867 40.8264L99.2962 40.9111C99.6281 40.8882 99.9476 40.9468 100.255 41.0867C100.565 41.2263 100.828 41.4413 101.043 41.7316C101.258 42.0191 101.39 42.376 101.438 42.8023C101.489 43.2625 101.421 43.6861 101.233 44.0731C101.047 44.457 100.744 44.7782 100.325 45.0368C99.9047 45.2954 99.3701 45.461 98.7207 45.5338L95.0152 45.9491ZM96.6809 44.2444L98.1758 44.0769C98.6868 44.0196 99.0486 43.8805 99.2611 43.6594C99.4733 43.4355 99.561 43.1598 99.5243 42.8323C99.4974 42.5924 99.4158 42.3871 99.2795 42.2166C99.1432 42.046 98.9619 41.9206 98.7356 41.8401C98.5122 41.7594 98.2536 41.7355 97.96 41.7684L96.4228 41.9407L96.6809 44.2444ZM96.2837 40.6999L97.6431 40.5475C97.8944 40.5194 98.1125 40.4506 98.2975 40.3413C98.485 40.2288 98.626 40.0843 98.7206 39.9079C98.818 39.7312 98.8539 39.5285 98.8283 39.2998C98.7932 38.9864 98.6533 38.7463 98.4088 38.5793C98.1671 38.412 97.8429 38.3511 97.4364 38.3966L96.0431 38.5528L96.2837 40.6999Z" fill="#00264B" fill-opacity="0.5"/>
</g>
<path d="M128.214 43.235L128.269 42.3232L130.057 42.1227L130.598 35.4208L128.81 35.6213L128.888 34.7068L133.48 34.1923L133.401 35.1068L131.612 35.3072L131.071 42.0092L132.86 41.8087L132.805 42.7205L128.214 43.235Z" fill="#00264B" fill-opacity="0.5"/>
<path d="M153.526 30.6102L154.839 30.4631L155.478 36.1675C155.546 36.7745 155.464 37.3283 155.231 37.8289C154.998 38.3267 154.638 38.7386 154.152 39.0647C153.665 39.388 153.074 39.5886 152.38 39.6664C151.688 39.7439 151.069 39.6789 150.522 39.4714C149.976 39.2611 149.534 38.939 149.196 38.5051C148.859 38.0684 148.656 37.5466 148.588 36.9396L147.949 31.2352L149.257 31.0886L149.885 36.6871C149.929 37.0795 150.054 37.4185 150.26 37.7041C150.469 37.9894 150.743 38.2017 151.082 38.341C151.42 38.4775 151.808 38.5212 152.246 38.4722C152.686 38.4228 153.056 38.2941 153.356 38.0862C153.658 37.8751 153.877 37.6076 154.012 37.2837C154.15 36.9595 154.197 36.6012 154.153 36.2087L153.526 30.6102Z" fill="#00264B" fill-opacity="0.5"/>
<path d="M148.233 42.3865L157.029 41.4009L157.12 42.2139L148.325 43.1996L148.233 42.3865Z" fill="#00264B" fill-opacity="0.5"/>
<path d="M172.115 22.7182L174.454 43.5876" stroke="#00264B" stroke-opacity="0.4" stroke-linecap="round"/>
<g filter="url(#filter2_i_433_556)">
<rect x="188.453" y="15.8561" width="85" height="31" rx="8" transform="rotate(-6.39403 188.453 15.8561)" fill="#EDEDED" fill-opacity="0.5"/>
<g filter="url(#filter3_d_433_556)">
<rect x="195.855" y="19.0516" width="25" height="23" rx="7" transform="rotate(-6.39403 195.855 19.0516)" fill="white" fill-opacity="0.5" shape-rendering="crispEdges"/>
<path d="M213.143 25.1643L204.696 26.1109" stroke="#3D4F60" stroke-opacity="0.5"/>
<path d="M210.993 28.4241L205.03 29.0923" stroke="#3D4F60" stroke-opacity="0.5"/>
<path d="M213.812 31.127L205.365 32.0736" stroke="#3D4F60" stroke-opacity="0.5"/>
</g>
<path d="M244.007 22.2089L235.56 23.1555" stroke="#3D4F60" stroke-opacity="0.5"/>
<path d="M243.098 25.3294L237.136 25.9976" stroke="#3D4F60" stroke-opacity="0.5"/>
<path d="M244.675 28.1716L236.228 29.1182" stroke="#3D4F60" stroke-opacity="0.5"/>
<path d="M257.92 20.6498L266.367 19.7032" stroke="#3D4F60" stroke-opacity="0.5"/>
<path d="M260.738 23.3527L266.701 22.6845" stroke="#3D4F60" stroke-opacity="0.5"/>
<path d="M258.588 26.6124L267.035 25.6658" stroke="#3D4F60" stroke-opacity="0.5"/>
</g>
<g clip-path="url(#clip0_433_556)">
<path fill-rule="evenodd" clip-rule="evenodd" d="M108.457 47.8149L109.952 47.936L110.194 44.9458L108.699 44.8247L108.457 47.8149ZM102.115 51.8158L105.104 52.058L105.225 50.5629L102.236 50.3207L102.115 51.8158ZM105.902 49.2419L103.96 46.9558L105.103 45.9844L107.045 48.2704L105.902 49.2419ZM104.246 56.5565L103.275 55.4139L105.56 53.4703L106.531 54.613L104.246 56.5565ZM112.244 49.7557L111.273 48.613L113.557 46.6694L114.529 47.8121L112.244 49.7557ZM111.849 56.0035L113.768 58.2613L114.682 57.4836L112.763 55.2257L114.389 53.8436L109.227 51.9904L110.224 57.385L111.849 56.0035ZM109.321 59.9244L107.472 49.9264L117.039 53.3608L114.665 55.3799L116.585 57.6378L113.613 60.1638L111.695 57.906L109.321 59.9244Z" fill="#00264B" fill-opacity="0.5"/>
</g>
<defs>
<filter id="filter0_i_433_556" x="1.62256" y="31.7814" width="48.1724" height="39.8186" filterUnits="userSpaceOnUse" color-interpolation-filters="sRGB">
<feFlood flood-opacity="0" result="BackgroundImageFix"/>
<feBlend mode="normal" in="SourceGraphic" in2="BackgroundImageFix" result="shape"/>
<feColorMatrix in="SourceAlpha" type="matrix" values="0 0 0 0 0 0 0 0 0 0 0 0 0 0 0 0 0 0 127 0" result="hardAlpha"/>
<feOffset dy="4"/>
<feGaussianBlur stdDeviation="2"/>
<feComposite in2="hardAlpha" operator="arithmetic" k2="-1" k3="1"/>
<feColorMatrix type="matrix" values="0 0 0 0 0 0 0 0 0 0 0 0 0 0 0 0 0 0 0.15 0"/>
<feBlend mode="normal" in2="shape" result="effect1_innerShadow_433_556"/>
</filter>
<filter id="filter1_d_433_556" x="79.1313" y="24.4312" width="37.2534" height="39.3709" filterUnits="userSpaceOnUse" color-interpolation-filters="sRGB">
<feFlood flood-opacity="0" result="BackgroundImageFix"/>
<feColorMatrix in="SourceAlpha" type="matrix" values="0 0 0 0 0 0 0 0 0 0 0 0 0 0 0 0 0 0 127 0" result="hardAlpha"/>
<feMorphology radius="3" operator="erode" in="SourceAlpha" result="effect1_dropShadow_433_556"/>
<feOffset dy="4"/>
<feGaussianBlur stdDeviation="2"/>
<feComposite in2="hardAlpha" operator="out"/>
<feColorMatrix type="matrix" values="0 0 0 0 0 0 0 0 0 0 0 0 0 0 0 0 0 0 0.2 0"/>
<feBlend mode="normal" in2="BackgroundImageFix" result="effect1_dropShadow_433_556"/>
<feBlend mode="normal" in="SourceGraphic" in2="effect1_dropShadow_433_556" result="shape"/>
</filter>
<filter id="filter2_i_433_556" x="188.453" y="6.39001" width="87.9238" height="42.2733" filterUnits="userSpaceOnUse" color-interpolation-filters="sRGB">
<feFlood flood-opacity="0" result="BackgroundImageFix"/>
<feBlend mode="normal" in="SourceGraphic" in2="BackgroundImageFix" result="shape"/>
<feColorMatrix in="SourceAlpha" type="matrix" values="0 0 0 0 0 0 0 0 0 0 0 0 0 0 0 0 0 0 127 0" result="hardAlpha"/>
<feMorphology radius="2" operator="dilate" in="SourceAlpha" result="effect1_innerShadow_433_556"/>
<feOffset dy="4"/>
<feGaussianBlur stdDeviation="2"/>
<feComposite in2="hardAlpha" operator="arithmetic" k2="-1" k3="1"/>
<feColorMatrix type="matrix" values="0 0 0 0 0 0 0 0 0 0 0 0 0 0 0 0 0 0 0.15 0"/>
<feBlend mode="normal" in2="shape" result="effect1_innerShadow_433_556"/>
</filter>
<filter id="filter3_d_433_556" x="194.855" y="16.2675" width="29.4062" height="30.6411" filterUnits="userSpaceOnUse" color-interpolation-filters="sRGB">
<feFlood flood-opacity="0" result="BackgroundImageFix"/>
<feColorMatrix in="SourceAlpha" type="matrix" values="0 0 0 0 0 0 0 0 0 0 0 0 0 0 0 0 0 0 127 0" result="hardAlpha"/>
<feMorphology radius="3" operator="erode" in="SourceAlpha" result="effect1_dropShadow_433_556"/>
<feOffset dy="4"/>
<feGaussianBlur stdDeviation="2"/>
<feComposite in2="hardAlpha" operator="out"/>
<feColorMatrix type="matrix" values="0 0 0 0 0 0 0 0 0 0 0 0 0 0 0 0 0 0 0.25 0"/>
<feBlend mode="normal" in2="BackgroundImageFix" result="effect1_dropShadow_433_556"/>
<feBlend mode="normal" in="SourceGraphic" in2="effect1_dropShadow_433_556" result="shape"/>
</filter>
<clipPath id="clip0_433_556">
<rect width="18" height="18" fill="white" transform="translate(101.346 42.7239) rotate(4.63237)"/>
</clipPath>
</defs>
</svg>
