<svg width="9" height="10" viewBox="0 0 9 10" fill="none" xmlns="http://www.w3.org/2000/svg">
<path d="M4.78514 3.90437C4.85389 3.69812 5.14514 3.69812 5.21389 3.90437L5.61702 5.115C5.70575 5.38112 5.85525 5.62292 6.05367 5.82123C6.25208 6.01954 6.49397 6.16891 6.76014 6.25749L7.97014 6.66062C8.17639 6.72937 8.17639 7.02062 7.97014 7.08937L6.75952 7.4925C6.49339 7.58123 6.25159 7.73073 6.05328 7.92915C5.85497 8.12756 5.7056 8.36945 5.61702 8.63562L5.21389 9.84562C5.19907 9.89078 5.17036 9.93011 5.13186 9.95799C5.09337 9.98588 5.04705 10.0009 4.99952 10.0009C4.95198 10.0009 4.90566 9.98588 4.86717 9.95799C4.82867 9.93011 4.79996 9.89078 4.78514 9.84562L4.38202 8.63499C4.29335 8.36894 4.14394 8.12718 3.94564 7.92887C3.74733 7.73057 3.50557 7.58116 3.23952 7.4925L2.02889 7.08937C1.98373 7.07455 1.9444 7.04584 1.91652 7.00734C1.88863 6.96885 1.87362 6.92253 1.87362 6.875C1.87362 6.82746 1.88863 6.78114 1.91652 6.74265C1.9444 6.70415 1.98373 6.67544 2.02889 6.66062L3.23952 6.25749C3.50557 6.16883 3.74733 6.01942 3.94564 5.82112C4.14394 5.62281 4.29335 5.38105 4.38202 5.115L4.78514 3.90437ZM2.37077 0.717495C2.37973 0.690429 2.39699 0.666876 2.4201 0.650182C2.44322 0.633488 2.471 0.624503 2.49952 0.624503C2.52803 0.624503 2.55581 0.633488 2.57893 0.650182C2.60204 0.666876 2.6193 0.690429 2.62827 0.717495L2.87014 1.44374C2.97827 1.76749 3.23202 2.02125 3.55577 2.12937L4.28202 2.37124C4.30908 2.38021 4.33263 2.39747 4.34933 2.42058C4.36602 2.4437 4.37501 2.47148 4.37501 2.49999C4.37501 2.52851 4.36602 2.55629 4.34933 2.57941C4.33263 2.60252 4.30908 2.61978 4.28202 2.62874L3.55577 2.87062C3.396 2.92364 3.25082 3.01324 3.13179 3.13227C3.01276 3.2513 2.92316 3.39648 2.87014 3.55625L2.62827 4.2825C2.6193 4.30956 2.60204 4.33311 2.57893 4.34981C2.55581 4.3665 2.52803 4.37549 2.49952 4.37549C2.471 4.37549 2.44322 4.3665 2.4201 4.34981C2.39699 4.33311 2.37973 4.30956 2.37077 4.2825L2.12889 3.55625C2.07587 3.39648 1.98627 3.2513 1.86724 3.13227C1.74821 3.01324 1.60303 2.92364 1.44327 2.87062L0.717015 2.62874C0.689949 2.61978 0.666396 2.60252 0.649702 2.57941C0.633009 2.55629 0.624023 2.52851 0.624023 2.49999C0.624023 2.47148 0.633009 2.4437 0.649702 2.42058C0.666396 2.39747 0.689949 2.38021 0.717015 2.37124L1.44327 2.12937C1.60303 2.07635 1.74821 1.98675 1.86724 1.86772C1.98627 1.74869 2.07587 1.60351 2.12889 1.44374L2.37077 0.717495ZM6.78889 0.0618699C6.79506 0.0440739 6.80662 0.0286424 6.82197 0.0177209C6.83731 0.00679948 6.85568 0.000930786 6.87452 0.000930786C6.89335 0.000930786 6.91172 0.00679948 6.92706 0.0177209C6.94241 0.0286424 6.95397 0.0440739 6.96014 0.0618699L7.12139 0.54562C7.19327 0.76187 7.36264 0.931245 7.57889 1.00312L8.06264 1.16437C8.08044 1.17054 8.09587 1.1821 8.10679 1.19745C8.11771 1.21279 8.12358 1.23116 8.12358 1.24999C8.12358 1.26883 8.11771 1.2872 8.10679 1.30254C8.09587 1.31789 8.08044 1.32945 8.06264 1.33562L7.57889 1.49687C7.47241 1.53249 7.37567 1.59236 7.29628 1.67176C7.21688 1.75115 7.15702 1.84789 7.12139 1.95437L6.96014 2.43812C6.95397 2.45592 6.94241 2.47135 6.92706 2.48227C6.91172 2.49319 6.89335 2.49906 6.87452 2.49906C6.85568 2.49906 6.83731 2.49319 6.82197 2.48227C6.80662 2.47135 6.79506 2.45592 6.78889 2.43812L6.62764 1.95437C6.59201 1.84789 6.53215 1.75115 6.45275 1.67176C6.37336 1.59236 6.27662 1.53249 6.17014 1.49687L5.68702 1.33562C5.66922 1.32945 5.65379 1.31789 5.64287 1.30254C5.63194 1.2872 5.62608 1.26883 5.62608 1.24999C5.62608 1.23116 5.63194 1.21279 5.64287 1.19745C5.65379 1.1821 5.66922 1.17054 5.68702 1.16437L6.17076 1.00312C6.38701 0.931245 6.55639 0.76187 6.62827 0.54562L6.78889 0.0618699Z" fill="#CBE1FF"/>
</svg>
