<svg width="26" height="26" viewBox="0 0 26 26" fill="none" xmlns="http://www.w3.org/2000/svg">
<path d="M15.3475 15.0025L17.5103 14.8648L17.0949 8.37749L10.6076 8.79288L10.746 10.9548L13.5417 10.7765L8.1489 16.9073L9.77573 18.3383L15.1686 12.2076L15.3475 15.0025Z" fill="#00264B"/>
<path fill-rule="evenodd" clip-rule="evenodd" d="M1.08301 20.5834C1.08301 21.7326 1.53955 22.8348 2.35221 23.6475C3.16487 24.4602 4.26707 24.9167 5.41634 24.9167L20.583 24.9167C21.7323 24.9167 22.8345 24.4602 23.6471 23.6475C24.4598 22.8348 24.9163 21.7326 24.9163 20.5834L24.9163 5.41671C24.9163 4.26744 24.4598 3.16524 23.6471 2.35258C22.8345 1.53992 21.7323 1.08337 20.583 1.08337L5.41634 1.08337C4.26707 1.08337 3.16487 1.53992 2.35221 2.35258C1.53955 3.16524 1.08301 4.26744 1.08301 5.41671L1.08301 20.5834ZM5.41634 22.75L20.583 22.75C21.1576 22.75 21.7087 22.5218 22.1151 22.1154C22.5214 21.7091 22.7497 21.158 22.7497 20.5834L22.7497 5.41671C22.7497 4.84207 22.5214 4.29097 22.1151 3.88464C21.7087 3.47831 21.1576 3.25004 20.583 3.25004L5.41634 3.25004C4.84171 3.25004 4.2906 3.47831 3.88428 3.88464C3.47795 4.29097 3.24967 4.84207 3.24967 5.41671L3.24967 20.5834C3.24967 21.158 3.47795 21.7091 3.88428 22.1154C4.2906 22.5218 4.84171 22.75 5.41634 22.75Z" fill="#00264B"/>
</svg>
