<svg width="12" height="12" viewBox="0 0 12 12" fill="none" xmlns="http://www.w3.org/2000/svg">
<path d="M2.49935 9.50002L1.15768 10.8417C0.972961 11.0264 0.761405 11.0678 0.523017 10.9659C0.284628 10.864 0.165628 10.6817 0.166017 10.4188V1.33335C0.166017 1.01252 0.28035 0.737965 0.509017 0.509687C0.737683 0.281409 1.01224 0.167076 1.33268 0.166687H10.666C10.9868 0.166687 11.2616 0.28102 11.4903 0.509687C11.7189 0.738354 11.8331 1.01291 11.8327 1.33335V8.33335C11.8327 8.65419 11.7185 8.92894 11.4903 9.1576C11.262 9.38627 10.9872 9.50041 10.666 9.50002H2.49935ZM3.08268 7.16669H6.58268C6.74796 7.16669 6.8866 7.11069 6.9986 6.99869C7.1106 6.88669 7.16641 6.74824 7.16602 6.58335C7.16563 6.41846 7.10963 6.28002 6.99802 6.16802C6.88641 6.05602 6.74796 6.00002 6.58268 6.00002H3.08268C2.91741 6.00002 2.77896 6.05602 2.66735 6.16802C2.55574 6.28002 2.49974 6.41846 2.49935 6.58335C2.49896 6.74824 2.55496 6.88688 2.66735 6.99927C2.77974 7.11166 2.91818 7.16746 3.08268 7.16669ZM3.08268 5.41669H8.91602C9.08129 5.41669 9.21993 5.36069 9.33193 5.24869C9.44393 5.13669 9.49974 4.99824 9.49935 4.83335C9.49896 4.66846 9.44296 4.53002 9.33135 4.41802C9.21974 4.30602 9.08129 4.25002 8.91602 4.25002H3.08268C2.91741 4.25002 2.77896 4.30602 2.66735 4.41802C2.55574 4.53002 2.49974 4.66846 2.49935 4.83335C2.49896 4.99824 2.55496 5.13688 2.66735 5.24927C2.77974 5.36166 2.91818 5.41746 3.08268 5.41669ZM3.08268 3.66669H8.91602C9.08129 3.66669 9.21993 3.61069 9.33193 3.49869C9.44393 3.38669 9.49974 3.24824 9.49935 3.08335C9.49896 2.91846 9.44296 2.78002 9.33135 2.66802C9.21974 2.55602 9.08129 2.50002 8.91602 2.50002H3.08268C2.91741 2.50002 2.77896 2.55602 2.66735 2.66802C2.55574 2.78002 2.49974 2.91846 2.49935 3.08335C2.49896 3.24824 2.55496 3.38688 2.66735 3.49927C2.77974 3.61166 2.91818 3.66746 3.08268 3.66669Z" fill="#CBE1FF"/>
</svg>
