<svg width="10" height="12" viewBox="0 0 10 12" fill="none" xmlns="http://www.w3.org/2000/svg">
<path d="M4.99935 5.70835C4.61257 5.70835 4.24164 5.55471 3.96815 5.28122C3.69466 5.00773 3.54102 4.63679 3.54102 4.25002C3.54102 3.86325 3.69466 3.49231 3.96815 3.21882C4.24164 2.94533 4.61257 2.79169 4.99935 2.79169C5.38612 2.79169 5.75706 2.94533 6.03055 3.21882C6.30404 3.49231 6.45768 3.86325 6.45768 4.25002C6.45768 4.44153 6.41996 4.63117 6.34667 4.8081C6.27339 4.98503 6.16597 5.1458 6.03055 5.28122C5.89513 5.41664 5.73436 5.52406 5.55743 5.59734C5.3805 5.67063 5.19086 5.70835 4.99935 5.70835ZM4.99935 0.166687C3.91638 0.166687 2.87777 0.596894 2.112 1.36267C1.34622 2.12844 0.916016 3.16705 0.916016 4.25002C0.916016 7.31252 4.99935 11.8334 4.99935 11.8334C4.99935 11.8334 9.08268 7.31252 9.08268 4.25002C9.08268 3.16705 8.65247 2.12844 7.8867 1.36267C7.12093 0.596894 6.08232 0.166687 4.99935 0.166687Z" fill="#CBE1FF"/>
</svg>
