<svg width="12" height="12" viewBox="0 0 12 12" fill="none" xmlns="http://www.w3.org/2000/svg">
<path d="M10.2178 7.90166L8.7361 7.7325C8.56188 7.71203 8.38529 7.73132 8.21959 7.78891C8.0539 7.8465 7.90341 7.94089 7.77944 8.065L6.7061 9.13833C5.05025 8.29596 3.7043 6.95002 2.86193 5.29416L3.9411 4.215C4.19193 3.96416 4.31443 3.61416 4.2736 3.25833L4.10443 1.78833C4.07149 1.50372 3.93496 1.24118 3.72087 1.05076C3.50679 0.860342 3.23012 0.755362 2.9436 0.75583H1.93443C1.27527 0.75583 0.726935 1.30416 0.767768 1.96333C1.07693 6.945 5.0611 10.9233 10.0369 11.2325C10.6961 11.2733 11.2444 10.725 11.2444 10.0658V9.05666C11.2503 8.4675 10.8069 7.97166 10.2178 7.90166Z" fill="#CBE1FF"/>
</svg>
